<svg xmlns="http://www.w3.org/2000/svg" xmlns:xlink="http://www.w3.org/1999/xlink" width="760" zoomAndPan="magnify" viewBox="0 0 570 44.999999" height="60" preserveAspectRatio="xMidYMid meet" version="1.0"><defs><g/></defs><g fill="#ff0000" fill-opacity="1"><g transform="translate(4.28391, 40.890189)"><g><path d="M 14.875 -32.234375 C 17.332031 -32.234375 19.273438 -31.441406 20.703125 -29.859375 C 22.128906 -28.273438 22.84375 -26.179688 22.84375 -23.578125 C 22.84375 -22.835938 22.8125 -22.269531 22.75 -21.875 C 22.5 -19.90625 21.921875 -18.164062 21.015625 -16.65625 C 20.109375 -15.15625 18.941406 -14 17.515625 -13.1875 C 16.085938 -12.375 14.515625 -11.96875 12.796875 -11.96875 L 10.265625 -11.96875 C 10.109375 -11.96875 10.03125 -11.890625 10.03125 -11.734375 L 8.65625 -0.6875 C 8.625 -0.476562 8.539062 -0.3125 8.40625 -0.1875 C 8.269531 -0.0625 8.109375 0 7.921875 0 L 0.828125 0 C 0.640625 0 0.492188 -0.0625 0.390625 -0.1875 C 0.285156 -0.3125 0.25 -0.476562 0.28125 -0.6875 L 4.046875 -31.546875 C 4.078125 -31.753906 4.160156 -31.921875 4.296875 -32.046875 C 4.441406 -32.171875 4.601562 -32.234375 4.78125 -32.234375 Z M 11.703125 -18.65625 C 12.367188 -18.65625 12.941406 -18.90625 13.421875 -19.40625 C 13.898438 -19.914062 14.203125 -20.675781 14.328125 -21.6875 C 14.347656 -21.875 14.359375 -22.132812 14.359375 -22.46875 C 14.359375 -23.238281 14.191406 -23.820312 13.859375 -24.21875 C 13.523438 -24.613281 13.066406 -24.8125 12.484375 -24.8125 L 11.828125 -24.8125 C 11.679688 -24.8125 11.609375 -24.738281 11.609375 -24.59375 L 10.90625 -18.875 C 10.851562 -18.726562 10.914062 -18.65625 11.09375 -18.65625 Z M 11.703125 -18.65625 "/></g></g></g><g fill="#00ffff" fill-opacity="1"><g transform="translate(7.985569, 40.035593)"><g><path d="M 14.875 -32.234375 C 17.332031 -32.234375 19.273438 -31.441406 20.703125 -29.859375 C 22.128906 -28.273438 22.84375 -26.179688 22.84375 -23.578125 C 22.84375 -22.835938 22.8125 -22.269531 22.75 -21.875 C 22.5 -19.90625 21.921875 -18.164062 21.015625 -16.65625 C 20.109375 -15.15625 18.941406 -14 17.515625 -13.1875 C 16.085938 -12.375 14.515625 -11.96875 12.796875 -11.96875 L 10.265625 -11.96875 C 10.109375 -11.96875 10.03125 -11.890625 10.03125 -11.734375 L 8.65625 -0.6875 C 8.625 -0.476562 8.539062 -0.3125 8.40625 -0.1875 C 8.269531 -0.0625 8.109375 0 7.921875 0 L 0.828125 0 C 0.640625 0 0.492188 -0.0625 0.390625 -0.1875 C 0.285156 -0.3125 0.25 -0.476562 0.28125 -0.6875 L 4.046875 -31.546875 C 4.078125 -31.753906 4.160156 -31.921875 4.296875 -32.046875 C 4.441406 -32.171875 4.601562 -32.234375 4.78125 -32.234375 Z M 11.703125 -18.65625 C 12.367188 -18.65625 12.941406 -18.90625 13.421875 -19.40625 C 13.898438 -19.914062 14.203125 -20.675781 14.328125 -21.6875 C 14.347656 -21.875 14.359375 -22.132812 14.359375 -22.46875 C 14.359375 -23.238281 14.191406 -23.820312 13.859375 -24.21875 C 13.523438 -24.613281 13.066406 -24.8125 12.484375 -24.8125 L 11.828125 -24.8125 C 11.679688 -24.8125 11.609375 -24.738281 11.609375 -24.59375 L 10.90625 -18.875 C 10.851562 -18.726562 10.914062 -18.65625 11.09375 -18.65625 Z M 11.703125 -18.65625 "/></g></g></g><g fill="#ff3131" fill-opacity="1"><g transform="translate(6.13474, 40.462891)"><g><path d="M 14.875 -32.234375 C 17.332031 -32.234375 19.273438 -31.441406 20.703125 -29.859375 C 22.128906 -28.273438 22.84375 -26.179688 22.84375 -23.578125 C 22.84375 -22.835938 22.8125 -22.269531 22.75 -21.875 C 22.5 -19.90625 21.921875 -18.164062 21.015625 -16.65625 C 20.109375 -15.15625 18.941406 -14 17.515625 -13.1875 C 16.085938 -12.375 14.515625 -11.96875 12.796875 -11.96875 L 10.265625 -11.96875 C 10.109375 -11.96875 10.03125 -11.890625 10.03125 -11.734375 L 8.65625 -0.6875 C 8.625 -0.476562 8.539062 -0.3125 8.40625 -0.1875 C 8.269531 -0.0625 8.109375 0 7.921875 0 L 0.828125 0 C 0.640625 0 0.492188 -0.0625 0.390625 -0.1875 C 0.285156 -0.3125 0.25 -0.476562 0.28125 -0.6875 L 4.046875 -31.546875 C 4.078125 -31.753906 4.160156 -31.921875 4.296875 -32.046875 C 4.441406 -32.171875 4.601562 -32.234375 4.78125 -32.234375 Z M 11.703125 -18.65625 C 12.367188 -18.65625 12.941406 -18.90625 13.421875 -19.40625 C 13.898438 -19.914062 14.203125 -20.675781 14.328125 -21.6875 C 14.347656 -21.875 14.359375 -22.132812 14.359375 -22.46875 C 14.359375 -23.238281 14.191406 -23.820312 13.859375 -24.21875 C 13.523438 -24.613281 13.066406 -24.8125 12.484375 -24.8125 L 11.828125 -24.8125 C 11.679688 -24.8125 11.609375 -24.738281 11.609375 -24.59375 L 10.90625 -18.875 C 10.851562 -18.726562 10.914062 -18.65625 11.09375 -18.65625 Z M 11.703125 -18.65625 "/></g></g></g><g fill="#ff0000" fill-opacity="1"><g transform="translate(29.056749, 40.890189)"><g/></g></g><g fill="#ff0000" fill-opacity="1"><g transform="translate(41.256017, 40.890189)"><g/></g></g><g fill="#ff0000" fill-opacity="1"><g transform="translate(53.455286, 40.890189)"><g/></g></g><g fill="#00ffff" fill-opacity="1"><g transform="translate(32.758407, 40.035593)"><g/></g></g><g fill="#00ffff" fill-opacity="1"><g transform="translate(44.957676, 40.035593)"><g/></g></g><g fill="#00ffff" fill-opacity="1"><g transform="translate(57.156944, 40.035593)"><g/></g></g><g fill="#ff3131" fill-opacity="1"><g transform="translate(30.907578, 40.462891)"><g/></g></g><g fill="#ff3131" fill-opacity="1"><g transform="translate(43.106847, 40.462891)"><g/></g></g><g fill="#ff3131" fill-opacity="1"><g transform="translate(55.306115, 40.462891)"><g/></g></g><g fill="#ff0000" fill-opacity="1"><g transform="translate(65.662052, 40.890189)"><g><path d="M 9.859375 0.375 C 7.117188 0.375 4.96875 -0.367188 3.40625 -1.859375 C 1.84375 -3.347656 1.0625 -5.367188 1.0625 -7.921875 C 1.0625 -8.222656 1.09375 -8.742188 1.15625 -9.484375 L 2.8125 -22.75 C 3.175781 -25.757812 4.363281 -28.148438 6.375 -29.921875 C 8.382812 -31.703125 10.894531 -32.59375 13.90625 -32.59375 C 16.601562 -32.59375 18.742188 -31.847656 20.328125 -30.359375 C 21.910156 -28.878906 22.703125 -26.863281 22.703125 -24.3125 C 22.703125 -24.007812 22.671875 -23.488281 22.609375 -22.75 L 21 -9.484375 C 20.625 -6.472656 19.421875 -4.078125 17.390625 -2.296875 C 15.367188 -0.515625 12.859375 0.375 9.859375 0.375 Z M 10.78125 -7.046875 C 11.238281 -7.046875 11.628906 -7.226562 11.953125 -7.59375 C 12.273438 -7.96875 12.484375 -8.476562 12.578125 -9.125 L 14.28125 -23.109375 C 14.332031 -23.753906 14.25 -24.257812 14.03125 -24.625 C 13.820312 -25 13.488281 -25.1875 13.03125 -25.1875 C 12.539062 -25.1875 12.132812 -25 11.8125 -24.625 C 11.488281 -24.257812 11.296875 -23.753906 11.234375 -23.109375 L 9.53125 -9.125 C 9.5 -9 9.484375 -8.828125 9.484375 -8.609375 C 9.484375 -8.117188 9.597656 -7.734375 9.828125 -7.453125 C 10.054688 -7.179688 10.375 -7.046875 10.78125 -7.046875 Z M 10.78125 -7.046875 "/></g></g></g><g fill="#00ffff" fill-opacity="1"><g transform="translate(69.363711, 40.035593)"><g><path d="M 9.859375 0.375 C 7.117188 0.375 4.96875 -0.367188 3.40625 -1.859375 C 1.84375 -3.347656 1.0625 -5.367188 1.0625 -7.921875 C 1.0625 -8.222656 1.09375 -8.742188 1.15625 -9.484375 L 2.8125 -22.75 C 3.175781 -25.757812 4.363281 -28.148438 6.375 -29.921875 C 8.382812 -31.703125 10.894531 -32.59375 13.90625 -32.59375 C 16.601562 -32.59375 18.742188 -31.847656 20.328125 -30.359375 C 21.910156 -28.878906 22.703125 -26.863281 22.703125 -24.3125 C 22.703125 -24.007812 22.671875 -23.488281 22.609375 -22.75 L 21 -9.484375 C 20.625 -6.472656 19.421875 -4.078125 17.390625 -2.296875 C 15.367188 -0.515625 12.859375 0.375 9.859375 0.375 Z M 10.78125 -7.046875 C 11.238281 -7.046875 11.628906 -7.226562 11.953125 -7.59375 C 12.273438 -7.96875 12.484375 -8.476562 12.578125 -9.125 L 14.28125 -23.109375 C 14.332031 -23.753906 14.25 -24.257812 14.03125 -24.625 C 13.820312 -25 13.488281 -25.1875 13.03125 -25.1875 C 12.539062 -25.1875 12.132812 -25 11.8125 -24.625 C 11.488281 -24.257812 11.296875 -23.753906 11.234375 -23.109375 L 9.53125 -9.125 C 9.5 -9 9.484375 -8.828125 9.484375 -8.609375 C 9.484375 -8.117188 9.597656 -7.734375 9.828125 -7.453125 C 10.054688 -7.179688 10.375 -7.046875 10.78125 -7.046875 Z M 10.78125 -7.046875 "/></g></g></g><g fill="#ff3131" fill-opacity="1"><g transform="translate(67.512882, 40.462891)"><g><path d="M 9.859375 0.375 C 7.117188 0.375 4.96875 -0.367188 3.40625 -1.859375 C 1.84375 -3.347656 1.0625 -5.367188 1.0625 -7.921875 C 1.0625 -8.222656 1.09375 -8.742188 1.15625 -9.484375 L 2.8125 -22.75 C 3.175781 -25.757812 4.363281 -28.148438 6.375 -29.921875 C 8.382812 -31.703125 10.894531 -32.59375 13.90625 -32.59375 C 16.601562 -32.59375 18.742188 -31.847656 20.328125 -30.359375 C 21.910156 -28.878906 22.703125 -26.863281 22.703125 -24.3125 C 22.703125 -24.007812 22.671875 -23.488281 22.609375 -22.75 L 21 -9.484375 C 20.625 -6.472656 19.421875 -4.078125 17.390625 -2.296875 C 15.367188 -0.515625 12.859375 0.375 9.859375 0.375 Z M 10.78125 -7.046875 C 11.238281 -7.046875 11.628906 -7.226562 11.953125 -7.59375 C 12.273438 -7.96875 12.484375 -8.476562 12.578125 -9.125 L 14.28125 -23.109375 C 14.332031 -23.753906 14.25 -24.257812 14.03125 -24.625 C 13.820312 -25 13.488281 -25.1875 13.03125 -25.1875 C 12.539062 -25.1875 12.132812 -25 11.8125 -24.625 C 11.488281 -24.257812 11.296875 -23.753906 11.234375 -23.109375 L 9.53125 -9.125 C 9.5 -9 9.484375 -8.828125 9.484375 -8.609375 C 9.484375 -8.117188 9.597656 -7.734375 9.828125 -7.453125 C 10.054688 -7.179688 10.375 -7.046875 10.78125 -7.046875 Z M 10.78125 -7.046875 "/></g></g></g><g fill="#ff0000" fill-opacity="1"><g transform="translate(90.523524, 40.890189)"><g/></g></g><g fill="#ff0000" fill-opacity="1"><g transform="translate(102.722792, 40.890189)"><g/></g></g><g fill="#ff0000" fill-opacity="1"><g transform="translate(114.922061, 40.890189)"><g/></g></g><g fill="#00ffff" fill-opacity="1"><g transform="translate(94.225182, 40.035593)"><g/></g></g><g fill="#00ffff" fill-opacity="1"><g transform="translate(106.424451, 40.035593)"><g/></g></g><g fill="#00ffff" fill-opacity="1"><g transform="translate(118.623719, 40.035593)"><g/></g></g><g fill="#ff3131" fill-opacity="1"><g transform="translate(92.374353, 40.462891)"><g/></g></g><g fill="#ff3131" fill-opacity="1"><g transform="translate(104.573622, 40.462891)"><g/></g></g><g fill="#ff3131" fill-opacity="1"><g transform="translate(116.77289, 40.462891)"><g/></g></g><g fill="#ff0000" fill-opacity="1"><g transform="translate(127.128827, 40.890189)"><g><path d="M 12.484375 0 C 12.109375 0 11.890625 -0.195312 11.828125 -0.59375 L 10.5 -12.203125 C 10.5 -12.328125 10.453125 -12.390625 10.359375 -12.390625 C 10.234375 -12.390625 10.171875 -12.3125 10.171875 -12.15625 L 8.75 -0.6875 C 8.71875 -0.476562 8.628906 -0.3125 8.484375 -0.1875 C 8.347656 -0.0625 8.191406 0 8.015625 0 L 0.921875 0 C 0.734375 0 0.585938 -0.0625 0.484375 -0.1875 C 0.378906 -0.3125 0.34375 -0.476562 0.375 -0.6875 L 4.140625 -31.546875 C 4.171875 -31.753906 4.253906 -31.921875 4.390625 -32.046875 C 4.535156 -32.171875 4.695312 -32.234375 4.875 -32.234375 L 14.96875 -32.234375 C 17.425781 -32.234375 19.367188 -31.445312 20.796875 -29.875 C 22.222656 -28.3125 22.9375 -26.242188 22.9375 -23.671875 C 22.9375 -22.929688 22.90625 -22.363281 22.84375 -21.96875 C 22.625 -20.28125 22.144531 -18.765625 21.40625 -17.421875 C 20.675781 -16.085938 19.726562 -15.007812 18.5625 -14.1875 C 18.40625 -14.09375 18.359375 -13.984375 18.421875 -13.859375 L 20.40625 -0.78125 L 20.40625 -0.59375 C 20.40625 -0.414062 20.34375 -0.269531 20.21875 -0.15625 C 20.09375 -0.0507812 19.9375 0 19.75 0 Z M 11.921875 -24.8125 C 11.773438 -24.8125 11.703125 -24.738281 11.703125 -24.59375 L 11 -19.203125 C 11 -19.046875 11.078125 -18.96875 11.234375 -18.96875 L 11.828125 -18.96875 C 12.566406 -18.96875 13.1875 -19.289062 13.6875 -19.9375 C 14.195312 -20.582031 14.453125 -21.472656 14.453125 -22.609375 C 14.453125 -23.316406 14.285156 -23.859375 13.953125 -24.234375 C 13.617188 -24.617188 13.160156 -24.8125 12.578125 -24.8125 Z M 11.921875 -24.8125 "/></g></g></g><g fill="#00ffff" fill-opacity="1"><g transform="translate(130.830486, 40.035593)"><g><path d="M 12.484375 0 C 12.109375 0 11.890625 -0.195312 11.828125 -0.59375 L 10.5 -12.203125 C 10.5 -12.328125 10.453125 -12.390625 10.359375 -12.390625 C 10.234375 -12.390625 10.171875 -12.3125 10.171875 -12.15625 L 8.75 -0.6875 C 8.71875 -0.476562 8.628906 -0.3125 8.484375 -0.1875 C 8.347656 -0.0625 8.191406 0 8.015625 0 L 0.921875 0 C 0.734375 0 0.585938 -0.0625 0.484375 -0.1875 C 0.378906 -0.3125 0.34375 -0.476562 0.375 -0.6875 L 4.140625 -31.546875 C 4.171875 -31.753906 4.253906 -31.921875 4.390625 -32.046875 C 4.535156 -32.171875 4.695312 -32.234375 4.875 -32.234375 L 14.96875 -32.234375 C 17.425781 -32.234375 19.367188 -31.445312 20.796875 -29.875 C 22.222656 -28.3125 22.9375 -26.242188 22.9375 -23.671875 C 22.9375 -22.929688 22.90625 -22.363281 22.84375 -21.96875 C 22.625 -20.28125 22.144531 -18.765625 21.40625 -17.421875 C 20.675781 -16.085938 19.726562 -15.007812 18.5625 -14.1875 C 18.40625 -14.09375 18.359375 -13.984375 18.421875 -13.859375 L 20.40625 -0.78125 L 20.40625 -0.59375 C 20.40625 -0.414062 20.34375 -0.269531 20.21875 -0.15625 C 20.09375 -0.0507812 19.9375 0 19.75 0 Z M 11.921875 -24.8125 C 11.773438 -24.8125 11.703125 -24.738281 11.703125 -24.59375 L 11 -19.203125 C 11 -19.046875 11.078125 -18.96875 11.234375 -18.96875 L 11.828125 -18.96875 C 12.566406 -18.96875 13.1875 -19.289062 13.6875 -19.9375 C 14.195312 -20.582031 14.453125 -21.472656 14.453125 -22.609375 C 14.453125 -23.316406 14.285156 -23.859375 13.953125 -24.234375 C 13.617188 -24.617188 13.160156 -24.8125 12.578125 -24.8125 Z M 11.921875 -24.8125 "/></g></g></g><g fill="#ff3131" fill-opacity="1"><g transform="translate(128.979657, 40.462891)"><g><path d="M 12.484375 0 C 12.109375 0 11.890625 -0.195312 11.828125 -0.59375 L 10.5 -12.203125 C 10.5 -12.328125 10.453125 -12.390625 10.359375 -12.390625 C 10.234375 -12.390625 10.171875 -12.3125 10.171875 -12.15625 L 8.75 -0.6875 C 8.71875 -0.476562 8.628906 -0.3125 8.484375 -0.1875 C 8.347656 -0.0625 8.191406 0 8.015625 0 L 0.921875 0 C 0.734375 0 0.585938 -0.0625 0.484375 -0.1875 C 0.378906 -0.3125 0.34375 -0.476562 0.375 -0.6875 L 4.140625 -31.546875 C 4.171875 -31.753906 4.253906 -31.921875 4.390625 -32.046875 C 4.535156 -32.171875 4.695312 -32.234375 4.875 -32.234375 L 14.96875 -32.234375 C 17.425781 -32.234375 19.367188 -31.445312 20.796875 -29.875 C 22.222656 -28.3125 22.9375 -26.242188 22.9375 -23.671875 C 22.9375 -22.929688 22.90625 -22.363281 22.84375 -21.96875 C 22.625 -20.28125 22.144531 -18.765625 21.40625 -17.421875 C 20.675781 -16.085938 19.726562 -15.007812 18.5625 -14.1875 C 18.40625 -14.09375 18.359375 -13.984375 18.421875 -13.859375 L 20.40625 -0.78125 L 20.40625 -0.59375 C 20.40625 -0.414062 20.34375 -0.269531 20.21875 -0.15625 C 20.09375 -0.0507812 19.9375 0 19.75 0 Z M 11.921875 -24.8125 C 11.773438 -24.8125 11.703125 -24.738281 11.703125 -24.59375 L 11 -19.203125 C 11 -19.046875 11.078125 -18.96875 11.234375 -18.96875 L 11.828125 -18.96875 C 12.566406 -18.96875 13.1875 -19.289062 13.6875 -19.9375 C 14.195312 -20.582031 14.453125 -21.472656 14.453125 -22.609375 C 14.453125 -23.316406 14.285156 -23.859375 13.953125 -24.234375 C 13.617188 -24.617188 13.160156 -24.8125 12.578125 -24.8125 Z M 11.921875 -24.8125 "/></g></g></g><g fill="#ff0000" fill-opacity="1"><g transform="translate(152.270969, 40.890189)"><g/></g></g><g fill="#ff0000" fill-opacity="1"><g transform="translate(164.470237, 40.890189)"><g/></g></g><g fill="#ff0000" fill-opacity="1"><g transform="translate(176.669506, 40.890189)"><g/></g></g><g fill="#00ffff" fill-opacity="1"><g transform="translate(155.972627, 40.035593)"><g/></g></g><g fill="#00ffff" fill-opacity="1"><g transform="translate(168.171896, 40.035593)"><g/></g></g><g fill="#00ffff" fill-opacity="1"><g transform="translate(180.371164, 40.035593)"><g/></g></g><g fill="#ff3131" fill-opacity="1"><g transform="translate(154.121798, 40.462891)"><g/></g></g><g fill="#ff3131" fill-opacity="1"><g transform="translate(166.321067, 40.462891)"><g/></g></g><g fill="#ff3131" fill-opacity="1"><g transform="translate(178.520335, 40.462891)"><g/></g></g><g fill="#ff0000" fill-opacity="1"><g transform="translate(188.876272, 40.890189)"><g><path d="M 23.890625 -32.234375 C 24.078125 -32.234375 24.222656 -32.171875 24.328125 -32.046875 C 24.441406 -31.921875 24.484375 -31.753906 24.453125 -31.546875 L 23.71875 -25.515625 C 23.6875 -25.296875 23.609375 -25.125 23.484375 -25 C 23.359375 -24.875 23.191406 -24.8125 22.984375 -24.8125 L 17.640625 -24.8125 C 17.484375 -24.8125 17.40625 -24.738281 17.40625 -24.59375 L 14.453125 -0.6875 C 14.421875 -0.476562 14.34375 -0.3125 14.21875 -0.1875 C 14.101562 -0.0625 13.9375 0 13.71875 0 L 6.671875 0 C 6.460938 0 6.300781 -0.0625 6.1875 -0.1875 C 6.082031 -0.3125 6.046875 -0.476562 6.078125 -0.6875 L 9.03125 -24.59375 C 9.03125 -24.738281 8.953125 -24.8125 8.796875 -24.8125 L 3.640625 -24.8125 C 3.421875 -24.8125 3.257812 -24.875 3.15625 -25 C 3.050781 -25.125 3.015625 -25.296875 3.046875 -25.515625 L 3.78125 -31.546875 C 3.8125 -31.753906 3.894531 -31.921875 4.03125 -32.046875 C 4.164062 -32.171875 4.34375 -32.234375 4.5625 -32.234375 Z M 23.890625 -32.234375 "/></g></g></g><g fill="#00ffff" fill-opacity="1"><g transform="translate(192.577931, 40.035593)"><g><path d="M 23.890625 -32.234375 C 24.078125 -32.234375 24.222656 -32.171875 24.328125 -32.046875 C 24.441406 -31.921875 24.484375 -31.753906 24.453125 -31.546875 L 23.71875 -25.515625 C 23.6875 -25.296875 23.609375 -25.125 23.484375 -25 C 23.359375 -24.875 23.191406 -24.8125 22.984375 -24.8125 L 17.640625 -24.8125 C 17.484375 -24.8125 17.40625 -24.738281 17.40625 -24.59375 L 14.453125 -0.6875 C 14.421875 -0.476562 14.34375 -0.3125 14.21875 -0.1875 C 14.101562 -0.0625 13.9375 0 13.71875 0 L 6.671875 0 C 6.460938 0 6.300781 -0.0625 6.1875 -0.1875 C 6.082031 -0.3125 6.046875 -0.476562 6.078125 -0.6875 L 9.03125 -24.59375 C 9.03125 -24.738281 8.953125 -24.8125 8.796875 -24.8125 L 3.640625 -24.8125 C 3.421875 -24.8125 3.257812 -24.875 3.15625 -25 C 3.050781 -25.125 3.015625 -25.296875 3.046875 -25.515625 L 3.78125 -31.546875 C 3.8125 -31.753906 3.894531 -31.921875 4.03125 -32.046875 C 4.164062 -32.171875 4.34375 -32.234375 4.5625 -32.234375 Z M 23.890625 -32.234375 "/></g></g></g><g fill="#ff3131" fill-opacity="1"><g transform="translate(190.727102, 40.462891)"><g><path d="M 23.890625 -32.234375 C 24.078125 -32.234375 24.222656 -32.171875 24.328125 -32.046875 C 24.441406 -31.921875 24.484375 -31.753906 24.453125 -31.546875 L 23.71875 -25.515625 C 23.6875 -25.296875 23.609375 -25.125 23.484375 -25 C 23.359375 -24.875 23.191406 -24.8125 22.984375 -24.8125 L 17.640625 -24.8125 C 17.484375 -24.8125 17.40625 -24.738281 17.40625 -24.59375 L 14.453125 -0.6875 C 14.421875 -0.476562 14.34375 -0.3125 14.21875 -0.1875 C 14.101562 -0.0625 13.9375 0 13.71875 0 L 6.671875 0 C 6.460938 0 6.300781 -0.0625 6.1875 -0.1875 C 6.082031 -0.3125 6.046875 -0.476562 6.078125 -0.6875 L 9.03125 -24.59375 C 9.03125 -24.738281 8.953125 -24.8125 8.796875 -24.8125 L 3.640625 -24.8125 C 3.421875 -24.8125 3.257812 -24.875 3.15625 -25 C 3.050781 -25.125 3.015625 -25.296875 3.046875 -25.515625 L 3.78125 -31.546875 C 3.8125 -31.753906 3.894531 -31.921875 4.03125 -32.046875 C 4.164062 -32.171875 4.34375 -32.234375 4.5625 -32.234375 Z M 23.890625 -32.234375 "/></g></g></g><g fill="#ff0000" fill-opacity="1"><g transform="translate(214.432033, 40.890189)"><g/></g></g><g fill="#ff0000" fill-opacity="1"><g transform="translate(226.631302, 40.890189)"><g/></g></g><g fill="#ff0000" fill-opacity="1"><g transform="translate(238.83057, 40.890189)"><g/></g></g><g fill="#00ffff" fill-opacity="1"><g transform="translate(218.133692, 40.035593)"><g/></g></g><g fill="#00ffff" fill-opacity="1"><g transform="translate(230.33296, 40.035593)"><g/></g></g><g fill="#00ffff" fill-opacity="1"><g transform="translate(242.532229, 40.035593)"><g/></g></g><g fill="#ff3131" fill-opacity="1"><g transform="translate(216.282863, 40.462891)"><g/></g></g><g fill="#ff3131" fill-opacity="1"><g transform="translate(228.482131, 40.462891)"><g/></g></g><g fill="#ff3131" fill-opacity="1"><g transform="translate(240.6814, 40.462891)"><g/></g></g><g fill="#ff0000" fill-opacity="1"><g transform="translate(251.037337, 40.890189)"><g><path d="M 9.859375 0.375 C 7.117188 0.375 4.96875 -0.367188 3.40625 -1.859375 C 1.84375 -3.347656 1.0625 -5.367188 1.0625 -7.921875 C 1.0625 -8.222656 1.09375 -8.742188 1.15625 -9.484375 L 2.8125 -22.75 C 3.175781 -25.757812 4.363281 -28.148438 6.375 -29.921875 C 8.382812 -31.703125 10.894531 -32.59375 13.90625 -32.59375 C 16.601562 -32.59375 18.742188 -31.847656 20.328125 -30.359375 C 21.910156 -28.878906 22.703125 -26.863281 22.703125 -24.3125 C 22.703125 -24.007812 22.671875 -23.488281 22.609375 -22.75 L 21 -9.484375 C 20.625 -6.472656 19.421875 -4.078125 17.390625 -2.296875 C 15.367188 -0.515625 12.859375 0.375 9.859375 0.375 Z M 10.78125 -7.046875 C 11.238281 -7.046875 11.628906 -7.226562 11.953125 -7.59375 C 12.273438 -7.96875 12.484375 -8.476562 12.578125 -9.125 L 14.28125 -23.109375 C 14.332031 -23.753906 14.25 -24.257812 14.03125 -24.625 C 13.820312 -25 13.488281 -25.1875 13.03125 -25.1875 C 12.539062 -25.1875 12.132812 -25 11.8125 -24.625 C 11.488281 -24.257812 11.296875 -23.753906 11.234375 -23.109375 L 9.53125 -9.125 C 9.5 -9 9.484375 -8.828125 9.484375 -8.609375 C 9.484375 -8.117188 9.597656 -7.734375 9.828125 -7.453125 C 10.054688 -7.179688 10.375 -7.046875 10.78125 -7.046875 Z M 10.78125 -7.046875 "/></g></g></g><g fill="#00ffff" fill-opacity="1"><g transform="translate(254.738995, 40.035593)"><g><path d="M 9.859375 0.375 C 7.117188 0.375 4.96875 -0.367188 3.40625 -1.859375 C 1.84375 -3.347656 1.0625 -5.367188 1.0625 -7.921875 C 1.0625 -8.222656 1.09375 -8.742188 1.15625 -9.484375 L 2.8125 -22.75 C 3.175781 -25.757812 4.363281 -28.148438 6.375 -29.921875 C 8.382812 -31.703125 10.894531 -32.59375 13.90625 -32.59375 C 16.601562 -32.59375 18.742188 -31.847656 20.328125 -30.359375 C 21.910156 -28.878906 22.703125 -26.863281 22.703125 -24.3125 C 22.703125 -24.007812 22.671875 -23.488281 22.609375 -22.75 L 21 -9.484375 C 20.625 -6.472656 19.421875 -4.078125 17.390625 -2.296875 C 15.367188 -0.515625 12.859375 0.375 9.859375 0.375 Z M 10.78125 -7.046875 C 11.238281 -7.046875 11.628906 -7.226562 11.953125 -7.59375 C 12.273438 -7.96875 12.484375 -8.476562 12.578125 -9.125 L 14.28125 -23.109375 C 14.332031 -23.753906 14.25 -24.257812 14.03125 -24.625 C 13.820312 -25 13.488281 -25.1875 13.03125 -25.1875 C 12.539062 -25.1875 12.132812 -25 11.8125 -24.625 C 11.488281 -24.257812 11.296875 -23.753906 11.234375 -23.109375 L 9.53125 -9.125 C 9.5 -9 9.484375 -8.828125 9.484375 -8.609375 C 9.484375 -8.117188 9.597656 -7.734375 9.828125 -7.453125 C 10.054688 -7.179688 10.375 -7.046875 10.78125 -7.046875 Z M 10.78125 -7.046875 "/></g></g></g><g fill="#ff3131" fill-opacity="1"><g transform="translate(252.888166, 40.462891)"><g><path d="M 9.859375 0.375 C 7.117188 0.375 4.96875 -0.367188 3.40625 -1.859375 C 1.84375 -3.347656 1.0625 -5.367188 1.0625 -7.921875 C 1.0625 -8.222656 1.09375 -8.742188 1.15625 -9.484375 L 2.8125 -22.75 C 3.175781 -25.757812 4.363281 -28.148438 6.375 -29.921875 C 8.382812 -31.703125 10.894531 -32.59375 13.90625 -32.59375 C 16.601562 -32.59375 18.742188 -31.847656 20.328125 -30.359375 C 21.910156 -28.878906 22.703125 -26.863281 22.703125 -24.3125 C 22.703125 -24.007812 22.671875 -23.488281 22.609375 -22.75 L 21 -9.484375 C 20.625 -6.472656 19.421875 -4.078125 17.390625 -2.296875 C 15.367188 -0.515625 12.859375 0.375 9.859375 0.375 Z M 10.78125 -7.046875 C 11.238281 -7.046875 11.628906 -7.226562 11.953125 -7.59375 C 12.273438 -7.96875 12.484375 -8.476562 12.578125 -9.125 L 14.28125 -23.109375 C 14.332031 -23.753906 14.25 -24.257812 14.03125 -24.625 C 13.820312 -25 13.488281 -25.1875 13.03125 -25.1875 C 12.539062 -25.1875 12.132812 -25 11.8125 -24.625 C 11.488281 -24.257812 11.296875 -23.753906 11.234375 -23.109375 L 9.53125 -9.125 C 9.5 -9 9.484375 -8.828125 9.484375 -8.609375 C 9.484375 -8.117188 9.597656 -7.734375 9.828125 -7.453125 C 10.054688 -7.179688 10.375 -7.046875 10.78125 -7.046875 Z M 10.78125 -7.046875 "/></g></g></g><g fill="#ff0000" fill-opacity="1"><g transform="translate(275.898813, 40.890189)"><g/></g></g><g fill="#ff0000" fill-opacity="1"><g transform="translate(288.098081, 40.890189)"><g/></g></g><g fill="#ff0000" fill-opacity="1"><g transform="translate(300.29735, 40.890189)"><g/></g></g><g fill="#00ffff" fill-opacity="1"><g transform="translate(279.600471, 40.035593)"><g/></g></g><g fill="#00ffff" fill-opacity="1"><g transform="translate(291.79974, 40.035593)"><g/></g></g><g fill="#ff3131" fill-opacity="1"><g transform="translate(277.749642, 40.462891)"><g/></g></g><g fill="#ff3131" fill-opacity="1"><g transform="translate(289.948911, 40.462891)"><g/></g></g><g fill="#ff3131" fill-opacity="1"><g transform="translate(302.148179, 40.462891)"><g/></g></g><g fill="#ff0000" fill-opacity="1"><g transform="translate(312.504116, 40.890189)"><g><path d="M 21.28125 -25.515625 C 21.25 -25.296875 21.160156 -25.125 21.015625 -25 C 20.878906 -24.875 20.703125 -24.8125 20.484375 -24.8125 L 11.921875 -24.8125 C 11.773438 -24.8125 11.703125 -24.738281 11.703125 -24.59375 L 11.140625 -20.078125 C 11.078125 -19.921875 11.140625 -19.84375 11.328125 -19.84375 L 15.796875 -19.84375 C 16.003906 -19.84375 16.160156 -19.78125 16.265625 -19.65625 C 16.378906 -19.539062 16.421875 -19.375 16.390625 -19.15625 L 15.65625 -13.125 C 15.5625 -12.664062 15.300781 -12.4375 14.875 -12.4375 L 10.40625 -12.4375 C 10.25 -12.4375 10.171875 -12.359375 10.171875 -12.203125 L 8.75 -0.6875 C 8.71875 -0.476562 8.628906 -0.3125 8.484375 -0.1875 C 8.347656 -0.0625 8.191406 0 8.015625 0 L 0.921875 0 C 0.734375 0 0.585938 -0.0625 0.484375 -0.1875 C 0.378906 -0.3125 0.34375 -0.476562 0.375 -0.6875 L 4.140625 -31.546875 C 4.171875 -31.753906 4.253906 -31.921875 4.390625 -32.046875 C 4.535156 -32.171875 4.695312 -32.234375 4.875 -32.234375 L 21.40625 -32.234375 C 21.625 -32.234375 21.785156 -32.171875 21.890625 -32.046875 C 22.003906 -31.921875 22.046875 -31.753906 22.015625 -31.546875 Z M 21.28125 -25.515625 "/></g></g></g><g fill="#00ffff" fill-opacity="1"><g transform="translate(316.205775, 40.035593)"><g><path d="M 21.28125 -25.515625 C 21.25 -25.296875 21.160156 -25.125 21.015625 -25 C 20.878906 -24.875 20.703125 -24.8125 20.484375 -24.8125 L 11.921875 -24.8125 C 11.773438 -24.8125 11.703125 -24.738281 11.703125 -24.59375 L 11.140625 -20.078125 C 11.078125 -19.921875 11.140625 -19.84375 11.328125 -19.84375 L 15.796875 -19.84375 C 16.003906 -19.84375 16.160156 -19.78125 16.265625 -19.65625 C 16.378906 -19.539062 16.421875 -19.375 16.390625 -19.15625 L 15.65625 -13.125 C 15.5625 -12.664062 15.300781 -12.4375 14.875 -12.4375 L 10.40625 -12.4375 C 10.25 -12.4375 10.171875 -12.359375 10.171875 -12.203125 L 8.75 -0.6875 C 8.71875 -0.476562 8.628906 -0.3125 8.484375 -0.1875 C 8.347656 -0.0625 8.191406 0 8.015625 0 L 0.921875 0 C 0.734375 0 0.585938 -0.0625 0.484375 -0.1875 C 0.378906 -0.3125 0.34375 -0.476562 0.375 -0.6875 L 4.140625 -31.546875 C 4.171875 -31.753906 4.253906 -31.921875 4.390625 -32.046875 C 4.535156 -32.171875 4.695312 -32.234375 4.875 -32.234375 L 21.40625 -32.234375 C 21.625 -32.234375 21.785156 -32.171875 21.890625 -32.046875 C 22.003906 -31.921875 22.046875 -31.753906 22.015625 -31.546875 Z M 21.28125 -25.515625 "/></g></g></g><g fill="#ff3131" fill-opacity="1"><g transform="translate(314.354946, 40.462891)"><g><path d="M 21.28125 -25.515625 C 21.25 -25.296875 21.160156 -25.125 21.015625 -25 C 20.878906 -24.875 20.703125 -24.8125 20.484375 -24.8125 L 11.921875 -24.8125 C 11.773438 -24.8125 11.703125 -24.738281 11.703125 -24.59375 L 11.140625 -20.078125 C 11.078125 -19.921875 11.140625 -19.84375 11.328125 -19.84375 L 15.796875 -19.84375 C 16.003906 -19.84375 16.160156 -19.78125 16.265625 -19.65625 C 16.378906 -19.539062 16.421875 -19.375 16.390625 -19.15625 L 15.65625 -13.125 C 15.5625 -12.664062 15.300781 -12.4375 14.875 -12.4375 L 10.40625 -12.4375 C 10.25 -12.4375 10.171875 -12.359375 10.171875 -12.203125 L 8.75 -0.6875 C 8.71875 -0.476562 8.628906 -0.3125 8.484375 -0.1875 C 8.347656 -0.0625 8.191406 0 8.015625 0 L 0.921875 0 C 0.734375 0 0.585938 -0.0625 0.484375 -0.1875 C 0.378906 -0.3125 0.34375 -0.476562 0.375 -0.6875 L 4.140625 -31.546875 C 4.171875 -31.753906 4.253906 -31.921875 4.390625 -32.046875 C 4.535156 -32.171875 4.695312 -32.234375 4.875 -32.234375 L 21.40625 -32.234375 C 21.625 -32.234375 21.785156 -32.171875 21.890625 -32.046875 C 22.003906 -31.921875 22.046875 -31.753906 22.015625 -31.546875 Z M 21.28125 -25.515625 "/></g></g></g><g fill="#ff0000" fill-opacity="1"><g transform="translate(335.061133, 40.890189)"><g/></g></g><g fill="#ff0000" fill-opacity="1"><g transform="translate(347.260401, 40.890189)"><g/></g></g><g fill="#ff0000" fill-opacity="1"><g transform="translate(359.45967, 40.890189)"><g/></g></g><g fill="#00ffff" fill-opacity="1"><g transform="translate(338.762791, 40.035593)"><g/></g></g><g fill="#00ffff" fill-opacity="1"><g transform="translate(350.96206, 40.035593)"><g/></g></g><g fill="#00ffff" fill-opacity="1"><g transform="translate(363.161328, 40.035593)"><g/></g></g><g fill="#ff3131" fill-opacity="1"><g transform="translate(336.911962, 40.462891)"><g/></g></g><g fill="#ff3131" fill-opacity="1"><g transform="translate(349.111231, 40.462891)"><g/></g></g><g fill="#ff3131" fill-opacity="1"><g transform="translate(361.310499, 40.462891)"><g/></g></g><g fill="#ff0000" fill-opacity="1"><g transform="translate(371.666436, 40.890189)"><g><path d="M 9.859375 0.375 C 7.117188 0.375 4.96875 -0.367188 3.40625 -1.859375 C 1.84375 -3.347656 1.0625 -5.367188 1.0625 -7.921875 C 1.0625 -8.222656 1.09375 -8.742188 1.15625 -9.484375 L 2.8125 -22.75 C 3.175781 -25.757812 4.363281 -28.148438 6.375 -29.921875 C 8.382812 -31.703125 10.894531 -32.59375 13.90625 -32.59375 C 16.601562 -32.59375 18.742188 -31.847656 20.328125 -30.359375 C 21.910156 -28.878906 22.703125 -26.863281 22.703125 -24.3125 C 22.703125 -24.007812 22.671875 -23.488281 22.609375 -22.75 L 21 -9.484375 C 20.625 -6.472656 19.421875 -4.078125 17.390625 -2.296875 C 15.367188 -0.515625 12.859375 0.375 9.859375 0.375 Z M 10.78125 -7.046875 C 11.238281 -7.046875 11.628906 -7.226562 11.953125 -7.59375 C 12.273438 -7.96875 12.484375 -8.476562 12.578125 -9.125 L 14.28125 -23.109375 C 14.332031 -23.753906 14.25 -24.257812 14.03125 -24.625 C 13.820312 -25 13.488281 -25.1875 13.03125 -25.1875 C 12.539062 -25.1875 12.132812 -25 11.8125 -24.625 C 11.488281 -24.257812 11.296875 -23.753906 11.234375 -23.109375 L 9.53125 -9.125 C 9.5 -9 9.484375 -8.828125 9.484375 -8.609375 C 9.484375 -8.117188 9.597656 -7.734375 9.828125 -7.453125 C 10.054688 -7.179688 10.375 -7.046875 10.78125 -7.046875 Z M 10.78125 -7.046875 "/></g></g></g><g fill="#00ffff" fill-opacity="1"><g transform="translate(375.368095, 40.035593)"><g><path d="M 9.859375 0.375 C 7.117188 0.375 4.96875 -0.367188 3.40625 -1.859375 C 1.84375 -3.347656 1.0625 -5.367188 1.0625 -7.921875 C 1.0625 -8.222656 1.09375 -8.742188 1.15625 -9.484375 L 2.8125 -22.75 C 3.175781 -25.757812 4.363281 -28.148438 6.375 -29.921875 C 8.382812 -31.703125 10.894531 -32.59375 13.90625 -32.59375 C 16.601562 -32.59375 18.742188 -31.847656 20.328125 -30.359375 C 21.910156 -28.878906 22.703125 -26.863281 22.703125 -24.3125 C 22.703125 -24.007812 22.671875 -23.488281 22.609375 -22.75 L 21 -9.484375 C 20.625 -6.472656 19.421875 -4.078125 17.390625 -2.296875 C 15.367188 -0.515625 12.859375 0.375 9.859375 0.375 Z M 10.78125 -7.046875 C 11.238281 -7.046875 11.628906 -7.226562 11.953125 -7.59375 C 12.273438 -7.96875 12.484375 -8.476562 12.578125 -9.125 L 14.28125 -23.109375 C 14.332031 -23.753906 14.25 -24.257812 14.03125 -24.625 C 13.820312 -25 13.488281 -25.1875 13.03125 -25.1875 C 12.539062 -25.1875 12.132812 -25 11.8125 -24.625 C 11.488281 -24.257812 11.296875 -23.753906 11.234375 -23.109375 L 9.53125 -9.125 C 9.5 -9 9.484375 -8.828125 9.484375 -8.609375 C 9.484375 -8.117188 9.597656 -7.734375 9.828125 -7.453125 C 10.054688 -7.179688 10.375 -7.046875 10.78125 -7.046875 Z M 10.78125 -7.046875 "/></g></g></g><g fill="#ff3131" fill-opacity="1"><g transform="translate(373.517266, 40.462891)"><g><path d="M 9.859375 0.375 C 7.117188 0.375 4.96875 -0.367188 3.40625 -1.859375 C 1.84375 -3.347656 1.0625 -5.367188 1.0625 -7.921875 C 1.0625 -8.222656 1.09375 -8.742188 1.15625 -9.484375 L 2.8125 -22.75 C 3.175781 -25.757812 4.363281 -28.148438 6.375 -29.921875 C 8.382812 -31.703125 10.894531 -32.59375 13.90625 -32.59375 C 16.601562 -32.59375 18.742188 -31.847656 20.328125 -30.359375 C 21.910156 -28.878906 22.703125 -26.863281 22.703125 -24.3125 C 22.703125 -24.007812 22.671875 -23.488281 22.609375 -22.75 L 21 -9.484375 C 20.625 -6.472656 19.421875 -4.078125 17.390625 -2.296875 C 15.367188 -0.515625 12.859375 0.375 9.859375 0.375 Z M 10.78125 -7.046875 C 11.238281 -7.046875 11.628906 -7.226562 11.953125 -7.59375 C 12.273438 -7.96875 12.484375 -8.476562 12.578125 -9.125 L 14.28125 -23.109375 C 14.332031 -23.753906 14.25 -24.257812 14.03125 -24.625 C 13.820312 -25 13.488281 -25.1875 13.03125 -25.1875 C 12.539062 -25.1875 12.132812 -25 11.8125 -24.625 C 11.488281 -24.257812 11.296875 -23.753906 11.234375 -23.109375 L 9.53125 -9.125 C 9.5 -9 9.484375 -8.828125 9.484375 -8.609375 C 9.484375 -8.117188 9.597656 -7.734375 9.828125 -7.453125 C 10.054688 -7.179688 10.375 -7.046875 10.78125 -7.046875 Z M 10.78125 -7.046875 "/></g></g></g><g fill="#ff0000" fill-opacity="1"><g transform="translate(396.527912, 40.890189)"><g/></g></g><g fill="#ff0000" fill-opacity="1"><g transform="translate(408.727181, 40.890189)"><g/></g></g><g fill="#ff0000" fill-opacity="1"><g transform="translate(420.92645, 40.890189)"><g/></g></g><g fill="#00ffff" fill-opacity="1"><g transform="translate(400.229571, 40.035593)"><g/></g></g><g fill="#00ffff" fill-opacity="1"><g transform="translate(412.428839, 40.035593)"><g/></g></g><g fill="#00ffff" fill-opacity="1"><g transform="translate(424.628108, 40.035593)"><g/></g></g><g fill="#ff3131" fill-opacity="1"><g transform="translate(398.378742, 40.462891)"><g/></g></g><g fill="#ff3131" fill-opacity="1"><g transform="translate(410.57801, 40.462891)"><g/></g></g><g fill="#ff3131" fill-opacity="1"><g transform="translate(422.777279, 40.462891)"><g/></g></g><g fill="#ff0000" fill-opacity="1"><g transform="translate(433.133216, 40.890189)"><g><path d="M 0.921875 0 C 0.734375 0 0.585938 -0.0625 0.484375 -0.1875 C 0.378906 -0.3125 0.34375 -0.476562 0.375 -0.6875 L 4.140625 -31.546875 C 4.171875 -31.753906 4.253906 -31.921875 4.390625 -32.046875 C 4.535156 -32.171875 4.695312 -32.234375 4.875 -32.234375 L 11.96875 -32.234375 C 12.15625 -32.234375 12.300781 -32.171875 12.40625 -32.046875 C 12.519531 -31.921875 12.5625 -31.753906 12.53125 -31.546875 L 9.625 -7.640625 C 9.5625 -7.484375 9.625 -7.40625 9.8125 -7.40625 L 18.5625 -7.40625 C 18.769531 -7.40625 18.925781 -7.34375 19.03125 -7.21875 C 19.144531 -7.101562 19.1875 -6.9375 19.15625 -6.71875 L 18.421875 -0.6875 C 18.328125 -0.226562 18.066406 0 17.640625 0 Z M 0.921875 0 "/></g></g></g><g fill="#00ffff" fill-opacity="1"><g transform="translate(436.834874, 40.035593)"><g><path d="M 0.921875 0 C 0.734375 0 0.585938 -0.0625 0.484375 -0.1875 C 0.378906 -0.3125 0.34375 -0.476562 0.375 -0.6875 L 4.140625 -31.546875 C 4.171875 -31.753906 4.253906 -31.921875 4.390625 -32.046875 C 4.535156 -32.171875 4.695312 -32.234375 4.875 -32.234375 L 11.96875 -32.234375 C 12.15625 -32.234375 12.300781 -32.171875 12.40625 -32.046875 C 12.519531 -31.921875 12.5625 -31.753906 12.53125 -31.546875 L 9.625 -7.640625 C 9.5625 -7.484375 9.625 -7.40625 9.8125 -7.40625 L 18.5625 -7.40625 C 18.769531 -7.40625 18.925781 -7.34375 19.03125 -7.21875 C 19.144531 -7.101562 19.1875 -6.9375 19.15625 -6.71875 L 18.421875 -0.6875 C 18.328125 -0.226562 18.066406 0 17.640625 0 Z M 0.921875 0 "/></g></g></g><g fill="#ff3131" fill-opacity="1"><g transform="translate(434.984045, 40.462891)"><g><path d="M 0.921875 0 C 0.734375 0 0.585938 -0.0625 0.484375 -0.1875 C 0.378906 -0.3125 0.34375 -0.476562 0.375 -0.6875 L 4.140625 -31.546875 C 4.171875 -31.753906 4.253906 -31.921875 4.390625 -32.046875 C 4.535156 -32.171875 4.695312 -32.234375 4.875 -32.234375 L 11.96875 -32.234375 C 12.15625 -32.234375 12.300781 -32.171875 12.40625 -32.046875 C 12.519531 -31.921875 12.5625 -31.753906 12.53125 -31.546875 L 9.625 -7.640625 C 9.5625 -7.484375 9.625 -7.40625 9.8125 -7.40625 L 18.5625 -7.40625 C 18.769531 -7.40625 18.925781 -7.34375 19.03125 -7.21875 C 19.144531 -7.101562 19.1875 -6.9375 19.15625 -6.71875 L 18.421875 -0.6875 C 18.328125 -0.226562 18.066406 0 17.640625 0 Z M 0.921875 0 "/></g></g></g><g fill="#ff0000" fill-opacity="1"><g transform="translate(456.340206, 40.890189)"><g/></g></g><g fill="#ff0000" fill-opacity="1"><g transform="translate(468.539474, 40.890189)"><g/></g></g><g fill="#ff0000" fill-opacity="1"><g transform="translate(480.738743, 40.890189)"><g/></g></g><g fill="#00ffff" fill-opacity="1"><g transform="translate(460.041864, 40.035593)"><g/></g></g><g fill="#00ffff" fill-opacity="1"><g transform="translate(472.241133, 40.035593)"><g/></g></g><g fill="#00ffff" fill-opacity="1"><g transform="translate(484.440401, 40.035593)"><g/></g></g><g fill="#ff3131" fill-opacity="1"><g transform="translate(458.191035, 40.462891)"><g/></g></g><g fill="#ff3131" fill-opacity="1"><g transform="translate(470.390304, 40.462891)"><g/></g></g><g fill="#ff3131" fill-opacity="1"><g transform="translate(482.589572, 40.462891)"><g/></g></g><g fill="#ff0000" fill-opacity="1"><g transform="translate(492.945509, 40.890189)"><g><path d="M 0.921875 0 C 0.734375 0 0.585938 -0.0625 0.484375 -0.1875 C 0.378906 -0.3125 0.34375 -0.476562 0.375 -0.6875 L 4.140625 -31.546875 C 4.171875 -31.753906 4.253906 -31.921875 4.390625 -32.046875 C 4.535156 -32.171875 4.695312 -32.234375 4.875 -32.234375 L 11.96875 -32.234375 C 12.15625 -32.234375 12.300781 -32.171875 12.40625 -32.046875 C 12.519531 -31.921875 12.5625 -31.753906 12.53125 -31.546875 L 8.75 -0.6875 C 8.71875 -0.476562 8.628906 -0.3125 8.484375 -0.1875 C 8.347656 -0.0625 8.191406 0 8.015625 0 Z M 0.921875 0 "/></g></g></g><g fill="#00ffff" fill-opacity="1"><g transform="translate(496.647168, 40.035593)"><g><path d="M 0.921875 0 C 0.734375 0 0.585938 -0.0625 0.484375 -0.1875 C 0.378906 -0.3125 0.34375 -0.476562 0.375 -0.6875 L 4.140625 -31.546875 C 4.171875 -31.753906 4.253906 -31.921875 4.390625 -32.046875 C 4.535156 -32.171875 4.695312 -32.234375 4.875 -32.234375 L 11.96875 -32.234375 C 12.15625 -32.234375 12.300781 -32.171875 12.40625 -32.046875 C 12.519531 -31.921875 12.5625 -31.753906 12.53125 -31.546875 L 8.75 -0.6875 C 8.71875 -0.476562 8.628906 -0.3125 8.484375 -0.1875 C 8.347656 -0.0625 8.191406 0 8.015625 0 Z M 0.921875 0 "/></g></g></g><g fill="#ff3131" fill-opacity="1"><g transform="translate(494.796339, 40.462891)"><g><path d="M 0.921875 0 C 0.734375 0 0.585938 -0.0625 0.484375 -0.1875 C 0.378906 -0.3125 0.34375 -0.476562 0.375 -0.6875 L 4.140625 -31.546875 C 4.171875 -31.753906 4.253906 -31.921875 4.390625 -32.046875 C 4.535156 -32.171875 4.695312 -32.234375 4.875 -32.234375 L 11.96875 -32.234375 C 12.15625 -32.234375 12.300781 -32.171875 12.40625 -32.046875 C 12.519531 -31.921875 12.5625 -31.753906 12.53125 -31.546875 L 8.75 -0.6875 C 8.71875 -0.476562 8.628906 -0.3125 8.484375 -0.1875 C 8.347656 -0.0625 8.191406 0 8.015625 0 Z M 0.921875 0 "/></g></g></g><g fill="#ff0000" fill-opacity="1"><g transform="translate(506.949475, 40.890189)"><g/></g></g><g fill="#ff0000" fill-opacity="1"><g transform="translate(519.148744, 40.890189)"><g/></g></g><g fill="#ff0000" fill-opacity="1"><g transform="translate(531.348012, 40.890189)"><g/></g></g><g fill="#00ffff" fill-opacity="1"><g transform="translate(510.651134, 40.035593)"><g/></g></g><g fill="#00ffff" fill-opacity="1"><g transform="translate(522.850402, 40.035593)"><g/></g></g><g fill="#00ffff" fill-opacity="1"><g transform="translate(535.049671, 40.035593)"><g/></g></g><g fill="#ff3131" fill-opacity="1"><g transform="translate(508.800305, 40.462891)"><g/></g></g><g fill="#ff3131" fill-opacity="1"><g transform="translate(533.198842, 40.462891)"><g/></g></g><g fill="#ff0000" fill-opacity="1"><g transform="translate(543.554779, 40.890189)"><g><path d="M 9.859375 0.375 C 7.117188 0.375 4.96875 -0.367188 3.40625 -1.859375 C 1.84375 -3.347656 1.0625 -5.367188 1.0625 -7.921875 C 1.0625 -8.222656 1.09375 -8.742188 1.15625 -9.484375 L 2.8125 -22.75 C 3.175781 -25.757812 4.363281 -28.148438 6.375 -29.921875 C 8.382812 -31.703125 10.894531 -32.59375 13.90625 -32.59375 C 16.601562 -32.59375 18.742188 -31.847656 20.328125 -30.359375 C 21.910156 -28.878906 22.703125 -26.863281 22.703125 -24.3125 C 22.703125 -24.007812 22.671875 -23.488281 22.609375 -22.75 L 21 -9.484375 C 20.625 -6.472656 19.421875 -4.078125 17.390625 -2.296875 C 15.367188 -0.515625 12.859375 0.375 9.859375 0.375 Z M 10.78125 -7.046875 C 11.238281 -7.046875 11.628906 -7.226562 11.953125 -7.59375 C 12.273438 -7.96875 12.484375 -8.476562 12.578125 -9.125 L 14.28125 -23.109375 C 14.332031 -23.753906 14.25 -24.257812 14.03125 -24.625 C 13.820312 -25 13.488281 -25.1875 13.03125 -25.1875 C 12.539062 -25.1875 12.132812 -25 11.8125 -24.625 C 11.488281 -24.257812 11.296875 -23.753906 11.234375 -23.109375 L 9.53125 -9.125 C 9.5 -9 9.484375 -8.828125 9.484375 -8.609375 C 9.484375 -8.117188 9.597656 -7.734375 9.828125 -7.453125 C 10.054688 -7.179688 10.375 -7.046875 10.78125 -7.046875 Z M 10.78125 -7.046875 "/></g></g></g><g fill="#00ffff" fill-opacity="1"><g transform="translate(547.256437, 40.035593)"><g><path d="M 9.859375 0.375 C 7.117188 0.375 4.96875 -0.367188 3.40625 -1.859375 C 1.84375 -3.347656 1.0625 -5.367188 1.0625 -7.921875 C 1.0625 -8.222656 1.09375 -8.742188 1.15625 -9.484375 L 2.8125 -22.75 C 3.175781 -25.757812 4.363281 -28.148438 6.375 -29.921875 C 8.382812 -31.703125 10.894531 -32.59375 13.90625 -32.59375 C 16.601562 -32.59375 18.742188 -31.847656 20.328125 -30.359375 C 21.910156 -28.878906 22.703125 -26.863281 22.703125 -24.3125 C 22.703125 -24.007812 22.671875 -23.488281 22.609375 -22.75 L 21 -9.484375 C 20.625 -6.472656 19.421875 -4.078125 17.390625 -2.296875 C 15.367188 -0.515625 12.859375 0.375 9.859375 0.375 Z M 10.78125 -7.046875 C 11.238281 -7.046875 11.628906 -7.226562 11.953125 -7.59375 C 12.273438 -7.96875 12.484375 -8.476562 12.578125 -9.125 L 14.28125 -23.109375 C 14.332031 -23.753906 14.25 -24.257812 14.03125 -24.625 C 13.820312 -25 13.488281 -25.1875 13.03125 -25.1875 C 12.539062 -25.1875 12.132812 -25 11.8125 -24.625 C 11.488281 -24.257812 11.296875 -23.753906 11.234375 -23.109375 L 9.53125 -9.125 C 9.5 -9 9.484375 -8.828125 9.484375 -8.609375 C 9.484375 -8.117188 9.597656 -7.734375 9.828125 -7.453125 C 10.054688 -7.179688 10.375 -7.046875 10.78125 -7.046875 Z M 10.78125 -7.046875 "/></g></g></g><g fill="#ff3131" fill-opacity="1"><g transform="translate(545.405608, 40.462891)"><g><path d="M 9.859375 0.375 C 7.117188 0.375 4.96875 -0.367188 3.40625 -1.859375 C 1.84375 -3.347656 1.0625 -5.367188 1.0625 -7.921875 C 1.0625 -8.222656 1.09375 -8.742188 1.15625 -9.484375 L 2.8125 -22.75 C 3.175781 -25.757812 4.363281 -28.148438 6.375 -29.921875 C 8.382812 -31.703125 10.894531 -32.59375 13.90625 -32.59375 C 16.601562 -32.59375 18.742188 -31.847656 20.328125 -30.359375 C 21.910156 -28.878906 22.703125 -26.863281 22.703125 -24.3125 C 22.703125 -24.007812 22.671875 -23.488281 22.609375 -22.75 L 21 -9.484375 C 20.625 -6.472656 19.421875 -4.078125 17.390625 -2.296875 C 15.367188 -0.515625 12.859375 0.375 9.859375 0.375 Z M 10.78125 -7.046875 C 11.238281 -7.046875 11.628906 -7.226562 11.953125 -7.59375 C 12.273438 -7.96875 12.484375 -8.476562 12.578125 -9.125 L 14.28125 -23.109375 C 14.332031 -23.753906 14.25 -24.257812 14.03125 -24.625 C 13.820312 -25 13.488281 -25.1875 13.03125 -25.1875 C 12.539062 -25.1875 12.132812 -25 11.8125 -24.625 C 11.488281 -24.257812 11.296875 -23.753906 11.234375 -23.109375 L 9.53125 -9.125 C 9.5 -9 9.484375 -8.828125 9.484375 -8.609375 C 9.484375 -8.117188 9.597656 -7.734375 9.828125 -7.453125 C 10.054688 -7.179688 10.375 -7.046875 10.78125 -7.046875 Z M 10.78125 -7.046875 "/></g></g></g><g fill="#ff0000" fill-opacity="1"><g transform="translate(568.416255, 40.890189)"><g/></g></g></svg>