<svg xmlns="http://www.w3.org/2000/svg" xmlns:xlink="http://www.w3.org/1999/xlink" width="40" zoomAndPan="magnify" viewBox="0 0 30 30.000001" height="40" preserveAspectRatio="xMidYMid meet" version="1.0"><defs><clipPath id="0e981992d8"><path d="M 7.371094 1.3125 L 19.710938 1.3125 L 19.710938 27.441406 L 7.371094 27.441406 Z M 7.371094 1.3125 " clip-rule="nonzero"/></clipPath></defs><g clip-path="url(#0e981992d8)"><path fill="#eb5a3c" d="M 14.90625 27.53125 C 15.242188 27.457031 15.582031 27.230469 15.847656 27.261719 C 16.820312 27.375 17.113281 26.785156 17.355469 26.050781 C 18.382812 22.953125 19.175781 19.800781 19.566406 16.554688 C 19.710938 15.394531 19.398438 15.109375 18.257812 15.363281 C 18.117188 15.394531 17.980469 15.449219 17.839844 15.488281 C 17.363281 15.617188 17.148438 15.96875 17.230469 16.40625 C 17.308594 16.835938 17.207031 17.21875 17.128906 17.609375 C 16.929688 18.609375 16.699219 19.601562 16.480469 20.597656 C 16.425781 20.628906 16.371094 20.632812 16.3125 20.613281 C 16.222656 19.535156 16.09375 18.464844 16.046875 17.390625 C 15.921875 14.632812 15.261719 11.921875 15.390625 9.132812 C 15.449219 7.804688 15.230469 6.457031 15.042969 5.132812 C 14.890625 4.089844 14.96875 3.035156 14.75 2.003906 C 14.640625 1.476562 14.503906 1.378906 14.078125 1.691406 C 13.222656 2.304688 12.371094 2.949219 12.648438 4.222656 C 12.695312 4.445312 12.671875 4.6875 12.695312 4.921875 C 12.914062 7.09375 13.039062 9.277344 13.175781 11.457031 C 13.328125 13.8125 13.484375 16.167969 13.648438 18.523438 C 13.699219 19.308594 13.773438 20.09375 13.84375 20.957031 C 13.457031 20.714844 13.34375 20.402344 13.167969 20.148438 C 12.574219 19.277344 11.867188 18.503906 11.1875 17.707031 C 10.144531 16.488281 8.757812 17.011719 7.90625 17.605469 C 7.75 17.71875 7.660156 17.859375 7.875 18.015625 C 8.53125 18.484375 8.921875 19.183594 9.367188 19.824219 C 10.660156 21.660156 11.8125 23.582031 12.964844 25.503906 C 13.265625 26.003906 13.5625 26.507812 13.855469 27.007812 C 14.089844 27.417969 14.347656 27.652344 14.90625 27.53125 Z M 16.4375 20.953125 C 16.445312 20.96875 16.449219 20.980469 16.457031 20.996094 C 16.449219 20.984375 16.441406 20.972656 16.433594 20.964844 C 16.433594 20.960938 16.4375 20.957031 16.4375 20.953125 Z M 16.4375 20.953125 " fill-opacity="1" fill-rule="nonzero"/></g></svg>