<svg xmlns="http://www.w3.org/2000/svg" xmlns:xlink="http://www.w3.org/1999/xlink" width="40" zoomAndPan="magnify" viewBox="0 0 30 30.000001" height="40" preserveAspectRatio="xMidYMid meet" version="1.0"><defs><clipPath id="af486ab277"><path d="M 5.1875 7.027344 L 24.808594 7.027344 L 24.808594 10.667969 L 5.1875 10.667969 Z M 5.1875 7.027344 " clip-rule="nonzero"/></clipPath><clipPath id="78c39cf9e3"><path d="M 6.652344 7.039062 L 23.347656 7.039062 C 24.148438 7.039062 24.796875 7.691406 24.796875 8.492188 L 24.796875 9.21875 C 24.796875 10.019531 24.148438 10.667969 23.347656 10.667969 L 6.652344 10.667969 C 5.851562 10.667969 5.203125 10.019531 5.203125 9.21875 L 5.203125 8.492188 C 5.203125 7.691406 5.851562 7.039062 6.652344 7.039062 Z M 6.652344 7.039062 " clip-rule="nonzero"/></clipPath><clipPath id="0752c75ab1"><path d="M 5.1875 12.542969 L 24.808594 12.542969 L 24.808594 16.183594 L 5.1875 16.183594 Z M 5.1875 12.542969 " clip-rule="nonzero"/></clipPath><clipPath id="c7ca93c769"><path d="M 6.652344 12.554688 L 23.347656 12.554688 C 24.148438 12.554688 24.796875 13.207031 24.796875 14.007812 L 24.796875 14.734375 C 24.796875 15.535156 24.148438 16.183594 23.347656 16.183594 L 6.652344 16.183594 C 5.851562 16.183594 5.203125 15.535156 5.203125 14.734375 L 5.203125 14.007812 C 5.203125 13.207031 5.851562 12.554688 6.652344 12.554688 Z M 6.652344 12.554688 " clip-rule="nonzero"/></clipPath><clipPath id="3497a3a813"><path d="M 5.1875 18.347656 L 24.808594 18.347656 L 24.808594 21.992188 L 5.1875 21.992188 Z M 5.1875 18.347656 " clip-rule="nonzero"/></clipPath><clipPath id="63f4dc4090"><path d="M 6.652344 18.363281 L 23.347656 18.363281 C 24.148438 18.363281 24.796875 19.011719 24.796875 19.816406 L 24.796875 20.539062 C 24.796875 21.34375 24.148438 21.992188 23.347656 21.992188 L 6.652344 21.992188 C 5.851562 21.992188 5.203125 21.34375 5.203125 20.539062 L 5.203125 19.816406 C 5.203125 19.011719 5.851562 18.363281 6.652344 18.363281 Z M 6.652344 18.363281 " clip-rule="nonzero"/></clipPath></defs><g clip-path="url(#af486ab277)"><g clip-path="url(#78c39cf9e3)"><path fill="#ff914d" d="M 5.203125 7.039062 L 24.792969 7.039062 L 24.792969 10.667969 L 5.203125 10.667969 Z M 5.203125 7.039062 " fill-opacity="1" fill-rule="nonzero"/></g></g><g clip-path="url(#0752c75ab1)"><g clip-path="url(#c7ca93c769)"><path fill="#ff914d" d="M 5.203125 12.554688 L 24.792969 12.554688 L 24.792969 16.183594 L 5.203125 16.183594 Z M 5.203125 12.554688 " fill-opacity="1" fill-rule="nonzero"/></g></g><g clip-path="url(#3497a3a813)"><g clip-path="url(#63f4dc4090)"><path fill="#ff914d" d="M 5.203125 18.363281 L 24.792969 18.363281 L 24.792969 21.992188 L 5.203125 21.992188 Z M 5.203125 18.363281 " fill-opacity="1" fill-rule="nonzero"/></g></g></svg>