<svg xmlns="http://www.w3.org/2000/svg" xmlns:xlink="http://www.w3.org/1999/xlink" width="500" zoomAndPan="magnify" viewBox="0 0 375 374.999991" height="500" preserveAspectRatio="xMidYMid meet" version="1.2"><defs><clipPath id="6adb0b0907"><path d="M 1.261719 296 L 374.761719 296 L 374.761719 335.25 L 1.261719 335.25 Z M 1.261719 296 "/></clipPath><clipPath id="e593052d86"><path d="M 114 325 L 374 325 L 374 335.25 L 114 335.25 Z M 114 325 "/></clipPath><clipPath id="8c40fbc6ad"><path d="M 1.261719 220 L 374.761719 220 L 374.761719 328 L 1.261719 328 Z M 1.261719 220 "/></clipPath><clipPath id="80e9f633bf"><path d="M 33 37.5 L 343 37.5 L 343 221 L 33 221 Z M 33 37.5 "/></clipPath><filter x="0%" y="0%" width="100%" filterUnits="objectBoundingBox" id="c5076ae5d1" height="100%"><feColorMatrix values="0 0 0 0 1 0 0 0 0 1 0 0 0 0 1 0 0 0 1 0" type="matrix" in="SourceGraphic"/></filter><clipPath id="790d245c1d"><path d="M 222 34 L 244 34 L 244 44.878906 L 222 44.878906 Z M 222 34 "/></clipPath><clipPath id="957445f080"><path d="M 103 34 L 125 34 L 125 44.878906 L 103 44.878906 Z M 103 34 "/></clipPath><clipPath id="83d9b8ac82"><path d="M 127 34 L 197 34 L 197 44.878906 L 127 44.878906 Z M 127 34 "/></clipPath><clipPath id="1c4036a9ed"><path d="M 198 34 L 220 34 L 220 44.878906 L 198 44.878906 Z M 198 34 "/></clipPath><clipPath id="d5726e8c28"><path d="M 246 34 L 315 34 L 315 44.878906 L 246 44.878906 Z M 246 34 "/></clipPath><clipPath id="292eb65570"><path d="M 79 34 L 101 34 L 101 44.878906 L 79 44.878906 Z M 79 34 "/></clipPath><clipPath id="48d17ec938"><path d="M 1 34 L 77 34 L 77 44.878906 L 1 44.878906 Z M 1 34 "/></clipPath><clipPath id="2c40b6e453"><rect x="0" width="316" y="0" height="45"/></clipPath></defs><g id="08a11a7563"><g clip-rule="nonzero" clip-path="url(#6adb0b0907)"><path style=" stroke:none;fill-rule:nonzero;fill:#9d9d9e;fill-opacity:1;" d="M 374.308594 325.339844 L 373.707031 326.484375 L 371.398438 330.839844 C 369.976562 333.519531 366.6875 335.257812 363.050781 335.257812 L 13.476562 335.257812 C 10.117188 335.257812 7.082031 333.753906 5.523438 331.367188 L 1.714844 325.339844 L 192.371094 296.191406 Z M 374.308594 325.339844 "/><path style=" stroke:none;fill-rule:nonzero;fill:#232323;fill-opacity:0.15;" d="M 374.308594 325.339844 L 373.707031 326.484375 L 371.398438 330.839844 C 369.976562 333.519531 366.6875 335.257812 363.050781 335.257812 L 13.476562 335.257812 C 10.117188 335.257812 7.082031 333.753906 5.523438 331.367188 L 1.714844 325.339844 L 192.371094 296.191406 Z M 374.308594 325.339844 "/></g><g clip-rule="nonzero" clip-path="url(#e593052d86)"><path style=" stroke:none;fill-rule:nonzero;fill:#232323;fill-opacity:0.15;" d="M 373.667969 326.484375 L 371.359375 330.839844 C 369.933594 333.519531 366.648438 335.257812 363.011719 335.257812 L 114.964844 335.257812 C 192.449219 330.929688 271.277344 333.59375 349.234375 330.457031 C 357.695312 330.121094 367.023438 329.472656 372.660156 325.917969 Z M 373.667969 326.484375 "/></g><g clip-rule="nonzero" clip-path="url(#8c40fbc6ad)"><path style=" stroke:none;fill-rule:nonzero;fill:#9d9d9e;fill-opacity:1;" d="M 371.636719 327.246094 L 4.386719 327.246094 C 4.171875 327.246094 3.957031 327.222656 3.75 327.171875 C 3.539062 327.121094 3.339844 327.046875 3.148438 326.953125 C 2.953125 326.855469 2.777344 326.738281 2.613281 326.597656 C 2.449219 326.457031 2.300781 326.300781 2.171875 326.128906 C 2.046875 325.957031 1.9375 325.769531 1.855469 325.570312 C 1.769531 325.375 1.710938 325.167969 1.671875 324.957031 C 1.636719 324.746094 1.625 324.53125 1.640625 324.316406 C 1.652344 324.101562 1.691406 323.890625 1.753906 323.683594 L 33.042969 222.5625 C 33.128906 222.28125 33.257812 222.019531 33.429688 221.78125 C 33.597656 221.539062 33.800781 221.332031 34.039062 221.160156 C 34.277344 220.984375 34.535156 220.851562 34.8125 220.761719 C 35.09375 220.667969 35.378906 220.625 35.671875 220.625 L 340.351562 220.625 C 340.644531 220.625 340.929688 220.667969 341.210938 220.761719 C 341.488281 220.851562 341.746094 220.984375 341.984375 221.160156 C 342.222656 221.332031 342.425781 221.539062 342.59375 221.78125 C 342.765625 222.019531 342.894531 222.28125 342.980469 222.5625 L 374.308594 323.699219 C 374.371094 323.90625 374.40625 324.117188 374.421875 324.335938 C 374.433594 324.550781 374.417969 324.765625 374.382812 324.976562 C 374.34375 325.191406 374.28125 325.394531 374.195312 325.59375 C 374.109375 325.792969 374 325.976562 373.871094 326.152344 C 373.742188 326.324219 373.59375 326.476562 373.425781 326.617188 C 373.257812 326.753906 373.078125 326.871094 372.886719 326.964844 C 372.691406 327.058594 372.488281 327.132812 372.277344 327.179688 C 372.066406 327.226562 371.855469 327.25 371.636719 327.246094 Z M 371.636719 327.246094 "/></g><g clip-rule="nonzero" clip-path="url(#80e9f633bf)"><path style=" stroke:none;fill-rule:nonzero;fill:#232323;fill-opacity:1;" d="M 37.933594 37.492188 L 338.089844 37.492188 C 338.371094 37.492188 338.648438 37.519531 338.925781 37.574219 C 339.203125 37.628906 339.472656 37.710938 339.730469 37.820312 C 339.992188 37.925781 340.238281 38.058594 340.472656 38.214844 C 340.707031 38.375 340.925781 38.550781 341.125 38.75 C 341.324219 38.949219 341.5 39.167969 341.660156 39.402344 C 341.816406 39.636719 341.949219 39.882812 342.054688 40.144531 C 342.164062 40.40625 342.246094 40.675781 342.300781 40.953125 C 342.355469 41.226562 342.382812 41.507812 342.382812 41.789062 L 342.382812 216.542969 C 342.382812 216.824219 342.355469 217.105469 342.300781 217.378906 C 342.246094 217.65625 342.164062 217.925781 342.054688 218.1875 C 341.949219 218.449219 341.816406 218.695312 341.660156 218.929688 C 341.5 219.164062 341.324219 219.382812 341.125 219.582031 C 340.925781 219.78125 340.707031 219.960938 340.472656 220.117188 C 340.238281 220.273438 339.992188 220.40625 339.730469 220.511719 C 339.472656 220.621094 339.203125 220.703125 338.925781 220.757812 C 338.648438 220.8125 338.371094 220.839844 338.089844 220.839844 L 37.933594 220.839844 C 37.652344 220.839844 37.375 220.8125 37.097656 220.757812 C 36.820312 220.703125 36.554688 220.621094 36.292969 220.511719 C 36.03125 220.40625 35.785156 220.273438 35.550781 220.117188 C 35.316406 219.960938 35.097656 219.78125 34.898438 219.582031 C 34.699219 219.382812 34.523438 219.164062 34.367188 218.929688 C 34.207031 218.695312 34.078125 218.449219 33.96875 218.1875 C 33.859375 217.925781 33.78125 217.65625 33.722656 217.378906 C 33.667969 217.105469 33.640625 216.824219 33.640625 216.542969 L 33.640625 41.789062 C 33.640625 41.507812 33.667969 41.226562 33.722656 40.953125 C 33.78125 40.675781 33.859375 40.40625 33.96875 40.144531 C 34.078125 39.882812 34.207031 39.636719 34.367188 39.402344 C 34.523438 39.167969 34.699219 38.949219 34.898438 38.75 C 35.097656 38.550781 35.316406 38.375 35.550781 38.214844 C 35.785156 38.058594 36.03125 37.925781 36.292969 37.820312 C 36.554688 37.710938 36.820312 37.628906 37.097656 37.574219 C 37.375 37.519531 37.652344 37.492188 37.933594 37.492188 Z M 37.933594 37.492188 "/></g><path style=" stroke:none;fill-rule:nonzero;fill:#8abae3;fill-opacity:1;" d="M 44.074219 47.097656 L 331.949219 47.097656 C 332.316406 47.097656 332.667969 47.167969 333.007812 47.308594 C 333.347656 47.449219 333.648438 47.648438 333.910156 47.910156 C 334.167969 48.171875 334.371094 48.472656 334.511719 48.8125 C 334.652344 49.152344 334.722656 49.507812 334.722656 49.875 L 334.722656 208.449219 C 334.722656 208.820312 334.652344 209.171875 334.511719 209.511719 C 334.371094 209.851562 334.167969 210.152344 333.910156 210.414062 C 333.648438 210.675781 333.347656 210.875 333.007812 211.015625 C 332.667969 211.15625 332.316406 211.226562 331.949219 211.226562 L 44.074219 211.226562 C 43.707031 211.226562 43.355469 211.15625 43.015625 211.015625 C 42.675781 210.875 42.375 210.675781 42.113281 210.414062 C 41.855469 210.152344 41.652344 209.851562 41.511719 209.511719 C 41.371094 209.171875 41.300781 208.820312 41.300781 208.449219 L 41.300781 49.875 C 41.300781 49.507812 41.371094 49.152344 41.511719 48.8125 C 41.652344 48.472656 41.855469 48.171875 42.113281 47.910156 C 42.375 47.648438 42.675781 47.449219 43.015625 47.308594 C 43.355469 47.167969 43.707031 47.097656 44.074219 47.097656 Z M 44.074219 47.097656 "/><path style=" stroke:none;fill-rule:nonzero;fill:#232323;fill-opacity:0.7;" d="M 218.066406 318.816406 L 146.953125 318.816406 C 145.140625 318.816406 143.757812 317.464844 144.078125 315.984375 L 148.875 292.996094 C 148.964844 292.691406 149.101562 292.410156 149.289062 292.152344 C 149.476562 291.894531 149.699219 291.671875 149.957031 291.492188 C 150.21875 291.308594 150.503906 291.175781 150.808594 291.085938 C 151.113281 291 151.425781 290.96875 151.746094 290.988281 L 213.246094 290.988281 C 213.464844 290.988281 213.683594 291.007812 213.902344 291.050781 C 214.433594 291.125 214.898438 291.335938 215.300781 291.691406 C 215.703125 292.042969 215.976562 292.480469 216.117188 292.996094 L 220.914062 315.984375 C 221.25 317.464844 219.882812 318.816406 218.066406 318.816406 Z M 218.066406 318.816406 "/><path style=" stroke:none;fill-rule:nonzero;fill:#232323;fill-opacity:1;" d="M 135.203125 259.898438 L 156.46875 259.898438 L 156.46875 269.679688 L 135.203125 269.679688 Z M 135.203125 259.898438 "/><path style=" stroke:none;fill-rule:nonzero;fill:#232323;fill-opacity:1;" d="M 222.832031 238.34375 L 194 238.34375 L 194 245.796875 L 222.832031 245.796875 Z M 222.832031 238.34375 "/><path style=" stroke:none;fill-rule:nonzero;fill:#232323;fill-opacity:1;" d="M 206.859375 248.679688 L 228.125 248.679688 L 228.125 257.027344 L 206.859375 257.027344 Z M 206.859375 248.679688 "/><path style=" stroke:none;fill-rule:nonzero;fill:#232323;fill-opacity:1;" d="M 230.738281 248.679688 L 252.007812 248.679688 L 252.007812 257.027344 L 230.738281 257.027344 Z M 230.738281 248.679688 "/><path style=" stroke:none;fill-rule:nonzero;fill:#232323;fill-opacity:1;" d="M 230.738281 259.898438 L 252.007812 259.898438 L 252.007812 269.679688 L 230.738281 269.679688 Z M 230.738281 259.898438 "/><path style=" stroke:none;fill-rule:nonzero;fill:#232323;fill-opacity:1;" d="M 190.449219 238.34375 L 161.625 238.34375 L 161.625 245.796875 L 190.457031 245.796875 Z M 190.449219 238.34375 "/><path style=" stroke:none;fill-rule:nonzero;fill:#232323;fill-opacity:1;" d="M 159.085938 248.679688 L 180.351562 248.679688 L 180.351562 257.027344 L 159.085938 257.027344 Z M 159.085938 248.679688 "/><path style=" stroke:none;fill-rule:nonzero;fill:#232323;fill-opacity:1;" d="M 159.085938 259.898438 L 180.351562 259.898438 L 180.351562 269.679688 L 159.085938 269.679688 Z M 159.085938 259.898438 "/><path style=" stroke:none;fill-rule:nonzero;fill:#232323;fill-opacity:1;" d="M 182.976562 259.898438 L 204.242188 259.898438 L 204.242188 269.679688 L 182.976562 269.679688 Z M 182.976562 259.898438 "/><path style=" stroke:none;fill-rule:nonzero;fill:#232323;fill-opacity:1;" d="M 182.976562 248.679688 L 204.242188 248.679688 L 204.242188 257.027344 L 182.976562 257.027344 Z M 182.976562 248.679688 "/><path style=" stroke:none;fill-rule:nonzero;fill:#232323;fill-opacity:1;" d="M 255.175781 238.34375 L 226.390625 238.34375 L 226.390625 245.796875 L 255.175781 245.796875 Z M 255.175781 238.34375 "/><path style=" stroke:none;fill-rule:nonzero;fill:#232323;fill-opacity:1;" d="M 206.859375 259.898438 L 228.125 259.898438 L 228.125 269.679688 L 206.859375 269.679688 Z M 206.859375 259.898438 "/><path style=" stroke:none;fill-rule:nonzero;fill:#232323;fill-opacity:1;" d="M 254.632812 269.6875 L 299.78125 269.6875 L 299.78125 248.679688 L 278.511719 248.679688 L 278.511719 259.898438 L 254.632812 259.898438 Z M 254.632812 269.6875 "/><path style=" stroke:none;fill-rule:nonzero;fill:#232323;fill-opacity:1;" d="M 60.929688 248.679688 L 42.988281 248.679688 C 42.1875 251.457031 41.417969 254.242188 40.671875 257.027344 L 60.929688 257.027344 Z M 60.929688 248.679688 "/><path style=" stroke:none;fill-rule:nonzero;fill:#232323;fill-opacity:1;" d="M 326.285156 257.027344 L 339.800781 257.027344 C 339.039062 254.257812 338.273438 251.472656 337.511719 248.679688 L 326.320312 248.679688 Z M 326.285156 257.027344 "/><path style=" stroke:none;fill-rule:nonzero;fill:#232323;fill-opacity:1;" d="M 319.9375 238.34375 L 291.15625 238.34375 L 291.15625 245.796875 L 319.9375 245.796875 Z M 319.9375 238.34375 "/><path style=" stroke:none;fill-rule:nonzero;fill:#232323;fill-opacity:1;" d="M 334.691406 238.34375 L 323.496094 238.34375 L 323.496094 245.796875 L 336.730469 245.796875 C 336.042969 243.316406 335.363281 240.800781 334.691406 238.34375 Z M 334.691406 238.34375 "/><path style=" stroke:none;fill-rule:nonzero;fill:#232323;fill-opacity:1;" d="M 254.632812 248.679688 L 275.898438 248.679688 L 275.898438 257.027344 L 254.632812 257.027344 Z M 254.632812 248.679688 "/><path style=" stroke:none;fill-rule:nonzero;fill:#232323;fill-opacity:1;" d="M 287.589844 238.34375 L 258.757812 238.34375 L 258.757812 245.796875 L 287.589844 245.796875 Z M 287.589844 238.34375 "/><path style=" stroke:none;fill-rule:nonzero;fill:#232323;fill-opacity:1;" d="M 326.285156 259.898438 L 302.394531 259.898438 L 302.394531 269.6875 L 343.222656 269.6875 C 342.367188 266.488281 341.480469 263.199219 340.582031 259.898438 Z M 326.285156 259.898438 "/><path style=" stroke:none;fill-rule:nonzero;fill:#232323;fill-opacity:1;" d="M 135.203125 248.679688 L 156.46875 248.679688 L 156.46875 257.027344 L 135.203125 257.027344 Z M 135.203125 248.679688 "/><path style=" stroke:none;fill-rule:nonzero;fill:#232323;fill-opacity:1;" d="M 254.632812 282.992188 L 275.898438 282.992188 L 275.898438 272.585938 L 254.632812 272.585938 Z M 254.632812 282.992188 "/><path style=" stroke:none;fill-rule:nonzero;fill:#232323;fill-opacity:1;" d="M 135.242188 282.992188 L 156.507812 282.992188 L 156.507812 272.585938 L 135.242188 272.585938 Z M 135.242188 282.992188 "/><path style=" stroke:none;fill-rule:nonzero;fill:#232323;fill-opacity:1;" d="M 198.246094 272.5625 L 159.066406 272.5625 L 159.066406 282.96875 L 228.109375 282.96875 L 228.109375 272.5625 Z M 198.246094 272.5625 "/><path style=" stroke:none;fill-rule:nonzero;fill:#232323;fill-opacity:1;" d="M 230.738281 282.992188 L 251.976562 282.992188 L 251.976562 272.585938 L 230.707031 272.585938 Z M 230.738281 282.992188 "/><path style=" stroke:none;fill-rule:nonzero;fill:#232323;fill-opacity:1;" d="M 343.980469 272.5625 L 278.511719 272.5625 L 278.511719 282.96875 L 346.652344 282.96875 C 345.816406 279.585938 344.925781 276.117188 343.980469 272.5625 Z M 343.980469 272.5625 "/><path style=" stroke:none;fill-rule:nonzero;fill:#232323;fill-opacity:1;" d="M 60.929688 269.6875 L 84.8125 269.6875 L 84.8125 259.898438 L 39.894531 259.898438 C 39.007812 263.207031 38.144531 266.480469 37.289062 269.6875 Z M 60.929688 269.6875 "/><path style=" stroke:none;fill-rule:nonzero;fill:#232323;fill-opacity:1;" d="M 60.929688 238.34375 L 46.097656 238.34375 C 45.300781 240.792969 44.554688 243.292969 43.820312 245.796875 L 60.929688 245.796875 Z M 60.929688 238.34375 "/><path style=" stroke:none;fill-rule:nonzero;fill:#232323;fill-opacity:1;" d="M 302.394531 248.679688 L 323.664062 248.679688 L 323.664062 257.027344 L 302.394531 257.027344 Z M 302.394531 248.679688 "/><path style=" stroke:none;fill-rule:nonzero;fill:#232323;fill-opacity:1;" d="M 125.6875 238.34375 L 96.863281 238.34375 L 96.863281 245.796875 L 125.695312 245.796875 Z M 125.6875 238.34375 "/><path style=" stroke:none;fill-rule:nonzero;fill:#232323;fill-opacity:1;" d="M 87.4375 248.679688 L 108.703125 248.679688 L 108.703125 257.027344 L 87.4375 257.027344 Z M 87.4375 248.679688 "/><path style=" stroke:none;fill-rule:nonzero;fill:#232323;fill-opacity:1;" d="M 129.238281 245.796875 L 158.070312 245.796875 L 158.070312 238.34375 L 129.238281 238.34375 Z M 129.238281 245.796875 "/><path style=" stroke:none;fill-rule:nonzero;fill:#232323;fill-opacity:1;" d="M 111.320312 259.898438 L 132.585938 259.898438 L 132.585938 269.679688 L 111.320312 269.679688 Z M 111.320312 259.898438 "/><path style=" stroke:none;fill-rule:nonzero;fill:#232323;fill-opacity:1;" d="M 111.320312 282.992188 L 132.585938 282.992188 L 132.585938 272.585938 L 111.320312 272.585938 Z M 111.320312 282.992188 "/><path style=" stroke:none;fill-rule:nonzero;fill:#232323;fill-opacity:1;" d="M 111.320312 248.679688 L 132.585938 248.679688 L 132.585938 257.027344 L 111.320312 257.027344 Z M 111.320312 248.679688 "/><path style=" stroke:none;fill-rule:nonzero;fill:#232323;fill-opacity:1;" d="M 87.4375 259.898438 L 108.703125 259.898438 L 108.703125 269.679688 L 87.4375 269.679688 Z M 87.4375 259.898438 "/><path style=" stroke:none;fill-rule:nonzero;fill:#232323;fill-opacity:1;" d="M 93.3125 238.34375 L 64.480469 238.34375 L 64.480469 245.796875 L 93.3125 245.796875 Z M 93.3125 238.34375 "/><path style=" stroke:none;fill-rule:nonzero;fill:#232323;fill-opacity:1;" d="M 79.792969 272.5625 L 36.519531 272.5625 C 35.542969 276.171875 34.585938 279.671875 33.625 282.96875 L 108.703125 282.96875 L 108.703125 272.5625 Z M 79.792969 272.5625 "/><path style=" stroke:none;fill-rule:nonzero;fill:#232323;fill-opacity:1;" d="M 63.546875 248.679688 L 84.8125 248.679688 L 84.8125 257.027344 L 63.546875 257.027344 Z M 63.546875 248.679688 "/><g mask="url(#3ca852dc44)" transform="matrix(1,0,0,1,32,240)"><g clip-path="url(#2c40b6e453)"><path style=" stroke:none;fill-rule:nonzero;fill:#232323;fill-opacity:1;" d="M 103.203125 21.589844 L 124.46875 21.589844 L 124.46875 31.265625 L 103.203125 31.265625 Z M 103.203125 21.589844 "/><path style=" stroke:none;fill-rule:nonzero;fill:#232323;fill-opacity:1;" d="M 190.832031 0.257812 L 162 0.257812 L 162 7.636719 L 190.832031 7.636719 Z M 190.832031 0.257812 "/><path style=" stroke:none;fill-rule:nonzero;fill:#232323;fill-opacity:1;" d="M 174.859375 10.488281 L 196.125 10.488281 L 196.125 18.738281 L 174.859375 18.738281 Z M 174.859375 10.488281 "/><path style=" stroke:none;fill-rule:nonzero;fill:#232323;fill-opacity:1;" d="M 198.738281 10.488281 L 220.007812 10.488281 L 220.007812 18.738281 L 198.738281 18.738281 Z M 198.738281 10.488281 "/><path style=" stroke:none;fill-rule:nonzero;fill:#232323;fill-opacity:1;" d="M 198.738281 21.589844 L 220.007812 21.589844 L 220.007812 31.265625 L 198.738281 31.265625 Z M 198.738281 21.589844 "/><path style=" stroke:none;fill-rule:nonzero;fill:#232323;fill-opacity:1;" d="M 158.449219 0.257812 L 129.625 0.257812 L 129.625 7.636719 L 158.457031 7.636719 Z M 158.449219 0.257812 "/><path style=" stroke:none;fill-rule:nonzero;fill:#232323;fill-opacity:1;" d="M 127.085938 10.488281 L 148.351562 10.488281 L 148.351562 18.738281 L 127.085938 18.738281 Z M 127.085938 10.488281 "/><path style=" stroke:none;fill-rule:nonzero;fill:#232323;fill-opacity:1;" d="M 127.085938 21.589844 L 148.351562 21.589844 L 148.351562 31.265625 L 127.085938 31.265625 Z M 127.085938 21.589844 "/><path style=" stroke:none;fill-rule:nonzero;fill:#232323;fill-opacity:1;" d="M 150.976562 21.589844 L 172.242188 21.589844 L 172.242188 31.265625 L 150.976562 31.265625 Z M 150.976562 21.589844 "/><path style=" stroke:none;fill-rule:nonzero;fill:#232323;fill-opacity:1;" d="M 150.976562 10.488281 L 172.242188 10.488281 L 172.242188 18.738281 L 150.976562 18.738281 Z M 150.976562 10.488281 "/><path style=" stroke:none;fill-rule:nonzero;fill:#232323;fill-opacity:1;" d="M 223.175781 0.257812 L 194.390625 0.257812 L 194.390625 7.636719 L 223.175781 7.636719 Z M 223.175781 0.257812 "/><path style=" stroke:none;fill-rule:nonzero;fill:#232323;fill-opacity:1;" d="M 174.859375 21.589844 L 196.125 21.589844 L 196.125 31.265625 L 174.859375 31.265625 Z M 174.859375 21.589844 "/><path style=" stroke:none;fill-rule:nonzero;fill:#232323;fill-opacity:1;" d="M 222.632812 31.265625 L 267.78125 31.265625 L 267.78125 10.488281 L 246.511719 10.488281 L 246.511719 21.589844 L 222.632812 21.589844 Z M 222.632812 31.265625 "/><path style=" stroke:none;fill-rule:nonzero;fill:#232323;fill-opacity:1;" d="M 28.929688 10.488281 L 10.988281 10.488281 C 10.1875 13.234375 9.390625 15.992188 8.671875 18.738281 L 28.929688 18.738281 Z M 28.929688 10.488281 "/><path style=" stroke:none;fill-rule:nonzero;fill:#232323;fill-opacity:1;" d="M 294.285156 18.738281 L 307.800781 18.738281 C 307.039062 16.003906 306.273438 13.25 305.511719 10.488281 L 294.320312 10.488281 Z M 294.285156 18.738281 "/><path style=" stroke:none;fill-rule:nonzero;fill:#232323;fill-opacity:1;" d="M 287.9375 0.257812 L 259.15625 0.257812 L 259.15625 7.636719 L 287.9375 7.636719 Z M 287.9375 0.257812 "/><path style=" stroke:none;fill-rule:nonzero;fill:#232323;fill-opacity:1;" d="M 302.691406 0.257812 L 291.496094 0.257812 L 291.496094 7.636719 L 304.730469 7.636719 C 304.042969 5.179688 303.363281 2.714844 302.691406 0.257812 Z M 302.691406 0.257812 "/><path style=" stroke:none;fill-rule:nonzero;fill:#232323;fill-opacity:1;" d="M 222.632812 10.488281 L 243.898438 10.488281 L 243.898438 18.738281 L 222.632812 18.738281 Z M 222.632812 10.488281 "/><path style=" stroke:none;fill-rule:nonzero;fill:#232323;fill-opacity:1;" d="M 255.589844 0.257812 L 226.757812 0.257812 L 226.757812 7.636719 L 255.589844 7.636719 Z M 255.589844 0.257812 "/><path style=" stroke:none;fill-rule:nonzero;fill:#232323;fill-opacity:1;" d="M 294.285156 21.613281 L 270.394531 21.613281 L 270.394531 31.289062 L 311.222656 31.289062 C 310.367188 28.089844 309.480469 24.886719 308.582031 21.613281 Z M 294.285156 21.613281 "/><path style=" stroke:none;fill-rule:nonzero;fill:#232323;fill-opacity:1;" d="M 103.203125 10.488281 L 124.46875 10.488281 L 124.46875 18.738281 L 103.203125 18.738281 Z M 103.203125 10.488281 "/><g clip-rule="nonzero" clip-path="url(#790d245c1d)"><path style=" stroke:none;fill-rule:nonzero;fill:#232323;fill-opacity:1;" d="M 222.632812 44.433594 L 243.898438 44.433594 L 243.898438 34.113281 L 222.632812 34.113281 Z M 222.632812 44.433594 "/></g><g clip-rule="nonzero" clip-path="url(#957445f080)"><path style=" stroke:none;fill-rule:nonzero;fill:#232323;fill-opacity:1;" d="M 103.242188 44.433594 L 124.507812 44.433594 L 124.507812 34.113281 L 103.242188 34.113281 Z M 103.242188 44.433594 "/></g><g clip-rule="nonzero" clip-path="url(#83d9b8ac82)"><path style=" stroke:none;fill-rule:nonzero;fill:#232323;fill-opacity:1;" d="M 166.246094 34.113281 L 127.066406 34.113281 L 127.066406 44.433594 L 196.109375 44.433594 L 196.109375 34.113281 Z M 166.246094 34.113281 "/></g><g clip-rule="nonzero" clip-path="url(#1c4036a9ed)"><path style=" stroke:none;fill-rule:nonzero;fill:#232323;fill-opacity:1;" d="M 198.738281 44.433594 L 219.976562 44.433594 L 219.976562 34.113281 L 198.707031 34.113281 Z M 198.738281 44.433594 "/></g><g clip-rule="nonzero" clip-path="url(#d5726e8c28)"><path style=" stroke:none;fill-rule:nonzero;fill:#232323;fill-opacity:1;" d="M 311.980469 34.113281 L 246.511719 34.113281 L 246.511719 44.433594 L 314.652344 44.433594 C 313.816406 41.066406 312.925781 37.625 311.980469 34.113281 Z M 311.980469 34.113281 "/></g><path style=" stroke:none;fill-rule:nonzero;fill:#232323;fill-opacity:1;" d="M 28.929688 31.265625 L 52.8125 31.265625 L 52.8125 21.613281 L 7.894531 21.613281 C 7.007812 24.878906 6.144531 28.121094 5.289062 31.289062 Z M 28.929688 31.265625 "/><path style=" stroke:none;fill-rule:nonzero;fill:#232323;fill-opacity:1;" d="M 28.929688 0.257812 L 14.097656 0.257812 C 13.316406 2.691406 12.554688 5.152344 11.820312 7.636719 L 28.929688 7.636719 Z M 28.929688 0.257812 "/><path style=" stroke:none;fill-rule:nonzero;fill:#232323;fill-opacity:1;" d="M 270.394531 10.488281 L 291.664062 10.488281 L 291.664062 18.738281 L 270.394531 18.738281 Z M 270.394531 10.488281 "/><path style=" stroke:none;fill-rule:nonzero;fill:#232323;fill-opacity:1;" d="M 93.6875 0.257812 L 64.863281 0.257812 L 64.863281 7.636719 L 93.695312 7.636719 Z M 93.6875 0.257812 "/><path style=" stroke:none;fill-rule:nonzero;fill:#232323;fill-opacity:1;" d="M 55.4375 10.488281 L 76.703125 10.488281 L 76.703125 18.738281 L 55.4375 18.738281 Z M 55.4375 10.488281 "/><path style=" stroke:none;fill-rule:nonzero;fill:#232323;fill-opacity:1;" d="M 97.238281 7.636719 L 126.070312 7.636719 L 126.070312 0.257812 L 97.238281 0.257812 Z M 97.238281 7.636719 "/><path style=" stroke:none;fill-rule:nonzero;fill:#232323;fill-opacity:1;" d="M 79.320312 21.589844 L 100.585938 21.589844 L 100.585938 31.265625 L 79.320312 31.265625 Z M 79.320312 21.589844 "/><g clip-rule="nonzero" clip-path="url(#292eb65570)"><path style=" stroke:none;fill-rule:nonzero;fill:#232323;fill-opacity:1;" d="M 79.320312 44.433594 L 100.585938 44.433594 L 100.585938 34.113281 L 79.320312 34.113281 Z M 79.320312 44.433594 "/></g><path style=" stroke:none;fill-rule:nonzero;fill:#232323;fill-opacity:1;" d="M 79.320312 10.488281 L 100.585938 10.488281 L 100.585938 18.738281 L 79.320312 18.738281 Z M 79.320312 10.488281 "/><path style=" stroke:none;fill-rule:nonzero;fill:#232323;fill-opacity:1;" d="M 55.4375 21.589844 L 76.703125 21.589844 L 76.703125 31.265625 L 55.4375 31.265625 Z M 55.4375 21.589844 "/><path style=" stroke:none;fill-rule:nonzero;fill:#232323;fill-opacity:1;" d="M 61.3125 0.257812 L 32.480469 0.257812 L 32.480469 7.636719 L 61.3125 7.636719 Z M 61.3125 0.257812 "/><g clip-rule="nonzero" clip-path="url(#48d17ec938)"><path style=" stroke:none;fill-rule:nonzero;fill:#232323;fill-opacity:1;" d="M 47.792969 34.113281 L 4.519531 34.113281 C 3.542969 37.683594 2.585938 41.152344 1.625 44.433594 L 76.703125 44.433594 L 76.703125 34.113281 Z M 47.792969 34.113281 "/></g><path style=" stroke:none;fill-rule:nonzero;fill:#232323;fill-opacity:1;" d="M 31.546875 10.488281 L 52.8125 10.488281 L 52.8125 18.738281 L 31.546875 18.738281 Z M 31.546875 10.488281 "/></g><mask id="3ca852dc44"><g filter="url(#c5076ae5d1)"><rect x="0" width="375" y="0" height="374.999991" style="fill:#000000;fill-opacity:0.3;stroke:none;"/></g></mask></g><path style=" stroke:none;fill-rule:nonzero;fill:#232323;fill-opacity:0.15;" d="M 334.722656 49.875 L 334.722656 208.449219 C 334.722656 208.820312 334.652344 209.171875 334.511719 209.511719 C 334.371094 209.851562 334.167969 210.152344 333.910156 210.414062 C 333.648438 210.675781 333.347656 210.875 333.007812 211.015625 C 332.667969 211.15625 332.316406 211.226562 331.949219 211.226562 L 103.140625 211.226562 C 163.320312 207.96875 224.199219 211.523438 284.328125 206 C 297.839844 204.761719 313.046875 202.046875 320.539062 190.722656 C 324.625 184.558594 325.597656 176.898438 326.367188 169.542969 C 330.640625 128.820312 332.074219 88 330.667969 47.082031 L 331.933594 47.082031 C 332.300781 47.078125 332.660156 47.148438 333.003906 47.289062 C 333.34375 47.429688 333.648438 47.632812 333.910156 47.894531 C 334.171875 48.15625 334.375 48.460938 334.515625 48.804688 C 334.65625 49.144531 334.722656 49.503906 334.722656 49.875 Z M 334.722656 49.875 "/><path style=" stroke:none;fill-rule:nonzero;fill:#ffffff;fill-opacity:0.09;" d="M 45.964844 122.109375 L 45.964844 59.800781 C 45.960938 59.273438 46.011719 58.753906 46.109375 58.238281 C 46.210938 57.722656 46.359375 57.21875 46.554688 56.734375 C 46.753906 56.246094 46.996094 55.785156 47.285156 55.34375 C 47.574219 54.90625 47.902344 54.5 48.269531 54.125 C 48.640625 53.75 49.039062 53.414062 49.472656 53.117188 C 49.910156 52.824219 50.367188 52.570312 50.851562 52.367188 C 51.332031 52.160156 51.832031 52.003906 52.34375 51.894531 C 52.859375 51.785156 53.378906 51.730469 53.902344 51.722656 L 198.75 50.449219 C 164.203125 61.902344 137.183594 67.515625 117.707031 70.539062 C 103.433594 72.757812 88.378906 74.34375 80.511719 85.949219 C 73.410156 96.410156 76.96875 107.902344 67.886719 116.082031 C 61.28125 122.023438 52.128906 122.488281 45.964844 122.109375 Z M 45.964844 122.109375 "/><path style=" stroke:none;fill-rule:nonzero;fill:#232323;fill-opacity:0.15;" d="M 218.066406 318.816406 L 161.457031 318.816406 C 178.671875 317.460938 195.878906 316.023438 213.085938 314.496094 C 214.246094 314.390625 215.53125 314.230469 216.285156 313.351562 C 217.035156 312.46875 217.035156 311.03125 216.90625 309.796875 C 216.246094 303.496094 215.246094 297.246094 213.910156 291.050781 C 214.441406 291.125 214.90625 291.335938 215.308594 291.691406 C 215.710938 292.042969 215.984375 292.480469 216.125 292.996094 L 220.921875 315.984375 C 221.25 317.464844 219.882812 318.816406 218.066406 318.816406 Z M 218.066406 318.816406 "/><path style=" stroke:none;fill-rule:nonzero;fill:#ffffff;fill-opacity:0.05;" d="M 148.441406 305.636719 C 149.1875 302.203125 149.929688 298.773438 150.664062 295.34375 C 150.734375 295.003906 150.859375 294.6875 151.035156 294.390625 C 151.214844 294.09375 151.4375 293.835938 151.703125 293.617188 C 151.972656 293.398438 152.269531 293.230469 152.59375 293.117188 C 152.917969 293 153.253906 292.941406 153.597656 292.941406 L 184.238281 292.941406 C 177.195312 294.238281 165.144531 295.34375 161.457031 297.253906 C 159.429688 298.304688 159.339844 303.25 154.765625 305.601562 C 150.960938 307.613281 149.882812 307.234375 148.441406 305.636719 Z M 148.441406 305.636719 "/><path style=" stroke:none;fill-rule:nonzero;fill:#ffffff;fill-opacity:0.06;" d="M 24.023438 269.6875 C 18.617188 285.480469 14.859375 301.273438 9.457031 317.074219 C 9.386719 317.289062 9.34375 317.511719 9.328125 317.738281 C 9.3125 317.964844 9.324219 318.1875 9.363281 318.414062 C 9.402344 318.636719 9.464844 318.851562 9.558594 319.0625 C 9.648438 319.269531 9.761719 319.464844 9.898438 319.644531 C 10.035156 319.824219 10.191406 319.988281 10.367188 320.128906 C 10.542969 320.273438 10.734375 320.394531 10.941406 320.492188 C 11.144531 320.589844 11.359375 320.660156 11.582031 320.707031 C 11.800781 320.75 12.027344 320.769531 12.253906 320.761719 L 98.070312 320.761719 C 89.953125 317.058594 81.464844 314.683594 72.605469 313.640625 C 58.4375 312.039062 48.433594 314.648438 31.15625 310.292969 C 28.84375 309.710938 26.835938 309.117188 25.222656 308.597656 C 24.933594 308.507812 24.664062 308.375 24.421875 308.199219 C 24.175781 308.019531 23.964844 307.808594 23.792969 307.558594 C 23.617188 307.3125 23.488281 307.042969 23.40625 306.75 C 23.320312 306.457031 23.289062 306.160156 23.304688 305.859375 C 24.101562 293.78125 23.230469 281.734375 24.023438 269.6875 Z M 24.023438 269.6875 "/></g></svg>