<svg xmlns="http://www.w3.org/2000/svg" xmlns:xlink="http://www.w3.org/1999/xlink" width="40" zoomAndPan="magnify" viewBox="0 0 30 30.000001" height="40" preserveAspectRatio="xMidYMid meet" version="1.0"><defs><clipPath id="374a379a4f"><path d="M 6 5 L 24 5 L 24 24 L 6 24 Z M 6 5 " clip-rule="nonzero"/></clipPath><clipPath id="6e307174ee"><path d="M 8.222656 5.152344 L 24.363281 21.292969 L 21.785156 23.867188 L 5.648438 7.730469 Z M 8.222656 5.152344 " clip-rule="nonzero"/></clipPath><clipPath id="ef9cfc5ace"><path d="M 9.25 6.199219 L 23.316406 20.265625 C 23.882812 20.832031 23.882812 21.753906 23.316406 22.320312 L 22.804688 22.832031 C 22.234375 23.398438 21.316406 23.398438 20.75 22.832031 L 6.683594 8.765625 C 6.117188 8.199219 6.117188 7.28125 6.683594 6.714844 L 7.195312 6.199219 C 7.761719 5.632812 8.683594 5.632812 9.25 6.199219 Z M 9.25 6.199219 " clip-rule="nonzero"/></clipPath><clipPath id="b6ad06745b"><path d="M 6 5 L 24 5 L 24 24 L 6 24 Z M 6 5 " clip-rule="nonzero"/></clipPath><clipPath id="b0cf1fb85e"><path d="M 5.636719 21.292969 L 21.777344 5.152344 L 24.351562 7.730469 L 8.214844 23.867188 Z M 5.636719 21.292969 " clip-rule="nonzero"/></clipPath><clipPath id="699e6854b5"><path d="M 6.683594 20.265625 L 20.75 6.199219 C 21.316406 5.632812 22.234375 5.632812 22.804688 6.199219 L 23.316406 6.710938 C 23.882812 7.28125 23.882812 8.199219 23.316406 8.765625 L 9.25 22.832031 C 8.683594 23.398438 7.761719 23.398438 7.195312 22.832031 L 6.683594 22.320312 C 6.117188 21.75 6.117188 20.832031 6.683594 20.265625 Z M 6.683594 20.265625 " clip-rule="nonzero"/></clipPath></defs><g clip-path="url(#374a379a4f)"><g clip-path="url(#6e307174ee)"><g clip-path="url(#ef9cfc5ace)"><path fill="#000000" d="M 8.222656 5.175781 L 24.339844 21.292969 L 21.777344 23.859375 L 5.65625 7.738281 Z M 8.222656 5.175781 " fill-opacity="1" fill-rule="nonzero"/></g></g></g><g clip-path="url(#b6ad06745b)"><g clip-path="url(#b0cf1fb85e)"><g clip-path="url(#699e6854b5)"><path fill="#000000" d="M 5.65625 21.292969 L 21.777344 5.175781 L 24.339844 7.738281 L 8.222656 23.859375 Z M 5.65625 21.292969 " fill-opacity="1" fill-rule="nonzero"/></g></g></g></svg>