<svg xmlns="http://www.w3.org/2000/svg" xmlns:xlink="http://www.w3.org/1999/xlink" width="40" zoomAndPan="magnify" viewBox="0 0 30 30.000001" height="40" preserveAspectRatio="xMidYMid meet" version="1.0"><defs><clipPath id="13bc7e277a"><path d="M 6 7 L 24 7 L 24 22 L 6 22 Z M 6 7 " clip-rule="nonzero"/></clipPath><clipPath id="4fb93f1f77"><path d="M 8.664062 6.730469 L 23.683594 19.351562 L 21.339844 22.140625 L 6.320312 9.519531 Z M 8.664062 6.730469 " clip-rule="nonzero"/></clipPath><clipPath id="359019d32a"><path d="M 9.777344 7.683594 L 22.558594 18.425781 C 23.171875 18.941406 23.25 19.855469 22.734375 20.46875 L 22.269531 21.023438 C 21.753906 21.640625 20.835938 21.71875 20.222656 21.203125 L 7.441406 10.460938 C 6.828125 9.945312 6.75 9.03125 7.265625 8.417969 L 7.730469 7.863281 C 8.246094 7.25 9.164062 7.167969 9.777344 7.683594 Z M 9.777344 7.683594 " clip-rule="nonzero"/></clipPath><clipPath id="66d16228e0"><path d="M 6 7 L 23 7 L 23 22 L 6 22 Z M 6 7 " clip-rule="nonzero"/></clipPath><clipPath id="58c57f69d9"><path d="M 6.3125 19.527344 L 21.183594 6.734375 L 23.5625 9.496094 L 8.6875 22.289062 Z M 6.3125 19.527344 " clip-rule="nonzero"/></clipPath><clipPath id="066e01de38"><path d="M 7.429688 18.582031 L 20.085938 7.699219 C 20.695312 7.175781 21.613281 7.242188 22.132812 7.851562 L 22.609375 8.402344 C 23.128906 9.007812 23.0625 9.925781 22.453125 10.449219 L 9.796875 21.335938 C 9.191406 21.859375 8.273438 21.789062 7.75 21.179688 L 7.277344 20.632812 C 6.753906 20.023438 6.824219 19.105469 7.429688 18.582031 Z M 7.429688 18.582031 " clip-rule="nonzero"/></clipPath></defs><g clip-path="url(#13bc7e277a)"><g clip-path="url(#4fb93f1f77)"><g clip-path="url(#359019d32a)"><path fill="#ff914d" d="M 8.664062 6.75 L 23.664062 19.355469 L 21.328125 22.132812 L 6.332031 9.527344 Z M 8.664062 6.75 " fill-opacity="1" fill-rule="nonzero"/></g></g></g><g clip-path="url(#66d16228e0)"><g clip-path="url(#58c57f69d9)"><g clip-path="url(#066e01de38)"><path fill="#ff914d" d="M 6.332031 19.53125 L 21.183594 6.753906 L 23.550781 9.503906 L 8.699219 22.28125 Z M 6.332031 19.53125 " fill-opacity="1" fill-rule="nonzero"/></g></g></g></svg>