<svg xmlns="http://www.w3.org/2000/svg" xmlns:xlink="http://www.w3.org/1999/xlink" width="40" zoomAndPan="magnify" viewBox="0 0 30 30.000001" height="40" preserveAspectRatio="xMidYMid meet" version="1.0"><defs><clipPath id="0bb3de5f6c"><path d="M 4 3 L 26 3 L 26 26 L 4 26 Z M 4 3 " clip-rule="nonzero"/></clipPath><clipPath id="df5e7f76f7"><path d="M 6.859375 3.8125 L 25.707031 22.65625 L 23.140625 25.222656 L 4.292969 6.375 Z M 6.859375 3.8125 " clip-rule="nonzero"/></clipPath><clipPath id="214bb18762"><path d="M 4 3 L 26 3 L 26 26 L 4 26 Z M 4 3 " clip-rule="nonzero"/></clipPath><clipPath id="9564288dc4"><path d="M 4.292969 22.65625 L 23.140625 3.808594 L 25.707031 6.375 L 6.859375 25.222656 Z M 4.292969 22.65625 " clip-rule="nonzero"/></clipPath></defs><g clip-path="url(#0bb3de5f6c)"><g clip-path="url(#df5e7f76f7)"><path fill="#000000" d="M 6.859375 3.8125 L 25.703125 22.65625 L 23.136719 25.222656 L 4.292969 6.375 Z M 6.859375 3.8125 " fill-opacity="1" fill-rule="nonzero"/></g></g><g clip-path="url(#214bb18762)"><g clip-path="url(#9564288dc4)"><path fill="#000000" d="M 4.292969 22.65625 L 23.136719 3.8125 L 25.703125 6.375 L 6.859375 25.222656 Z M 4.292969 22.65625 " fill-opacity="1" fill-rule="nonzero"/></g></g></svg>