<?xml version="1.0" encoding="UTF-8"?>
<svg xmlns="http://www.w3.org/2000/svg" viewBox="0 0 1090.54 247.65">
  <defs>
    <style>
      .cls-1 {
        fill: maroon;
      }

      .cls-2 {
        fill: #e00000;
      }
    </style>
  </defs>
  <g id="Layer_1" data-name="Layer 1">
    <g id="layer1">
      <path class="cls-1" d="m753.02-61.19c-74.07-41.26-133.87-55.96-179.41-44.1-75.4,12.2-113.2,20.93-113.41,26.2-26.13,13.3-52.3,37.88-78.5,73.76-47.92,79.62-61.95,143.17-42.1,190.64,28.58,69.35,73.35,116.08,134.31,140.18,48.01,19.59,81.9,26.64,101.67,21.16,77.78-27.92,123.53-53.47,137.26-76.65,26.33-29.67,47.06-77.71,62.21-144.14,3.43-.3,7.95-57.63,13.56-172l-35.59-15.05Z"/>
    </g>
    <path class="cls-2" d="m527.75,56.81h-.02c-4.94,4.55-7.46,6.83-7.58,6.84-2.23,1.84-3.77,2.9-4.62,3.18-.17.03-.15-.11.05-.43,2.47-2.89,4.24-5.14,5.32-6.76.43-.62.77-1.18,1.02-1.7.09-.2.04-.27-.14-.2l-4.26,5.38c-1.16,1.32-2.45,2.57-3.88,3.75-1.92,1.58-4.69,3.2-8.33,4.86-.06.09.27.09.97-.02l5.99-1.12c.25-.02.29.09.1.35-.99.63-2.24,1.3-3.76,1.99-2.02.88-3.32,1.42-3.88,1.62l-3.09,1.13,2.39-.44c3.58-.76,5.57-1.22,5.96-1.39,1.12-.32,2.11-.64,2.96-.97.85-.33,1.57-.67,2.15-1.01.34-.29,1.03-.69,2.06-1.2,1.07-.72,2.08-1.44,3.03-2.17,1.9-1.45,3.57-2.92,5-4.41.43-.37,1.38-1.49,2.83-3.38.15-.29-.04-.23-.55.17-3.35,3-5.83,5.14-7.43,6.44-.8.61-1.3.97-1.5,1.08-.54.33-.8.44-.78.33,0-.05.03-.12.1-.21.93-.84,2.18-2.06,3.75-3.65.85-.88,1.58-1.68,2.18-2.41,1.61-1.92,2.93-3.8,3.95-5.63"/>
    <path class="cls-2" d="m501.86,75.31h-.02s-4.17,5.98-4.17,5.98c-.95,1.32-1.8,2.46-2.56,3.43-.14,0-.14-.18,0-.56l2.19-5.81c.34-.96.46-1.39.36-1.28-2.19,3.5-4.13,6.42-5.82,8.77-.5.77-1.63,2.2-3.38,4.31-.66.74-1.25,1.34-1.79,1.79.07.07,1.77-1.17,5.1-3.71.39-.28.59-.33.6-.16.05.1-.11.51-.49,1.22-1.2,2.17-2.46,4.33-3.78,6.47-.12.21-.13.32-.02.32,2.44-1.88,4.44-3.65,6.02-5.31l2.65-3.93c2.19-3.64,3.39-5.72,3.61-6.23.48-1.21.79-2.1.94-2.68.22-.77.43-1.6.63-2.51,0-.07-.03-.11-.07-.12"/>
    <path class="cls-2" d="m478.42,105.89h0s-.01.11,0,.28c.15,1.01.24,1.72.26,2.14.05.56.08,1.12.1,1.66.03,1.63,0,3.22-.09,4.76-.15,2.19-.32,4.07-.51,5.66-.25,1.86-.4,2.88-.46,3.07-.11.57-.23,1.07-.35,1.49-.14.28-.26.19-.37-.25-.63-4.62-1.03-7.39-1.21-8.3-.28-1.64-.53-2.87-.76-3.71.17,2.31.31,4.38.4,6.2.09,1.5.14,3.39.14,5.66-.02,2.04-.07,3.71-.17,5.02-.07.86-.11,1.4-.14,1.62-.05.54-.17,1.64-.38,3.29v.27c0,.1.02.15.03.14l.2-.29s.31-.6.8-1.82c.27-.61.92-2.67,1.96-6.19.12-.32.23-.47.33-.43.12-.05.27.26.45.93.1.38.21,1.08.33,2.1.08.81.23,3.36.43,7.65.03.28.09.37.18.29.05-.02.16-.2.31-.55.69-2.58,1.08-4.13,1.16-4.63.51-2.54.8-4.05.84-4.54.15-1,.28-1.99.38-2.98.14-1.09.22-2.55.25-4.38-.02-3.14-.08-5.67-.16-7.61-.06-1.36-.13-2.55-.21-3.56-.03,1.47-.1,2.86-.22,4.19-.17,1.62-.29,2.58-.35,2.86-.1.61-.2,1.2-.32,1.77l-1.03,3.51c.14-.76.24-2.52.31-5.28.03-.79-.02-1.75-.15-2.86-.17-1.37-.84-3.76-2-7.16"/>
    <path class="cls-2" d="m495.42,87.64l-1.33,1.77.05,1.2c0,.81-.04,1.65-.14,2.5-.1.85-.25,1.73-.45,2.62-.4,1.79-1.01,3.67-1.83,5.62-.48,1.26-1.43,3.22-2.84,5.88-.44.9-2.38,4.19-5.82,9.87-.51.91-1.06,2-1.64,3.29,0,.19.12.2.34.04.5-.39,1.28-1.11,2.33-2.14,1-.94,2.2-2.31,3.6-4.11.89-1.16,1.71-2.3,2.46-3.4.46-.59,1.44-2.18,2.94-4.78,1.11-2.04,1.95-3.96,2.53-5.78.28-.99.5-1.97.65-2.93l.17-1.44c.08-.95.1-1.89.05-2.82-.1-1.85-.46-3.66-1.08-5.41"/>
    <path class="cls-2" d="m477.35,135.65h-.02s-.05.07-.03.18c1.04,3.67,1.67,6.03,1.91,7.09.35,1.63.44,2.47.27,2.53-.15.09-.33.02-.54-.2-1.5-1.88-2.82-3.37-3.96-4.45-.66-.58-.95-.68-.86-.31,1.8,3.16,3.52,6.61,5.18,10.34,1.91,4.18,4.25,9.52,7.02,16.02-.21-1.76-.64-3.78-1.28-6.07-.9-2.98-1.5-4.85-1.8-5.61-.48-1.35-1.02-2.76-1.6-4.24.03-.2.19-.13.47.22.5.63,1,1.36,1.5,2.21,1.32,2.17,2.67,4.69,4.06,7.56.07.1.04-.09-.07-.57-.49-2.07-.97-3.9-1.43-5.5-.95-3.3-1.93-6.08-2.96-8.33l-.78-1.59c-.52-.99-1.06-1.85-1.6-2.58l-1.41-4.04c-1.32-1.95-2-2.84-2.05-2.65"/>
    <path class="cls-2" d="m488.03,162.32h-.04c-.09.02-.05.12.12.29,2.35,2.02,4.09,3.74,5.23,5.16,1.98,2.53,3.16,4.42,3.53,5.69-.02.43-.21.59-.56.46-6.22-2.87-8.96-3.82-8.22-2.85,2.46,2.29,5.37,4.79,8.72,7.51,6.17,4.91,11.06,8.66,14.65,11.23.19,0,.2-.15.02-.41l-3.57-3.9c-3.03-3.75-5.51-6.63-7.43-8.64,0-.15.11-.16.35-.03l8.02,4.87c.32.15.4.06.23-.25-1.13-1.39-2.45-2.81-3.94-4.27-2.75-2.57-4.91-4.44-6.48-5.61l.97.18,1.53.79c1.24.63,3.68,2.08,7.32,4.36.36.19.58.28.67.26-2.36-1.91-5.31-4.49-8.85-7.74-1.1-.84-2.15-1.61-3.17-2.31-2.02-1.4-3.87-2.52-5.54-3.36-1.99-.92-3.17-1.4-3.54-1.42"/>
    <path class="cls-2" d="m531.85,184.46l-7.28,1.99c-1.78.37-3.7,1.14-5.76,2.3-3.94,2.34-5.57,3.61-4.89,3.83.1.04.37,0,.8-.13,3.21-1.1,5.33-1.73,6.38-1.92,1.63-.32,3.57-.41,5.8-.28,2.39.16,5.07.59,8.02,1.29,1.3.32,2.63.68,3.97,1.08,1.61.49,3.74,1.19,6.37,2.1.33.1.57.15.71.14-2.17-1.52-4.02-2.64-5.54-3.36-1.82-.94-3.93-1.92-6.31-2.93-.24-.31-.17-.46.23-.43,2.61.18,5.49.76,8.63,1.75,1.44.48,4.33,1.71,8.66,3.7-.6-.57-1.68-1.24-3.24-2.02-1.62-.85-3.85-1.95-6.69-3.3-3.72-1.74-7.01-3.01-9.88-3.81"/>
    <path class="cls-2" d="m589.57,181.88l-1.3.02c-2.72.1-6.22.5-10.49,1.19-4.6.74-8.06,1.45-10.38,2.14-5.37,1.53-9.44,3.42-12.22,5.67-.59.48-.67.72-.24.71,3.07-1.34,5.2-2.17,6.4-2.51,1.64-.53,3.23-.96,4.76-1.27,4.62-.73,7.24-.72,7.88.01-.06.13-.39.31-1,.54-2.35.65-4.95,1.48-7.78,2.48-1.63.62-2.89,1.16-3.75,1.59-3.18,1.63-5.14,3.24-5.86,4.85l9.58-4.08,2.27-.88c2.23-.88,4.76-1.61,7.6-2.21,1.08-.22,2.34-.33,3.8-.32l3.6,2.45c-5.15,2.08-8.05,3.31-8.7,3.69-1.69.8-3.22,1.58-4.6,2.34-1.37.76-2.58,1.51-3.63,2.25l-1.46,1.09-1.22,1.06s.07.03.1.02c.11,0,.27-.04.49-.13,3.37-1.39,6.02-2.44,7.97-3.14,1.72-.57,3.6-1.01,5.64-1.34,2.4-.32,4.31-.47,5.73-.44,2.51-.04,5.89.15,10.13.57.45.01.81-.04,1.06-.14l-7.99-2.82c-.81-.34-1.11-.68-.89-1,.06-.18.76-.34,2.08-.49l9.26-.69c.87-.16,1.18-.38.93-.66-.82-.72-2.09-1.46-3.83-2.23-.98-.52-4.1-1.7-9.37-3.54-.4-.21-.61-.48-.63-.81-.04-.24.97-.48,3.02-.73,4.26-.33,8.7-.51,13.32-.52.43-.03.62-.15.58-.38-2.68-1.47-6.3-2.25-10.87-2.34"/>
    <path class="cls-2" d="m641.53,148.08h-.07c-1.96.4-4.48,1.31-7.56,2.73l-10.18,8.5c-.45.1-2.03,1.23-4.72,3.39-2.2,1.92-4.54,4.39-7.02,7.42-1.24,1.51-2.51,3.17-3.82,4.96-.15.27-.17.43-.06.46l7.74-5.6c.45-.31.67-.31.66,0-3.18,4.62-5.48,8.42-6.89,11.4-2.55,5.59-3.53,8.78-2.94,9.57,5.61-7.44,13.28-16.36,22.98-26.75.39-.56.28-.81-.34-.73-.47.12-1.71.74-3.73,1.85-.24-.12-.1-.5.43-1.12.88-1.02,6.13-6.14,15.76-15.36.24-.53.16-.77-.24-.72"/>
    <path class="cls-2" d="m628.68,87.1h0c-.21.41-.4.96-.57,1.67-.11.17-.33,1.56-.67,4.18-.25,2.3-.43,5.2-.55,8.7l1.05,12.24,5.39,20.62c.3.02.46-.54.48-1.69.19-2.12.2-5.98.02-11.56,0-.26.07-.35.2-.27,1.93,5.19,3.74,9.57,5.44,13.12,3.12,6.79,4.98,10.29,5.57,10.51.11.04.15-.15.13-.57-1.49-4.98-2.77-10.7-3.84-17.15-.38-2.29-.75-4.87-1.13-7.73-.43-3.32-1-8.17-1.71-14.56-.15-1.24-.27-2.09-.38-2.53-.16-.35-.28-.03-.36.95-.04.44-.15,2.65-.32,6.62-.03.48-.08.88-.15,1.18-.34.67-.72.69-1.15.04-.97-1.42-2.14-4.29-3.52-8.6-1.06-3.35-2.24-8.15-3.53-14.41-.19-.57-.32-.82-.4-.77"/>
    <path class="cls-2" d="m602.44,51.93h-.04c-.1.01.04.38.42,1.13l7.28,13.34c.58,1.17.8,1.81.64,1.91l-14.86-14.91c-.57-.57-.76-.5-.57.2,3.24,4.59,6.31,8.73,9.21,12.43,3.5,4.22,6.32,7.27,8.47,9.17l-3.85-2.9,4.96,4.71,9,8.86c.81.77,1.59,1.42,2.33,1.96.4.28.62.27.67-.03-5.14-7.95-7.1-12.25-5.89-12.88.41-.01.86.15,1.35.51,4.82,3.48,8.71,6.12,11.68,7.92,1.33.78,2.77,1.55,4.31,2.31.76.35,1.2.48,1.34.39-13.58-9.27-25.74-20.64-36.47-34.11"/>
    <path class="cls-2" d="m549.25,34.18h0c-.62.03-.68.25-.18.65,2.85,1.81,5.76,3.47,8.75,4.99,3.89,1.96,8.94,4.16,15.16,6.59.04.07-.33.13-1.12.17-5.22.01-8.89.06-11.01.13-1.22.14-1.72.31-1.5.53,3.11.73,6.58,1.43,10.4,2.09,4.31.68,7.46,1.02,9.44,1.02.18.38-.19.6-1.11.66l-5.99.27-1.59.14c-.35.16-.31.3.11.43l2.25.48c2.27.47,4.43.84,6.49,1.13l3.02.36c1.96.19,3.82.29,5.57.3,3.51.02,6.61-.33,9.31-1.05,1.05-.2,2.02-.53,2.91-.96.39-.25.47-.49.24-.72l-11.13-3.17c-1.27-.37-2.03-.82-2.28-1.34.07-.07.31-.11.72-.13,3.02,0,6.13-.15,9.33-.44,3.51-.37,5.4-.73,5.67-1.07l-.02-.11c-2.55-.26-7.16-.87-13.81-1.82-2.5-.37-4.9-.79-7.19-1.27-1.43-.28-3.59-.77-6.49-1.47l-25.95-6.4"/>
    <path class="cls-2" d="m549.94,39.73h-.01s-7.61,3-7.61,3c-8.88,2.88-15.31,5.11-19.28,6.71-.07.06.54,0,1.83-.17,3.63-.51,5.98-.85,7.05-1.03,2.08-.32,5.54-1,10.37-2.06.22-.04.52-.08.9-.11.24,0,.05.17-.56.49l-7.48,3.78c6.17-.88,11.12-1.78,14.86-2.69l7.03-1.98,2.53-.81c2.28-.77,3.82-1.41,4.6-1.92l.33-.24c-4.11.91-7.68,1.51-10.69,1.81-3.12.29-5.48.3-7.08.04-.57-.12-.72-.43-.45-.93l3.44-3.13c.26-.36.38-.57.35-.61.02-.1-.03-.15-.14-.15"/>
    <path class="cls-2" d="m585.72,183.14l-2.86-1.77c-5.31-4.56-7.85-11.86-7.63-21.91.25-10.1,3.36-20.69,9.35-31.76,6.02-10.42,12.89-17.8,20.61-22.13,2.49-1.38,4.94-2.34,7.35-2.86l3.55-.42c2.33-.05,4.53.39,6.6,1.34,6.2,3.23,9.66,9.55,10.38,18.99.73,9.43-1.45,19.82-6.52,31.15-5.39,11.19-11.93,19.54-19.61,25.07-7.68,5.53-14.75,6.96-21.21,4.3"/>
    <path class="cls-2" d="m566.65,134.47h-.22c-1.6.03-2.56.08-2.87.15-1.98.48-3.33.9-4.05,1.27-4.22,1.89-7.8,3.73-10.74,5.5l-18.22,44.5c1.4-.18,5.98.6,13.73,2.32,1.99.27,4.37.43,7.14.47,3.61-.26,9.96-1.39,19.04-3.37,2.13-.56,4.09-1.24,5.87-2.01l2.56-1.24c3.24-1.77,5.8-3.95,7.68-6.57.94-1.31,1.71-2.72,2.31-4.24l1.21-3.85c1.86-7.66.36-15.06-4.52-22.21l-2.72-3.55-3.28-3.51-1.21-.77c-3.3-1.93-7.2-2.89-11.69-2.89"/>
    <path class="cls-2" d="m588.04,165.17l-20.87,16.19c1.54.9,2.91,1.59,4.12,2.09.6.25,1.17.45,1.69.6,1.23.29,1.92.4,2.06.34,1.63,0,2.9-.13,3.82-.41l.75-.23c.49-.17.95-.38,1.37-.62s.82-.52,1.19-.83c.87-.64,1.71-1.57,2.51-2.79.21-.21.79-1.3,1.75-3.24.38-.83.74-1.73,1.1-2.71.2-.43.49-1.51.88-3.25.12-.67.18-1.31.19-1.91.02-1.21-.16-2.28-.56-3.22"/>
    <path class="cls-2" d="m591.2,168.85l-17.62,15.73c3.53-.11,5.83-.33,6.9-.65,1.08-.33,1.93-.67,2.53-1.03,1.25-.76,2.13-1.41,2.65-1.94.77-.76,1.46-1.55,2.08-2.38l.86-1.26c.53-.85.98-1.74,1.35-2.65.74-1.83,1.16-3.77,1.26-5.84"/>
    <path class="cls-2" d="m530.19,112.31h-.83c-1.64.06-3.14.26-4.51.6-1.57.29-3.73,1.05-6.49,2.3-4.18,1.98-9.85,5.39-17.01,10.22l-4.71,41.35c.76,1.96,2.7,4.21,5.8,6.76.41.54,3.39,2.62,8.94,6.22l8.15,4.69c2.44.79,4.62,1.15,6.52,1.08,3.9.11,9.04-1.11,15.39-3.67,4.77-2.01,8.35-4.43,10.73-7.25,2.25-2.96,4.78-8.43,7.58-16.41,2.33-6.97,3.74-13.39,4.23-19.28.38-8.37-1.72-14.33-6.28-17.88-2.87-2.26-7.39-4.35-13.58-6.27-4.83-1.56-9.48-2.37-13.95-2.45"/>
    <path class="cls-2" d="m525.46,141.68l-43.15,4.05c.14,1.61.94,3.77,2.41,6.48.73,1.72,3.62,5.97,8.66,12.75.9.74,1.82,1.4,2.77,1.98.44.39,1.92,1.07,4.43,2.04,1.86.66,4.18.99,6.99.98,1.45-.1,2.85-.58,4.18-1.43.67-.43,1.32-.95,1.96-1.56.64-.61,1.26-1.32,1.87-2.12l.9-1.27c.66-.97,1.4-2.41,2.22-4.34,2.18-6.05,4.44-11.91,6.76-17.57"/>
    <path class="cls-2" d="m510.1,109.64l-27.8,11.88c-3.04,9.34-3.21,16.49-.5,21.45,1.54,2.66,3.22,5.01,5.05,7.05l1.37,1.29c.92.78,1.87,1.41,2.83,1.88,2.84,1.44,6,1.41,9.5-.08,4.35-2.13,7.51-4.19,9.49-6.16,2.19-2.07,3.64-4.27,4.33-6.59.51-2.04.79-3.93.82-5.66.15-1.3-.04-4.23-.57-8.78-.91-6.77-2.42-12.2-4.52-16.27"/>
    <path class="cls-2" d="m480.44,127.47l-.93,2.35-.46,2.49v2.62s.48,2.76.48,2.76l.94,2.9,1.4,3.03,1.87,3.17,2.34,3.31,2.8,3.44c.35.37.72.71,1.11,1,.54.53,1.63,1,3.26,1.4,1.15.18,2.26.16,3.34-.04.71-.21,1.38-.48,2.03-.79.36-.09,1.25-.67,2.68-1.73,1.1-.91,2.06-2.02,2.91-3.33l-23.76-22.58"/>
    <path class="cls-2" d="m480.67,129.08l-.43.74c-1.03,2.12-1.06,5.49-.1,10.09.57,2.03,1.31,4.03,2.24,5.99.46.98.97,1.96,1.51,2.92.22.49,1.14,1.92,2.77,4.29,4.26,5.28,9.12,5.92,14.56,1.9l-20.54-25.94"/>
    <path class="cls-2" d="m540.22,67.39l-20.53.74c-5.28,2.32-8.3,3.82-9.08,4.51-1.85,1.15-3.58,2.39-5.19,3.73-3.23,2.68-6,5.75-8.3,9.2-1.57,2.6-2.41,4.58-2.52,5.95-.33,8.01-.66,12.46-1,13.35-3.92,7.3-6.1,12.1-6.55,14.38-.63,4.86.29,8.11,2.77,9.77,2.34,1.78,5.25,3.14,8.74,4.1,1.78.57,4.6.85,8.46.82,3.38-.1,6.84-.6,10.36-1.48,2.58-.44,7.35-2.16,14.31-5.15,3.14-1.44,5.79-2.99,7.96-4.63,1.08-.82,2.05-1.67,2.89-2.54l1.17-1.32c.72-.89,1.32-1.81,1.8-2.76.92-2.51,1.72-4.99,2.39-7.44,1.47-6.1,2.2-9.72,2.2-10.88.61-4.76.73-9.42.36-13.98-.68-3.6-1.73-6.67-3.15-9.23l-1.14-1.82c-.81-1.15-1.71-2.17-2.7-3.06-.99-.89-2.08-1.65-3.26-2.28"/>
    <path class="cls-2" d="m495.58,99.93l-5.35,8.26c.1.14-2.52,3.33-7.88,9.59-.73.96-1.31,1.91-1.74,2.85l-.53,1.5c-.2.76-.29,1.49-.27,2.22.04,1.45.51,2.83,1.41,4.14.31.53,1.01,1.3,2.1,2.31.74.55,1.2.85,1.38.89,1.22.63,2.83.73,4.85.3.75-.18,1.55-.44,2.38-.8.37-.07,1.71-.8,4.02-2.19.61-.36,1.95-1.33,4.01-2.91.68-.62,1.35-1.42,2-2.41,1.97-2.97,3.82-7.6,5.57-13.9l-11.97-9.86"/>
    <path class="cls-2" d="m552.61,46.94l-4.2.4-4.14,1.06-4.09,1.73-4.03,2.39c-2.66,1.81-5.29,4.07-7.88,6.77-2.59,2.7-5.13,5.84-7.64,9.42l-3.73,5.7c-3.65,5.38-6.18,10.14-7.59,14.26-.18.78-.21,1.39-.09,1.84-.03.45.68,1.47,2.11,3.06,1.33,1.19,3.19,2.15,5.57,2.89,1.19.37,2.51.68,3.96.94l14.35.16c12.37-5.2,22.59-10.5,30.65-15.9,4.03-2.7,7.52-5.42,10.48-8.17l4.03-4.14,3.22-4.17,2.41-4.21c.81-2.21.97-4.11.48-5.69-.25-.79-.66-1.5-1.23-2.13l-.98-.89c-.74-.55-1.63-1.02-2.7-1.41-3.26-1.14-5.94-1.83-8.05-2.08l-20.9-1.83"/>
    <path class="cls-2" d="m530.29,62.55l-1.81.48c-4.79,1.52-9.24,4.85-13.35,10-2.8,3.65-4.82,6.8-6.07,9.45l-.79,1.89-.5,1.71-.21,1.52.08,1.33.37,1.15,22.28-27.54"/>
    <path class="cls-2" d="m578.72,53.11l-2.63.11c-1.76.15-3.54.45-5.33.91-4.49,1.4-7.21,2.41-8.14,3.06-5.81,2.98-11.08,6.79-15.82,11.43l-6.36,6.29c-3.86,4.18-6.96,8.32-9.3,12.44l-2.93,6.15-1.79,6.1-.65,6.05.5,6.01,1.64,5.96c.71,1.42,1.75,2.85,3.12,4.31,4.11,4.38,11.2,8.94,21.27,13.7l6.4,2.73c1.28.4,3.83.56,7.64.47,5.78-.22,13.8-1.34,24.05-3.35l33.61-24.92c1.6-1.42,3.07-5.19,4.39-11.29.53-3.15-.46-7.18-3-12.11-3.31-5.37-6.49-9.45-9.52-12.24-1.02-.89-6.33-4.29-15.94-10.2-4.48-4.83-7.15-7.52-8.01-8.05-4.14-2.5-8.54-3.68-13.19-3.55"/>
    <path class="cls-2" d="m609.6,85.83h-.34c-.91.02-1.84.1-2.79.24l24.14,26.83c.21-.41.35-.87.44-1.39s.11-1.1.07-1.73l-.1-.99c-.2-1.37-.63-2.96-1.32-4.78-1.86-4.44-3.92-8.11-6.19-10.99-1.65-1.96-2.77-3.11-3.35-3.48-.87-.71-1.78-1.32-2.72-1.83l-1.45-.68c-.99-.41-2.01-.71-3.07-.91-1.06-.2-2.17-.3-3.31-.3"/>
    <path class="cls-2" d="m577.1,47.07l-1.33.09c-3.47.47-6.27,2.81-8.4,7.01l45.91,35.12c-.02-1.54-.25-4.65-.69-9.34-.19-1.7-.41-3.15-.66-4.35-.25-1.2-.52-2.16-.82-2.86l-.47-.87-.51-.5c-.01-.34-.36-.92-1.06-1.74-4.4-4.6-11-10.44-19.8-17.51-3.54-2.39-5.95-3.74-7.21-4.05-1.77-.67-3.43-1-4.96-1"/>
    <path class="cls-2" d="m579.59,45.97l-1.05.03c-2.05.13-3.83.64-5.33,1.53-.5.3-.97.64-1.41,1.02-.82.82-1.55,1.68-2.21,2.6-.43.4-1.23,1.89-2.4,4.48-.82,2.14-1.32,4.49-1.49,7.05l42.75,8.65c-5.86-10.68-10.27-17.23-13.22-19.66l-1.07-.91c-.74-.58-1.54-1.11-2.39-1.6-.86-.48-1.77-.91-2.74-1.3-3.19-1.21-6.34-1.84-9.45-1.9"/>
    <path class="cls-2" d="m629.14,188.37h-.29c-.83.04-2.2.22-4.09.55l-2.06.49c-1.37.37-2.73.83-4.07,1.37s-2.67,1.17-3.99,1.88l-1.96,1.13c-.67.29-2.59,1.67-5.76,4.15l-1.61.71c-2.39,2.02-4.58,4.06-6.56,6.1-1.6,1.53-3.77,4.1-6.51,7.72-1.11,1.82-1.35,2.55-.7,2.19,3.68-3.55,6.18-5.76,7.5-6.63,1.86-1.39,3.62-2.48,5.27-3.28-3.34,3.11-5.89,5.61-7.64,7.48-.69.66-1.55,1.72-2.59,3.17-.28.47-.35.79-.23.95,1.83-2.02,3.8-3.96,5.92-5.81l3.29-2.72c2.27-1.77,4.68-3.46,7.24-5.06,5.12-3.2,10.82-6.08,17.11-8.61.18-.37-2-.03-6.55,1.03-3.4.89-5.81,1.72-7.25,2.49,1.77-1.28,3.8-2.56,6.08-3.85,1.57-.97,4.83-2.6,9.79-4.89.59-.33.48-.52-.33-.56"/>
    <path class="cls-2" d="m472.63,162.29l.16.2c.38.48,1.92,3.13,4.61,7.94.38.67.56,1.06.52,1.18l-5.68-4.72-3-2.18c-.38-.27-.56-.37-.53-.31,1.11,1.22,2.17,2.44,3.17,3.67l1.5,1.91c.99,1.3,1.94,2.64,2.87,4.04,1.86,2.79,3.6,5.76,5.23,8.92-.03-.41-.2-1.1-.51-2.06-.63-1.88-1.24-3.52-1.8-4.91-.02-.09-.02-.14,0-.16.11-.3,1.05.72,2.8,3.05.85,1.09,2.32,3.29,4.41,6.61.03.02.06,0,.09-.07-.43-1.96-.7-3.1-.81-3.41-.39-1.41-.81-2.69-1.28-3.84-.23-.57-.48-1.11-.73-1.62l-1.74-3.1c-1.08-1.81-1.81-2.93-2.19-3.36-1.76-2.36-4.13-4.96-7.1-7.81"/>
    <path class="cls-2" d="m461.68,131.63h-.01s-.05.05-.05.12c1.33,2.16,2.08,3.43,2.26,3.81.45.81.86,1.6,1.23,2.36.74,1.53,1.34,2.96,1.79,4.29.16.47.33,1,.49,1.59l.26.93.43,1.68,2.24,10.67c.13.54.25.96.36,1.27.02.13.07.19.18.19.12,0,.18-.16.19-.48l-.07-1.85c-.11-1.88-.25-3.33-.42-4.36-.3-2.12-.89-4.46-1.76-7.04l-.34-.98-2.11-4.64c-.29-.64-.61-1.27-.95-1.9-.15-.36-1.08-1.86-2.78-4.48-.53-.81-.84-1.2-.92-1.17"/>
    <path class="cls-2" d="m464.82,106.2l.22,1.48.2,1.5c.13,1.01.24,2.03.34,3.07.1,1.03.19,2.08.26,3.14.07,1.06.14,2.13.18,3.22.05,1.13.08,2.19.09,3.18.01,1.26-.05,2.62-.18,4.09l-.05.54-.6,4.86c-.11,1.15-.16,1.71-.15,1.68.02.07.13-.12.33-.58l1.29-3.51c.25-1.88.4-3.36.47-4.45.03-.43.06-.87.08-1.31.03-.73.04-1.44.03-2.12,0-.84-.07-1.98-.22-3.4-.07-.69-.18-1.44-.31-2.26-.4-2.45-1.06-5.5-1.98-9.15"/>
    <path class="cls-2" d="m480.17,78.39h0c-.58,1.96-1.22,3.89-1.9,5.8l-1.08,2.86c-.75,1.9-1.57,3.79-2.45,5.66-1.76,3.75-3.77,7.45-6.04,11.09l4.79-5.67c.21-.22.33-.14.36.23-.04.69-.38,1.83-1.01,3.42-1.32,3.08-2.59,5.76-3.81,8.04,2.2-1.96,4.09-4.01,5.67-6.16.29-.44.51-.84.67-1.2l2.31-3.21.85-1.7c.54-1.15,1.03-2.32,1.47-3.53l.63-1.83c.39-1.24.74-2.51,1.03-3.81.65-3.16.99-5.32,1.03-6.47-.69,2.16-1.46,4.14-2.31,5.93-1.84,3.71-3.22,6.26-4.13,7.66,1.12-3.06,1.89-5.49,2.32-7.3.26-1.09.52-2.35.76-3.8.64-4.17.92-6.18.85-6.01"/>
    <path class="cls-2" d="m514,44.12l-2,2.57c-5.54,6.84-12.83,13.57-21.86,20.19,5.4-3.27,5.72-2.97.98.9-4.15,3.22-9.78,6.35-16.9,9.37,4.13-.86,6.6-1.45,7.42-1.74,1.42-.42,2.41-.81,2.94-1.16l8.42-2.91c2.48-1.63,5.89-4.18,10.24-7.66.17-.26-.04-.31-.62-.16l-3.46,1.78c-.15.06-.17,0-.08-.16l2.07-1.96c1.35-1.34,2.63-2.74,3.84-4.2s2.35-2.99,3.42-4.58c2.14-3.18,4-6.61,5.59-10.29"/>
    <path class="cls-2" d="m555.33,22.94h-.02c-3.91,2.24-6.53,3.65-7.87,4.21-2.1,1.01-4.43,2.07-7,3.18-5.14,2.22-11.23,4.64-18.26,7.26l3.07-.6c.34,0,.1.19-.72.56l-17.96,6.54c-.18.16-.13.24.16.23,4.37-.18,9.05-.44,14.06-.79,3.11-.81,7.57-2.23,13.38-4.27-2.35.48-4.99.91-7.9,1.27-.59.05-.71-.14-.35-.56.2-.2,1.02-.69,2.46-1.47,6.77-3.44,10.89-5.58,12.37-6.45l13.88-8.44c.73-.45.97-.68.71-.68"/>
    <path class="cls-2" d="m565.55,26h-.05c-.1.04.05.17.47.4l6.8,2.83c.28.22.34.37.18.44-.77.15-2.47.11-5.09-.13-2.76-.3-6.21-.73-10.35-1.29-.32-.04-.58-.06-.77-.07-.55,0-.64.11-.28.34.82.37,1.5.64,2.05.8,2.88.92,5.62,1.74,8.23,2.45l7.97,2.03,1.8.37c1.24.23,2.56.42,3.96.59l2.15.22c2.95.27,6.21.41,9.79.42.36-.13.3-.25-.18-.37-4.83-.96-8.13-1.64-9.88-2.05-2.82-.61-4.14-.97-3.94-1.07.31-.11.69-.16,1.14-.17,5.33-.02,10.17-.15,14.52-.42,4.98-.4,8.18-.76,9.61-1.09-2.26.07-6.56-.2-12.91-.83-7.06-.88-15.46-2.01-25.2-3.4"/>
    <path class="cls-2" d="m608.78,34.15h-.05c-.11.08-.04.41.22,1l5.25,8.41c.16.25.18.48.07.69-.07.07-.55-.26-1.44-1.01-5.23-4.7-8.45-7.52-9.66-8.46-.72-.44-.92-.29-.61.45.25.62,1.09,2.27,2.52,4.97,5.2,6.61,7.75,9.95,7.65,10.02.15.33,1.86,2.09,5.15,5.27,2.93,2.73,6.72,5.96,11.36,9.71.21.08.06-.24-.46-.96-3.1-3.74-6.03-7.36-8.78-10.85-.29-.37-.34-.59-.15-.67,2.98,2.27,6.34,4.59,10.06,6.95,11.41,6.62,17.07,9.73,16.96,9.33.12-.02.15-.12.09-.29l-4.54-3.33c-3-2.26-5.96-4.61-8.86-7.05-2.9-2.43-5.75-4.95-8.54-7.55-5.57-5.2-10.98-10.74-16.22-16.63"/>
    <path class="cls-2" d="m640.12,75.58h-.01c-.18.2-.22.87-.14,2,.22,2.31.5,4.45.85,6.44l2.89,8.11.97,2.44c1.43,3.42,4.2,9.79,8.33,19.09.09,0,0-.45-.25-1.36l-3.74-13.22c-.09-.26,0-.43.27-.51.24.22.6.67,1.09,1.33l3.04,4.49c1.71,2.62,3.96,6.21,6.75,10.75.18.27.36.41.55.41.17-.02.25-.06.23-.11-.03-.22-.13-.54-.3-.97-1.59-3.26-3.15-6.93-4.66-11-3.27-10.26-5.56-17.37-6.87-21.33-.69-2.16-1.32-3.87-1.87-5.13-.32-.63-.53-.5-.62.38-.15,2.86-.17,6.12-.07,9.79,0,.35-.05.53-.17.53-.24-.07-.51-.38-.81-.93l-4.66-10.27c-.25-.54-.52-.85-.79-.92"/>
    <path class="cls-2" d="m660.43,128.87h-.08c-2.38,1.81-4.25,3.86-5.6,6.17l-1.26,2.29-5.28,11.23c-1.64,7.11-2.56,12.15-2.76,15.13-.14,3.48-.15,6.25-.03,8.31.26,4.18.56,7.14.89,8.87.15-2.74.61-6.29,1.38-10.64l.64-3.42.75-3.72c.17-1.04,1.16-5.37,2.97-12.98.81-2.84,1.63-5.3,2.45-7.39l6.02-13.6c.02-.18,0-.26-.09-.24"/>
    <path class="cls-2" d="m534.78,204.55l-2.29.09c-2.27.05-6.22.38-11.86.99-4.09.53-6.57.88-7.43,1.05-.8.14-1.07.25-.81.34,5.57-.13,12.2.38,19.89,1.52,2.76.42,6.36,1.09,10.79,2.02,4.26.98,6.21,1.56,5.87,1.74-.05.03-.14.05-.27.05-1.4-.16-3.68-.33-6.86-.51-1.69-.08-3.6-.12-5.74-.12-4.59.03-10.39.26-17.37.69,6.92-.01,12.39.16,16.41.53,1.18.03,4.76.41,10.75,1.12,2.4.32,4.8.68,7.21,1.08,4.16.64,8.19,1.45,12.1,2.44,1.96.5,3.88,1.04,5.77,1.62,4.68,1.54,7.45,2.52,8.31,2.93-2.82-1.39-5.89-2.76-9.2-4.13-2.35-1.03-6.87-2.72-13.56-5.07-.18-.23-.04-.33.42-.3l1.74.28c.44.07,1.22.24,2.33.51-.12-.05-.02-.04.31.03,1.34.3,7.11,1.92,17.31,4.86.58.16.96.22,1.15.18-.09-.31-1.49-1.29-4.21-2.93-2.37-1.34-5.37-2.74-8.99-4.21-1.81-.73-3.78-1.48-5.9-2.25l-9.61-3.05c-2.13-.43-4.39-.78-6.77-1.02-1.72-.24-4.88-.4-9.49-.48"/>
    <path class="cls-2" d="m475.99,187.22h-.02s-.08.02-.08.04c6.65,3.95,11.2,6.7,13.63,8.25,3.4,2.12,6.6,4.17,9.61,6.16,3.16,2.11,7.53,5.73,13.11,10.89.32-.04.06-.8-.78-2.27l-6.93-11.08c-1.13-1.13-3.57-3.02-7.32-5.69-2.23-1.53-4.69-3.07-7.37-4.61-.31-.07-.45-.03-.4.11.12.21.29.4.51.6l9,7.84c.53.53.54.73.03.62-4.26-2.41-7.79-4.28-10.61-5.6-7.73-3.52-11.86-5.28-12.39-5.27"/>
    <path class="cls-2" d="m478.48,95.59v.04c0,.14.03.27.1.39,2.59,4.72,4.3,8.03,5.12,9.93.9,2.07,1.63,4.15,2.19,6.24.79,3.04.81,6.25.05,9.61l2.73-8.74c-.72-3.18-1.9-6.22-3.55-9.13-1.93-3.62-4.15-6.4-6.64-8.34"/>
    <path class="cls-2" d="m512.75,56.38l-.51.11c-1.65.47-5.55,2.32-11.71,5.55.1.07,1.07-.16,2.91-.71,1.32-.4,3-1.02,5.03-1.86.21-.08.34-.08.39-.02-2.64,2.4-5.31,5.3-8.02,8.71-.05.27.47.3,1.56.09.55-.13,1.12-.29,1.71-.49,1.05-.38,1.83-.68,2.33-.92.06,0,.1,0,.11,0,.04,0,.03.07-.04.19-.08.1-.25.25-.52.47-.8.65-2.45,1.84-4.95,3.58-.26.19-.4.35-.41.48.02.1.04.15.08.17.78-.03,1.57-.09,2.38-.19.39,0,1.63-.22,3.72-.63,1.69-.37,3.43-.87,5.23-1.49l2.55-2.84c-2.83,1.12-5.53,2.1-8.12,2.95-1.17.38-1.78.48-1.82.29-.08-.26.44-.86,1.56-1.8l4.64-2.69c.7-.47,1.58-1.19,2.66-2.16.13-.2-.21-.17-1,.1-2.96,1.22-5.01,2.01-6.14,2.38-.68.21-1.06.16-1.13-.15.06-.59.61-1.49,1.65-2.69,1.9-2.25,3.79-4.25,5.67-6,.23-.28.3-.42.2-.42"/>
    <path class="cls-2" d="m546.72,29.38h-.04c-2.27.68-4.52,1.47-6.73,2.38-.7.3-1.1.47-1.18.52l-5.07,2.51c-.08.19,1.54.01,4.86-.54.17.07.18.17.04.32l-2.05,1.72c-.22.19-.33.36-.34.51.07.14.22.2.43.19.56,0,1.34-.12,2.35-.36.22-.01.33.04.32.16,0,.17-.31.56-.94,1.16l-4.36,3.84c-.03.07-.02.11.04.15.03.03.17.05.42.05.5,0,1.89-.17,4.16-.5.31-.02.48.03.5.13-.11.4-.39.86-.84,1.38-.91.96-1.74,1.71-2.5,2.25l2.61-1.22.81-.59c2.13-1.58,3.96-3.22,5.5-4.95,0-.08-.07-.12-.19-.11l-.78.18c-1.23.31-2.91.8-5.04,1.47-.28.05-.41,0-.39-.19.02-.23.59-.88,1.72-1.93l6.67-5.96c.02-.13-.14-.12-.47.04-.89.41-2.72,1.31-5.46,2.7-.27.1-.31,0-.14-.32.28-.3.67-.64,1.16-1.02l5.06-3.91s-.07-.07-.14-.07"/>
    <path class="cls-2" d="m588.42,36.66l-.15.02c-.46.09-.6.31-.42.64,0,.08.67.85,2.02,2.32.07.25-.07.5-.42.75-.61.37-1.55.66-2.85.88-.93.17-3.02.45-6.26.84-.1,0-.16.04-.2.09,0,.16.14.29.41.38l5.25,1.9,7.01-.32c-2.5-.48-3.93-.78-4.28-.9-.33-.11-.51-.23-.55-.37,0-.13.25-.26.78-.4.53-.12,1.37-.21,2.52-.28,1.44-.07,3.2-.1,5.29-.09.33-.02.49-.05.48-.09.18-.05-.08-.26-.79-.64-.28-.18-1.86-.98-4.72-2.39-.22-.14-.34-.26-.34-.36.07-.16.24-.25.51-.27.42-.02,1.01.06,1.79.23l4.93,1.41c1.71.34,3.31.69,4.8,1.05,1.13.26,2.89.73,5.29,1.43.32-.08-.76-.64-3.25-1.69-2.72-1.01-5.01-1.76-6.87-2.27-.86-.25-1.69-.48-2.5-.68-.44-.13-1.59-.38-3.45-.73-1.45-.25-2.8-.4-4.05-.45"/>
    <path class="cls-2" d="m620.13,63.44h0c-.22,0-.28.16-.18.5l2.76,5.78c.19.45.27.8.25,1.05-.14.23-.53.24-1.16,0-3.78-1.75-5.84-2.66-6.18-2.74l3.17,3.73c1.15.37,2.3.84,3.45,1.41l9.29,4.66c.08-.07.03-.22-.14-.46-1.96-2.04-4.42-4.84-7.38-8.38-.27-.37-.39-.62-.34-.74.1-.11.26-.12.47-.05.28.08.76.36,1.43.84,3.69,3.03,6.56,5.28,8.61,6.76,1.52,1.08,2.37,1.62,2.52,1.61.07-.16-.05-.47-.36-.92l-5.34-7.89c-.3-.56-.42-.88-.37-.95,0-.16.1-.23.31-.23.98.52,2.06,1.46,3.24,2.8l6.57,8.15c-.7-1.92-2.06-4.09-4.08-6.5-1.67-2.06-3.97-4.24-6.89-6.53-.42-.23-.64-.06-.67.51,0,.3.32,1.83,1,4.61.05.34-.09.47-.41.4-.1-.03-.3-.17-.59-.42-2.01-1.91-3.54-3.27-4.59-4.09-2.44-1.82-3.91-2.79-4.4-2.9"/>
    <path class="cls-2" d="m646.01,111.01l-.11.02c-.39.23-.78.97-1.15,2.21-.46,1.54-.92,3.73-1.37,6.57-.03.19-.1.35-.19.47-.72.48-1.94-1.47-3.66-5.86l-.48,3.53c2.67,6.09,4.22,9.54,4.65,10.33.82,1.7,1.32,2.54,1.48,2.54.32-.06.51-.71.58-1.97.1-.73.19-3.96.28-9.69.14-.76.48-.8,1.01-.14.64,1.06,1.11,2.56,1.43,4.5.21,1.14.64,4.67,1.29,10.6.04.42.11.66.21.71.1.02.18-.08.23-.3.06-.21.18-.89.35-2.03.62-6.23.99-9.49,1.13-9.79.19-.81.43-1.05.73-.72.27.43.51,1.51.71,3.23.14,1.3.39,5.38.73,12.23.06.19.1.28.13.26.19-.59.38-2.29.57-5.08.09-2.16.06-3.97-.09-5.41-.15-1.96-.81-5.32-1.96-10.07-.15-.26-.29-.25-.42.05l-1.18,4.29-.2.51c-.23.43-.43.52-.59.28-.12-.13-.23-.35-.33-.68-.77-3.05-1.4-5.29-1.91-6.73-.7-1.92-1.14-3.03-1.31-3.34-.07-.24-.26-.42-.56-.53"/>
    <path class="cls-2" d="m530.15,189.87l-1.84.65-5.99,2.14c-.75.28-1.21.46-1.38.55-1.03.4-1.48.79-1.37,1.17.04.21.26.42.65.61.57.24.96.39,1.18.43.81.31,3.49.73,8.04,1.26.47.16.6.32.41.46-.27.25-1.29.6-3.05,1.05-1.7.43-5.08,1.2-10.14,2.32-.39.11-.6.18-.61.21-.17.07-.24.18-.2.31-.04.03.14.1.56.21l1.81.2c1.05.07,4.1.07,9.17,0,.84.03,1.31.11,1.42.23.37.23-.31.62-2.03,1.18-1.65.54-3.89,1.11-6.73,1.72-.11.1-.11.21.02.33.27.1.62.2,1.07.3,2,.41,4.96.75,8.88,1.02,4.47.32,7.01.35,7.64.11.08-.11.09-.2.04-.28-.42-.57-.7-.92-.85-1.05-1.08-.85-2.81-2.09-5.19-3.73-.38-.3-.59-.53-.66-.69-.17-.48.05-.91.65-1.28.63-.52,2.28-1.15,4.95-1.87.22-.08.32-.24.33-.51.07-.23-.7-.68-2.32-1.36-1.11-.46-2.89-1.01-5.32-1.66-.22-.06-.43-.17-.6-.33-.11-.19.06-.41.5-.66.2-.11,1.21-.5,3.03-1.15l-2.04-1.87"/>
    <path class="cls-2" d="m531.35,187.79l-.22.02c-.6.09-1.24.53-1.94,1.33l-2.26,4.59c.32-.15,1.15-.41,2.49-.8,1.79-.42,3.12-.74,3.98-.97.69-.21,1.13-.36,1.33-.44.26-.1.4-.17.42-.21.11-.23-.61-1.1-2.17-2.59-.37-.33-.67-.57-.91-.72-.18-.13-.42-.2-.72-.21"/>
    <path class="cls-2" d="m488.47,175.14h-.06c-.17.07.14.69.92,1.87,1.23,1.89,2.71,4.01,4.44,6.38.15.25.23.41.24.5.02.04-.02.07-.12.11-.21,0-.58-.17-1.08-.51-3.98-2.89-7.34-5.2-10.05-6.91l-1.02-.63c-.06-.04-.13-.07-.19-.08-.15-.04-.08.11.19.45,1.41,1.62,3.85,3.7,7.32,6.24,2,1.46,4.05,2.82,6.14,4.08,1.05.63,2.1,1.23,3.17,1.8.13.03.24.03.32.01.3-.01.28-.44-.06-1.29-.27-.65-1.32-2.43-3.17-5.36-.2-.34-.24-.61-.12-.82.26-.21.91-.15,1.96.18.85.25,2.76.92,5.72,2.03l-3.23-2.72c-1.1-.36-2.45-.91-4.05-1.65l-2.6-1.25-4.68-2.42"/>
    <path class="cls-2" d="m473.74,144.66h-.06c-.14.02-.16.26-.06.74.09.39.61,1.98,1.58,4.78.09.35.12.54.07.58-.11.02-.21,0-.28-.05-.1-.08-.28-.26-.56-.56-.56-.57-1.91-2.14-4.06-4.74-.24-.27-.42-.43-.54-.49-.26,0-.34.24-.24.71.08.55.49,1.88,1.25,3.98-.01.04-.07,0-.18-.12-1.15-1.58-1.77-2.42-1.88-2.52-.14-.13-.2-.12-.2.04.32.76.57,1.25.73,1.47.22.37.48.77.78,1.2l1.01,1.38c.34.46.79,1.01,1.34,1.66.36.39.55.48.56.25.07-.07-.21-.98-.85-2.71-.04-.17.01-.24.15-.22.05.02.26.27.64.76l2.87,3.94c.36.46.63.71.82.72.2.01.32-.3.36-.94.04-.63-.03-1.93-.19-3.91-.01-.23.03-.45.14-.68.14-.35.51-.37,1.13-.06.57.29,1.36.86,2.36,1.71l-.46-1.82c-.92-.61-2.82-2.22-5.7-4.81-.27-.23-.44-.33-.51-.3"/>
    <path class="cls-2" d="m456.6,99.34h-.01c-.12.23-.08.91.1,2.04.06.58.5,2.83,1.33,6.75.99,4.65,1.91,8.11,2.76,10.38.17.4.39.55.68.46.16-.11.58-.71,1.25-1.8.23-.18.46-.16.71.04l.26.24c.18.19.36.45.55.77.19.32.38.7.57,1.14.39.89.79,2.03,1.22,3.42v-3.69s-1.65-6.35-1.65-6.35c-.17-.59-.27-.92-.31-1-.16-.37-.34-.39-.55-.05-.21.36-.63,1.51-1.26,3.43-.06.16-.15.3-.26.42-.21.25-.5.06-.87-.56-.67-1.3-1.29-2.98-1.88-5.03l-2.42-10.09c-.08-.34-.15-.51-.19-.51"/>
    <path class="cls-2" d="m464.14,116.44h-.01s-.05.04-.05.11c.56,2.36.89,3.68.98,3.94.15.45.63,1.7,1.46,3.73.1.2.18.3.23.28l.05-.02s.06-.07.09-.13c.03-.07.06-.16.08-.27.05-.22.1-.53.14-.93l-.23-4.96c-.4.13-.8.05-1.18-.23-.19-.13-.41-.32-.66-.57-.25-.25-.53-.56-.83-.93-.03-.02-.05-.02-.06-.02"/>
    <path class="cls-2" d="m589.95,201.56l-5.25.45c-1.8-.35-3.9-.3-6.29.14-.59.12-1.2.25-1.8.41-.29.05-1.23.33-2.79.82-1.22.4-2.56.92-4.02,1.56-.32.16-.38.24-.18.26,3.42-.93,6.14-1.55,8.15-1.88,4.16-.62,6.37-.87,6.64-.75.04.11-.05.2-.26.27-3.4,1.12-5.96,2.06-7.68,2.81-3.38,1.51-4.95,2.36-4.71,2.53,3.95-1.39,6.99-2.32,9.12-2.78,1.97-.44,4.67-.97,8.08-1.57.57-.11,3.25-.51,8.05-1.22.52-.08.88-.17,1.08-.26.35-.15,0-.29-1.07-.41-1.4-.16-3.76-.29-7.08-.37"/>
    <path class="cls-2" d="m646.12,164.83h-.04c-.11,0-.23.02-.37.06-1.71.88-3.31,1.76-4.81,2.62s-2.88,1.72-4.16,2.56c-.77.43-2.45,1.68-5.02,3.74-.95.82-1.8,1.62-2.53,2.42-1.88,1.97-3.48,4.06-4.81,6.28-.66,1.11-1.26,2.25-1.78,3.42l-.73,1.78c-.46,1.2-.84,2.43-1.16,3.69l1.89-.49c.94-3,2.07-5.52,3.39-7.55.44-.68.9-1.31,1.38-1.88-.03-.08.98-1.09,3.03-3.03,6.02-5.63,11.38-9.13,16.07-10.5.43-.43.59-1.1.49-2.01-.09-.79-.37-1.16-.85-1.1"/>
    <path class="cls-2" d="m470.21,62.71l-.47,1.84c-.72,2.47-1.83,5.01-3.33,7.62-.75,1.3-1.59,2.62-2.53,3.96-.69,1.06-1.97,2.69-3.85,4.91-2,2.21-4.22,4.21-6.64,5.99-1.17.81-2.21,1.46-3.14,1.95-.88.47-2.55,1.24-5,2.29-.4.2-.67.41-.8.62.18.88,2.77.43,7.77-1.37,1.29-.5,2.45-1.02,3.49-1.58l6.56-4.01c1.12-1.18,2.13-2.46,3.02-3.85l1.24-2.16c.77-1.49,1.41-3.08,1.94-4.78,1.06-3.39,1.64-7.2,1.74-11.42"/>
    <path class="cls-2" d="m638.1,35.27l.02.19c.42,2.35,1.06,4.49,1.92,6.42,1.19,2.72,2.39,4.86,3.61,6.41,3.21,4.23,6.9,7.22,11.07,8.96-3.39-1.59-6.4-4.15-9.02-7.67-.5-.6-1.67-2.38-3.51-5.34-.42-.65-.94-1.53-1.54-2.65-1.14-2.17-1.99-4.28-2.55-6.32"/>
    <path class="cls-2" d="m650.55,62.63l.07.41c.92,4.54,2.12,8.11,3.58,10.7,1.89,3.46,4.67,7.01,8.35,10.66-2.74-2.92-4.97-5.98-6.68-9.16-1.03-1.87-2.11-4.16-3.24-6.88-.5-1.2-.88-2.16-1.16-2.89-.36-1.21-.61-1.94-.76-2.2l-.16-.65"/>
    <path class="cls-2" d="m671.25,99.58l-.05.15c-.47,1.45-.84,3.17-1.11,5.17-.13,1.09-.23,2.22-.28,3.41-.03.83-.04,1.42-.04,1.79,0,.6,0,.96.02,1.08.04.73.12,1.47.24,2.23.27,1.82.5,3.17.68,4.07.31,1.73,1.01,4.85,2.09,9.36-.52-2.54-.96-5.09-1.3-7.65-.27-1.89-.48-4.09-.65-6.6l-.19-3.57c-.03-.59-.04-.94-.05-1.06-.03-.93-.04-1.83,0-2.7.03-.87.09-1.71.17-2.51.07-.6.13-1.12.2-1.55.04-.35.11-.71.19-1.09.02-.12.02-.22.02-.31l.05-.22"/>
    <path class="cls-2" d="m670.98,146.81l-.25.24c-2.53,2.67-4.47,5.79-5.82,9.36-.67,1.84-1.2,3.81-1.59,5.92-.44,2.2-.84,5.12-1.19,8.76.6-4.83,1.7-9.4,3.28-13.71,1.78-4.68,3.63-8.2,5.57-10.56"/>
    <path class="cls-2" d="m647.88,189.94l-.16.02c-3.83.62-7.94,2.41-12.31,5.37-3.82,2.71-7.77,6.58-11.85,11.62,3-3.5,6.63-6.74,10.89-9.73,3.61-2.51,6.03-4.08,7.27-4.71,1.79-1.02,3.85-1.87,6.17-2.57"/>
    <path class="cls-2" d="m615.12,218.63h-.18c-1.96,0-4.36.25-7.19.75-2.69.48-5.25,1.14-7.68,1.98-5.38,1.86-10.89,4.54-16.52,8.04,3.46-2.03,7.66-3.89,12.61-5.59,7.49-2.41,11.26-3.59,11.31-3.54,2.82-.81,5.69-1.34,8.6-1.61-.23-.02-.55-.03-.95-.03"/>
    <path class="cls-2" d="m516.71,218.93h0c2.7.36,5.28.81,7.74,1.35,1.79.37,3.84.92,6.16,1.64,3.24.93,6.08,2.23,8.53,3.88-2.4-2.06-5.33-3.68-8.81-4.84-1.09-.33-2.89-.68-5.4-1.06-1.19-.17-2.15-.3-2.89-.38l-5.33-.58"/>
    <path class="cls-2" d="m457.8,189.02h0c5.67,4.32,10.58,8.63,14.74,12.94,4.48,4.49,7.26,8.05,8.34,10.68-1.16-3.49-3.69-7.31-7.57-11.44-3.18-3.14-8.35-7.2-15.52-12.18"/>
    <path class="cls-2" d="m448.94,152.93h0c1.64,2.7,2.98,5.99,4.02,9.88.2.76.39,1.55.56,2.38l.69,3.59c.45,1.98.79,3.63,1.03,4.93.37,2.12.7,4.5.98,7.16.05-2.45-.06-5.02-.33-7.7-.24-2.6-.62-4.88-1.13-6.84-.86-3-1.71-5.44-2.56-7.33-.84-1.91-1.93-3.93-3.27-6.07"/>
    <path class="cls-2" d="m441.8,121.48h0c.73,3.82,1,7.57.82,11.25-.01.33-.06.89-.13,1.69-.21,2-.34,3.31-.4,3.91-.08.71-.17,1.42-.29,2.13-.15.95-.33,1.87-.54,2.77-.12.54-.29,1.23-.51,2.1l-.2.69c-.03.14-.06.26-.07.38-.04.12-.07.22-.1.31.71-1.64,1.37-3.56,1.95-5.77.6-2.36.92-4.27.98-5.72.08-2.11,0-4.21-.22-6.31-.18-1.82-.62-4.3-1.29-7.43"/>
    <path class="cls-2" d="m443.03,103.37h0c.56,2.45.96,4.96,1.19,7.53.21,2.34.25,4.78.1,7.33-.1,2.41-.32,4.32-.68,5.73-.4,1.64-.98,3-1.74,4.06,1.79-1.89,2.9-5.26,3.34-10.1.04-.63.03-1.52-.05-2.68-.1-1.29-.25-2.62-.45-3.98-.27-1.82-.83-4.45-1.7-7.89"/>
    <path class="cls-2" d="m445.81,94.68h0c1.56,3.02,2.21,5.93,1.94,8.73-.19,1.43-.37,2.52-.54,3.27-.17.73-.39,1.42-.65,2.08-.22.59-.58,1.3-1.08,2.11-.44.72-.99,1.44-1.63,2.16,1.24-1.08,2.26-2.35,3.05-3.81.72-1.33,1.18-2.77,1.38-4.34.16-1.71.05-3.38-.34-4.99-.35-1.49-1.06-3.22-2.12-5.2"/>
    <path class="cls-2" d="m488.58,45.17h0c-3.16,7.21-6.21,12.5-9.16,15.86-3.35,3.95-7,6.34-10.94,7.16,4.1-.38,8.02-2.5,11.73-6.35,2.27-2.52,5.06-8.08,8.37-16.66"/>
    <path class="cls-2" d="m504.7,35.07h0c-2.42,3.86-4.59,7.01-6.52,9.46-.64.83-1.26,1.59-1.87,2.27l-3.9,4.08c-1.95,2-5.21,3.72-9.77,5.16,5.13-.96,9.05-2.79,11.76-5.49,1.98-1.73,5.41-6.89,10.31-15.48"/>
    <path class="cls-2" d="m522.19,27.05l-.02.02c-2.3,1.79-4.53,3.41-6.7,4.85-.67.45-1.31.87-1.92,1.23l-4.07,2.38c-2.28,1.3-4.66,2.12-7.15,2.45,2.91-.04,5.97-.93,9.18-2.66,1.24-.61,4.8-3.37,10.67-8.28"/>
    <path class="cls-2" d="m658.97,171.82l-.09.09c-2.31,2.09-3.88,3.59-4.72,4.5-.96,1-1.9,2.19-2.82,3.55-.35.55-.59.97-.72,1.25-.44.89-.86,1.81-1.26,2.76-.97,2.4-1.54,4.03-1.72,4.89.84-1.94,1.62-3.59,2.33-4.93l.72-1.33c1.09-1.84,1.71-2.93,1.86-3.26.11-.2.3-.52.59-.96,1.47-2.08,3.4-4.26,5.81-6.55"/>
    <path class="cls-2" d="m680.64,125.39l-.08.1c-2.81,3.25-4.84,6.08-6.09,8.49-.53,1.2-1.01,2.63-1.42,4.31-.49,2.18-.73,3.71-.72,4.6.45-2.07.84-3.56,1.17-4.47.38-1.16,1.11-2.98,2.21-5.46,1.17-2.4,2.82-4.92,4.93-7.57"/>
    <path class="cls-2" d="m665.3,75.29v.02c.12,3.25.32,5.84.58,7.77.24,1.83.61,3.65,1.11,5.47.45,1.68,1.16,3.6,2.12,5.77l.49,1.02.44.85.77,1.35.94,1.58c-1.66-3.66-3.27-8.14-4.81-13.44-.95-3.58-1.5-7.04-1.65-10.38"/>
    <path class="cls-2" d="m622.47,27.23l.02.04c3.93,6.66,9.94,11.67,18.03,15.04-5.03-3.1-8.93-5.78-11.72-8.06-2.57-2.08-4.69-4.42-6.34-7.03"/>
    <path class="cls-2" d="m606.57,20.4h.01c3.91,4.72,7.25,7.94,10.03,9.68,3.68,2.37,7.43,3.84,11.25,4.4-3.84-1.18-7.85-3.13-12.03-5.85-3.09-1.99-6.18-4.74-9.26-8.24"/>
    <path class="cls-2" d="m632.97,90.07l-.02.07-1.04,4.27-.32,1.26c-.07.28-.13.56-.19.85-.03.14-.05.29-.07.43l-.22,1.56c-.03.23-.07.52-.1.88-.06.59-.09,1.01-.1,1.29,0,.1,0,.18,0,.24,0,.04.01.07.03.1,0,.03,0,.06,0,.08.09-.71.17-1.24.24-1.59.05-.27.12-.64.22-1.08.06-.29.19-.85.37-1.67l.12-.6c.06-.35.1-.56.11-.63.11-.86.24-1.71.38-2.55.06-.36.15-.84.27-1.43l.11-.56.2-.92"/>
    <path class="cls-2" d="m637.53,90.65v.05c.4,1.92.82,3.64,1.27,5.15.59,1.81,1.17,3.26,1.76,4.36.57,1.17,1.39,2.48,2.45,3.91.4.6,1.32,1.63,2.76,3.08-1.87-2.39-3.77-5.43-5.68-9.09-1.2-2.51-2.05-4.99-2.56-7.46"/>
    <path class="cls-2" d="m461.32,50.65l-.55.57c-1.18,1.08-2.39,1.71-3.61,1.89-1.23.18-2.19-.16-2.87-1.01-.6-.87-.72-1.97-.36-3.3.36-1.33,1.14-2.58,2.34-3.74,1.18-1.08,2.39-1.71,3.61-1.89,1.23-.18,2.19.16,2.87,1.01.6.87.72,1.97.36,3.3-.12.43-.28.86-.5,1.29l-.36.64c-.26.43-.57.84-.93,1.24"/>
    <path class="cls-2" d="m681.24,36.71l.08.27c.09.57-.1,1.14-.57,1.7-.48.56-1.14.98-1.98,1.26-.82.24-1.55.26-2.18.05-.64-.21-1.02-.61-1.16-1.19-.09-.57.1-1.14.57-1.7.48-.56,1.14-.98,1.98-1.26.82-.24,1.55-.26,2.18-.05.2.07.39.16.55.27l.22.19.18.22.13.25"/>
    <path class="cls-2" d="m691.56,85.07l-.39-.26c-.77-.58-1.27-1.22-1.51-1.93-.24-.71-.15-1.31.28-1.81.45-.45,1.09-.65,1.91-.59.26.02.54.07.82.15l.42.14c.28.11.56.25.84.41.84.53,1.43,1.14,1.77,1.85.34.71.35,1.34.04,1.91-.36.54-.92.82-1.71.84-.78.02-1.6-.21-2.46-.71"/>
    <path class="cls-2" d="m690.17,170.31l.1-.64c.26-1.29.7-2.3,1.33-3.01.63-.72,1.3-.96,2.01-.73.67.29,1.16.95,1.46,2,.3,1.06.33,2.26.09,3.62-.26,1.29-.7,2.3-1.33,3.01-.63.72-1.3.96-2.01.73-.67-.29-1.16-.95-1.46-2-.1-.34-.17-.7-.21-1.1l-.04-.6c-.01-.41,0-.84.06-1.28"/>
    <path class="cls-2" d="m658.44,221.94l.44-.42c.95-.8,1.93-1.22,2.94-1.28,1.01-.06,1.81.29,2.4,1.04.52.76.64,1.67.38,2.73-.09.34-.21.68-.38,1.02l-.28.5c-.21.33-.46.65-.74.95-.9.91-1.86,1.46-2.9,1.65-1.03.19-1.9-.03-2.59-.64-.65-.66-.91-1.52-.77-2.56s.64-2.03,1.5-2.97"/>
    <path class="cls-2" d="m430.28,35.31h-.02c-.06,0-.12.05-.18.11-.84,4.3-1.7,8.35-2.58,12.17l-1.33,5.55c-.9,3.58-1.82,6.93-2.76,10.04-1.88,6.22-3.85,11.49-5.89,15.81,2.84-3.56,5.21-7.29,7.11-11.21l1.34-2.97,1.16-3.04.98-3.11.81-3.17.63-3.24,1.28-10.06c.06-3.26.04-5.11-.06-5.53-.1-.91-.25-1.36-.47-1.36"/>
    <path class="cls-2" d="m418.21,30v.03s.01.2.12.51l2.31,6.37c.39,1.15.71,2.16.96,3.03.62,1.97,1.12,4.34,1.5,7.11l.18,1.77c.1,1.23.17,2.54.2,3.93.03,1.4.02,2.88-.02,4.44-.09,3.13-.32,6.61-.69,10.43l4.65-12.72-.1-2.52-.33-2.58-.56-2.64-.79-2.71-1.02-2.77-1.26-2.83-1.49-2.89-1.72-2.95-1.95-3.01"/>
    <path class="cls-2" d="m423.8,44.74l-.3,1.24c-1.01,3.47-3.7,8.3-8.05,14.47-2.19,2.86-3.55,4.55-4.06,5.05-.95,1.08-1.92,2.13-2.93,3.15-2.01,2.04-4.15,3.97-6.4,5.79.06.21.3.19.73-.05.97-.56,2.01-1.22,3.12-1.98,2.51-1.76,4.65-3.43,6.4-4.99,3.32-3.06,6.66-6.89,10.02-11.52.83-1.14,1.65-2.33,2.47-3.56l-1-7.6"/>
    <path class="cls-2" d="m409.25,106.77h0s-.06.03-.06.03c1.29,4.76,2.01,7.48,2.14,8.17.4,1.65.75,3.19,1.04,4.62.59,2.86.98,5.28,1.17,7.26.09.71.17,1.95.24,3.72.03,1.02.03,2.06,0,3.12-.06,1.8-.12,3.14-.19,4.03-.14,2.22-.31,4.43-.53,6.61-.01.12,0,.23.01.31.25-.22.58-1.16,1-2.85.56-2.34.9-4.09,1.04-5.26.2-1.43.31-2.82.33-4.16v-1.38c-.03-.92-.09-1.85-.19-2.79-.1-.94-.23-1.89-.39-2.84l-.28-1.44c-.2-.96-.44-1.94-.71-2.92l-3.48-11.69c-.56-1.71-.94-2.57-1.15-2.57"/>
    <path class="cls-2" d="m412.08,115.7l.11,1.05c.11,1.47.05,3.23-.19,5.27-.18,1.81-.64,4.38-1.39,7.71-.41,1.76-.99,3.8-1.75,6.13-.38,1.19-1.51,4.23-3.39,9.12-.16.43-.22.73-.2.9.23.02.64-.43,1.2-1.35,1.06-1.7,2.22-3.78,3.49-6.22.93-1.9,2.36-5.3,4.27-10.2l-2.16-12.41"/>
    <path class="cls-2" d="m417.34,184.23h-.03c-.08.02-.09.1-.01.25.75.44,2.71,2,5.89,4.68.68.5,2.43,2.25,5.26,5.26,2.67,3.15,4.21,5.1,4.63,5.83l6.05,7.3c1.42,1.87,3.5,4.82,6.22,8.85.04.03.09.04.13.04.26,0-.1-.91-1.06-2.73-.63-1.2-1.64-2.86-3.04-4.98-1.89-2.89-4.63-6.39-8.22-10.5-6.65-7.62-11.93-12.29-15.83-14"/>
    <path class="cls-2" d="m411.17,190.91l2.09.82c2.75,1.11,5.36,2.28,7.82,3.5,1.89.87,4.77,2.49,8.66,4.88,4.4,2.79,7.5,5.37,9.28,7.75l-6.16-9.56c-1-.47-3.67-1.54-8.01-3.21-1.69-.63-3.33-1.2-4.9-1.72-3.15-1.04-6.08-1.86-8.77-2.45"/>
    <path class="cls-2" d="m425.06,196.99l4.78,3.08c-.31-.33-.64-.63-.97-.91l-.5-.41c-.34-.26-.69-.5-1.05-.72l-.54-.31-.56-.28-.57-.24-.59-.21m4.78,3.08l.45.49c.9,1.02,1.71,2.22,2.45,3.62l1.39,2.83c.45.99.9,2.15,1.34,3.47,1.34,3.96,2.67,9.38,3.98,16.27.17.03.26-.17.29-.6.07-.91.12-2.34.15-4.31.03-2.12-.05-4.17-.25-6.13-.37-3.43-1.1-6.71-2.19-9.84l-.43-1.17-7.19-4.63"/>
    <path class="cls-2" d="m691.19,182.94l-2.54,1.55c-6.62,4.2-11.96,8.93-16.02,14.19l-3.4,7.02c-.74,1.66-1.21,2.81-1.41,3.44-.41,1.04-.8,2.51-1.17,4.41-.26,1.35-.25,2.02.03,2.02.45-1.48.96-2.95,1.53-4.4.57-1.45,1.21-2.88,1.91-4.3l1.1-2.11c1.16-2.31,3.31-5.52,6.44-9.65,3.1-3.93,7.61-7.99,13.53-12.17"/>
    <path class="cls-2" d="m682.43,189.08l-9.05,10.2c-.07.15-.19.92-.36,2.33-.06.6-.1,1.26-.14,1.97-.06,1.43-.07,3.07-.02,4.95.13,2.88.37,5.83.73,8.84.07.76.21,1.07.4.93.28-1.04.61-2.65.97-4.8l.58-3.67c.09-.51.42-2.87,1.01-7.1.18-1.09.46-2.29.82-3.58.4-1.46.95-2.93,1.66-4.42.36-.74.75-1.49,1.18-2.24l.68-1.13,1.53-2.28"/>
    <path class="cls-2" d="m698.57,118.84l-.52.72c-1.43,2.16-3.3,6.19-5.6,12.1-.65,1.75-1.22,3.53-1.7,5.34-.15.44-.46,1.82-.94,4.12-.18.93-.33,1.86-.46,2.8l.54,14.68c.12,2.21.29,3.52.49,3.95.01-3.12.16-6.27.43-9.43.14-1.58.3-3.17.5-4.76l.32-2.39c.23-1.6.5-3.2.79-4.81.27-1.43.55-2.8.84-4.11.15-.65.3-1.29.45-1.91l.72-2.69c-.02.05-.01,0,.02-.14.19-.76,1.37-4.56,3.55-11.39.35-1.15.53-1.84.55-2.06"/>
    <path class="cls-2" d="m695.92,126.14l-4.07,10.48c.26,1.75.57,3.52.93,5.31l.57,2.7c.4,1.81.86,3.63,1.35,5.48,1,3.69,2.18,7.46,3.56,11.31l-.4-1.81c-.26-1.25-.51-2.61-.75-4.06-.24-1.45-.46-3.01-.68-4.66-.43-3.31-.82-7.02-1.16-11.12-.09-1.53-.13-2.66-.13-3.39,0-.95,0-1.93.04-2.94.11-1.72.22-3.16.33-4.31.08-1.02.22-2.02.4-2.97"/>
    <path class="cls-2" d="m675.92,40.9h-.07c-.18.09-.26.45-.22,1.1.03.36.23,1.24.58,2.64.05.57,1.12,3.86,3.21,9.85.99,2.4,2.62,5.32,4.9,8.78l2.5,3.63,1.41,1.95c.05.04.08.04.07-.01-1.66-3.79-2.81-6.64-3.44-8.55-.61-1.71-1.06-3.11-1.36-4.2-.17-.61-.18-.91-.03-.89,2.14,3.55,3.96,6.28,5.47,8.19,3.26,4.02,5.21,6.13,5.85,6.34.08,0,.08-.14,0-.39l-.63-1.11c-.94-1.56-3.07-4.93-6.39-10.1-.71-1.19-1.76-3.04-3.15-5.55-1.73-3.17-3.27-6.42-4.62-9.77-.17-.04-.23.12-.19.45.02.33.08.81.2,1.46.06.61.67,3.25,1.82,7.91-.09.02-.31-.27-.64-.88-2.01-4.72-3.43-7.89-4.27-9.52-.28-.54-.49-.92-.64-1.12-.12-.15-.23-.23-.35-.22"/>
    <path class="cls-2" d="m640.67,9.63l-.14.08c-.3.42-.13,2.49.51,6.22l4.12,9.57c1.19,1.84,1.95,2.92,2.29,3.26,1.15,1.41,2.48,2.76,3.99,4.06,1.97,1.62,3.19,2.55,3.66,2.8,3.21,2.16,7.71,4.55,13.49,7.16.04-.02.05-.06.04-.12-4.38-3.39-6.87-5.37-7.48-5.95l-4.14-3.64c-2.53-2.34-4.61-4.5-6.24-6.49-1.75-2.03-3.38-4.27-4.89-6.72-.75-1.23-1.48-2.5-2.17-3.83-.38-.6-1.36-2.71-2.92-6.35l-.15-.05"/>
    <path class="cls-2" d="m486.98,13.26h-.02s-.28.1-.28.1c-4.82,4.63-7.81,7.45-8.97,8.44-1.54,1.42-3.3,2.88-5.28,4.38-2.82,2.17-7.79,5.41-14.9,9.72-.19.44,1.23.07,4.27-1.14l10.4-4.82.07.19c.16.49-1.41,2.07-4.71,4.76-1.46,1.14-4.87,3.34-10.25,6.62,0,.2.22.29.66.26,1.35-.18,3.15-.69,5.38-1.52,1.59-.6,3.43-1.37,5.51-2.33l4.92-1.96c2.24-1.45,4.39-3.22,6.46-5.31,2.56-2.74,4.06-4.49,4.53-5.22.95-1.21,1.93-2.64,2.95-4.27.12-.29.03-.37-.28-.23-2.38,1.9-5.34,4.12-8.88,6.68-.46.33-.71.37-.74.13l8.82-13.44c.44-.7.55-1.05.33-1.05"/>
    <path class="cls-2" d="m470.59,16.21h0c-1.5,4.15-2.99,7.68-4.44,10.57-.73,1.45-1.45,2.74-2.17,3.87l-1.07,1.58-1.06,1.34-1.06,1.11,4.94-2.53c1.46-3.18,2.48-5.69,3.06-7.53.43-1.44.72-2.48.86-3.09.21-.84.41-1.7.6-2.59.22-1.06.36-1.83.42-2.32.05-.3.02-.44-.07-.4"/>
    <path class="cls-2" d="m470.24,222.04h-.1c-.1.05-.1.16,0,.35,0,.07.32.45.94,1.14,1.25,1.24,3.12,3.01,5.61,5.31.31.31.44.49.38.53l-7.01-3.24c-1.85-.83-3.22-1.41-4.11-1.75-2.76-.95-4.55-1.51-5.37-1.69-1.01-.24-1.44-.25-1.29-.03,3,1.65,5.67,3.33,8,5.03,2.74,1.92,5.98,4.3,9.7,7.15.13.05.03-.12-.32-.51l-3.47-3.59v-.1c0-.11.13-.11.39.02,1.17.6,2.43,1.33,3.8,2.21,1,.63,2.25,1.53,3.77,2.69,1.52,1.16,3.29,2.58,5.33,4.27.07.04.15.07.22.07.17,0,.16-.25-.04-.75-.32-.73-.79-1.65-1.41-2.77l-3.6-6.12-.79-.87c-1.13-1.16-2.57-2.35-4.3-3.57-.87-.61-1.81-1.22-2.82-1.85-1.02-.62-2.11-1.25-3.27-1.89-.12-.03-.2-.04-.25-.04"/>
    <path class="cls-2" d="m495.94,239.88l2.85.82c7.53,2.33,14.4,5.81,20.62,10.43l5.01-3.11-3.62-1.82c-2.26-1.1-4.22-1.97-5.87-2.61-1.33-.52-3-1.05-5.02-1.58-1.53-.36-3.71-.75-6.53-1.16-3.81-.52-6.29-.85-7.43-.97"/>
    <path class="cls-2" d="m658.73,210.43h-.43c-1.25.07-3.35.34-6.3.84-.85.17-1.72.4-2.6.69-2.64.86-5.41,2.24-8.3,4.13-3.98,2.6-7.85,5.92-11.6,9.93-1.19,1.23-2.35,2.67-3.47,4.32-.63,1.07-.95,1.68-.94,1.82-.09.3-.05.45.13.45,5.25-5.21,8.22-8.1,8.91-8.67,2.18-1.88,4.17-3.41,5.98-4.59.34-.25,1.11-.69,2.33-1.32l8.39-3.35c.25-.15,1.35-.63,3.3-1.44l4.84-1.91c.42-.19.65-.43.68-.71.02-.11-.3-.17-.95-.19"/>
    <g id="layer3">
      <path class="cls-1" d="m508.54,83.98l-2.1,1.76c-5.61,4.67-11.31,9.23-17.1,13.68l1.91.6c1.55-.86,3.09-1.85,4.63-2.95.39-.24,1.54-1.14,3.45-2.71,2.34-1.96,4.19-3.75,5.58-5.36,1.78-2.19,2.99-3.86,3.63-5.02"/>
      <path class="cls-1" d="m485.04,109.5l-.43,2.11.15,1.4c.09.93.17,1.83.24,2.73.07.89.12,1.76.16,2.62.08,1.71.11,3.35.09,4.92,0,1.33-.06,3.18-.19,5.55-.22,3.37-.42,5.91-.59,7.6-.02.32-.03.55-.03.69.07.15.21-.14.42-.87.75-2.85,1.37-5.4,1.87-7.67.32-1.46.54-2.94.67-4.43.02-.29.03-.57.04-.86.02-.72.02-1.16.01-1.31,0-.59-.04-1.18-.09-1.77-.1-1.25-.37-2.85-.81-4.8-.41-1.93-.69-3.17-.84-3.74-.16-.71-.39-1.44-.68-2.18"/>
      <path class="cls-1" d="m486.47,125.22l-1.51,1.74c2.85,2.8,5.23,6.07,7.15,9.81,1.42,2.67,3.27,7.24,5.56,13.7.21.49.36.7.48.63.14-.5.17-1.18.07-2.04-.22-1.7-.48-3.16-.79-4.37-.89-3.38-1.85-6.19-2.9-8.44-.67-1.57-1.58-3.17-2.71-4.8-.21-.4-1.2-1.63-2.95-3.71-.74-.83-1.54-1.68-2.4-2.53"/>
      <path class="cls-1" d="m498.81,113.67h0s-.04.01-.06.03c-.28,4.47-.47,7.14-.58,8-.14,1.05-.21,1.61-.24,1.7-.11.65-.24,1.3-.4,1.95-.69,2.78-1.93,5.99-3.72,9.66l1.23,7.67c.24-.36.48-.88.73-1.57l.38-1.17c.26-.86.53-1.89.8-3.09s.56-2.56.85-4.09c.29-1.53.59-3.23.9-5.1l.27-1.81c.16-1.17.29-2.27.38-3.29l.12-1.48c.06-.95.09-1.83.09-2.64l-.03-1.16c-.04-.73-.11-1.4-.21-1.98-.22-1.2-.39-1.75-.51-1.64"/>
      <path class="cls-1" d="m623.22,104.2h-.02c-.18.1-.16,1.72.07,4.86.06,1.19.38,4.05.96,8.58.09.65.2,1.31.32,1.97.32,1.65.53,2.65.63,2.98.32,1.33.69,2.68,1.12,4.03.71,2.41,1.67,4.73,2.87,6.98l.95,1.67c.67,1.1,1.39,2.19,2.18,3.25.79,1.06,1.64,2.1,2.55,3.13l1.06-3.96c-.32-.27-1.21-1.46-2.68-3.56-.58-.88-1.15-1.82-1.7-2.82-1.03-1.79-2.18-4.24-3.45-7.36-.69-1.94-1.17-3.53-1.45-4.75l-2.02-9.99c-.12-.62-.31-1.5-.57-2.64-.38-1.56-.66-2.36-.83-2.38"/>
      <path class="cls-1" d="m532.36,54.67l-1.2.69c-.33,1.24-.63,2.15-.9,2.73-.31.75-.68,1.53-1.11,2.32-.29.54-.62,1.1-.98,1.68-2.28,3.5-3.55,5.45-3.8,5.86-.61.97-.94,1.5-.97,1.61,3.07-3.24,5.07-5.61,5.99-7.13.92-1.52,1.54-2.72,1.86-3.61l.3-.8c.19-.54.35-1.09.48-1.65.14-.56.25-1.12.33-1.7"/>
      <path class="cls-1" d="m542.38,54.66h-.02c-.05,0-.12.02-.2.04-1.36.66-2.57,1.22-3.65,1.69-1.07.47-2.01.85-2.8,1.13-1.64.57-3.17.96-4.59,1.17l-1.79,2.17c.7-.14,1.68-.44,2.94-.88l5.58-2.34.73-.33c.79-.34,1.72-.86,2.8-1.53,1-.7,1.33-1.07,1-1.1"/>
      <path class="cls-1" d="m583.45,52.61h-.02s-.07.03-.06.08l2.74,1.78,2.64,1.58,2.54,1.39,2.45,1.2,2.35,1.01,2.25.82,2.16.62,2.06.43,1.96.24-.67-1.29c-2.95-.41-5.9-1.21-8.85-2.42-1.18-.46-2.7-1.14-4.56-2.02-1.83-.87-4.05-1.97-6.64-3.31-.16-.08-.28-.12-.35-.12"/>
      <path class="cls-1" d="m596.3,59.05l.18.8c.14.54.32,1.11.54,1.69.61,1.5,1.02,2.43,1.23,2.78.64,1.26,1.48,2.69,2.51,4.27,1.01,1.55,1.97,2.9,2.9,4.04,1.14,1.34,1.81,2.07,2.01,2.22l.64.58c.09.03.12,0,.1-.09l-3.04-5.26c-.82-1.45-1.46-2.65-1.92-3.59-1.07-2.14-1.82-4.1-2.27-5.88l-2.88-1.57"/>
      <path class="cls-1" d="m600.04,187.04l-.18-.84c-.19-1.15-.18-2.42.05-3.81.11-.69.27-1.42.49-2.17.1-.47.48-1.54,1.15-3.19.6-1.3,1.43-2.81,2.51-4.52,1.2-1.85,2.78-4.1,4.74-6.75-2.17,2.28-4.12,4.77-5.85,7.47-1.77,2.78-3.29,5.65-4.57,8.6-.41.93-.88,2.26-1.41,4-.21,1.01-.29,1.86-.22,2.56l3.3-1.34"/>
      <path class="cls-1" d="m588.22,180.45h-.56c-1.5,0-3.08.05-4.74.12-1.62.11-2.5.19-2.63.22-.93.11-1.54.23-1.84.37-.14.06-.22.14-.22.25.03.05.07.09.11.1.04.03.27.08.7.16,3.09.34,5.65.64,7.66.92,2.01.28,3.49.52,4.43.73,1.61.37,2.92.74,3.95,1.12.62.22,1.26.46,1.93.73,1.73.72,2.8,1.19,3.21,1.4l.49-3.3c-.61-.37-1.2-.7-1.79-1-.59-.29-1.16-.55-1.73-.77-.57-.22-1.13-.4-1.68-.54l-.82-.18-.8-.12c-.62-.06-1.05-.09-1.3-.09-1.37-.07-2.83-.11-4.38-.11"/>
      <path class="cls-1" d="m501.69,163.58l1.7,2.46c4.34,6.3,6.53,9.52,6.55,9.67,1.24,1.93,2.23,4.04,2.98,6.33l3.07.7-.59-1.96-.84-2-1.09-2.05-1.34-2.09-1.59-2.13-1.84-2.17-2.09-2.21c-1.48-1.49-3.12-3-4.93-4.55"/>
      <path class="cls-1" d="m514.24,175.21h-.3c-.79.02-1.52.11-2.19.27l.95,1.43c2.13-.61,4.53-.8,7.22-.59,1.17.09,2.65.29,4.44.6.89.15,1.86.33,2.91.54,1.05.21,2.17.44,3.37.7l1.86.41s.09.01.14.01c.11,0,.16-.03.16-.12l-.64-.3c-.46-.2-.98-.39-1.56-.57-.58-.19-1.23-.37-1.94-.54s-1.48-.35-2.31-.51l-1.3-.24-1.39-.24c-1.07-.14-2.23-.28-3.47-.4-1.24-.12-2.57-.23-3.98-.34l-1.28-.09c-.17,0-.4-.02-.69-.02"/>
      <path class="cls-1" d="m567.9,174.7l-1.9,1.12c-3.66,2.19-6.47,4.02-8.45,5.49-2.06,1.62-3.48,2.88-4.28,3.8-1.55,1.65-2.76,3.33-3.64,5.04l3.14-.74c1.36-2.14,3.11-4.3,5.25-6.47,1.07-1.09,2.24-2.18,3.51-3.28l1.97-1.65c1.37-1.1,2.83-2.21,4.39-3.32"/>
      <path class="cls-1" d="m577.84,175.33h-.01s-.1.01-.1.01c-.96.55-1.87,1.04-2.73,1.49-.86.45-1.68.85-2.45,1.2-1.54.7-2.89,1.2-4.05,1.51-1.15.3-2.33.51-3.52.62-1.22.1-2.42.06-3.61-.13l-2.17,1.89c.67.13,1.44.19,2.31.17.83-.02,1.76-.09,2.79-.22.8-.1,1.59-.23,2.37-.39,1.68-.37,3.09-.79,4.22-1.25.62-.25,1.23-.53,1.83-.85l.88-.49c.58-.34,1.15-.72,1.71-1.13.42-.28,1.1-.84,2.05-1.7.56-.49.72-.74.48-.73"/>
    </g>
    <path class="cls-1" d="m739.41,223.66c-5.23.88-9.35,4.92-12.57,9.14-4.53,5.93-8.03,12.64-10.32,19.74-.82,2.54-1.49,5.21-1.09,7.84s2.08,5.23,4.64,5.97c2.46.72,5.05-.37,7.33-1.53,3.98-2.03,7.8-4.38,11.47-6.92,2.69-1.87,5.37-3.91,7.12-6.67,2.37-3.74,2.8-8.38,2.68-12.8-.12-4.42-.71-8.87-.11-13.25"/>
    <path class="cls-1" d="m379.41-27.98c-6.79,2.21-13.98,4.68-18.41,10.28-2.47,3.12-3.85,6.96-4.97,10.78-2.59,8.9-3.97,18.15-4.08,27.42-.03,2.34.17,5.01,1.99,6.49,2.59,2.11,6.43.4,9.26-1.39,3.76-2.37,7.48-4.79,11.16-7.27,2.2-1.48,4.42-3.01,6.07-5.09,1.85-2.34,2.85-5.23,3.65-8.1,2.09-7.58,2.93-15.49,2.48-23.34"/>
    <path class="cls-1" d="m353.33,225.66c5.15-.11,10.05-2.7,15.19-2.45,3.42.16,6.64,1.56,9.77,2.94,3.67,1.62,7.35,3.24,11.02,4.85,1.41.62,2.86,1.27,3.92,2.39,2.62,2.77,1.94,7.15,1.78,10.96-.26,6.24,1.35,12.39,2.28,18.57s1.1,12.81-1.82,18.33c-1.43,2.72-4.69,5.28-7.33,3.71"/>
    <path class="cls-2" d="m582.44,135.17c-1.01-.18-2.06-.37-3.04-.05-.61.2-1.14.57-1.66.94-.47.34-.95.68-1.29,1.15-.27.38-.44.84-.54,1.3-.08.34-.12.71.01,1.03.21.53.82.77,1.37.89.82.18,1.67.19,2.51.21.67.01,1.35.02,2-.14s1.28-.54,1.61-1.12"/>
    <path class="cls-1" d="m370.39,354.75c16.22-42.39,29.63-88.22,20.6-132.71-3.85-18.95-11.64-36.87-16.24-55.65-12.77-52.24.02-107.34,18.36-157.89,2.49-6.87,5.12-13.87,5.25-21.17s-2.78-15.13-9.08-18.84c-3.23-1.9-7.01-2.57-10.7-3.21-112.03-19.31-224.71-38.67-338.39-38.81-14.57-.02-30.55.81-41.31,10.65C-14.77-50.4-14.24-29.19-13.52-10.7c1.44,37.13-.51,74.38-5.84,111.16-6.48,44.74-17.9,90.61-6.88,134.45,3.15,12.52,8.1,24.58,14.65,35.7,5.49,9.31,12.22,18.08,20.97,24.43,9.56,6.93,21.03,10.63,32.28,14.23,35.34,11.29,70.77,22.6,107.12,30.02,44.26,9.04,89.48,12.23,134.55,15.41,20.98,1.48,41.97,2.95,62.95,4.43"/>
    <path class="cls-1" d="m759.95,310.46c-22.3-29.37-39.63-65.27-35.57-101.92,2.1-18.94,9.75-36.74,15.54-54.9,17.62-55.31,18.06-114.55,30.19-171.32.52-2.43,1.21-5.08,3.24-6.51,1.66-1.17,3.82-1.23,5.85-1.25,10.18-.11,20.37-.23,30.55-.34,17.09-.19,34.2-.38,51.23.99,19.48,1.56,38.74,5.15,58.15,7.43,60.31,7.08,121.34,1.48,182.03,3.33,6.41.2,13.18.59,18.49,4.19,5.92,4.01,8.78,11.16,10.77,18.02,5.87,20.26,6.98,41.56,7.66,62.64,1.02,31.52,1.17,63.07,1.32,94.61.16,33.03.31,66.06.47,99.08.02,4.1-.01,8.42-2.03,11.99-3.9,6.92-13.18,8.13-21.12,8.5-22.49,1.06-45.01,1.75-67.4,4.06-29.46,3.04-58.56,8.87-87.92,12.81-36.81,4.93-74.02,6.88-111.14,5.81"/>
  </g>
  <g id="Layer_2" data-name="Layer 2">
    <path class="cls-2" d="m756.13,100.52c2.16,3.33,4.93,6.46,8.27,8.64.05.03.09-.04.05-.08-2.57-2.41-4.96-4.96-6.87-7.92-1.89-2.94-3.38-6.12-4.37-9.47-1.98-6.72-1.72-13.94.59-20.55.64-1.83,1.44-3.6,2.33-5.32.89-1.72,1.84-3.44,2.93-5.04.12-.18-.16-.36-.31-.21-1.23,1.31-2.38,2.67-3.32,4.21-.93,1.52-1.72,3.14-2.35,4.81-1.27,3.35-2.05,6.87-2.27,10.44-.46,7.18,1.43,14.45,5.34,20.49Z"/>
    <path class="cls-2" d="m770.19,121.09c1.9,2.81,4.24,5.27,6.94,7.31.2.15.46-.13.26-.29-8.97-7.48-13.31-20.3-10.68-31.69.44-1.89,1.07-3.73,1.79-5.53.36-.9.77-1.8,1.09-2.72.34-1,.62-2.01.93-3.03,0-.01,0-.02,0-.03,1.02,1.97,2.25,3.83,3.68,5.54,2.11,2.51,4.67,4.88,7.59,6.4.18.09.37-.17.2-.29-2.32-1.78-4.53-3.6-6.42-5.84-1.86-2.2-3.43-4.67-4.65-7.28-2.54-5.46-3.34-11.65-2.36-17.59.27-1.65.68-3.28,1.21-4.86.27-.82.6-1.61.93-2.4.32-.75.74-1.5.81-2.32.02-.19-.26-.33-.41-.21-.55.44-.84,1.04-1.15,1.67-.36.73-.65,1.48-.93,2.24-.55,1.5-.99,3.05-1.3,4.62-.62,3.08-.78,6.26-.47,9.39.38,3.75,1.46,7.4,3.16,10.74-.1-.04-.22-.03-.29.08-.5.78-1.02,1.53-1.48,2.34-.49.87-.9,1.77-1.28,2.7-.68,1.69-1.3,3.41-1.76,5.17-.77,2.93-1.08,5.98-.97,9.01.22,5.98,2.19,11.92,5.55,16.87Z"/>
    <path class="cls-2" d="m758.71,167.11c.52,1.2,1.11,2.37,1.79,3.48.7,1.14,1.47,2.36,2.43,3.3.14.13.36-.06.25-.22-.62-.95-1.33-1.84-1.92-2.82-.63-1.04-1.19-2.13-1.65-3.25-.9-2.16-1.54-4.45-1.86-6.77-.61-4.48,0-9,1.64-13.2.89-2.28,2.09-4.5,3.38-6.58.06-.11-.09-.2-.17-.12-3.24,3.32-5.03,7.81-5.69,12.35-.68,4.64-.09,9.5,1.79,13.81Z"/>
    <path class="cls-2" d="m766.24,181.56c.55,1.05,1.16,2.06,1.83,3.03.65.94,1.33,1.96,2.22,2.69.1.08.24-.03.17-.15-.51-.87-1.18-1.65-1.74-2.5-.56-.85-1.07-1.73-1.54-2.64-.93-1.81-1.67-3.73-2.23-5.68-1.13-3.93-1.5-8.11-1-12.17.28-2.27.82-4.52,1.33-6.75.03-.15-.18-.23-.25-.09-1.99,3.67-2.38,8.15-2.11,12.27.27,4.17,1.38,8.28,3.33,11.99Z"/>
    <path class="cls-2" d="m766.17,146.95c1.17,1.77,2.63,3.43,4.32,4.71.23.17.53-.14.3-.34-2.75-2.45-4.91-5.35-6.13-8.85-1.21-3.47-1.48-7.2-.72-10.81.43-2.07,1.21-4.05,1.98-6.01.07-.17-.16-.37-.29-.2-2.28,3.02-3.04,7.12-2.92,10.84.13,3.8,1.35,7.48,3.45,10.65Z"/>
    <path class="cls-2" d="m428.18,246.09c-.38-2.92-1.37-5.79-2.72-8.4-2.79-5.39-7.3-9.63-12.39-12.85-1.42-.9-2.89-1.72-4.39-2.48-1.51-.76-3.08-1.59-4.7-2.08-.18-.05-.34.2-.16.3,1.26.74,2.63,1.32,3.92,2.02,1.3.7,2.57,1.45,3.82,2.25,2.44,1.57,4.74,3.34,6.82,5.37,4.14,4.05,7.28,9.16,8.35,14.9.3,1.59.44,3.2.49,4.82.05,1.6.04,3.2-.27,4.78-.02.08.11.1.14.03.51-1.39.98-2.84,1.17-4.31.18-1.45.12-2.91-.06-4.35Z"/>
    <path class="cls-2" d="m411.99,233.36c-1-2.41-2.29-4.71-3.8-6.84-3.02-4.26-7.08-7.88-11.69-10.34-2.55-1.36-5.28-2.49-8.12-3.01-.06-.01-.08.09-.02.11,2.43.85,4.84,1.75,7.1,2.98,2.22,1.2,4.33,2.62,6.25,4.26,3.91,3.33,7.03,7.56,9.11,12.25,1.18,2.67,1.86,5.49,2.85,8.23.02.07.14.05.14-.02.02-2.63-.82-5.2-1.82-7.61Z"/>
    <path class="cls-2" d="m818.7,109.04c.8.15,1.4-1.08.55-1.42-7.69-3.06-13.98-7.54-18.64-13.31,0-2.14-.82-4.22-1.22-6.39-.79-4.24-1.17-8.54-1.2-12.86-.04-6.93,1.12-13.85,1.91-20.74,5.21,6.33,11.84,10.8,20.18,12.97.29.08.49-.38.2-.51-9.62-4.12-18.17-12.2-23.17-21.31-5.39-9.83-5.97-20.29-8.43-30.95-.12-.51-.98-.53-1.06.02-1.57,11.03,2.14,23.44,7.62,32.99,1.22,2.13,2.56,4.11,4,5.95-3.24,6.81-4.09,14.1-4.01,21.63.04,3.76.37,7.52.96,11.23.11.67.2,1.37.3,2.08-2.54-4.63-4.27-9.87-5.05-15.71-.04-.28-.42-.28-.44,0-1.27,16.75,10.79,33.09,27.51,36.32Z"/>
    <path class="cls-2" d="m405.8,183.07s.06-.02.08-.05c.82-.9,1.25-1.89,1.57-3.06.3-1.08.51-2.18.62-3.29.21-2.12.06-4.28-.46-6.34-.4-1.61-1.04-3.14-1.87-4.56.73-.69,1.02-1.96,1.3-2.87.36-1.15.64-2.33.86-3.51.45-2.42.62-4.88.39-7.33-.37-4.01-1.92-8.04-4.72-10.99-1.48-1.56-3.29-2.93-5.39-3.48-.18-.05-.36.21-.17.32,1.6.92,3.13,1.95,4.39,3.31,1.27,1.37,2.3,2.94,3.06,4.64,1.77,3.92,1.96,8.3,1.3,12.51-.21,1.31-.51,2.6-.84,3.88-.15.6-.33,1.19-.48,1.78-.08.3-.16.61-.21.93-1.11-1.68-2.51-3.16-4.16-4.34-.84-.6-1.74-1.14-2.69-1.56-1.03-.46-2.02-.73-3.12-.92-.13-.02-.18.19-.05.23,3.48,1.14,6.59,3.25,8.75,6.22,2.34,3.23,3.35,7.4,3.08,11.35-.08,1.15-.26,2.3-.56,3.42-.32,1.2-.7,2.32-.88,3.55-1.08-.93-2.25-1.74-3.5-2.41-.92-.49-1.87-.91-2.86-1.25-.94-.32-2.01-.67-3.02-.55-.26.03-.23.36-.04.46.77.39,1.66.54,2.48.8.87.27,1.71.61,2.53,1,1.62.78,3.12,1.81,4.44,3.02,2.8,2.56,4.74,5.99,5.56,9.7.48,2.17.53,4.33.33,6.53-.04.4.54.44.61.06,1.18-6.42-1.57-12.96-6.34-17.19Z"/>
    <path class="cls-2" d="m430.63,85.05c-.11-1.31-.34-2.61-.67-3.88-.29-1.1-.6-2.41-1.29-3.33-.04-.06-.13,0-.12.06.16,1.06.64,2.09.9,3.14.26,1.03.45,2.07.56,3.12.24,2.19.17,4.42-.2,6.59-.67,3.94-2.44,7.65-5,10.71-.71.85-1.49,1.65-2.32,2.38-.76.68-1.61,1.28-2.33,2.01-.06-1.69-.36-3.37-.92-5.03-.74-2.17-1.79-4.21-2.87-6.22-.14-.26-.54-.07-.42.2,1.05,2.24,2.16,4.49,2.82,6.88.64,2.32.78,4.72.42,7.1-.35,2.31-1.19,4.54-2.39,6.54-.57.95-1.21,1.85-1.91,2.7-.65.78-1.55,1.48-1.96,2.43-.06.14.1.24.22.2.79-.26,1.34-.92,1.89-1.52.63-.69,1.21-1.42,1.74-2.19,1.02-1.47,1.85-3.08,2.44-4.78.67-1.93.98-3.91.96-5.89,1.79-.67,3.3-2.3,4.55-3.69,1.34-1.5,2.49-3.17,3.42-4.96,2-3.86,2.85-8.25,2.47-12.58Z"/>
    <path class="cls-2" d="m704.87,211.88c-1.52.51-2.93,1.39-4.27,2.26-1.33.85-2.59,1.8-3.79,2.82-2.44,2.06-4.62,4.44-6.46,7.04-4.05,5.72-6.45,12.44-6.88,19.44-.13,2.03-.08,4.07.13,6.09.2,2,.47,4.06,1.41,5.85.14.27.49.12.48-.15-.08-1.77-.49-3.49-.7-5.24-.22-1.77-.31-3.56-.27-5.35.07-3.56.63-7.1,1.7-10.49,1.95-6.18,5.5-11.71,10.29-16.06,1.29-1.17,2.66-2.25,4.1-3.24,1.43-.99,2.98-1.77,4.43-2.72.15-.1-.01-.29-.16-.24Z"/>
    <path class="cls-2" d="m748.99,170.4c-6.37-8.3-9.88-19.52-9.78-29.92.1-11.21,4.72-20.62,7.78-31.12.15-.51-.6-.94-.93-.5-5.17,6.76-8.04,15.73-9.05,24.5-1.76-1.7-3.48-3.39-4.98-5.35-1.68-2.19-3.11-4.57-4.28-7.06-2.51-5.37-3.64-11.32-3.34-17.24.08-1.66.28-3.32.58-4.95.14-.73.35-1.47.54-2.22,4.39,3.4,9.59,5.77,15.27,6.63.81.12,1.35-1.13.49-1.44-7.81-2.74-14.27-6.96-19.17-12.54-.09-2.14-.99-4.19-1.48-6.34-.96-4.2-1.52-8.49-1.72-12.8-.32-6.93.55-13.88,1.05-20.8,5.46,6.11,12.27,10.3,20.69,12.13.29.06.47-.4.17-.51-9.78-3.73-18.65-11.44-24.02-20.34-5.79-9.6-6.8-20.03-9.7-30.58-.14-.51-1-.49-1.06.06-1.12,11.08,3.1,23.33,8.97,32.65,1.31,2.07,2.72,4,4.24,5.78-2.96,6.94-3.51,14.25-3.12,21.78.2,3.76.68,7.49,1.42,11.18.13.66.26,1.36.39,2.07-2.73-4.52-4.67-9.69-5.69-15.49-.05-.28-.43-.26-.44.03-.37,10.71,4.68,21.04,12.76,27.77-.22.73-.35,1.5-.5,2.22-.32,1.55-.55,3.13-.67,4.72-.17,2.21-.13,4.44.1,6.65-2.85,1.07-5.58,2.75-7.68,4.95-2.25,2.35-4.02,5.12-5.21,8.15-2.44,6.24-2.08,13.41.88,19.41.84,1.71,1.89,3.3,3.16,4.73,1.16,1.3,2.55,2.79,4.15,3.53.14.07.25-.13.16-.24-.97-1.24-2.17-2.29-3.12-3.56-.96-1.28-1.79-2.65-2.53-4.06-1.48-2.82-2.44-5.89-2.75-9.06-.62-6.23,1.56-12.39,5.57-17.14,2.11-2.5,4.57-4.66,7.41-6.29.09.78.2,1.56.34,2.34,1.01,5.6,3.33,10.94,6.76,15.48,1.77,2.36,3.88,4.69,6.29,6.43-.26,2.49-.39,4.95-.36,7.34.02,2.45.22,4.83.58,7.14-6.16,4.36-10.46,10.29-14.08,16.91-1.81,3.3-3.35,6.74-4.65,10.27-.23.63-.49,1.29-.76,1.96.05-5.28,1.11-10.7,3.28-16.18.1-.26-.23-.45-.39-.21-7.3,10.99-7.31,25.78-.68,36.95-2.37.97-4.63,2.44-6.63,3.99-2.19,1.69-4.15,3.7-5.7,6-3.02,4.5-4.28,10.16-3.59,15.52.39,3.06,1.52,5.96,3.19,8.55.06.09.21.03.16-.07-2.5-4.62-3.36-10.28-2.46-15.45.93-5.36,3.88-9.98,8.02-13.44,1.17-.98,2.41-1.86,3.7-2.66,1.17-.73,2.39-1.33,3.59-1.99,1.77,2.87,3.97,5.49,6.62,7.73.62.53,1.75-.26,1.17-.97-5.21-6.43-8.5-13.41-9.75-20.73,1.04-1.87,1.35-4.09,2.06-6.17,1.39-4.08,3.16-8.03,5.24-11.8,3.36-6.07,7.75-11.53,11.81-17.16,1.45,8.07,5.05,15.21,11.26,21.18.22.21.61-.09.42-.35Z"/>
    <path class="cls-2" d="m425.13-10.41c-.09-.22-.39-.17-.47.02-.71,1.59-.61,3.54-.83,5.25-.24,1.81-.58,3.61-1.05,5.38-.94,3.53-2.32,6.94-4.1,10.13-3.37,6.03-8.19,11.19-13.97,14.98-1.61,1.06-3.3,2-5.03,2.84-.87.42-1.75.82-2.64,1.19-.84.35-1.71.61-2.47,1.11-.07.05-.03.18.06.18.78-.02,1.5-.27,2.23-.52.85-.29,1.7-.61,2.53-.96,1.63-.69,3.21-1.48,4.73-2.37,3-1.75,5.8-3.85,8.31-6.26,5.34-5.13,9.27-11.59,11.37-18.69.6-2.01,1.06-4.06,1.37-6.13.29-1.92.77-4.31-.02-6.15Z"/>
    <path class="cls-2" d="m754.58,251.84c.18-1.36.15-2.75.3-4.12.15-1.37.37-2.74.67-4.09.61-2.73,1.53-5.39,2.72-7.93,2.36-5.07,5.82-9.64,10.11-13.24,1.2-1,2.46-1.93,3.78-2.77,1.25-.8,2.61-1.44,3.82-2.3-.97,2.47-1.7,5.03-2.11,7.67-.21,1.33-.33,2.67-.38,4.01-.05,1.32-.08,2.67.15,3.97.03.16.24.09.25-.04.09-1.16.06-2.32.14-3.48.09-1.19.24-2.37.43-3.55.37-2.29.96-4.54,1.73-6.73,1.53-4.37,3.84-8.45,6.83-11.99.65-.77,1.34-1.48,2.05-2.17.32,9.6,4.47,19.06,12.14,25.37.63.52,1.74-.28,1.16-.98-5.3-6.36-8.69-13.29-10.03-20.59,1.02-1.89,1.29-4.1,1.98-6.2,1.33-4.1,3.05-8.07,5.08-11.87,3.27-6.11,7.59-11.64,11.57-17.32,1.56,8.05,5.26,15.14,11.55,21.02.22.21.61-.1.41-.35-6.48-8.21-10.15-19.38-10.2-29.78-.05-11.21,4.43-20.68,7.35-31.22.14-.51-.61-.93-.94-.49-6.64,8.94-9.3,21.62-9.04,32.63.06,2.45.29,4.83.68,7.13-6.1,4.44-10.32,10.44-13.84,17.1-1.76,3.33-3.26,6.78-4.51,10.33-.18.5-.38,1.03-.58,1.56-.05.04-.1.07-.15.11.01-5.19.99-10.51,3.05-15.92.1-.26-.23-.44-.39-.2-3.55,5.51-5.29,11.94-5.3,18.37-.72.7-1.42,1.43-2.07,2.17-1.57,1.76-2.97,3.67-4.18,5.69-1.01,1.69-1.88,3.45-2.63,5.26-.05-.04-.12-.07-.21-.05-1.37.33-2.63,1.1-3.82,1.84-1.23.76-2.4,1.6-3.53,2.51-2.23,1.8-4.26,3.84-6.05,6.09-3.52,4.45-6.1,9.63-7.4,15.16-.36,1.55-.63,3.12-.79,4.7-.15,1.54-.31,3.19-.04,4.72.02.11.2.1.22,0Z"/>
    <path class="cls-2" d="m735.61,8.98c.24,1.39.56,2.76.96,4.11.8,2.69,1.92,5.29,3.3,7.73,2.81,4.93,6.7,9.2,11.4,12.39,1.32.89,2.69,1.7,4.11,2.4.69.34,1.39.66,2.09.95.67.27,1.37.64,2.1.59.05,0,.07-.07.04-.1-.45-.44-1.05-.62-1.62-.88-.67-.3-1.33-.63-1.98-.97-1.19-.63-2.35-1.32-3.46-2.08-2.27-1.55-4.36-3.38-6.23-5.39-3.77-4.03-6.69-8.85-8.4-14.1-.46-1.43-.84-2.88-1.12-4.35-.29-1.52-.34-3.1-.72-4.6-.09-.37-.71-.36-.77.03-.2,1.42.04,2.88.28,4.28Z"/>
    <path class="cls-2" d="m760.28,38.3c2.56,6.23,6.25,12.04,10.86,16.96,2.57,2.74,5.42,5.29,8.55,7.37.25.16.53-.24.3-.43-5.14-4.03-9.73-8.61-13.42-14.03-1.85-2.73-3.48-5.62-4.82-8.62-1.27-2.84-2.39-5.81-2.99-8.88-.66-3.37-.61-7.19,1.03-10.29.04-.08-.08-.18-.14-.1-3.95,5.28-1.62,12.53.64,18.02Z"/>
    <path class="cls-2" d="m373.08,146.45c-1.71-3.59-4.05-7.04-7.07-9.64-.04-.04-.1.03-.06.07,2.23,2.72,4.28,5.56,5.79,8.75,1.5,3.16,2.56,6.51,3.11,9.96,1.09,6.92-.11,14.05-3.25,20.3-.87,1.74-1.9,3.38-3,4.97-1.1,1.59-2.27,3.17-3.56,4.62-.15.16.12.38.27.25,1.39-1.14,2.7-2.34,3.84-3.74,1.12-1.39,2.11-2.89,2.96-4.46,1.7-3.16,2.92-6.54,3.61-10.06,1.39-7.06.46-14.52-2.63-21.01Z"/>
    <path class="cls-2" d="m361.82,124.23c-1.52-3.03-3.52-5.77-5.93-8.15-.18-.17-.47.07-.3.25,7.92,8.58,10.56,21.86,6.46,32.81-.68,1.82-1.54,3.56-2.49,5.25-.48.85-1,1.68-1.43,2.56-.47.95-.88,1.92-1.32,2.88,0,0,0,.02,0,.03-.75-2.08-1.73-4.09-2.93-5.97-1.76-2.76-4-5.44-6.69-7.34-.16-.11-.39.12-.24.26,2.07,2.06,4.02,4.16,5.61,6.62,1.56,2.42,2.8,5.07,3.66,7.82,1.81,5.75,1.8,11.99.05,17.75-.48,1.6-1.1,3.16-1.83,4.66-.38.77-.8,1.52-1.24,2.26-.42.7-.93,1.39-1.1,2.19-.04.19.21.36.38.27.61-.36.97-.92,1.35-1.51.45-.68.84-1.39,1.21-2.1.74-1.42,1.38-2.89,1.89-4.41,1.01-2.97,1.59-6.1,1.68-9.25.11-3.77-.49-7.53-1.74-11.06.09.05.22.06.3-.04.6-.71,1.21-1.39,1.77-2.13.6-.8,1.13-1.64,1.62-2.51.9-1.58,1.73-3.21,2.42-4.89,1.14-2.8,1.85-5.79,2.13-8.81.56-5.96-.63-12.1-3.31-17.45Z"/>
    <path class="cls-2" d="m379.18,80.09c-.36-1.26-.8-2.49-1.33-3.69-.54-1.23-1.15-2.53-1.98-3.58-.12-.15-.36,0-.28.18.49,1.03,1.08,2,1.53,3.04.49,1.12.9,2.27,1.22,3.44.61,2.26.95,4.61.96,6.95.02,4.52-1.17,8.92-3.34,12.87-1.18,2.15-2.66,4.19-4.2,6.08-.08.1.06.21.15.14,3.65-2.87,6-7.09,7.25-11.51,1.27-4.52,1.32-9.41.02-13.93Z"/>
    <path class="cls-2" d="m373.6,64.78c-.41-1.11-.88-2.19-1.42-3.24-.52-1.02-1.07-2.11-1.85-2.96-.09-.09-.24,0-.19.12.4.93.96,1.79,1.4,2.7.44.92.84,1.86,1.18,2.81.69,1.92,1.17,3.91,1.47,5.93.61,4.04.44,8.23-.59,12.19-.58,2.22-1.4,4.37-2.2,6.52-.05.15.15.25.24.13,2.45-3.39,3.42-7.78,3.69-11.89.28-4.17-.3-8.39-1.74-12.32Z"/>
    <path class="cls-2" d="m369.17,99.11c-.93-1.91-2.16-3.74-3.68-5.23-.2-.2-.54.07-.35.29,2.4,2.78,4.18,5.94,4.93,9.57.75,3.6.53,7.33-.69,10.81-.7,1.99-1.72,3.86-2.75,5.7-.09.16.11.39.26.23,2.66-2.7,3.94-6.66,4.3-10.37.37-3.79-.37-7.59-2.04-11Z"/>
    <path class="cls-2" d="m312.16,129.86c-.77-.26-1.53.89-.73,1.33,7.23,4.04,12.88,9.29,16.75,15.62-.27,2.12.26,4.29.38,6.5.23,4.31.05,8.62-.48,12.9-.86,6.88-2.91,13.59-4.59,20.32-4.34-6.95-10.34-12.24-18.32-15.48-.28-.11-.53.31-.26.48,9,5.34,16.43,14.45,20.2,24.14,4.07,10.45,3.28,20.9,4.34,31.78.05.52.9.65,1.05.12,2.99-10.73.93-23.52-3.27-33.7-.93-2.27-2-4.4-3.19-6.42,4.1-6.33,5.89-13.44,6.79-20.93.45-3.74.61-7.5.5-11.26-.02-.67-.02-1.38-.03-2.1,1.92,4.92,2.95,10.34,2.97,16.24,0,.28.38.33.43.05,3.43-16.44-6.39-34.22-22.56-39.59Z"/>
    <path class="cls-2" d="m394.29-3.39c-.36,1.33-.5,2.71-.83,4.04-.33,1.34-.73,2.67-1.2,3.97-.96,2.63-2.22,5.15-3.73,7.51-3,4.72-7.03,8.8-11.75,11.81-1.32.84-2.69,1.6-4.11,2.26-1.34.63-2.78,1.09-4.09,1.78,1.29-2.32,2.34-4.77,3.09-7.33.38-1.29.68-2.6.9-3.93.22-1.3.43-2.64.37-3.96,0-.16-.23-.12-.26.01-.24,1.14-.36,2.29-.6,3.43-.24,1.17-.55,2.32-.89,3.47-.66,2.22-1.54,4.37-2.59,6.45-2.08,4.14-4.91,7.88-8.33,11-.74.68-1.52,1.29-2.31,1.88.93-9.56-1.95-19.48-8.74-26.73-.56-.59-1.76.05-1.28.82,4.43,6.99,6.88,14.31,7.27,21.72-1.25,1.74-1.82,3.9-2.76,5.89-1.85,3.89-4.07,7.61-6.58,11.11-4.04,5.64-9.04,10.55-13.72,15.67-.5-8.18-3.24-15.69-8.72-22.35-.19-.23-.62.02-.46.29,5.36,8.99,7.54,20.54,6.24,30.86-1.41,11.12-7.09,19.93-11.35,30-.21.48.48,1,.87.61,7.75-8,12.03-20.23,13.2-31.17.26-2.44.34-4.82.26-7.16,6.63-3.61,11.59-9.01,15.95-15.15,2.18-3.07,4.11-6.3,5.82-9.66.24-.47.51-.97.77-1.47.05-.03.11-.06.16-.09-.69,5.14-2.35,10.29-5.09,15.38-.13.25.17.47.36.25,4.24-5,6.79-11.15,7.65-17.53.81-.6,1.59-1.23,2.34-1.88,1.78-1.54,3.42-3.25,4.88-5.1,1.22-1.55,2.32-3.18,3.29-4.88.05.05.11.09.2.08,1.41-.15,2.75-.75,4.03-1.33,1.31-.6,2.59-1.28,3.82-2.03,2.45-1.49,4.73-3.26,6.79-5.25,4.07-3.95,7.3-8.76,9.31-14.07.56-1.48,1.03-3.01,1.39-4.55.35-1.51.72-3.12.65-4.67,0-.11-.19-.12-.22-.02Z"/>
    <path class="cls-2" d="m381.53,239.87c-.06-1.41-.2-2.81-.42-4.2-.45-2.77-1.21-5.5-2.27-8.09-2.14-5.25-5.44-10-9.69-13.77-1.19-1.06-2.45-2.03-3.77-2.92-.64-.43-1.29-.83-1.95-1.21-.63-.36-1.27-.82-2.01-.86-.05,0-.08.06-.05.1.39.5.96.75,1.5,1.08.62.39,1.24.79,1.84,1.22,1.1.78,2.16,1.62,3.16,2.52,2.05,1.83,3.88,3.92,5.48,6.15,3.21,4.49,5.48,9.64,6.49,15.07.27,1.47.46,2.97.54,4.46.09,1.55-.07,3.12.11,4.66.04.38.66.45.77.07.39-1.38.33-2.86.27-4.28Z"/>
    <path class="cls-2" d="m360.88,207.6c-1.73-6.51-4.63-12.75-8.56-18.22-2.19-3.05-4.68-5.95-7.52-8.42-.22-.19-.56.17-.35.38,4.58,4.67,8.53,9.8,11.48,15.65,1.48,2.94,2.72,6.02,3.66,9.18.89,2.98,1.62,6.07,1.81,9.19.21,3.43-.33,7.21-2.36,10.07-.05.08.06.19.13.11,4.61-4.72,3.24-12.21,1.71-17.95Z"/>
    <path class="cls-2" d="m854.5,120.74c-.82-1.1-1.82-2.07-2.67-3.15-.85-1.09-1.65-2.22-2.38-3.39-1.48-2.38-2.68-4.93-3.61-7.57-1.86-5.27-2.59-10.96-2.05-16.53.15-1.56.41-3.1.76-4.63.33-1.44.85-2.86,1.12-4.32,1.03,2.44,2.31,4.78,3.86,6.96.78,1.1,1.63,2.14,2.54,3.13.89.97,1.81,1.97,2.89,2.73.13.09.23-.11.15-.21-.74-.89-1.58-1.7-2.34-2.59-.77-.91-1.49-1.86-2.18-2.84-1.34-1.89-2.49-3.91-3.48-6.01-1.97-4.19-3.18-8.72-3.52-13.35-.07-1-.08-1.99-.05-2.98,6.95,6.62,16.54,10.48,26.43,9.61.81-.07,1.05-1.42.14-1.51-8.24-.83-15.51-3.41-21.58-7.68-.59-2.06-1.95-3.84-2.93-5.81-1.92-3.86-3.48-7.89-4.68-12.03-1.94-6.66-2.73-13.62-3.87-20.47,6.75,4.65,14.35,7.13,22.96,6.92.3,0,.36-.5.05-.54-10.38-1.32-20.82-6.73-28.13-14.12-7.89-7.97-11.32-17.87-16.61-27.44-.25-.46-1.09-.24-1.01.31,1.52,11.04,8.5,21.95,16.39,29.62,1.76,1.71,3.59,3.25,5.48,4.62-1.25,7.44-.06,14.68,2.09,21.9,1.07,3.61,2.42,7.12,4.01,10.53.23.48.45,1,.68,1.52-.01.06-.02.12-.03.18-3.62-3.71-6.65-8.2-8.97-13.5-.11-.26-.48-.15-.42.13,1.32,6.42,4.59,12.23,9.08,16.83-.02,1.01-.01,2.01.04,3,.11,2.35.45,4.7,1,6.99.46,1.91,1.07,3.78,1.81,5.6-.07,0-.14.03-.18.11-.75,1.2-1.11,2.62-1.44,3.99-.34,1.4-.59,2.83-.76,4.26-.34,2.85-.35,5.73-.05,8.58.6,5.64,2.39,11.15,5.33,16,.82,1.36,1.73,2.67,2.73,3.9.97,1.2,2.01,2.49,3.27,3.39.09.07.21-.07.15-.16Z"/>
    <path class="cls-2" d="m842.3,238.63c.62.53,1.75-.24,1.18-.96-5.16-6.47-8.4-13.47-9.6-20.8,1.06-1.86,1.38-4.08,2.11-6.16,1.42-4.07,3.21-8,5.33-11.76,3.4-6.04,7.83-11.48,11.93-17.07,1.39,8.08,4.94,15.24,11.1,21.26.22.21.61-.09.42-.34-6.31-8.35-9.74-19.59-9.57-29.99.18-11.21,4.87-20.59,8.01-31.06.15-.5-.59-.95-.93-.51-6.83,8.8-9.75,21.42-9.72,32.43,0,2.45.19,4.83.53,7.15-6.19,4.31-10.54,10.22-14.2,16.8-1.83,3.29-3.4,6.71-4.73,10.24-.24.63-.5,1.29-.77,1.96.09-5.28,1.18-10.69,3.39-16.15.1-.26-.22-.45-.38-.21-9.4,13.92-7.03,34.09,5.91,45.18Z"/>
    <path class="cls-2" d="m273.09,141.42c-.81-.12-1.35,1.13-.49,1.44,7.8,2.76,14.26,6.99,19.15,12.58.09,2.14.98,4.19,1.47,6.34.95,4.21,1.5,8.49,1.7,12.8.31,6.93-.58,13.88-1.1,20.8-5.45-6.12-12.25-10.33-20.67-12.17-.29-.06-.47.4-.18.51,9.77,3.75,18.63,11.48,23.98,20.39,5.77,9.61,6.76,20.05,9.63,30.6.14.51,1,.49,1.06-.06,1.14-11.08-3.05-23.34-8.9-32.66-1.3-2.08-2.71-4-4.23-5.79,2.98-6.93,3.54-14.24,3.17-21.77-.19-3.76-.66-7.5-1.4-11.19-.13-.66-.25-1.36-.38-2.07,2.72,4.53,4.65,9.7,5.66,15.5.05.28.43.26.44-.02.61-16.78-12.07-32.65-28.91-35.22Z"/>
    <path class="cls-2" d="m331.59-3.77c-.13,1.37-.04,2.75-.14,4.13-.1,1.38-.27,2.75-.51,4.11-.5,2.76-1.32,5.45-2.41,8.03-2.17,5.16-5.44,9.86-9.59,13.62-1.16,1.05-2.39,2.03-3.67,2.92-1.22.85-2.55,1.54-3.73,2.45.88-2.5,1.5-5.09,1.81-7.75.16-1.33.23-2.68.23-4.02,0-1.32-.02-2.67-.31-3.96-.03-.15-.24-.08-.25.05-.05,1.16.03,2.32,0,3.49-.04,1.19-.15,2.38-.29,3.57-.28,2.3-.79,4.57-1.46,6.79-1.35,4.43-3.51,8.6-6.36,12.25-.62.79-1.28,1.53-1.96,2.24-.7-9.58-5.2-18.87-13.12-24.88-.65-.49-1.73.35-1.12,1.03,5.54,6.15,9.2,12.95,10.83,20.19-.94,1.92-1.13,4.15-1.73,6.27-1.17,4.15-2.73,8.18-4.61,12.06-3.03,6.24-7.13,11.93-10.89,17.76-1.87-7.98-5.84-14.92-12.36-20.56-.23-.2-.61.13-.4.37,6.8,7.95,10.9,18.97,11.35,29.36.49,11.2-3.63,20.84-6.13,31.49-.12.51.64.91.96.45,6.29-9.19,8.45-21.97,7.76-32.95-.15-2.45-.48-4.81-.95-7.1,5.92-4.67,9.91-10.83,13.17-17.63,1.63-3.39,2.99-6.9,4.1-10.5.16-.51.34-1.04.51-1.58.05-.04.1-.08.14-.11.19,5.18-.58,10.54-2.43,16.02-.09.27.25.43.4.19,3.34-5.65,4.82-12.14,4.58-18.57.69-.73,1.36-1.48,1.99-2.24,1.5-1.82,2.83-3.78,3.95-5.85.94-1.73,1.75-3.52,2.42-5.36.05.04.12.07.21.04,1.36-.39,2.58-1.2,3.74-1.99,1.19-.81,2.34-1.7,3.43-2.64,2.16-1.88,4.11-4.01,5.8-6.32,3.35-4.58,5.72-9.86,6.8-15.44.3-1.56.51-3.14.6-4.72.09-1.54.18-3.19-.15-4.71-.02-.11-.21-.09-.22.02Z"/>
    <path class="cls-2" d="m236.86,131.12c.87,1.07,1.9,1.99,2.79,3.04.89,1.05,1.74,2.15,2.51,3.3,1.57,2.32,2.87,4.82,3.91,7.42,2.06,5.2,3.02,10.85,2.69,16.44-.09,1.56-.28,3.12-.58,4.65-.28,1.46-.74,2.89-.95,4.36-1.13-2.4-2.5-4.69-4.13-6.8-.82-1.06-1.71-2.07-2.66-3.03-.93-.94-1.89-1.89-3-2.62-.13-.09-.23.12-.14.21.78.86,1.65,1.64,2.43,2.49.81.88,1.56,1.8,2.29,2.75,1.41,1.84,2.64,3.81,3.71,5.87,2.14,4.11,3.51,8.59,4.03,13.2.11,1,.15,1.99.17,2.98-7.2-6.35-16.93-9.83-26.78-8.58-.81.1-.99,1.46-.08,1.52,8.26.51,15.63,2.8,21.87,6.83.67,2.03,2.1,3.76,3.16,5.69,2.07,3.78,3.78,7.75,5.15,11.84,2.2,6.58,3.26,13.51,4.66,20.3-6.92-4.39-14.62-6.56-23.22-6.02-.3.02-.34.51-.03.54,10.42.92,21.06,5.92,28.66,13.02,8.19,7.65,12,17.42,17.67,26.77.27.45,1.1.2,1-.35-1.95-10.97-9.35-21.6-17.53-28.96-1.82-1.64-3.71-3.1-5.65-4.4.96-7.48-.51-14.67-2.94-21.8-1.21-3.56-2.7-7.02-4.42-10.37-.24-.47-.49-.98-.74-1.49,0-.06.01-.12.02-.18,3.76,3.57,6.97,7.94,9.49,13.14.12.25.48.13.41-.14-1.57-6.37-5.06-12.04-9.73-16.46-.02-1.01-.07-2.01-.15-2.99-.2-2.35-.63-4.68-1.27-6.94-.54-1.89-1.22-3.74-2.03-5.52.07,0,.13-.04.18-.11.7-1.23,1.01-2.66,1.28-4.04.28-1.42.48-2.85.6-4.29.23-2.86.13-5.74-.28-8.58-.82-5.61-2.82-11.05-5.95-15.78-.87-1.32-1.83-2.6-2.88-3.8-1.02-1.16-2.11-2.41-3.4-3.26-.09-.06-.21.08-.14.16Z"/>
    <path class="cls-2" d="m244.46,12.84c-.64-.51-1.74.31-1.14,1,5.41,6.26,8.92,13.14,10.4,20.41-.98,1.9-1.22,4.13-1.86,6.24-1.26,4.12-2.9,8.12-4.87,11.96-3.16,6.17-7.38,11.77-11.26,17.52-1.7-8.02-5.53-15.04-11.92-20.81-.22-.2-.61.11-.41.36,6.63,8.1,10.49,19.2,10.73,29.6.25,11.21-4.06,20.76-6.79,31.35-.13.51.63.92.95.47,6.48-9.06,8.91-21.78,8.45-32.78-.1-2.45-.37-4.82-.8-7.12,6.02-4.55,10.13-10.62,13.54-17.34,1.7-3.36,3.14-6.84,4.32-10.41.21-.64.45-1.3.69-1.99.12,5.28-.77,10.73-2.76,16.27-.09.26.24.44.39.2,8.85-14.27,5.69-34.34-7.66-44.92Z"/>
    <path class="cls-2" d="m314.18,130.81c-5.69-2.79-10.64-7.06-14.24-12.28l.26,9.15-11.57-16.3,1.6,10.23c-3.63-4.54-7.25-9.08-10.88-13.62.51.5.39,1.35.11,2s-.71,1.28-.72,1.99c-.01.85.57,1.59,1.12,2.24,3.6,4.24,7.2,8.48,10.8,12.72.29.34.62.71,1.07.79.74.13,1.39-.65,1.41-1.4s-.38-1.44-.77-2.09c2.83,3.25,5.65,6.5,8.48,9.75.3.34.65.71,1.1.73.82.03,1.18-1.08,1.02-1.89s-.56-1.65-.26-2.42c.25-.64.96-1.02,1.65-1.07s1.37.15,2.03.36c6.41,2.07,12.46,5.24,17.81,9.33"/>
    <path class="cls-2" d="m418.42,57.14l.2-.19"/>
    <path class="cls-2" d="m421.03,53.3l-5.22-14.16-3,13.25c-2.09-6.42-4.19-12.84-6.28-19.26,0,4.63.02,9.26.03,13.89-2.56-4.85-5.12-9.69-7.68-14.54l-.19,7.3c-4.92-7.35-9.04-15.24-12.26-23.48-.92.81-1.84,1.62-2.77,2.43,3.01,10.04,7.19,19.74,12.43,28.82.36.63,1.19,1.33,1.69.8.23-.25.21-.63.17-.97-.24-2.1-.49-4.21-.73-6.31,2.65,5.35,5.29,10.7,7.94,16.05.56-3.14,1.12-6.29,1.68-9.43,1.94,4.33,3.88,8.65,5.82,12.98,1.2-3.96,2.4-7.92,3.6-11.89l3.23,9.11"/>
    <path class="cls-2" d="m807.16,165.97c-1.84-7.35-3.68-14.7-5.53-22.05-.51,3.16-1.02,6.32-1.54,9.49-2.92-8.79-5.85-17.58-8.77-26.37-.5,4.38-.99,8.76-1.49,13.15-2.43-6.76-4.86-13.52-7.29-20.28-.49,2.44-.97,4.88-1.46,7.32-3.06-8.01-6.12-16.03-9.18-24.04-.72,1.7-1.44,3.4-2.16,5.1-3.08-6.52-3.49-14.26-1.12-21.07.6,4.09,1.2,8.18,1.8,12.27.68-1.26,1.36-2.51,2.04-3.77,3.1,7.46,6.2,14.91,9.3,22.37.33-2.22.66-4.45.99-6.67,2,5.19,4.01,10.38,6.01,15.57-.03-4.11.52-8.22,1.61-12.18,2.62,6.75,5.25,13.49,7.87,20.24.74-3.07,1.48-6.14,2.22-9.21,2.74,9.15,5.47,18.3,8.21,27.46-.28-.2-.57-.41-.85-.61"/>
    <path class="cls-2" d="m535.17,249.01c11.27-6.65,24.42-10.07,37.5-9.75,13.08.31,26.05,4.36,36.98,11.54"/>
    <path class="cls-2" d="m622.06,252.69c6.58-3.55,13.28-7.01,20.5-8.96s15.07-2.28,22.06.37c4.27,1.62,8.12,4.34,11.08,7.82"/>
    <path class="cls-2" d="m372.68,248.02c-8.92-9.72-18.99-18.39-29.92-25.78,3.74,6.36,7.47,12.71,11.21,19.07-5.64-3.83-11.27-7.65-16.91-11.48,11.73,13.14,18.76,30.38,19.55,47.97"/>
    <path class="cls-2" d="m705.43,253.52c5.11-14.27,15.85-26.44,29.38-33.28-6.33,7.79-11.06,16.87-13.83,26.52,8.62-11.3,19.38-20.98,31.53-28.36-10.74,12.48-16.83,28.86-16.88,45.32"/>
    <path class="cls-2" d="m741.61,161.57l12.34,20.79c-1.13-2.04-1.22-4.63-.22-6.74,2.82,5.8,5.63,11.6,8.45,17.4-3.32-8.26-6.65-16.53-9.97-24.79.15,2.27.3,4.54.45,6.8-7.15-8.63-12.15-19.02-14.44-29.98.13.99.26,1.98.39,2.98"/>
    <path class="cls-2" d="m330.77,81.59c-.35,6.66.35,13.38,2.07,19.82.81-1.8,1.62-3.6,2.43-5.39,1.25,7.41,2.3,14.85,3.14,22.32.03-1.73,2.53-2.45,3.99-1.5s2.03,2.75,2.51,4.41c1,3.45,2,6.9,3,10.36.72-1.15,1.44-2.3,2.16-3.45,5.17,9.74,7.52,20.94,6.71,31.94l-7.46-21.48-1.74,5.67-7.06-20.18-1.25,6.63c-2.46-7.4-4.92-14.81-7.38-22.21l-.58,7.23c-1.65-4.58-3.29-9.15-4.94-13.73-1.33-3.69-2.65-7.85-1.02-11.42"/>
    <path class="cls-2" d="m497.92-3.59c7.65,6.78,18.93,8.28,28.91,6.07s18.93-7.66,27.32-13.49"/>
    <path class="cls-2" d="m530.71-1.61c.93,3.32,4.08,5.69,7.43,6.51s6.89.34,10.25-.45c9.52-2.25,18.44-6.98,25.63-13.61"/>
    <path class="cls-2" d="m551.99,1.49c3.99,4.67,10.1,7.2,16.21,7.76s12.28-.69,18.12-2.59c-7.62,1.18-15.48.76-22.93-1.22-3.1-.82-6.36-2.09-8.06-4.81"/>
    <path class="cls-2" d="m635.04-4.19c-.13,1.9-1.24,3.63-2.71,4.84s-3.27,1.94-5.09,2.5c-8.84,2.69-18.84,1.26-26.57-3.8"/>
    <path class="cls-2" d="m612.9,2.69c-6.93,4.21-15.07,6.41-23.18,6.27,11.22,1.61,23.06-1.69,31.82-8.87"/>
    <path class="cls-2" d="m462.82-8.06c-4.78,10.54-11.89,20.02-20.67,27.56,13.37-7.83,24.22-19.88,30.61-34"/>
    <path class="cls-2" d="m482.93-4.16c-2.93,5.13-8.09,8.71-13.59,10.86s-11.42,3.03-17.27,3.9c7.78,1.3,16.03-.4,22.66-4.68s11.58-11.09,13.6-18.72"/>
    <path class="cls-2" d="m658.09-3.72c4.05,5.68,9.94,9.84,16.24,12.82s13.06,4.86,19.78,6.73c-11.61-4.38-22.22-11.4-30.81-20.36-.51-.53-1.05-1.18-.95-1.9s1.29-1.13,1.55-.44"/>
    <path class="cls-2" d="m685.16-4.87c3.1,7.97,8.14,15.18,14.55,20.84-5.22-6.11-7.95-14.29-7.45-22.32"/>
    <path class="cls-2" d="m440.08,169.9c-1.34-7.47-5.47-14.11-9.52-20.54,5.54,12.33,8.53,25.8,8.73,39.32.97-6.19,1.33-12.47,1.05-18.73"/>
  </g>
</svg>