<?xml version="1.0" encoding="UTF-8"?>
<svg xmlns="http://www.w3.org/2000/svg" viewBox="0 0 1366 768">
  <defs>
    <style>
      .cls-1 {
        fill: #760011;
      }

      .cls-2 {
        fill: #d1d1d1;
      }

      .cls-3 {
        fill: #d6d6d8;
      }

      .cls-4 {
        fill: #dbdbdb;
      }

      .cls-5, .cls-6 {
        fill: none;
        stroke: #000;
        stroke-miterlimit: 10;
      }

      .cls-7 {
        fill: #e57a1a;
      }

      .cls-8 {
        fill: #212121;
      }

      .cls-9 {
        fill: #a50010;
      }

      .cls-10 {
        fill: #535353;
      }

      .cls-11 {
        fill: #e8e8e8;
      }

      .cls-12 {
        fill: #a35216;
      }

      .cls-13 {
        fill: #ff841f;
      }

      .cls-6 {
        stroke-width: .69px;
      }

      .cls-14 {
        fill: #b5b5b5;
      }

      .cls-15 {
        fill: #bc0024;
      }

      .cls-16 {
        fill: #919191;
      }
    </style>
  </defs>
  <g id="Layer_15" data-name="Layer 15">
    <path class="cls-2" d="m-3.94,647.39c.31-.16,9.42-2.88,9.65-2.93s7.47-.77,7.47-.77l7.9.58,7.76,1.9,7.81,2.88s6.77,3.36,6.96,3.37,7.99,5.32,7.99,5.32l4.74,3.92,3.92,4.51s2.42,4.04,2.65,4.02,1.59,3.45,1.59,3.45c0,0,.25,2.08.57,2.24s4.28-.95,4.28-.95c0,0,5.63-1.89,5.78-1.93s8.11-.93,8.23-1,8.47.85,8.47.85l6.82,2.32,6.14,3.25,1.29-1.28s6.53-6.77,6.54-6.87,7.32-5.96,7.32-5.96l8.04-4.82,9.16-3.93,8.39-2.35,9.14-1.37,7.75.2,9.22,1.14s6.6,1.83,6.85,1.85,10.66,4.28,10.66,4.28l8.33,5.63,7.71,6.39s3.55,3.98,3.63,3.86.67-3.7.67-3.7l2.96-7.77,5.21-8.17,5.49-5.41,7.98-5.8s9.53-3.99,9.64-4.12,9-2.65,9-2.65c0,0,5.53-.57,5.77-.62s7.42-.94,7.42-.94c0,0,4.93-.14,5.14-.21s4.33,0,4.68,0,5.32-1,5.87-1.12,8.19-.49,8.37-.57,3.35.54,3.6.57,10.45,2.43,10.45,2.43c0,0,4.1,2.14,4.78,2.38s7.9,4.88,8.11,4.87,7.07,6.77,7.25,6.85,3.18,4.33,3.37,4.55.94.49.94.49l.72-1.19s4.07-4.35,4.25-4.36,6.14-3.42,6.22-3.57,6.02-2.13,6.02-2.13c0,0,5.34-.85,5.47-.81s4.86.62,5.01.63,6.65,2.01,6.65,2.08,3.69,2.29,3.89,2.38,5.22,4.24,5.32,4.29,3.49,4.29,3.63,4.48,1.71,3.77,1.79,3.92,2.35,5.78,2.35,5.78l1.08,5.53s1.31-3.28,1.37-3.44,3.83-11.5,3.88-11.61,3.95-7.64,4.02-7.74,3.94-4.61,3.94-4.61c0,0,3.08-1.95,3.39-2.14s3.55-1.53,3.68-1.56,3.52-.58,3.69-.57,7.94.96,8.09,1.04,3.88,1.41,3.96,1.48,5.58,3.74,5.58,3.74c0,0,4.66,5.2,4.75,4.92s1.1-1.82,1.1-1.82c0,0,5.24-4.89,5.34-4.94s5.16-3.26,5.28-3.35,6.81-3.2,6.92-3.22,6.46-2.36,6.46-2.36c0,0,9.46-2.35,9.52-2.26s8.86-1.22,8.86-1.22c0,0,7.5-.81,7.67-.84s8.1-1.1,8.42-1.06,8.14-.36,8.14-.36c0,0,9.11.23,9.35.21s8.51,1.5,8.69,1.59,5.1,1.67,5.22,1.79,8.37,4.9,8.48,4.94,5.28,4.37,5.38,4.38,4.9,5.3,5.07,5.41,6.65,8.65,6.71,8.74,3.01,4.48,3.01,4.48c0,0,1.2-.91,1.21-1.01s5.77-9.38,5.94-9.55,7.16-7.25,7.33-7.35,3.33-2.37,3.69-2.66,9.24-5.58,9.44-5.64,10.32-2.36,10.52-2.4,9.57-1.18,9.74-1.13,4.57.5,4.79.53,8.39,1.39,8.39,1.39c0,0,4.15,1.39,4.44,1.42s2.94,1.12,3.36,1.3,4.53,2.53,4.7,2.52,2.65-1.34,2.89-1.42,6.48-3.37,6.48-3.37l7.29-1.57,10.6-1.09s6.27.66,6.49.67,5.83.55,6.17.6,10.3,2.41,10.45,2.45,6.61,1.9,6.61,1.9c0,0,11.84,3.93,12,3.99s5.39-1.36,5.39-1.36l7.13-1.75s8.46-.74,8.64-.68,10.26-.24,10.14-.24,11.7,1.96,11.7,1.96c0,0,10.34,2.7,10.46,2.76s9.43,3.37,9.57,3.42,11.08,6.07,11.08,6.07c0,0,5.54,4.28,5.68,4.34s3.46,2.53,3.46,2.53l3.32-7.15s4.42-7.58,4.62-7.64,6.3-7.22,6.3-7.22l6.42-6.14s7.95-5.38,8.09-5.5,8.92-4.32,8.92-4.32c0,0,8.32-2.97,8.51-2.94s10.09-1.81,10.09-1.81l11.6-.27s10.09,1.42,10.39,1.42,11.84,2.82,11.99,2.83,13.38,6.73,13.74,6.89,8.94,8.62,9.5,8.81,5.05,8.36,5.05,8.36c0,0,3.46,2.87,3.82,3.02s5.36,3.8,5.57,4.07,1.85,1.78,2.24,1.74,3.33-.09,3.8-.02,9.68,1.33,9.68,1.33l9.24,3.11,7,3.18s6.35,4.59,6.58,4.76,5.96,5.51,6.18,5.72,3.8,4.71,4.02,4.92,1.2,2.49,1.64,2.89,4.64-.61,4.76-.67,2.03-2.38,2.03-2.38c0,0,5.63-4.56,5.81-4.67s8.66-5.58,8.66-5.58c0,0,8.33-4.34,8.42-4.44s10.13-4.69,10.13-4.69c0,0,11.21-4.19,11.36-4.22s14.27-3.38,14.44-3.45,13.21-2.17,13.21-2.17l13.11-.92,15.13.29s13.02,1.71,13.14,1.75,10,2.01,10.09,2.14,10.61,3.38,10.91,3.29,10.18-2.08,10.18-2.08c0,0,10.93-.32,11.31-.34s12.95,1.67,12.95,1.67l13.71,4.15,4.91,2,7.03,3.85s4.17-2.73,4.73-2.76,7.8-4.28,7.82-4.32,9.37-3.63,9.37-3.63l10.27-1.83,12.12-.87,11.95,1.53s8.04,1.55,8.24,1.89,8.95,3.39,8.95,3.39c0,0,.64.13.79.1s4.53-.3,5.04-.64,2.67-.78,2.99-.88,1.34.02,1.68-.45,1.95-1.52,1.95-1.52c0,0,5.41-5.7,5.53-5.65s7.37-4.93,7.6-4.93,8.46-3.39,8.46-3.39l9.98-2.25s11.05-.67,11.19-.66,10.86,1.11,10.99,1.12,11.16,2.47,11.33,2.59,7.79,2.92,8.09,2.73,7.33-1.77,7.77-1.85,11.05-.44,11.05-.44l10.58,2.09,11.15,5.42s8.59,7.65,8.95,8.1,4.93,8.92,4.94,8.94-.45,3.29,0,3.21,6.99-7.06,7.03-7.17,27.38,119.42,25.59,119.7-267.13-5.75-261.53-5.59-359.68,23.91-359.96,22.49-257.73,20.66-253.21,18.19-294.31-.82-293.09.19-257.93-14.63-257.34-13.95-6.74-81.96-7.86-82.48S-3.94,647.39-3.94,647.39Z"/>
  </g>
  <g id="Layer_16" data-name="Layer 16">
    <path class="cls-11" d="m64.69,674.5c-.06-.22-.13-.43-.21-.65-.03-.09-.07-.19-.11-.28-.01-.03,0-.02-.01-.04,0,0,0-.01-.03-.05-.16-.37-.35-.72-.53-1.08-.38-.7-.78-1.39-1.14-2.1-.72-1.43-1.12-2.92-2.08-4.11-.14-.17-.24-.36-.31-.56-.11-.13-.21-.27-.32-.4-2.55-3.07-5.68-5.6-8.93-7.91-7.01-4.98-14.73-9.05-23.01-11.38-8.28-2.33-17.13-2.87-25.51-.93-2.19.51-4.44,1.24-5.99,2.87-2.17,2.27-2.46,5.71-2.39,8.85s.34,6.44-1.05,9.26c8.18-6.48,19.41-8.94,29.55-6.45-4.09.77-7.95,2.7-11.02,5.51,10.25-1.23,20.76-.25,30.6,2.86.85.27,1.84.73,1.92,1.62.05.57-.32,1.09-.68,1.54-2.73,3.42-5.9,6.49-9.42,9.1,6.57-1.85,13.39-2.8,20.21-2.81l4.24-.13c2.2-.45,4.39-.9,6.59-1.34-.05-.34-.13-.67-.2-1.01-.08-.12-.15-.24-.19-.38Z"/>
    <path class="cls-11" d="m116.81,728.67c-4.63-9.6-10.87-18.43-18.37-25.99-1.24-1.25-2.61-2.75-2.34-4.49.28-1.73,2.2-2.8,3.96-2.73s3.35.96,4.87,1.83c3.43,1.96,6.87,3.93,10.3,5.89-1.19-4.2-4.94-7.14-8.7-9.35s-7.87-4.1-10.72-7.41c-2.85-3.31-3.98-8.65-1.14-11.96-5.43-1.99-11.28-2.7-17.04-2.23-1.94.57-3.92,1-5.87,1.54-.26.07-.52.06-.76-.02-1.32.4-2.65.81-3.96,1.26-.17.21-.41.38-.68.45-.4.11-.8.02-1.13-.2-1.54.64-3.05,1.36-4.5,2.21l-3.4,4.78c5.76-2.69,12.12-4.09,18.48-4.06-6.48,3.69-12.72,7.79-18.68,12.27,5.11-2.62,10.96-3.8,16.69-3.35,2.52.2,5.35.94,6.5,3.19,1.16,2.27-.02,5.16-1.98,6.79-1.96,1.63-4.51,2.31-6.96,3.01-2.45.7-4.99,1.53-6.76,3.35,5.19-2.19,11.27-2.18,16.45.04-7.31,2.24-14.09,6.17-19.65,11.41,2.86-.86,5.82-1.72,8.78-1.35s5.94,2.31,6.55,5.24c.47,2.28-.56,4.59-1.74,6.6-4.25,7.24-10.62,12.95-16.89,18.54,5.1-1.57,10.19-3.14,15.29-4.71,1.78-.55,3.63-1.11,5.49-.92,3.3.33,5.99,3.01,7.3,6.05,1.32,3.04,1.51,6.44,1.69,9.75.76-5.71,1.52-11.42,2.28-17.13.19-1.44.44-2.99,1.49-4,1.02-.98,2.55-1.18,3.97-1.24,6.15-.22,12.36,1.5,17.52,4.87-1.92-5.14-4.52-10.02-7.71-14.49,4.16,1.42,8.04,3.67,11.34,6.57Z"/>
    <path class="cls-11" d="m198.86,759.54c2.89-2.8,5.77-5.59,8.66-8.39.76-.73,1.58-1.68,1.32-2.7-.34-1.34-2.13-1.54-3.5-1.46-8.03.45-16.06.89-24.09,1.34,2.66-5.52,5.32-11.05,7.98-16.57-2.84.7-5.69,1.4-8.53,2.09,4.89-8.87,13.99-15.29,23.98-16.92-8.51-.46-16.75-4.74-22.02-11.44,7.04,1.63,14.48,1.5,21.45-.4-6.66-7.26-15.17-12.82-24.49-16,4.94.47,9.88.93,14.82,1.4-5-3.59-10-7.19-15-10.78,8.09-3.86,17.63-1.1,26.15,1.72-2.61-5.18-6.68-9.62-11.63-12.66,5.24,1.43,10.17,3.97,14.38,7.4-6.25-8.43-14.69-15.13-24.19-19.55-4.39-1.32-8.57-3.34-13.13-4.07-1.55-.22-3.09-.45-4.65-.62-2.99-.32-6.02.08-8.99-.41-.21-.03-.39-.11-.53-.2-.84.08-1.68.17-2.52.29-.29.04-.57,0-.83-.08-.07.03-.13.07-.2.08-5.42.95-10.81,2.16-16.02,3.94-.43.15-.79.08-1.07-.11-3.65,1.56-7.24,3.25-10.74,5.14-.2.11-.4.16-.58.17-1.8,1.13-3.59,2.29-5.38,3.41-.14.09-.28.14-.42.17-1.16.93-2.22,1.98-3.31,2.99-1.11,1.04-2.22,2.08-3.26,3.19-.34.36-.74.46-1.11.39-.16.1-.33.16-.5.18-.83.9-1.63,1.82-2.41,2.77l-3.2,5.5c8.45-5.85,18.65-9.12,28.92-9.29-1.47,2.74-2.94,5.49-4.41,8.23,8.29-3.37,17.87-3.47,26.23-.26-1.48,7.12-6.62,13.37-13.32,16.2,7.06.47,14.12.93,21.18,1.4-8.45,2.81-16.51,6.77-23.92,11.71,7.49,3.18,14.18,8.23,19.29,14.56-.6-2.48-1.18-5.21-.03-7.49,1.14-2.28,4.83-3.27,6.21-1.12.81,1.27.45,2.95-.1,4.36-3.08,7.99-11.32,13.7-19.89,13.77,7.4.69,13.9,5.03,19.95,9.34-6.06.63-11.97,2.71-17.09,6.03,2.94-.29,5.96-.57,8.79.25,2.83.82,5.48,3.02,5.91,5.93.43,2.9-1.43,5.76-3.87,7.38-2.45,1.62-5.4,2.25-8.27,2.86,15.77,1.35,31.38,4.61,46.38,9.69,3.84-6.59,11.47-10.78,19.09-10.47-5.83-.96-11.67-1.92-17.5-2.88Z"/>
    <path class="cls-11" d="m211.67,678.51c5.57-5.89,11.97-10.98,18.96-15.07l-5.37,11.21c5.8-7.29,12.35-13.99,19.5-19.96-3.72,1.22-7.27,3-10.47,5.25,5.42-7.31,12.22-13.6,19.92-18.45l-8.24,2.53c6.77-4.08,14.45-6.65,22.31-7.49-2.31-.75-4.8-.53-7.21-.24-11.78,1.45-23.54,4.74-33.39,11.35-9.86,6.61-17.66,16.81-19.65,28.51"/>
    <path class="cls-11" d="m213.93,660.93c8.07-11.7,20.98-19.96,34.99-22.37-8.04,2.5-15.44,6.91-21.73,12.52"/>
    <path class="cls-11" d="m261.67,641.27c-4.53,4.78-8.4,10.17-11.49,15.98,6.11-3.91,13.13-6.38,20.34-7.15-5.57,4.55-11.14,9.11-16.71,13.66,3.48-1.08,7.26-1.16,10.78-.23-8.44,4.63-16.88,9.26-25.31,13.89,4.19-1.9,8.51-3.83,13.1-4s9.58,1.84,11.56,5.99c-7.49.18-14.93,1.97-21.69,5.19,12.12-5.26,26.96-3.66,37.69,4.06-14.11,3.4-27.99,7.78-41.51,13.08l20.09-2.73-11.04,8.06,18.55-3.17c-8.83,6.51-17.66,13.02-26.49,19.53,7.52-2.7,15.04-5.39,22.56-8.09-.92,6.53-4.88,12.31-9.8,16.7s-10.79,7.55-16.59,10.67c7.11-1.91,14.21-3.82,21.32-5.73-.29,5.58-.58,11.16-.87,16.74-.15,2.93-.32,5.93-1.49,8.63-1.99,4.59-6.5,7.49-10.76,10.11,14.75-8.65,34.22-8.56,48.89.23.38-4.3.02-8.66-1.04-12.85,3.76,2.26,7.53,4.52,11.29,6.79-2.94-11.36-3.11-23.42-.47-34.85-3.24,3.1-7.21,5.43-11.5,6.74,1.68-3.56,2.6-7.49,2.68-11.43-7.41,3.88-14.81,7.76-22.22,11.64,1.53-12.57,9.41-24.2,20.51-30.3-1.19,3.32-2.38,6.64-3.57,9.96,3.9-6.02,8.61-11.77,14.92-15.19,1.84-1,3.81-1.8,5.43-3.12s2.88-3.33,2.62-5.4-2.55-3.86-4.48-3.06c-2.85,2.85-6.23,5.17-9.91,6.81,2.06-1.26,1.35-4.54-.25-6.35s-3.87-3.2-4.63-5.5c-1.05-3.15,1.45-6.6,4.54-7.81s6.56-.78,9.85-.33c-3.74-4.03-6.07-9.35-6.5-14.83,4.15,1.87,8.3,3.74,12.45,5.6-.53-3.48-1.06-6.96-1.59-10.45-.18-1.16-.33-2.42.26-3.43.88-1.48,3.07-1.69,4.61-.89s2.55,2.29,3.51,3.73c-2.18-10.37-11.2-18.44-21.36-21.47-10.16-3.03-21.2-1.63-31.24,1.77"/>
    <path class="cls-11" d="m261.2,640.49c5.32-3.08,11.43-4.49,17.51-5.38,4.84-.71,9.88-1.11,14.52.43-3.57.16-7.15.31-10.69.78-6.85.89-13.55,2.93-19.74,6.01"/>
    <path class="cls-11" d="m327.51,660.42c2.07-2.63,4.45-5.44,7.74-6.02.9-.16,1.84-.13,2.71.14,2.22.7,3.69,2.92,4.16,5.2s.12,4.64-.24,6.94c1.46-1.6,3.48-2.67,5.62-2.97,1.05,4.15,2.11,8.3,3.16,12.44,3.33,1.06,5.54,4.39,6.26,7.82s.22,6.97-.28,10.44c-.16,1.13-.42,2.4-1.38,3.01-1.37.87-3.14-.17-4.3-1.3s-2.48-2.49-4.09-2.29c3.93.76,6.47,4.81,7.03,8.77s-.37,7.96-.83,11.93-.36,8.3,1.95,11.57l-7.12-3.67c-1.08,2.23-.17,4.89,1.01,7.07s2.65,4.36,2.71,6.83c.05,1.78-.65,3.48-.89,5.24-.86,6.23,3.98,12.57,1.97,18.53.03,1.3,1.7,2.09,2.93,1.64s1.99-1.69,2.39-2.93.54-2.56,1.03-3.77c1.39-3.44,5.85-5.24,9.24-3.73-1.06-5.23-2.13-10.47-3.19-15.7,1.48,1.88,3.07,3.85,5.31,4.7s5.29.04,6-2.24c.54-1.71-.39-3.55-1.54-4.93s-2.58-2.57-3.36-4.19c-1.09-2.28-.67-4.96-.36-7.47.63-5.23.64-10.54.03-15.78-.13-1.11-.26-2.33.37-3.24s2.37-1,2.66.08c-.83-7.16-1.66-14.32-2.49-21.49,2.18-1.23,3.12-3.99,2.88-6.48s-1.45-4.77-2.72-6.92c-2.5-4.24-5.32-8.29-8.42-12.12-1.37-1.69-3.03-3.45-5.19-3.62-1.66-.13-3.33.74-4.95.33-1.81-.46-2.86-2.32-4.41-3.38-2.63-1.8-6.16-1.02-9.23-.17-5.42,1.5-11.23,3.24-14.69,7.68"/>
    <path class="cls-11" d="m385.44,666.86c2.33-5.12,4.74-10.37,8.73-14.33s9.98-6.43,15.34-4.74c2.3.73,4.32,2.15,6.16,3.72,2.96,2.53,5.58,5.53,7.27,9.03,2.73,5.63,2.91,12.21,1.83,18.37s-3.33,12.05-5.32,17.98c-.8-7.49-5.67-14.42-12.44-17.7-1.95,7.12-3.91,14.23-5.86,21.35-.41,1.5-1.02,3.22-2.5,3.71-1.5.5-3.13-.56-4.69-.29-1.57.27-2.63,1.84-2.87,3.42s.15,3.16.45,4.72c1.32,6.79,1.04,13.89-.81,20.56-2.34-1.92-4.3-4.3-5.74-6.96-3.68,9.89-5.66,20.41-5.84,30.96-1.04-5.34-.98-10.89.17-16.2.41-1.87.95-3.75.84-5.67-.31-5.4-5.74-10.1-4.36-15.33.75,1.97,2.21,3.67,4.04,4.72,2.8-7.16,4.24-14.86,4.2-22.56l2.39,4.49c-.22-3.93,1.53-7.93,4.57-10.43,1.33-1.09,2.88-1.91,4.18-3.04s2.38-2.71,2.3-4.43c-.18-4-6.21-6.4-5.33-10.31.41-1.81,2.19-2.9,3.67-4.02s2.94-2.89,2.32-4.65c-.61-1.73-2.98-2.23-4.67-1.53s-2.91,2.18-4.19,3.5c-.75.78-1.59,1.54-2.62,1.87s-2.31.13-2.96-.74c-.76-1.01-.42-2.44.06-3.61,1.56-3.83,4.26-7.18,7.68-9.5"/>
    <path class="cls-11" d="m435.37,647.05c14.83-4.5,30.01-7.85,45.35-10.03,7.7-1.09,15.61-1.88,23.19-.17,7.43,1.67,14.13,5.65,20.51,9.81,2.61,1.7,5.26,3.5,7.1,6.01s2.77,5.92,1.6,8.81-4.88,4.73-7.63,3.26c-.54-2.65-1.75-5.91-4.45-6.06-1.44-.08-2.73.83-3.88,1.7-5.78,4.36-11.57,8.71-17.35,13.07.98.6,1.97,1.2,2.95,1.79-6.21,3.9-11.48,9.28-15.26,15.57,2.85-.03,5.65-1.52,7.28-3.86-2.26,7.04-13.08,9.33-13.71,16.7-.18,2.09.58,4.15.55,6.25-.05,3-1.68,5.7-2.92,8.43-2.66,5.82-3.68,12.38-2.91,18.74,2.55-2.15,5.1-4.3,7.65-6.44.83,5.52-1.89,10.86-4.26,15.91s-4.46,10.88-2.43,16.07c-3.47-2.89-6.94-5.78-10.42-8.67-1.44,1.78-1.59,4.26-1.53,6.55s.26,4.69-.66,6.78-3.47,3.7-5.54,2.71c-1.08-.52-1.85-1.63-3.01-1.93-1.63-.41-3.14.95-4.79,1.32-2.5.56-5.02-1.36-6.03-3.71s-.87-5.02-.72-7.58c5.56-3.43,9.05-9.31,12.33-14.96,2.42-4.17,4.83-8.34,7.25-12.51.67-1.15,1.19-2.92.03-3.57-.55-.31-1.24-.16-1.86-.01-4.43,1.11-8.86,2.22-13.29,3.32,4.75-8.27,9.49-16.55,14.24-24.82-2.77-.57-3.22-4.62-1.67-6.98s4.21-3.74,6.13-5.81,2.89-5.7.74-7.53c-.64-.55-1.46-.84-2.12-1.37-4.13-3.34,1.93-11.08-1.58-15.06-5.51,3.14-10.49,7.22-14.65,12-2.57-6.04-3.32-12.84-2.13-19.29-3.04,1.33-4.42,4.95-4.6,8.27s.52,6.65.2,9.96-2.07,6.84-5.26,7.77c2.86-11.06,1.62-23.13-3.43-33.38-.64-1.3-1.36-2.65-1.27-4.1.18-3.01,3.64-4.68,6.65-4.98s6.27.06,8.82-1.56"/>
    <path class="cls-11" d="m504.53,700.9c-.38-1.17.71-2.4,1.92-2.65s2.44.19,3.59.61c3.47,1.29,6.94,2.58,10.42,3.87.87.32,1.79.69,2.28,1.48.84,1.35-.11,3.18-1.46,4.02s-2.98,1.05-4.45,1.62c-3.16,1.23-5.44,4.09-6.89,7.16s-2.21,6.41-3.29,9.63c-.4,1.19-.89,2.43-1.9,3.17s-2.68.71-3.31-.37c-.29-.5-.31-1.11-.53-1.63-.58-1.38-2.43-1.82-3.85-1.35s-2.5,1.61-3.52,2.7c-1-1.19-.71-3.03.04-4.39s1.89-2.49,2.6-3.88c2.2-4.36-.47-9.9,1.37-14.42,1.58-3.88,5.9-5.76,9.81-7.25"/>
    <path class="cls-11" d="m597.78,655.75l9.34-12.92c-16.05-6.95-36.13-3.25-48.65,8.98,2.1.23,3.98,1.85,4.51,3.89s-.32,4.37-2.04,5.59c3.68.75,7.37,1.49,11.05,2.24-3,.32-4.45,4.38-3.06,7.06s4.56,3.97,7.57,4.25c.9.08,1.96.18,2.43.95.46.76.04,1.78-.61,2.39s-1.48.98-2.16,1.57c-2.22,1.94-1.91,5.59-.44,8.15s3.81,4.5,5.47,6.94,2.52,5.88.78,8.26c-1.05-1.13-2.18-2.31-3.67-2.73s-3.41.32-3.68,1.84c-.11.61.05,1.23.21,1.83,1.57,5.87,3.15,11.74,4.72,17.6.55,2.06,1.1,4.3.3,6.28-.66,1.63-2.13,2.8-3.67,3.65-1.99,1.11-4.29,1.84-6.54,1.46s-4.36-2.07-4.71-4.32c-1.67.14-2.7,1.99-2.76,3.67s.54,3.3.68,4.97c.4,4.67-2.72,8.82-5.68,12.46,4.63.15,9.31-1.28,13.07-3.98,2.99,2.04,4.72,5.47,7.35,7.95s7.25,3.77,9.66,1.07c.93-2.46.33-5.19.49-7.81s1.7-5.64,4.32-5.71c.94-.03,1.88.35,2.8.18,1.66-.31,2.55-2.3,2.29-3.97s-1.33-3.08-2.31-4.46c-2.36-3.3-4.46-6.94-5.06-10.95s.59-8.5,3.81-10.97c-1.24-.11-2.53-.24-3.56-.95s-1.62-2.18-.95-3.23c.72-1.12,2.35-1.11,3.65-.84,5.3,1.1,10.08,4.48,12.88,9.1.1-2.97.2-5.98-.45-8.89s-2.12-5.74-4.59-7.4c-2.15-1.45-5.32-2.52-5.39-5.11-.07-2.56,3.04-3.86,5.57-4.18s5.63-.71,6.62-3.07c-1.18-.43-2.39.44-3.47,1.09s-2.72,1.01-3.4-.05c-.25-.4-.28-.89-.31-1.37-.23-4.81-.46-9.62-.68-14.43-1.73.25-3.5.51-5.22.2s-3.42-1.3-4.12-2.9c-1.13-2.56.59-5.41,2.26-7.65,3.63-4.85,7.45-9.55,11.44-14.1"/>
    <path class="cls-11" d="m665.9,653.67l7.73-8.24c.3-.32.61-.68.61-1.12,0-.59-.59-.99-1.11-1.27-10.29-5.53-22.47-6.61-34.09-5.4-7.42.77-14.93,2.5-21.16,6.59s-11.03,10.9-11.24,18.35c4.05-1.66,8.11-3.32,12.16-4.98,1.28-.52,3.02-.93,3.81.21,1.03,1.47-.93,3.21-1.29,4.97-.34,1.68.97,3.38,2.59,3.94s3.42.25,5.04-.32c.91-.32,1.89-.72,2.8-.38,1.34.5,1.64,2.39,1,3.67s-1.9,2.11-3.03,2.98-2.25,1.98-2.42,3.4c-.26,2.25,1.88,3.92,3.51,5.49,1.63,1.57,2.96,3.53,3.4,5.75s-.14,4.71-1.8,6.24c-1.18,1.08-2.8,1.64-3.81,2.88-1.9,2.35-.76,5.77-.17,8.74.96,4.87.06,10.08-2.47,14.34,4.51-2.58,5.82-8.3,7.67-13.15.72-1.89,1.61-3.76,2.99-5.24s3.34-2.52,5.36-2.41c1.09.06,2.17.44,3.25.26,2.04-.34,3.22-2.48,3.93-4.43s1.45-4.15,3.3-5.08c1.21-.61,2.66-.53,3.87-1.13,1.87-.93,2.66-3.29,2.44-5.37s-1.22-3.98-2.09-5.89-1.65-3.96-1.37-6.04c.47-3.57,3.77-5.95,6.25-8.57,3.32-3.52,5.45-8.14,5.98-12.94"/>
    <path class="cls-11" d="m751.91,651.42c-10.91-3.99-22.11-7.45-33.65-8.7s-23.53-.21-34.15,4.51c-3.72,1.65-7.52,4.06-8.86,7.91-.85,2.44-.57,5.11-.42,7.69.68,11.82-1.65,23.79-6.69,34.5,3.21-4.78,7.05-9.13,11.39-12.92,1.45-1.27,3.3-2.56,5.16-2.03,2.41.68,3.03,3.86,2.6,6.33s-1.41,5.05-.51,7.39c1.48.05,2.96.11,4.44.16-.3,6.11-1.55,12.18-3.67,17.92,3.19-1.86,7.4,1.26,8.12,4.88s-.83,7.26-2.2,10.69-2.58,7.3-1.22,10.74c.37.93.93,1.91.66,2.88-.25.89-1.13,1.47-1.45,2.33-.6,1.58,1.17,3.31,2.86,3.14s2.99-1.63,3.61-3.2.74-3.3,1.1-4.95c1.27-5.8,5.49-10.44,9.54-14.78,1.55,9.14,1.63,18.52.24,27.69-.22,1.48-.48,3.01-.08,4.45s1.71,2.75,3.2,2.61c2.32-8.16,4.64-16.32,6.96-24.48.49-1.74,1.01-3.53,2.15-4.94,1.22-1.52,3.13-2.55,3.79-4.39.82-2.3-.69-4.76-2.41-6.49s-3.81-3.3-4.55-5.62c-.96-2.99.74-6.33,3.29-8.18s5.74-2.5,8.85-2.95c.54-.08,1.22-.32,1.2-.86-.02-.39-.41-.64-.75-.81-4.03-2.07-8.07-4.14-12.1-6.21,2.38-.05,4.25-2.31,4.7-4.65s-.19-4.74-.82-7.04c-1.55-5.68-3.1-11.36-4.65-17.04,5.66,5.74,9.9,12.87,12.25,20.59,4.74-2.15,1.44-11.26,6.12-13.55,1.68-.82,3.89-.35,5.35-1.51,3.24-2.57-1.12-8.96,2.05-11.62.85-.72,2.02-.89,3.03-1.36s1.96-1.53,1.61-2.58c-.26-.79-1.16-1.25-1.36-2.05-.4-1.61,2.1-2.26,3.67-1.73s3.58,1.34,4.66.07c-2.29-1.59-4.59-3.17-6.88-4.76"/>
    <path class="cls-11" d="m871.35,634.9c-8.56-9.32-21.74-13.48-34.39-13.16-12.65.32-24.88,4.7-36.25,10.26-10.24,5.01-20.54,11.63-25.29,21.99,10.26-9.63,23.13-16.46,36.86-19.55,1.19,2.02-.43,4.61-2.39,5.9s-4.37,1.99-5.92,3.75c-1.65,1.87-1.98,4.51-2.61,6.92-1.31,4.95-4.13,9.34-6.91,13.64,11.96-8.66,24.22-17.47,38.35-21.76,13.92-4.23,28.77-3.8,43.31-3.34-1.9-1.66-3.81-3.32-5.71-4.98"/>
    <path class="cls-11" d="m901.53,656.35c-7.22,1.69-14.49,3.4-21.27,6.42s-13.1,7.45-17.21,13.63c-7.17,10.78-7.02,25.8-16.16,34.97,8.84-1.49,17.18-5.81,23.49-12.16-.55,5.21-3.86,9.7-7.47,13.49s-7.69,7.23-10.44,11.69c-1.3,2.11-2.33,4.47-4.25,6.03-2.83,2.3-6.83,2.27-10.28,3.45-5.56,1.89-9.73,7.33-10.1,13.2,7.6-4.42,15.86-7.61,23.55-11.86s15.02-9.82,19.2-17.55c-2.16,12.79-9.86,24.55-20.73,31.64-1.22.79-2.65,1.94-2.3,3.34.24,1,1.28,1.54,2.12,2.13,3.86,2.72,4.63,8.38,3.05,12.83s-4.99,7.97-8.3,11.35c3.5-4.61,9.28-7.04,15.02-7.73s11.55.16,17.27,1.01c-2.63-.83-4.23-3.64-4.49-6.38s.54-5.46,1.33-8.1c2.51-8.33,5.01-16.67,7.52-25,1.59,9.28,3.18,18.57,4.77,27.85,6.14-8.57,5.81-20.03,5.22-30.56,6.47,9.25,10.12,20.45,10.34,31.74,4.55-4.15-.13-12.62,3.51-17.58,1.26-1.72,3.35-2.7,4.55-4.47,1.34-1.99,1.29-4.64.54-6.92s-2.12-4.28-3.34-6.34c-5.77-9.74-8.34-21.35-7.23-32.61,2.18,6.99,4.37,13.98,6.55,20.97-1.07-7.11-1.4-14.33-.99-21.51.11-1.92.35-4.01,1.73-5.35,1.91-1.86,5.03-1.42,7.51-2.39,4.39-1.72,5.7-7.18,6.41-11.84,2.52,3.5,5.05,7.01,7.57,10.51,4.88-5.75,3.1-15.14-2.25-20.46s-13.2-7.28-20.72-7.78c-3.09-.2-6.98.32-7.96,3.26"/>
    <path class="cls-11" d="m1036.06,653.85c-17.99,1.62-35.66,6.67-51.78,14.81,6.63-1.46,13.65-1.12,20.11.98-6.89,4.04-13.21,9.04-18.74,14.8,3.91-.39,7.9.12,11.58,1.49-6.32,4.23-12.25,9.04-17.69,14.34,5.4-1.2,10.79-2.39,16.19-3.59.5-.11,1.04-.22,1.51,0,1.24.57.65,2.44-.1,3.58-1.35,2.07-2.65,4.23-3.17,6.64s-.14,5.15,1.55,6.94c1.27,1.35,3.22,2.15,3.93,3.86.78,1.91-.4,4.12-2.01,5.43s-3.6,2.03-5.29,3.22c-3.65,2.58-5.54,7.44-4.6,11.81.51,2.36,1.75,4.52,2.24,6.88.78,3.8-.48,7.8-2.61,11.05s-5.05,5.88-7.94,8.47c4.85-4.11,11.95-4.48,18.1-2.88s11.7,4.88,17.48,7.51,12.18,4.65,18.43,3.48c-3.61-6.33-6.32-13.18-8-20.27,1.45-1.29,3.69.15,4.9,1.68s2.76,3.4,4.64,2.91c1.21-.32,1.96-1.61,2.06-2.86s-.33-2.48-.75-3.66c-3.33-9.45-6.65-18.9-9.98-28.35,7.04-.97,14.27-.52,21.14,1.33-3.32-4.39-5.16-9.87-5.16-15.37,0-1.98.18-4.15-1.01-5.74-1.55-2.08-4.64-2.13-7.19-1.67s-5.32,1.19-7.64.03c6.82-7.4,13.63-14.8,20.45-22.21,1.03-1.12,2.11-2.35,2.26-3.86.24-2.49-2.3-4.53-4.79-4.71s-4.86.96-7.1,2.07c8.79-4.08,17.58-8.17,26.37-12.25,1.46-.68,3.19-1.93,2.7-3.46-.38-1.18-1.85-1.54-3.08-1.7-11.11-1.42-22.4-1.37-33.5.15"/>
    <path class="cls-11" d="m1124.35,658.97c-6.92-.97-13.89-1.95-20.87-1.69-6.98.26-14.06,1.83-19.95,5.59-5.66,3.61-9.92,9.01-15.16,13.2-4.09,3.26-9,6.04-11.14,10.81-2.25,5.02-.81,10.81,0,16.25.15,1,.27,2.05-.13,2.98s-1.5,1.63-2.43,1.24c-.54-.23-.89-.75-1.2-1.24-1.72-2.69-3.43-5.37-5.15-8.06,2.85,5.88,5.69,11.76,8.54,17.64.4.82.92,1.73,1.82,1.88,1.35.22,2.18-1.42,2.49-2.76,1.02-4.42,1.36-9,2.79-13.3s4.26-8.47,8.53-9.99c-1.44,6.36-1.82,12.95-1.12,19.43.15,1.35.4,2.82,1.4,3.74,1.17,1.07,3.06,1.02,4.47.28s2.44-2.02,3.38-3.3c3.38-4.59,6.21-9.58,8.41-14.84,2,5.56,3.53,11.29,4.58,17.1,3.8-5.78,4.38-13.01,5.96-19.75s4.94-13.92,11.45-16.26c-.44,5.12-.88,10.24-1.32,15.36,9.48-11.2,20.23-21.32,31.97-30.11-6.36-1.64-12.72-3.28-19.08-4.92"/>
    <path class="cls-11" d="m1205.06,654.64c-13.41-2.41-27.52-.75-39.99,4.71s-23.28,14.69-30.61,26.17c1.67-1,4.15-1.86,5.26-.27.91,1.29-.02,3.06-1.04,4.27-2.4,2.85-5.38,5.16-7.92,7.89s-4.71,6.07-4.9,9.8c-.13,2.45.62,4.87.69,7.33.17,6.08-3.69,11.44-7.38,16.28,6.41-4.03,13-7.77,19.75-11.21,1.04-.53,2.21-1.06,3.32-.7,1.54.5,2.08,2.49,1.71,4.07s-1.34,2.94-1.9,4.45c-1.41,3.83.26,8.56,3.77,10.64,1.19.71,2.63,1.21,3.33,2.41.68,1.18.41,2.66.12,4-1.4,6.46-2.81,12.92-4.21,19.38,10.2-6.43,18.53-15.78,23.75-26.65,4.65,8.56,4.76,18.77,4.77,28.51,8.82-15.99,9.44-36.23,1.63-52.73,1.73,4.11,4.02,7.98,6.78,11.49,1.37-1.88,1.07-4.53.12-6.64s-2.48-3.93-3.55-5.99c-2.74-5.29-2.24-11.79-.05-17.33,2.19-5.54,5.9-10.32,9.56-15.02-.3,1.29-.6,2.57-.9,3.86.1-2.4,1.8-4.41,3.55-6.06s3.71-3.22,4.64-5.44.29-5.32-1.97-6.13c5.74-3.81,12.03-6.79,18.61-8.82-2.01-3.02-6.88-3.55-9.49-1.03"/>
    <path class="cls-11" d="m1298.36,642.02c-8.7-.08-17.4-1.21-26.09-.78-8.69.43-17.66,2.62-24.25,8.3-5.55,4.78-8.92,11.55-12.05,18.16,4.88-3.46,9.76-6.92,14.63-10.37-.92,4.47-2.36,8.84-4.29,12.97,5.34-3.66,10.67-7.31,16.01-10.97-2.8,4.07-5.59,8.14-8.39,12.2-1.04,1.51-2.12,3.27-1.68,5.04.53,2.14,3.06,3.27,3.79,5.36,1.05,3.01-2.08,5.83-2.57,8.98-.5,3.25,1.82,6.15,3.55,8.94,4.11,6.67,5.22,15.12,2.97,22.63-6.29-2.64-13.04-4.22-19.85-4.63,4.9,5.92,7.46,13.39,9.57,20.78.77,2.7,1.5,5.51,1.07,8.28-.29,1.92-1.13,3.73-1.41,5.66s.16,4.17,1.81,5.21c1.31-.69,2.53-1.57,3.59-2.61-.59,2.31,1.73,4.63,4.12,4.65s4.5-1.71,5.69-3.77,1.64-4.46,2.18-6.78,1.21-4.7,2.73-6.54c2,8.66,4.6,17.18,7.78,25.49,5.77-12.23,8.04-26.36,4.85-39.5-1.18-4.86-3.08-9.53-4.01-14.44-1.78-9.32,0-18.91,1.77-28.24-1.08,2.97-5.74,2.97-7.86.64s-2.33-5.81-2.18-8.96c.36-7.53,2.26-15.28,7.12-21.04,5.31-6.31,13.38-9.45,21.1-12.35-.66-.72-1.31-1.44-1.97-2.16"/>
    <path class="cls-11" d="m1351.88,661.8c-1.01-3.57-3.58-6.56-6.64-8.67s-6.58-3.44-10.12-4.55c-3.95-1.24-8.06-2.25-12.18-1.87-5.28.48-10.07,3.18-14.67,5.81-3.06,1.75-6.19,3.55-8.51,6.21s-3.74,6.37-2.76,9.77c.98,3.41,4.23,6.57,3.03,9.9-.63,1.74-2.37,2.92-2.94,4.68-.74,2.3.72,4.67,1.24,7.04,1.52,6.9-5.1,13.76-3.34,20.6,2.5-3.17,4.99-6.34,7.49-9.52.88-1.11,2.02-2.34,3.43-2.17,1.28.16,2.13,1.51,2.21,2.79s-.4,2.53-.81,3.75c-1.96,5.76-2.51,11.89-3.05,17.95-.2,2.28-.41,4.59-.03,6.84.7,4.14,4.35,8.24,8.47,7.46,2.37-.45,4.17-2.36,5.69-4.23,5.26-6.51,9.27-14.02,11.75-22.01-3.56.94-7.11,1.88-10.67,2.82,3.46-4.06,7.14-8.76,6.63-14.07-.28-2.95-1.84-5.59-2.84-8.38-2.66-7.46-1.24-15.67.21-23.46.28-1.5.93-3.35,2.46-3.44,1.04-.06,1.88.8,2.54,1.61,3.46,4.27,6.09,9.2,7.7,14.46.32,1.06.63,2.17,1.33,3.02s1.96,1.38,2.95.88c1.53-.76,1.29-2.96,1.85-4.57,1.33-3.86,6.96-3.81,9.94-6.6,1.83-1.72,2.46-4.41,2.25-6.91s-1.18-4.86-2.13-7.18"/>
    <path class="cls-11" d="m-3.6,678.15c1.38-1.57,2.82-3.19,4.73-4.06s4.41-.79,5.82.77c1.23,1.36,1.29,3.43.93,5.23s-1.07,3.55-1.13,5.39c-.09,2.82,1.34,5.43,2.26,8.1s1.23,5.96-.72,8.01c-.61.64-1.39,1.1-1.96,1.77-1.38,1.64-1.16,4.07-.74,6.18,1.07,5.36,2.92,10.56,5.48,15.39,1.39-1.42,2.77-2.84,4.16-4.26-1.4,5.73-2.81,11.46-4.21,17.18-1.96,8-3.94,16.13-3.69,24.36.08,2.63.15,5.77-2.01,7.26-1.89,1.31-4.65.49-6.21-1.2s-2.23-3.99-2.84-6.21c-4.73-17.39-8.58-35.02-11.55-52.79"/>
  </g>
  <g id="Layer_17" data-name="Layer 17">
    <path class="cls-16" d="m75.21,703.15c-5.83,1.4-11.65,2.8-17.48,4.2,1.1-1.64,2.2-3.29,3.3-4.93-2.39.95-5.04,1.22-7.58.77,4.01-3.28,8.03-6.56,12.04-9.84-3.4.48-6.81.97-10.21,1.45-.88.12-1.93.19-2.49-.5-.85-1.05.28-2.52,1.32-3.38,3.42-2.81,6.84-5.62,10.25-8.42-1.17-.78-2.7-.17-4.09.05s-3.29-.63-2.92-1.99c.17-.63.78-1.01,1.34-1.34,2.25-1.31,4.51-2.63,6.76-3.94-.02-.04-.03-.09-.05-.13-.11-.03-.22-.07-.31-.13-.27-.16-.56-.49-.63-.81-.02-.09-.05-.18-.08-.27-.07-.18-.15-.35-.23-.52-.33.06-.66.12-.98.18v-2.1c-4.38.15-8.58,1.98-12.19,4.48-3.61,2.5-6.7,5.66-9.76,8.8-1.74,1.78-3.54,3.67-4.17,6.08-.26.98-.34,2.09-1.07,2.8-.95.93-2.5.72-3.8.44l-10.64-2.27c.24.98.47,1.96.71,2.94-1.26-.58-2.72.77-2.81,2.15-.09,1.38.7,2.65,1.46,3.81,2.48,3.78,4.95,7.56,7.43,11.34-.53-1.77-1.05-3.54-1.58-5.31,3.64,5.15,6.99,10.52,10.02,16.06.61,1.12,1.23,2.31,1.23,3.59,0,1.64-1.01,3.09-1.99,4.4-6.86,9.21-14.42,17.9-22.58,25.98,7.02-.87,13.77-3.76,19.25-8.23l.87,9.13c1.73-2.65,3.46-5.29,5.19-7.94,1.36,5.04,2.04,10.27,1.99,15.5,5.28-2.25,7.69-8.35,8.88-13.97s1.82-11.7,5.46-16.15c-1.12.51-2.24,1.02-3.35,1.53,1.21-5.31,2.96-10.49,5.24-15.43-1.48.1-2.97.2-4.45.3,6.27-7.53,14.03-13.81,22.7-18.38Z"/>
    <path class="cls-16" d="m32.45,747.51c-2.29,3.89.29,8.81-.11,13.3-.59,6.63-7.56,11.35-8.19,17.98,1.75-2.53,5.11-3.42,7.23-5.65,1.3-1.36,2.06-3.15,2.68-4.94,2.11-6.14,2.75-12.78,1.87-19.21"/>
    <path class="cls-16" d="m42.7,746.28l3.94,16c.84,3.42,1.69,6.85,2.53,10.27-5.32-.98-11.02.25-15.46,3.34-1.19-8.62-2.37-17.25-3.56-25.87"/>
    <path class="cls-16" d="m65.1,675.03c-.27-.16-.56-.49-.63-.81-.02-.09-.05-.18-.08-.27-.31-.72-.65-1.44-.93-2.18-.04-.12-.08-.23-.11-.35-1.04.38-2.06.8-3.04,1.32l1.5,4.54c1.16-.47,2.29-1.03,3.36-1.68.19-.11.39-.24.54-.4-.22-.01-.45-.07-.62-.18Z"/>
    <path class="cls-16" d="m756.94,659.47l-4.3-3.23c-.39,1.71.35,3.47,1.29,4.96s2.08,2.87,2.65,4.53c.91,2.68.01,5.88-2.16,7.69-.96.8-2.13,1.35-2.96,2.28s-1.21,2.48-.35,3.38c.98,1.03,3.17.91,3.38,2.31-11.35,2.45-21.66,9.42-28.16,19.05l16.35-1.29c-4.86,3.47-10.19,6.29-15.79,8.36,1.58,6.12,7.01,10.42,12.42,13.68s11.34,6.11,15.22,11.1c3.24-8.08,6.48-16.16,9.72-24.24.59-1.47,1.18-2.96,1.31-4.54s-.29-3.27-1.46-4.34c-.73-.67-1.74-1.11-2.11-2.02-.47-1.16.39-2.47,1.45-3.14s2.33-.95,3.39-1.62c1.68-1.06,2.66-2.98,3-4.94s.1-3.96-.2-5.92c-.79-5.29-1.99-10.51-3.58-15.62"/>
    <path class="cls-16" d="m747,724.81c3.26,1.97,4.17,6.53,3.03,10.17s-3.86,6.54-6.59,9.2-5.64,5.28-7.34,8.7c3.84.21,7.68.42,11.52.63-2.96,6.75-6.69,13.16-11.07,19.08,7.82-4.91,14.6-11.48,19.74-19.15,2.27-3.39,4.27-7.05,7.3-9.78,2.33-2.1,5.15-3.55,7.73-5.34s5.01-4.07,5.93-7.07c.42-1.36,1.03-3.21,2.43-3.02,1.19.16,1.52,1.68,1.81,2.84.9,3.61,3.87,6.23,6.22,9.11,4.12,5.05,6.52,11.32,7.82,17.71s1.57,12.93,1.83,19.45c2.23-10.1,4.48-20.28,4.63-30.62.08-5.08-.35-10.17-.05-15.24.29-4.82,1.16-10.01-1.25-14.2-1.97-3.42-6-5.87-6.34-9.8-.24-2.74,1.47-5.26,3.32-7.3,4.47-4.92,10.29-8.6,16.65-10.54-3.09-2.72-7.51-3.37-11.62-3.13s-8.15,1.26-12.27,1.38-8.54-.82-11.36-3.81c-.42-.44-.9-.97-1.51-.89-.98.13-1.02,1.51-.87,2.48.78,4.93-.45,10.02-2.58,14.53s-5.13,8.56-8.12,12.57c-1.38,1.85-2.79,3.73-4.66,5.08s-4.32,2.1-6.53,1.41"/>
    <path class="cls-16" d="m786.28,670.14c2.03-2.17,2.98-5.09,4.05-7.86,2.33-6,5.48-11.68,9.35-16.83-5.3,1.29-9.23,5.72-14.19,7.97-3.3,1.5-6.96,1.99-10.56,2.41-1.49.17-3.03.36-4.35,1.02,0,.25,0,.5,0,.74,0,.37-.15.7-.4.96-.25.27-.61.38-.96.4-.23.01-.49-.07-.7-.2-.47.83-.66,1.79-.34,2.69.31.86,1.02,1.52,1.4,2.36.85,1.88-.15,4.02-.62,6.02-1,4.26.47,8.66,1.92,12.79,1,2.83,2.02,5.71,3.85,8.09,2.03,2.63,4.96,4.52,6.61,7.4.52.91.94,1.95,1.8,2.55.86.6,2.37.4,2.6-.62l4.3-8.89c-2.45-.26-4.55-2-5.86-4.09-1.31-2.09-1.95-4.52-2.57-6.9-.36-1.36-.71-2.79-.39-4.15.61-2.55,3.26-3.94,5.05-5.85Z"/>
    <path class="cls-16" d="m768.54,658.77c-.1-.06-.2-.13-.28-.2-.01-.01-.02-.03-.03-.04-1.89-1.52-3.69-3.21-6.03-3.64-3.36-.62-6.58,1.6-9.98,1.98l4.19,2.4c4.78,2.43,10.48,2.99,15.64,1.54-1.29-.42-2.42-1.19-3.51-2.04Z"/>
    <path class="cls-16" d="m241.97,777.2c.26-6.52,2.67-12.93,6.76-18,.52-.64,1.08-1.3,1.25-2.1s-.22-1.8-1.03-1.97c-.38-.08-.76.03-1.13.14-2.61.77-5.22,1.54-7.83,2.31.71-1.23,1.42-2.45,2.13-3.68-2.4.35-4.94.68-7.16-.29s-3.81-3.78-2.61-5.89c.22-.39.54-.82.39-1.24-.26-.7-1.37-.44-1.97-.89-.79-.59-.21-1.83.4-2.6,3.17-3.95,6.33-7.9,9.5-11.85-3.99,1.63-7.04,4.9-9.96,8.08-1.14,1.24-2.32,2.56-2.72,4.2-.39,1.6.03,3.31-.31,4.92-.62,2.94-3.47,4.76-6.08,6.26-.76.44-1.62.89-2.47.68-1.24-.3-1.73-1.76-2.18-2.96-1.35-3.64-4.17-6.7-7.68-8.35,1.75,1.94,2.56,4.69,2.14,7.26-.13.79-.36,1.61-.11,2.38.32.98,1.32,1.53,2.21,2.07,3.42,2.07,6.16,5.24,7.73,8.91-2.5.77-5.01,1.55-7.51,2.32l2.86,9.93-1.02-.12"/>
    <path class="cls-16" d="m128.87,775.88l-2.24-11.94c-.16-.84-.35-1.75-.99-2.32-1.61-1.44-4.13.42-6.25.06-2.02-.34-3.09-2.52-3.86-4.41s-1.9-4.06-3.93-4.33c-1.32-.17-2.72.71-3.09,1.99s.4,2.8,1.67,3.21c-3.04-.76-6.46.25-8.6,2.54-1.95-2.2-1.43-5.59-.63-8.42s1.74-5.98.36-8.58c-1.95,5.11-4.9,9.83-8.63,13.82-1.16,1.23-2.55,2.47-4.24,2.53-2.25.08-3.96-1.92-5.31-3.72,1.78-.37,2.06-3.17.65-4.32s-3.57-.83-5.09.16-2.59,2.52-3.79,3.89c-1.12,1.29-2.41,2.48-3.98,3.16s-3.45.79-4.94-.03c-1.57-.86-2.45-2.55-3.6-3.93-1.87-2.25-4.62-3.77-7.52-4.14-.38-.05-.8-.07-1.1.17-.46.36-.37,1.08-.2,1.64.94,3.09,2.91,6.12,2.27,9.29-.4,1.96-1.78,3.67-1.89,5.66-.18,3.18,2.77,5.54,5.42,7.31,5.51,3.7,11.03,7.39,16.54,11.09"/>
    <path class="cls-16" d="m486.25,778.62l8.26-9.36c.94-1.07,1.94-2.27,1.92-3.7-.02-1.41-1.03-2.58-1.91-3.68-4.4-5.47-6.93-12.41-7.08-19.43,3.16,3.75,6.32,7.5,9.47,11.26,1.2,1.42,2.43,2.88,4.06,3.77s3.76,1.12,5.29.07c2.78-1.9,2-6.42,4.15-9,1.82-2.18,5.05-2.3,7.73-3.25,4.61-1.64,7.72-5.87,10.54-9.87-1.14,4.3-2.27,8.59-3.41,12.89-.2.74-.39,1.52-.18,2.25.33,1.16,1.58,1.84,2.77,1.97s2.39-.16,3.59-.28c2.64-.25,5.36.38,7.62,1.77,1.57.97,3.09,2.34,4.93,2.3,2.41-.05,4.02-2.42,5.2-4.52,2.47-4.39,4.94-8.77,7.41-13.16-1.86,4.97-3.71,9.94-5.57,14.91-.3.8-.59,1.74-.16,2.48.38.65,1.18.9,1.91,1.09,4.87,1.3,9.74,2.6,14.61,3.9-1.83.17-2.92,2.18-3.19,3.99s-.1,3.76-.9,5.41c-1.62,3.36-6.12,3.8-9.84,3.96-13,.54-25.9,3.21-38.05,7.85"/>
    <path class="cls-16" d="m689.15,774.45c.81-2.3,2.49-4.22,3.37-6.5,1.15-3,.77-6.54-.99-9.22,1.48.34,2.95.67,4.43,1.01-5.94-3.36-11.87-6.72-17.81-10.08,3.01-4.62,4.87-10,5.36-15.49.83,4.9,1.74,9.99,4.63,14.04s8.37,6.72,12.95,4.78c-.82,7.85,3.2,15.31,7.08,22.19"/>
    <path class="cls-16" d="m798.33,778.33c3.71-1.38,7.57-2.84,10.3-5.71s3.98-7.57,1.75-10.84c-.84-1.24-2.18-2.45-1.86-3.91.35-1.62,2.4-2.07,3.72-3.08,2-1.52,2.28-4.36,2.4-6.87.44-9.3.87-18.6,1.31-27.9.09-1.97.18-3.94.28-5.9.16-3.38.32-6.78.02-10.15,2.85,5.96,4.47,12.5,4.73,19.1.04,1.16.05,2.35.46,3.44s1.33,2.07,2.49,2.18c1.81.17,3.07-1.69,3.91-3.29,1.85-3.53,3.7-7.06,5.55-10.59-3.85,8.9-7.71,17.81-11.56,26.71-1.16,2.67-2.34,5.56-1.78,8.42.52,2.64,2.62,4.9,5.21,5.61s5.56-.17,7.34-2.18c-.4.72-.79,1.44-1.19,2.15,5.72-4.23,11.44-8.45,17.16-12.68-5.19,4.15-8,10.51-10.62,16.61-.36.84-.72,1.78-.4,2.64.49,1.3,2.22,1.56,3.6,1.42s2.94-.42,4.03.45c1.6,1.26.91,3.81-.1,5.58s-2.26,3.87-1.33,5.68"/>
    <path class="cls-16" d="m907.64,771.81c3.65-2.26,4.14-7.38,3.49-11.62s-2.04-8.64-.69-12.71c.35,2.63.72,5.32,1.89,7.71s3.28,4.47,5.91,4.89c2.16.34,4.35-.46,6.53-.24,1.96.2,3.74,1.21,5.67,1.65s4.32.08,5.23-1.67c.57-1.09.39-2.39.49-3.62.38-4.98,5.07-8.35,9.31-10.99-1.04,3.42-2.07,6.84-3.11,10.27-.4,1.33-.7,3.01.37,3.89.95.78,2.35.39,3.56.17,2.64-.48,5.46.14,7.67,1.67,1.26.87,2.4,2.07,3.92,2.29,1.46.21,2.87-.56,4.15-1.29,1.55-.89,3.09-1.79,4.64-2.68,3.14-1.81,6.31-3.65,8.87-6.22s4.46-5.99,4.44-9.61c.24,4.58-2.49,8.71-4.78,12.69s-4.28,8.79-2.53,13.03c.59,1.43,1.58,2.69,1.95,4.19s-.19,3.43-1.69,3.82"/>
    <path class="cls-16" d="m1037.13,773.01c1.6-4.12,2.44-8.54,2.45-12.96.81,1.24,1.68,2.53,3.01,3.18s3.24.35,3.85-1c.37-.84.15-1.81-.07-2.7-1.09-4.34-2.19-8.68-3.28-13.02-.37-1.46-.73-3-.31-4.45s1.94-2.68,3.38-2.24c-.9-1.7-1.18-3.72-.77-5.59,3.2,4.28,5.17,9.46,5.62,14.78.29,3.43.4,7.67,3.48,9.21,1.58.79,3.49.55,5.12,1.22,2.98,1.22,3.97,4.85,4.96,7.92s3.19,6.54,6.4,6.22"/>
    <path class="cls-16" d="m1182.8,774.81c-.98-10.57-.08-21.31,2.64-31.58.36,3.57.73,7.13,1.09,10.7.2,1.99.42,4.02,1.33,5.8s2.69,3.25,4.68,3.21c2.68-.06,4.56-2.67,5.5-5.18s1.47-5.32,3.36-7.22c.94-.94,2.23-1.68,2.61-2.96.33-1.09-.11-2.24-.49-3.31-1.72-4.92-2.18-10.28-1.32-15.43,1.38,8.05,3.63,15.95,6.69,23.53,3.98-2.27,7.58-5.2,10.6-8.63,1.87-2.12,3.59-5.09,2.34-7.62-.35-.7-.91-1.34-.94-2.11-.03-.7.39-1.33.79-1.9,2.67-3.83,5.33-7.67,8-11.5-1.84,5.26-2.97,10.78-3.35,16.34-.09,1.4-.08,2.97.92,3.96,2.15,2.15,6.38-.54,8.7,1.42,1.18.99,1.28,2.85.65,4.25s-1.81,2.47-2.97,3.49c-3.17,2.8-6.35,5.61-9.52,8.41-1.22,1.08-2.49,2.23-3.02,3.77-.39,1.15-.33,2.39-.27,3.6.18,3.25.35,6.49.53,9.74"/>
    <path class="cls-16" d="m1284.33,769.7c5.09-2.8,7.03-9.23,7.05-15.04.02-5.81-1.39-11.6-.92-17.4,2.45,3.56,5.02,7.51,4.67,11.82-.14,1.75-.76,3.47-.6,5.22s1.58,3.6,3.31,3.33c1.3-.2,2.12-1.45,3.1-2.32s2.79-1.28,3.41-.12c.82,1.53-1.62,2.88-1.88,4.59-.3,1.96,2.21,3.06,4.18,3.21s4.46.4,5.11,2.27c.59,1.72-.9,3.37-2.07,4.76s-2.05,3.71-.61,4.82"/>
  </g>
  <g id="Layer_14" data-name="Layer 14">
    <path d="m64.76,674.94c-4.77,1.79-9.13,4.85-12.1,8.99s-4.47,9.41-3.71,14.45c.54-3.23,1.11-6.53,2.73-9.38,1.19-2.1,2.9-3.85,4.69-5.46,4.68-4.2,10.1-7.57,15.93-9.91-1.18.25-2.36.5-3.54.74"/>
    <path d="m220.32,695.61c-9.07-6.31-19.77-10.24-30.77-11.28,7.68,1.41,15.45,3.8,21.4,8.85s9.74,13.25,7.79,20.81c-1.77,6.87-7.68,11.82-13.67,15.63-5.98,3.81-12.53,7.11-17,12.61,4.14-2.07,8.41-3.99,12.95-4.9s9.41-.73,13.59,1.26,7.53,5.99,8.03,10.59c1.42-4.79.52-9.91-.02-14.87s-.61-10.35,2.15-14.51c1.83-2.76,4.9-5.02,5.12-8.32.18-2.82-1.86-5.42-1.74-8.25.15-3.33,3.19-5.74,6.11-7.35,9.98-5.52,21.54-7.29,32.82-8.98-15.9-1.53-31.72,3.66-46.14,10.52-.37-.54-.13-1.39.47-1.65"/>
    <path d="m62.13,674.4c-4.44,1.62-8.9,3.34-12.83,5.98s-7.31,6.32-8.77,10.81c-2.39,7.37.7,15.28,1.02,23.02.31,7.59-2.12,15.15-6.11,21.61s-9.49,11.9-15.51,16.53c8.21-3.5,15.31-9.56,20.04-17.12,3.46,5.22,4.63,11.91,3.16,18,2.46-5.02,3.6-10.69,3.29-16.27-.14-2.48-.56-4.96-.3-7.43.34-3.2,1.79-6.16,3.23-9.05,1.27-2.56,2.58-5.17,4.59-7.2,5.72-5.78,15.42-5.43,21.83-10.44-6.69,2.1-13.37,4.2-20.06,6.3-1.12.35-2.27.71-3.44.64s-2.39-.65-2.88-1.72c-.78-1.7.55-3.6.68-5.47.14-1.93-1.01-3.69-1.59-5.54-1.23-3.93.22-8.32,2.8-11.53s6.17-5.43,9.77-7.44"/>
    <path d="m42.63,714.3c-.34-5.18-3.51-10.09-8.09-12.52-3.03-1.61-6.54-2.17-9.55-3.82,10.47,5.32,17.51,16.78,17.51,28.52.71-.37,1.17-1.15,1.17-1.95"/>
    <path d="m50.89,684.7c-3.58,4.29-4.57,10.59-2.47,15.77.9-4.34,1.81-8.68,2.71-13.01.14-.68.29-1.37.63-1.97s.92-1.11,1.61-1.19"/>
    <path d="m95.59,674.25c9.19,6.6,16.75,15.45,21.82,25.56l-.17-4.53c3.97,7.92,6.55,16.53,7.59,25.33-4.4-8.09-11.37-14.76-19.65-18.8,5.64,5.5,11.33,11.07,15.59,17.7s7.02,14.51,6.17,22.35c-7.45-1.38-15.5,1-21.01,6.21,3.08.21,6.06-.91,9.06-1.64s6.37-1.03,8.98.61c1.53.96,2.6,2.47,3.7,3.91,4.14,5.39,9.17,10.11,14.9,13.76-2.55-3.72-7.18-6-8.59-10.28-1.56-4.73,1.77-9.96,6.19-12.25s9.61-2.4,14.59-2.45c-5.73-.52-11.45-1.04-17.18-1.56-1.36-.12-2.8-.27-3.9-1.08-2.15-1.55-2.11-4.68-2.34-7.32-.27-3.16-1.24-6.26-2.82-9.02-.43-.74-.9-1.48-1.05-2.33s.13-1.83.89-2.23c.57-.29,1.25-.19,1.88-.08,6.78,1.25,13.39,3.4,19.62,6.36-6.15-5.32-13.75-8.95-21.76-10.38-.62-8.5,3.51-17.2,10.49-22.1-3.73,1.99-7.47,3.99-11.2,5.98-.76.41-1.56.82-2.42.8-2.37-.05-3.36-3.08-3.33-5.46.03-1.69.17-3.58-.93-4.85-.85-.98-2.21-1.3-3.46-1.65-4.92-1.36-9.53-3.83-13.38-7.19-.14.35-.27.7-.41,1.05"/>
    <path d="m330.74,671.48c-4.21-4.98-9.98-8.62-16.28-10.29,9.11,5.16,13.78,17.03,10.63,27.01-4.01-5.18-11.28-7.56-17.57-5.77,3.94.55,7.63,2.71,10.05,5.86s3.55,7.28,3.07,11.22c-.26,2.11-1.12,4.36-3.01,5.34-1.61.83-3.54.54-5.34.69-3.74.32-7.07,2.67-9.41,5.61s-3.84,6.43-5.32,9.89c1.7-2.11,3.47-4.27,5.87-5.53s5.62-1.35,7.6.51c2.34,2.2,2.01,5.89,2.11,9.1.27,8.43,4.68,16.1,8.97,23.37-3.52-9.59-2.66-20.69,2.29-29.62,6.66,4.39,12.27,10.34,16.28,17.23-1.07-6.14-2.14-12.29-3.21-18.43-.32-1.82-.63-3.69-.34-5.51.43-2.61,2.09-4.89,4.12-6.58s4.44-2.87,6.81-4.03c-2.92-1.75-6.75-.94-9.71.75s-5.39,4.17-8.27,5.98c-.96.6-2.23,1.11-3.15.45-.99-.71-.79-2.21-.49-3.39,1.1-4.31,2.21-8.61,3.31-12.92.51-2,1.11-4.14,2.71-5.45,1.66-1.37,3.99-1.5,6.15-1.57,4.85-.16,10.3-.09,13.7,3.36-2.84-4.45-7.36-7.79-12.45-9.2-1.19-.33-2.57-.68-3.1-1.8-.24-.52-.25-1.11-.25-1.69-.01-5.43-.02-10.85-.04-16.28-1.58,4.03-3.15,8.07-4.73,12.1"/>
    <path d="m544.82,662.82c5.71-.78,11.2-3.12,15.72-6.71-6.01,2.68-9.67,9.79-8.38,16.24s7.42,11.59,14,11.75c-6.46.06-12.9,2.15-18.17,5.89-.45.32-.91.67-1.14,1.18-.31.7-.1,1.52.12,2.26,1.14,3.89,2.29,7.77,3.43,11.66.82,2.79,1.67,5.64,3.36,8.01,3.01,4.2,8.14,6.21,12.98,8.01-6.3-1.51-12.4-3.87-18.08-6.99,2.37,9.27.92,19.46-3.95,27.69.56-3.8,1.12-7.75.03-11.43s-4.29-7.05-8.14-7c-2.19.03-4.2,1.11-6.25,1.86-5.73,2.09-12.03,1.58-18.1,1.06,7.92-1.81,15.51-5.05,22.31-9.51,1.85-1.21,3.68-2.55,4.96-4.35,2.4-3.36,2.56-7.77,2.55-11.9-9-.09-17.87-4.44-23.46-11.5,4.6,3.34,10.66,4.58,16.2,3.31,2.09-.48,4.23-1.4,5.4-3.2,2-3.08.34-7.27-2.09-10.02s-5.63-4.89-7.35-8.13c3.19,1.59,6.64,2.65,10.18,3.1,1.05.13,2.21.18,3.04-.48,1.12-.89,1.02-2.71.2-3.89s-2.12-1.89-3.35-2.62-2.47-1.63-2.99-2.96c1.02.26,2.09.45,3.11.21s1.98-1.02,2.13-2.06-.79-2.18-1.82-1.99"/>
    <path d="m768.78,659.13c-4.86-.87-9.82-1.22-14.76-1.05,2.38,2.24,4.81,4.55,6.32,7.46s1.94,6.59.26,9.4c-.87,1.46-2.3,2.76-2.33,4.46-.07,3.77,6.11,4.41,7.43,7.94-5.08,1.51-10.54-.52-15.82,0-7.24.73-13.04,6.07-18.26,11.14,4.77-3.12,10.3-5.47,16-5.22,2.48.11,5.01.74,6.99,2.24s3.32,3.98,3.03,6.45c-.21,1.8-1.21,3.39-2.22,4.9-2.07,3.09-4.63,6.35-8.3,6.97-5.85.99-10.84-5.2-16.78-5.09,2.71,4.76,7.1,8.55,12.21,10.54,3.18,1.24,6.83,1.94,9.01,4.56,2.3,2.77,2.18,6.88.96,10.26s-3.38,6.34-4.94,9.58c-.28.58-.54,1.2-.48,1.84.1,1.05,1.12,1.85,2.17,1.98s2.1-.29,3-.85c3.19-2.02,4.87-5.84,8-7.96,2.52-1.7,5.75-2.15,8.15-4.01,3.16-2.46,4.11-6.71,5.58-10.44s4.44-7.64,8.43-7.36c2.05.14,3.84,1.4,5.37,2.76,5.18,4.62,8.66,11.11,9.63,17.98.75-7.89,1.22-16.73-3.91-22.77-2.02-2.38-4.97-4.49-5.11-7.61-.07-1.44.51-2.83,1.14-4.14,1.12-2.35,2.42-4.64,4.23-6.5,4.47-4.62,11.25-5.98,17.58-7.11-7.31-1.77-15.32-.48-21.7,3.51-1.73,1.08-3.8,2.41-5.65,1.55-.91-.42-1.51-1.29-2.08-2.12-2.18-3.23-4.37-6.46-6.55-9.69-.88-1.3-1.8-2.76-1.59-4.32.29-2.14,2.5-3.37,4.29-4.57,9.12-6.13,11.78-18.33,19.01-26.59-4.98,4.32-10.13,8.74-16.37,10.87-3.64,1.24-7.49,1.66-11.31,2.06.68.09,1.37.19,2.05.28"/>
    <path d="m945.33,676.58c-3.49-1.5-7.21-2.48-10.99-2.9,2.84,2.22,5.72,4.47,7.83,7.4s3.37,6.66,2.55,10.17-4.12,6.53-7.71,6.24c-1.96-.16-3.72-1.2-5.6-1.75s-4.25-.47-5.4,1.12c5.09.69,9.84,3.61,12.76,7.83s3.97,9.7,2.82,14.7c-2.47-3.36-6.65-5.39-10.82-5.26-1.64.05-3.36.4-4.86-.26-2.77-1.22-3.36-5.2-6.04-6.6,2.14,4.42.1,10.62,3.7,13.96,2.54,2.36,6.67,1.94,9.56,3.87,3.19,2.13,3.98,6.71,2.72,10.33s-4.12,6.44-7.08,8.87-6.16,4.66-8.51,7.69c7.1-2.46,13.61-6.63,18.81-12.06,1.86-1.94,3.63-4.09,6.05-5.24,3.4-1.61,7.39-.94,11.08-.24,2.88.55,5.83,1.12,8.32,2.68,4.32,2.72,6.38,7.86,7.93,12.72-.5-4-1.01-8.05-2.5-11.79s-4.06-7.22-7.71-8.94c-1.1-.52-2.49-1.14-2.51-2.36-.01-.72.49-1.33.97-1.86,5.4-6.04,10.8-12.09,16.19-18.13-5.27,4.68-11.42,8.37-18.03,10.83-1.78.66-3.65,1.24-5.54,1.08s-3.81-1.23-4.47-3.01c-1.06-2.86,1.43-5.93,1.04-8.95-.14-1.11-.64-2.32-.04-3.26.52-.8,1.59-.98,2.54-1.08,6.24-.66,12.49-1.31,18.73-1.97-5.01-2.21-10.02-4.41-15.03-6.62-.65-.29-1.36-.64-1.57-1.32-.25-.8.34-1.6.91-2.21,5.31-5.63,12.62-8.83,19.73-11.89,2.38-1.02,4.76-2.05,7.14-3.07-5.5,1.06-11,2.13-16.5,3.19-1.61.31-3.31.62-4.84.05-1.69-.62-3.03-2.25-4.83-2.31-1.61-.06-2.94,1.14-4.31,1.98s-3.45,1.21-4.37-.12"/>
    <path d="m888.04,644.07c-4.72.52-9.48.74-14.23.66-2.02-.04-4.2-.08-5.84,1.09-.88.62-1.5,1.53-2.16,2.38-2.42,3.12-5.57,5.67-9.12,7.39,3.61-.46,6.62-2.93,10.01-4.25,5.51-2.14,11.68-1.14,17.5-.12-3.99,3.24-8.28,6.09-12.8,8.53,9.2-3.86,19.27-5.04,29.18-6.19-2.35-3.32-5.73-5.89-9.55-7.27"/>
    <path d="m892.81,646.99c-.98-1.12-2.41-1.83-3.9-1.93.53,1.06,1.45,1.91,2.55,2.35"/>
    <path d="m851.3,618.71c6.53-.81,13.2,1.18,18.82,4.61,5.62,3.43,10.27,8.24,14.38,13.39,2.14,2.68,4.22,5.64,4.59,9.05-5.07-5.2-10.15-10.42-15.85-14.93-5.7-4.5-12.07-8.29-19.05-10.28"/>
    <path d="m1220.98,656.49c-10.75,4.35-20.36,11.48-27.64,20.51,9.44-10.86,23.04-18.02,37.34-19.66,1.03-.12,2.12-.23,2.98-.82s1.36-1.84.78-2.7c-.68-1-2.18-.81-3.36-.51-3.18.82-6.37,1.64-9.55,2.45"/>
    <path d="m1233.53,654.11c1.04,4.99,2.03,10.38-.11,15-.91,1.97-2.35,3.66-3.21,5.65-2.16,5.04-.21,10.8,1.73,15.93,2.63-7.62,7.61-14.42,14.07-19.24-3.08,1.82-4.88,5.24-5.92,8.67s-1.46,7.03-2.63,10.41c-.76,2.21-1.85,4.56-1.11,6.78.41,1.23,1.34,2.21,2.23,3.15,3.06,3.2,6.12,6.39,9.18,9.59-4.71-3.21-9.78-6.55-15.47-6.64-2.17-.04-4.5.37-6.38-.72-.95-.55-1.76-1.47-2.86-1.56-1.43-.11-2.49,1.25-3.26,2.46-4.12,6.42-8.24,12.84-12.35,19.26,3.17-6.19,6.44-12.92,5.34-19.78-.44-2.71-1.54-5.27-2.23-7.93-1.13-4.4-1.27-9.43-4.45-12.66,2.69,4,5.38,8,8.07,12,.28.41.61.86,1.1.95.6.11,1.17-.4,1.37-.99s.1-1.21.05-1.83c-.29-3.5.71-7.09,2.75-9.95,1.64-2.29,4.06-4.56,3.65-7.34-.34-2.28-2.64-3.87-4.94-4.13s-4.57.52-6.72,1.36-4.33,1.76-6.64,1.83c4.92-1.8,9.87-3.62,14.34-6.35s8.47-6.48,10.64-11.24"/>
    <path d="m1362.14,665.46c.84,4.77-2.78,9.17-6.66,12.07s-8.43,5.26-10.94,9.4c-2.26,3.73-2.48,8.28-3.14,12.59-1.85,11.96-7.69,23.27-16.38,31.71,5.78-5.58,11.55-11.15,17.33-16.73-3.5,9.73-9.1,18.7-16.29,26.13-3.15,3.25-6.99,6.37-11.51,6.57-6.03.27-10.9-4.6-14.92-9.1,1.28,4.55,2.84,9.48,6.77,12.1,2.76,1.84,6.38,2.28,8.77,4.58,2.28,2.19,2.91,5.68,2.35,8.8s-2.15,5.93-3.79,8.63c11.04-2.68,22.59-1.23,33.94-1.11,5.46.06,11.38-.36,15.54-3.9,2.95-2.51,4.58-6.3,5.21-10.13s.36-7.73.09-11.6c-1.5-21.24-3-42.47-4.5-63.71-.2-2.82-.68-6.1-3.14-7.49"/>
    <path d="m1361.98,667.56l5.58-9.04c2.41,18.82,2.36,37.95-.13,56.75-4.54-8.53-6.95-18.18-6.98-27.85-.01-4.42.3-9.37-2.64-12.67"/>
    <path d="m1361.15,753.39c-1.33,4.2-2.66,8.41-3.99,12.61-.72,2.28-1.29,5.15.49,6.73,1.58,1.4,4.02.87,6.04.26,4.8-1.45,9.6-2.89,14.4-4.34"/>
    <path d="m1339.15,710.29c1.18-5.4-.49-11.03-2.74-16.08s-5.09-9.89-6.47-15.25c3.7,2.98,4.84,8.05,7.34,12.09,2.96,4.78,8.08,8.16,13.63,9.01"/>
    <path d="m1083.89,767.4l-.02.34"/>
    <path d="m1083.49,771.53c-2.04-8-9.79-13.01-17.08-16.87-1.9-1.01-3.86-2.02-5.35-3.58-6.59-6.89-.71-19.49-6.25-27.25,3.59,5.97,7.44,12.2,13.53,15.58,2.11,1.17,4.65,1.96,6.93,1.17s3.89-3.68,2.63-5.74c3.49,3.75,9.65,4.15,14.19,1.77s7.55-7.02,9.09-11.91,1.77-10.08,1.99-15.2c4.81,12.57,3.82,27.22-2.62,39.03-.97,1.77-1.98,4.18-.52,5.57,1.38,1.32,3.64.41,5.29-.56,10.99-6.48,21.98-12.95,32.97-19.43-7.23,7.45-14.45,14.89-21.68,22.34,5.19,4.69,9.42,10.42,12.37,16.76-6.18,2.48-12.35,4.95-18.53,7.43"/>
    <path d="m632.11,770.42c-5.77,1.94-11.95-2.65-14.54-8.15s-2.8-11.79-4.22-17.71c-1.76-7.32-5.45-14.16-10.61-19.64,8.14,2.16,15.22,8.03,18.85,15.64,1.11,2.33,1.95,4.86,3.63,6.82s4.58,3.21,6.89,2.05c2.38-1.19,3.05-4.21,3.57-6.83,2.43-12.35,7.46-24.18,14.65-34.5-.12,9.08-.23,18.15-.35,27.23,0,.78,0,1.62.44,2.26.72,1.05,2.33,1.11,3.43.48s1.81-1.76,2.47-2.84c9.42-15.35,18.7-30.8,27.82-46.33-4.93,16.62-9.86,33.23-14.79,49.85-1.44,4.85-2.91,9.77-5.56,14.09s-6.66,8.03-11.59,9.2c11.69,2.12,23.63,2.88,35.49,2.28-13.32,5.54-26.47,11.66-38.54,19.56"/>
    <path d="m398.44,775.18c-2.55-12.22-8.5-23.43-14.38-34.45,4.03,3.98,8.05,7.96,12.08,11.93.64.63,1.34,1.3,2.23,1.45,1.57.27,2.97-1.24,3.26-2.8s-.19-3.15-.51-4.71c-3.2-15.4,8.75-30.99,5.44-46.36,3.13,11.45,4.97,23.26,5.47,35.13,11.33-8.89,21.28-19.55,29.37-31.47,3.4-5.01,6.99-10.64,12.81-12.34-11.25,18.49-20.89,37.95-28.8,58.1,9.26-3.49,18.37-7.91,25.57-14.69-5.07,5.49-10.14,10.98-15.21,16.46-1.27,1.38-2.59,2.83-3.11,4.63-.91,3.12.76,6.38,2.66,9.01s4.15,5.24,4.61,8.46-1.96,7.07-5.17,6.59"/>
  </g>
  <g id="ASAP">
    <g>
      <path d="m183.72,656.31c-18.11-7.66-38.74-6.31-56.12,2.69-9.48,4.91-18.71,12.28-24.19,21.57-.11.19.17.43.32.25,2.93-3.69,5.94-7.3,9.42-10.49,3.58-3.28,7.53-6.17,11.72-8.61,8.33-4.86,17.69-7.99,27.29-8.98,18.9-1.95,37.66,4.97,51.39,17.98,7.66,7.26,13.57,16.36,17.38,26.2.11.29.58.18.48-.13-5.41-18.25-20.35-33.12-37.69-40.46Z"/>
      <path d="m249.54,667.51c-3.58.06-7.08,1.38-10.26,2.97-3.37,1.68-6.48,3.91-9.13,6.58-2.61,2.62-4.79,5.67-6.45,8.98-.81,1.61-1.49,3.28-2.03,5-.47,1.47-1.32,3.53-.93,5.09.03.12.18.12.24.03.86-1.29.95-3.22,1.43-4.7.57-1.77,1.29-3.5,2.14-5.16,1.62-3.17,3.71-6.1,6.22-8.62,2.51-2.52,5.43-4.64,8.59-6.26,3.26-1.67,6.74-2.57,10.21-3.68.12-.04.11-.23-.03-.23Z"/>
      <path d="m331.13,668.35c-.51-1.73-1.13-3.41-1.84-5.06-1.42-3.3-3.21-6.44-5.33-9.35-4.18-5.76-9.57-10.67-15.76-14.2-12.86-7.35-28.5-7.86-42.08-2.16-3.73,1.56-7.27,3.57-10.51,6-3.17,2.38-6.45,5.22-8.49,8.66-.11.18.14.36.28.22,2.54-2.44,4.84-5.03,7.62-7.22,2.81-2.23,5.89-4.12,9.13-5.67,6.52-3.12,13.75-4.79,20.99-4.8,14.19-.01,27.48,6.93,36.25,17.98,2.42,3.05,4.47,6.41,6.09,9.95.82,1.79,1.51,3.64,2.1,5.53.49,1.58.72,3.33,1.29,4.9-.42.17-.85.3-1.31.4-.17.04-.13.31.04.31.64-.01,1.21.01,1.84.18.38.1.72-.19.74-.56.1-1.65-.59-3.52-1.05-5.09Z"/>
      <path d="m269.22,635.69c-1.14-.55-2.32-.39-3.56-.34-1.46.06-2.91.14-4.36.25-2.81.22-5.61.55-8.38,1.01-5.68.94-11.28,2.45-16.58,4.72-9.46,4.05-17.88,10.72-23.17,19.63-2.8,4.72-4.6,9.93-5.07,15.41-.05.59.84.57.91,0,1.14-9.82,6.43-18.64,13.71-25.18,7.91-7.1,18.01-11.15,28.35-13.14,3.1-.6,6.22-1.01,9.37-1.28,1.6-.14,3.2-.24,4.8-.31,1.36-.06,2.76.11,3.99-.53.09-.05.09-.2,0-.24Z"/>
      <path d="m378.77,677.78c-.38-6.66-1.93-13.4-5.32-19.2-6.37-10.91-19.48-16.8-31.84-13.76-3.28.8-6.42,2.19-9.23,4.05-2.72,1.8-5.64,4.2-7.18,7.13-.1.19.14.4.31.24,2.2-2.16,4.12-4.4,6.67-6.18,2.45-1.7,5.15-3.03,8-3.91,5.86-1.8,12.15-1.56,17.88.59,5.87,2.2,10.84,6.3,14.13,11.64,3.36,5.46,4.98,11.85,5.45,18.19.3,4.05.16,8.12-.2,12.16-.18,2.11-.43,4.21-.7,6.31-.23,1.82-.86,3.98-.58,5.79,0,0,0,0,0,.01-.05.37.55.52.71.19.72-1.47.71-3.41.92-5.03.27-2.1.51-4.2.71-6.31.36-3.96.53-7.94.3-11.92Z"/>
      <path d="m411.55,642.68c-4.87-1.71-10.39-1.93-15.28-.2-5.21,1.84-8.89,5.85-11.35,10.7-1.5,2.97-2.58,6.12-3.67,9.25-1.33,3.85-2.77,7.7-3.9,11.61-.13.44.5.58.66.18,2.38-5.79,4.04-11.87,6.46-17.64,2.12-5.05,5.17-9.81,10.23-12.29,4.56-2.24,9.95-2.44,14.81-1.15,5.04,1.34,9.38,4.41,12.73,8.36,3.94,4.65,6.49,10.42,8.27,16.2.03.11.18.06.17-.05-1.84-10.64-8.58-21.27-19.14-24.98Z"/>
      <path d="m545.91,665.33c-4.7-7.83-10.18-15.42-16.85-21.71-6.96-6.56-15.27-10.95-24.79-12.3-10.11-1.43-20.48-.13-30.57.98-8.79.97-17.62,2.27-26.07,4.98-9.1,2.91-17.64,7.63-23.85,15.03-.27.32.19.79.46.46,11.4-13.38,29.61-17.22,46.26-19.2,9.62-1.15,19.49-2.36,29.18-1.74,5.19.33,10.38,1.32,15.18,3.38,4.07,1.75,7.81,4.2,11.18,7.06,7.78,6.62,13.37,15.2,19.5,23.26.15.2.49.03.35-.21Z"/>
      <path d="m544.59,666.71c-3.61-4.06-9.93-2.53-14.25-.63-5.22,2.3-10,5.93-14.4,9.51-9.06,7.39-16.78,16.45-22.68,26.54-1.65,2.82-3.16,5.73-4.52,8.71-.67,1.48-1.31,2.97-1.91,4.48-.59,1.48-1.27,2.96-1.22,4.58,0,.13.18.23.28.12.78-.94,1.15-1.96,1.6-3.1.55-1.41,1.12-2.82,1.73-4.21,1.11-2.52,2.32-4.98,3.64-7.4,2.7-4.95,5.83-9.67,9.35-14.08,6.9-8.64,15.26-16.19,24.69-21.98,2.66-1.63,5.55-3.02,8.63-3.63,3.13-.62,6.04-.15,8.78,1.48.24.14.47-.18.29-.38Z"/>
      <path d="m620.45,641.99c-10.19-7.9-23.79-10.71-36.46-9.03-11.92,1.58-23.04,7.52-31.17,16.36-4.54,4.94-8.17,10.69-10.29,17.06-.13.38.49.65.66.28,4.58-10.66,12.1-19.87,22.11-25.86,10.57-6.32,23.23-8.43,35.31-6.15,6.9,1.3,13.63,4.01,19.67,7.58.14.08.32-.13.18-.23Z"/>
      <path d="m121.6,699.15c-3.65-11.14-12.35-20.12-23.14-24.6-11.18-4.64-23.91-3.58-34.46,2.2-5.85,3.2-11.29,7.84-14.37,13.84-.05.1.09.24.17.13,3.6-4.59,7.64-8.79,12.61-11.9,5.01-3.13,10.7-5.21,16.56-5.94,11.48-1.44,23,2.64,31.42,10.49,4.71,4.39,8.44,9.87,10.62,15.94.13.36.71.21.59-.16Z"/>
      <path d="m52.42,657.75c-6.26-4.85-13.52-8.63-21.01-11.19-7.81-2.68-16.2-3.91-24.41-2.66-6.9,1.05-13.43,4.09-18.67,8.7-5.59,4.93-9.84,11.83-9.86,19.45,0,.09.15.12.17.02,2.09-13.46,12.82-23.89,25.97-26.83,15.46-3.45,32.09,2.6,44.75,11.35,6.74,4.66,12.66,10.72,15.29,18.64.09.26.48.15.41-.11-1.93-7.1-6.91-12.93-12.64-17.36Z"/>
      <path d="m687.6,642.9c-13.61-5.13-27.45-10.27-42.2-10.44-11.93-.14-24.43,3.07-33.44,11.22-2.55,2.31-4.78,4.99-6.58,7.92-.93,1.52-1.73,3.11-2.42,4.75-.66,1.57-1.42,3.18-1.23,4.91,0,.06.07.07.1.03.88-1.14,1.22-2.46,1.76-3.78.66-1.6,1.45-3.15,2.34-4.64,1.59-2.67,3.48-5.14,5.69-7.32,4.28-4.23,9.61-7.27,15.29-9.18,12.24-4.14,25.29-3.1,37.66-.09,7.75,1.88,15.4,4.37,22.97,6.9.17.06.24-.21.07-.27Z"/>
      <path d="m775.73,665.37c-10.44-12.21-25.28-20.35-40.69-24.46-15.55-4.14-33.11-4.45-48.38,1.1-8.41,3.06-16.96,9.53-17.65,19.18-.03.39.64.49.69.09,1.19-8.84,8.24-14.89,16.19-17.96,7.53-2.91,15.83-4.13,23.87-4.36,15.57-.45,31.23,3.4,44.87,10.89,7.64,4.2,14.69,9.6,20.97,15.64.08.08.19-.04.12-.12Z"/>
      <path d="m872.65,628.67c-14.22-10.82-33.11-14.75-50.63-12.01-16.56,2.6-31.73,11.65-42.24,24.66-2.89,3.58-5.44,7.43-7.58,11.51-2.12,4.03-3.96,8.37-4.81,12.86-.02.1.11.13.15.04,1.52-3.81,2.94-7.65,4.84-11.3,1.83-3.5,3.89-6.86,6.26-10.02,4.85-6.48,10.85-12.15,17.61-16.6,14.38-9.46,32.04-12.82,48.95-9.79,9.71,1.74,19.04,5.51,27.32,10.86.14.09.25-.12.13-.22Z"/>
      <path d="m949.34,681.29c-3.27-7.4-9.2-13.46-15.74-18.07-6.67-4.7-14.39-7.98-22.43-9.4-15.93-2.81-32.2,2.23-44.32,12.81-6.66,5.81-12.2,13.32-14.86,21.8-.08.26.34.46.46.19,3.09-7.06,7.27-13.58,12.82-18.96,5.61-5.45,12.36-9.74,19.73-12.38,15.09-5.42,31.81-3.19,45.36,5.24,7.72,4.81,13.67,11.45,18.73,18.92.11.16.33.02.26-.15Z"/>
      <path d="m899.27,652.18c-2.85-5.37-9.57-8.16-15.2-9.36-6.33-1.35-12.94-1.14-19.31-.16-13.19,2.02-25.73,7.95-35.84,16.63-2.86,2.46-5.52,5.14-7.95,8.02-2.27,2.7-4.81,5.69-6.01,9.05-.04.13.13.22.22.13,2.14-2.34,3.76-5.15,5.76-7.61,1.98-2.44,4.13-4.73,6.42-6.88,4.74-4.44,10.1-8.22,15.85-11.22,11.17-5.83,24.46-9.13,37.08-7.65,3.6.42,7.17,1.31,10.46,2.86,3.29,1.55,5.77,3.8,8.27,6.37.12.12.31-.03.23-.18Z"/>
      <path d="m865.99,622.31c-.37,0-.37.58,0,.58s.37-.58,0-.58Z"/>
      <path d="m886.83,641.43c-1.77-3.15-3.95-6.06-6.46-8.65-2.47-2.55-5.26-4.78-8.3-6.61-3.16-1.9-6.37-3.2-9.95-4.02-.06-.01-.08.07-.02.09,6.64,2.31,12.8,6.05,17.68,11.13,2.41,2.51,4.5,5.31,6.2,8.35.87,1.55,1.64,3.15,2.29,4.81.61,1.55,1.05,3.14,1.81,4.62.07.14.3.07.29-.08-.09-3.31-1.94-6.8-3.53-9.64Z"/>
      <path d="m1089.15,653.81c-17.96-6.9-37.59-9.07-56.72-7.65-19.08,1.42-37.94,6.54-55.01,15.21-9.49,4.82-18.87,10.65-26.64,17.98-.09.08.03.25.13.17,7.58-5.76,15.25-11.25,23.66-15.73,8.46-4.51,17.38-8.17,26.56-10.92,18.23-5.47,37.52-7.38,56.46-5.46,10.67,1.08,21.26,3.42,31.48,6.67.18.06.24-.21.07-.27Z"/>
      <path d="m1151.17,664.03c-12.52-8.38-27.51-12.95-42.58-13.17-14.87-.22-29.68,4.19-41.25,13.71-6.74,5.55-12.36,12.62-15.78,20.67-.11.25.24.48.38.22,7.1-13.53,18.28-24.43,32.77-29.71,13.83-5.04,29.16-4.9,43.26-1.08,8.03,2.18,15.81,5.51,22.96,9.76.25.15.47-.23.23-.39Z"/>
      <path d="m1222.02,656.38c-15.21-7.49-32.89-8.9-49.28-4.74-14.9,3.78-28.28,12.37-38.14,24.14-5.38,6.42-9.69,13.63-12.39,21.57-.03.1.13.17.17.07,5.81-13.56,14.94-25.4,27.05-33.9,13.18-9.25,29.18-13.76,45.25-13.03,9.32.42,18.65,2.48,27.27,6.06.1.04.17-.12.07-.17Z"/>
      <path d="m1234.64,655.41c-5.14.07-10,.95-14.82,2.76-4.73,1.78-9.17,4.3-13.14,7.42-8.71,6.84-14.19,16.29-17.26,26.84-1.88,6.46-3.06,13.11-3.55,19.82,0,.11.17.14.2.03,2.8-11.2,4.08-22.76,9.96-32.93,5-8.65,12.93-15.48,22.06-19.47,5.17-2.26,10.92-3.74,16.57-4.14.2-.01.2-.32,0-.31Z"/>
      <path d="m1315.49,645.47c-23.21-11.14-53.02-15.39-74.67,1.52-2.52,1.97-4.85,4.19-6.88,6.66-1.98,2.39-3.91,5.05-4.81,8.04-.05.15.16.22.24.1,1.73-2.36,3.16-4.89,5.03-7.16,1.72-2.09,3.63-4.01,5.7-5.75,4.41-3.7,9.53-6.56,14.92-8.56,12.13-4.5,25.35-4.4,37.87-1.67,7.67,1.67,15.21,4.18,22.53,7,.1.04.17-.13.07-.17Z"/>
      <path d="m1355.41,652.5c-5.58-5.68-12.99-9.57-20.68-11.51-7.78-1.97-16.09-1.99-23.83.18-7.21,2.02-13.82,6.03-19.17,11.24-6.13,5.98-10.41,13.39-12.32,21.75-.02.11.13.15.17.05,4.03-13.8,14.74-25.73,28.29-30.68,14.48-5.29,31.48-2.52,43.5,7.16,6.73,5.42,12.38,14.03,10.84,23.04-.02.14.17.19.21.06,2.62-7.86-1.56-15.75-7.01-21.29Z"/>
    </g>
  </g>
  <g id="WARNA_DASAR" data-name="WARNA DASAR">
    <path class="cls-4" d="m1289.2,567.76l-17.73,15.2-94.76,17.57-29.83,3.91c-5.19-37.97-12.51-65.96-22.08-86.41-27.85-59.54-74.78-55.21-143.96-47.54l-1.86.21c-64.49,7.17-79.94,69.02-83.27,107.24-1.53,17.55-.51,30.11-.51,30.11l-500.01,3.8c-.88-13.74-2.27-26.11-4.1-37.26-19.01-115.51-86.79-99.34-156.21-96.97-9.07.31-17.01,1.57-23.98,3.58-51.52,14.89-49.51,71.01-51.45,89.49-2.2,20.99,3.49,46.27,3.18,46.02-.31-.24-53.58-3.19-53.58-3.19-14.66-9.22-37.45-18.91-37.45-18.91,0,0-13.52-14.43-12.22-29.44,1.31-15.01,19.28-22.65,19.28-22.65l-7.07-5.44c-12.39-12.59-8.47-68.65-8.47-68.65l43.05-44.48,4.26-4.4c117.13-48.03,286.36-48.13,286.36-48.13,0,0,117.73-107.96,276.98-124.42,159.24-16.46,446.86-5.02,446.86-5.02l38.12,9.23c33.07-4.62,64.03,8.53,64.03,8.53l21.23,3.55-4.71,11.3s-13.85,11.88-15.49,12.74c-1.63.85,23.3,20.01,33.13,33.19,1.18,1.59,2.27,3.45,3.27,5.49,1.16,2.35,2.2,4.94,3.13,7.64,4.98,14.46,6.86,32.02,6.86,32.02,12.41,16.82,16.41,28.56,17.7,35.37.57,2.98.61,5.02.61,6.13,0,.55-.01.88.03.97.27.65.65,52.16.71,60.86.01.8.01,1.24.01,1.24l-2.76,43.81,11.32,14.69c2.19,12.16-8.62,39.02-8.62,39.02Z"/>
    <path d="m446.55,370.95l-8.42,12.65-1.84,2.84-.13,3.45,1.67,3.23,1.88,1.92,2.79.84h10.73l10.21-.58-5.63-2.05s-3.61-2.1-3.84-2.42-2.63-3.04-2.63-3.04c0,0-1.37-4.02-1.53-4.13s-1.36-3.25-1.41-3.36-1.06-2.29-1.06-2.29l-.24-4.85-.54-2.2Z"/>
    <polygon class="cls-8" points="487.49 343.48 500.19 333.83 517.3 322.57 534.78 312.61 551.75 304.08 573.66 294.55 590.73 288.57 610.35 282.46 625.28 279.03 639.89 276.05 651.7 274 668.64 272.01 686.06 270.67 703.88 270.67 703.55 274.32 700.75 289.59 698.05 304.8 694.62 322.77 690.69 343.09 683.31 383.05 659.09 384.54 624.85 386.46 582.05 388.7 544.09 390.72 504.12 392.42 482.7 393.12 485.66 388.88 489.45 381.16 491.92 371.39 492.43 363.9 491.5 354.79 488.69 346.76 487.49 343.48"/>
    <path class="cls-8" d="m746.04,270.67l-2.06,108.36,31.75-1.79,68.35-4.16,57.76-3.86,18.89-1.47,5.03-.39-2.42-41.33-.56-13.73-.26-5.59s-.47-4.55-.72-4.84-4.25-13.59-4.25-13.59l-7.19-18.14-164.32.52Z"/>
    <polygon class="cls-8" points="939.5 269.98 941.24 274.93 945.87 285.29 953.52 304.26 960.19 320.3 967.5 338.55 976.49 359.77 989.28 357.39 1007 354.2 1025.31 349.94 1044.71 345.47 1051.17 342.57 1062.19 338.12 1081.72 330 1104.1 320.78 1123.35 312.59 1135.44 307.54 1138.22 306.44 1140.56 305.96 1142.43 304.48 1143.33 301.93 1143.18 299.69 1142.48 297.97 1133.54 286.39 1125.14 275.06 1104.58 273.56 1082.21 272.45 1064.97 271.59 1042.54 271.33 1024.41 270.5 1008.37 270.41 987.16 270.28 970.88 269.98 946.74 269.9 939.5 269.98"/>
    <path class="cls-9" d="m1263.53,333.65c-.19,0-9.62-1.43-9.62-1.43,0,0-7.09,3.88-7.19,3.91s-11.65,6.27-11.83,6.33-15.16,8.17-15.3,8.21-16.44,8.97-16.44,8.97c0,0-12.98,7.05-13.08,7.06s-1.69.63-1.83.79-.65,1.58-.65,1.61.4,1.18.47,1.21.84.63.98.65,2.03.13,2.03.13l15.94,2.51,18.54,2.72,22.32,3.35,14.01,1.78,1.99.34s4.37,2.08,4.44,2.11,6.15,3.63,6.23,3.7,4.73,3.59,4.94,3.68,3.85,3.69,4,3.8,4.06,5.19,4.05,4.97-1.76-6.48-1.81-6.62-3.45-8.72-3.5-8.97-6.4-10.96-6.58-11.16-5.21-7.44-5.26-7.59-1.41-8.02-1.42-8.28-1.24-8.25-1.29-8.5-2.51-9.44-2.5-9.72-1.66-5.57-1.66-5.57Z"/>
  </g>
  <g id="Layer_12" data-name="Layer 12">
    <path class="cls-7" d="m181.6,427.34c.74-.41,1.57-.65,2.41-.69-.05.07-.1.15-.15.22.06-.14.12-.28.17-.42-.08.16-.15.32-.23.48"/>
    <path class="cls-7" d="m183.23,419.28l-9.26,2.43c-2.48,2.25-5.07,4.39-7.73,6.42-.08.38-.31.73-.64.94-1.44.93-2.8,1.99-4.24,2.92-.62.4-1.26.75-1.91,1.09-.3.15-.59.31-.88.49-.08.05-.16.1-.24.15,0,0-.03.02-.05.03-.03.03-.12.1-.13.1-.05.04-.09.09-.13.13-.22.23-.51.33-.8.36-2.75,1.71-5.56,3.32-8.44,4.8,11.37-3.26,23.74-2.07,34.89-6.01,9.56-3.37,17.42-10.21,25.03-16.9-8.58-.81-17.33.23-25.49,3.04Z"/>
    <path class="cls-7" d="m191.3,427.27l-2.41,2.69c2.25-1.16,4.45-2.43,6.58-3.79"/>
    <path class="cls-7" d="m176.35,421.4c-.08.09-.25,0-.24-.11,3.05-1.36,6.3-2.26,9.58-2.86.18-.03.37-.06.54,0s.32.24.27.42c-.05.18-.25.26-.43.31-2.31.71-4.63,1.42-6.94,2.14"/>
    <path class="cls-7" d="m173.66,421.53c-.53.63-1.06,1.26-1.59,1.9-.08.09-.16.22-.1.33.06.1.2.11.31.1.57-.05,1.13-.18,1.67-.39"/>
    <path class="cls-7" d="m155.35,435.22c-.94.66-1.89,1.31-2.93,1.79-.89.41-1.83.68-2.75,1.03s-1.81.79-2.51,1.48c1.83-.44,3.65-.91,5.46-1.42"/>
    <path class="cls-13" d="m194.06,419.62l.12-.06"/>
    <path class="cls-13" d="m195.06,420.07c-.76-.79-2.04-.67-3.12-.46-10.48,2.01-20.36,7.02-28.19,14.28,2.69-.58,5.38-1.17,8.06-1.75,3.27-.71,6.55-1.42,9.74-2.42,4.82-1.5,9.53-3.71,13.17-7.21.51-.49,1.04-1.13.88-1.82-.15-.66-.9-1.04-1.58-1s-1.29.39-1.88.74"/>
    <path class="cls-12" d="m161.36,431.99c-.62.4-1.26.75-1.91,1.09-.3.15-.59.31-.88.49-.08.05-.16.1-.24.15,0,0-.03.02-.05.03-.03.03-.12.1-.13.1-.05.04-.09.09-.13.13-.32.33-.75.42-1.16.35-.56.37-1.21.58-1.84.84-.71.29-1.42.72-1.73,1.43-.3.7.03,1.71.79,1.83.97.16,1.52-1.03,2.02-1.88,1-1.69,2.9-2.59,4.55-3.65.96-.62,1.85-1.31,2.72-2.05l-1.63.86c-.13.09-.26.19-.4.27Z"/>
    <path class="cls-12" d="m187.45,417.73c-6.61,1.35-13.1,3.81-18.35,8.05-1.01.82-1.98,1.7-2.93,2.58-.11.28-.31.54-.57.7-.27.18-.53.37-.8.55-.46.42-.93.83-1.41,1.23l19.53-10.36c6.5-1.51,13.16-2.33,19.83-2.44.95-.01,1.93-.02,2.83-.33s1.74-.98,1.97-1.91c-6.74.28-13.51.57-20.11,1.91Z"/>
    <path class="cls-12" d="m173.02,425.25l-6.83,3.04c-.11.31-.32.59-.6.77-1.44.93-2.8,1.99-4.24,2.92-.62.4-1.26.75-1.91,1.09-.3.15-.59.31-.88.49-.08.05-.16.1-.24.15,0,0-.03.02-.05.03-.03.03-.12.1-.13.1-.05.04-.09.09-.13.13-.43.44-1.06.48-1.57.22-.53.5-1.03,1.02-1.49,1.59-.25.3-.49.62-.61,1-.12.37-.09.82.16,1.12.42.5,1.21.4,1.86.25,1.45-.34,2.89-.67,4.34-1.01-.55-.29-1.11-.59-1.66-.88,4.2-4.21,8.9-7.92,13.97-11.02Z"/>
    <path class="cls-12" d="m154.44,435.91c-2.5,1.07-4.91,2.34-7.21,3.79,2.49-.49,4.95-1.13,7.36-1.93.15-.05.3-.1.4-.23s.07-.34-.07-.39"/>
    <path class="cls-12" d="m203.98,416.98c-.84,1.14-1.89,2.11-2.94,3.06-2.98,2.71-5.96,5.42-8.94,8.14,4.34-2.51,8.52-5.29,12.53-8.3,1.37-1.03,2.73-2.11,3.68-3.53.07-.11.14-.25.07-.36-.07-.11-.22-.11-.35-.1-.52.05-1.03.1-1.55.15"/>
    <path class="cls-12" d="m198.97,421.83c-3.19,3.43-7.32,5.87-11.67,7.63s-8.91,2.87-13.47,3.96c-4.96,1.19-9.95,2.38-15.03,2.88.04.23.08.47.12.7,6.7-.62,13.43-1.24,19.95-2.87s12.89-4.33,18.02-8.68"/>
  </g>
  <g id="rem">
    <path class="cls-15" d="m1187.21,368.32c17.57-3.53,35.34-6.05,53.2-7.55,3.74-.31,7.56-.6,11.02-2.04s6.58-4.28,7.31-7.96c.5,5.84,1.89,11.6,4.11,17.02-1.51-1.73-3.76-2.68-6.02-3.06s-4.58-.23-6.87-.09c-20.94,1.32-41.87,2.65-62.81,3.97"/>
    <path class="cls-15" d="m1257.97,364.93c2.65,1.06,5.05,2.73,6.97,4.83-3.12-6.46-5.1-13.47-5.82-20.62-.52,3.33-1.05,6.67-1.57,10"/>
    <path class="cls-15" d="m1260.7,333.85c.64,3.82,1.27,7.63,1.91,11.45.6,3.62,1.21,7.25,2.31,10.76,1.1,3.5,2.71,6.89,5.13,9.65-1.26-10.38-3.44-20.65-6.51-30.65-.14-.46-.3-.94-.65-1.26s-.98-.4-1.28-.03"/>
  </g>
  <g id="REM">
    <path class="cls-1" d="m1254.02,332.2c1.9,7.88,3.79,15.76,5.69,23.64,1.1,4.56,2.2,9.14,4.06,13.44,3.48,8.06,9.44,14.76,15.29,21.3,1.72.33,3.35-1.27,3.64-3s-.39-3.47-1.19-5.03c-2.75-5.38-6.95-9.86-10.11-15.01-6.23-10.16-8.07-22.32-9.78-34.12-.84-.18-1.67-.36-2.51-.54"/>
    <path class="cls-1" d="m1273.24,382.13c1.29,1.82,2.58,3.64,3.87,5.46,1.26,1.78,2.53,3.57,3.99,5.2,2.17,2.43,4.76,4.5,6.68,7.13-1.68-5.95-4.21-11.67-7.48-16.92"/>
    <path class="cls-1" d="m1250.74,342.53c-.09-2.76-.25-5.52-.47-8.27-.04-.55-.89-.56-.86,0,.24,4.42.57,8.83.44,13.26-.06,2-.26,4.14-1.36,5.86-1.2,1.89-3.3,2.93-5.42,3.46-2.18.54-4.47.66-6.7.87-2.3.22-4.6.45-6.91.67-4.52.44-9.04.88-13.57,1.32-5.1.5-10.2.94-15.29,1.53-.36.04-.38.61,0,.58,9.79-.75,19.57-1.81,29.35-2.74,2.47-.23,4.93-.47,7.4-.7,2.2-.21,4.46-.34,6.59-.98,3.68-1.1,6.02-3.7,6.59-7.5.36-2.42.27-4.93.2-7.37Z"/>
    <path class="cls-1" d="m1262,380.45c-1.05-3.95-2.19-8.1-5.13-11.1-2.96-3.01-6.62-3.34-10.64-2.88-10,1.14-19.99,2.38-29.98,3.57-2.87.34-5.74.68-8.62,1.02-2.69.32-5.54.43-8.15,1.16-.13.04-.1.23.03.23,2.29.09,4.62-.35,6.89-.61,2.38-.27,4.76-.55,7.14-.82,4.68-.54,9.35-1.08,14.03-1.62,4.59-.53,9.19-1.06,13.79-1.59,4.16-.48,9.19-1.83,13,.53,4.25,2.64,5.65,7.79,6.83,12.33.14.52.95.3.81-.22Z"/>
    <path class="cls-1" d="m1259.31,380.41c-1.03-3.6-2.39-7.79-6.17-9.36-1.95-.81-4.09-.62-6.13-.42-2.45.23-4.9.46-7.35.68-10.14.89-20.29,1.41-30.43,2.21-.4.03-.41.63,0,.62,9.33-.21,18.68-.99,27.98-1.76,2.29-.19,4.58-.39,6.86-.6,2.1-.19,4.26-.55,6.37-.42,5.05.32,6.79,5.11,7.98,9.29.16.57,1.05.33.89-.25Z"/>
    <path class="cls-1" d="m1248.42,335.8c-.05-.58-.96-.58-.91,0,.41,4.89.1,9.87-1.13,14.62-.34,1.3-.8,2.43-2.2,2.85-.95.29-1.97.34-2.95.48-2.47.33-4.94.66-7.41,1-4.94.66-9.88,1.33-14.82,2-2.47.33-4.94.67-7.41,1-2.45.33-4.97.54-7.38,1.09-.32.07-.25.58.08.57,4.2-.17,8.44-1.02,12.6-1.57,4.2-.55,8.4-1.16,12.6-1.7,4.2-.54,8.4-1.08,12.6-1.64,1.3-.17,2.78-.25,3.8-1.17,1.11-.99,1.37-2.71,1.67-4.09.96-4.42,1.23-8.96.86-13.46Z"/>
  </g>
  <g id="Layer_11" data-name="Layer 11">
    <path class="cls-11" d="m980.48,377.3c82.67-9.54,163.51-34.66,237.02-73.65,4.12,3.48,8.25,6.96,12.37,10.44-22.1,9.98-45.05,20.61-60.24,39.51-5.71,7.11-10.44,15.47-18.34,20.04-10.12,5.86-22.71,3.99-34.35,5.15-12.92,1.28-25.42,6.63-35.27,15.09,11.95-.59,23.89-1.19,35.84-1.78-44.4,9.42-89.39,16.11-134.61,20.03,1.16-7.17-1.49-14.85-6.83-19.76"/>
    <path class="cls-11" d="m1207.6,308.8c4.29-1.64,7.35-6.2,11.93-6.6,2.27-.2,4.5.71,6.46,1.88,4.25,2.54,7.68,6.43,9.68,10.95-10.76,2-20.77,6.77-30.64,11.5-8.12,3.89-16.25,7.78-24.37,11.67,5.7-5.95,11.4-11.89,17.1-17.84"/>
    <path class="cls-11" d="m1289.38,435.54c-.04-.21-.07-.42-.08-.69,0-.05,0-.1,0-.15,0-.02,0-.05,0-.07-.05-.71-.16-1.4-.24-2.11-.03-.24.02-.51.1-.79,0-.02-.02-.04-.02-.06-.03-.07-.07-.14-.09-.21-.27-.61-.57-1.21-.86-1.81l.25-14.05c-9.91-4.89-21.19-6.03-32.21-6.85-32.86-2.44-65.89-2.65-98.78-.65,36.92,1.94,74,3.91,110.21,11.34,1.45.3,2.97.64,4.04,1.66,1.07,1.01,1.43,2.93.34,3.93-.75.68-1.87.71-2.88.7-30.24-.27-60.47-.55-90.71-.82-1.33,2.14-.94,5.19.89,6.93,2.14,2.03,5.44,2.03,8.38,1.93,31.69-1.05,63.49,1.12,94.74,6.47,1.88.32,3.97.62,5.58-.42.61-.4,1.08-.96,1.41-1.6-.03-.62-.07-1.24-.1-1.87,0-.18,0-.47.03-.82Z"/>
    <path class="cls-11" d="m687.63,383.08c3.99-30.11,9.65-60,16.96-89.48.32-1.28.69-2.64,1.7-3.49.84-.7,1.96-.92,3.04-1.1,10.93-1.8,22.17-1.65,33.05.45-.99,30.17-1.99,60.34-2.98,90.51"/>
    <path class="cls-11" d="m973.53,359.92l-.04.14"/>
    <path class="cls-11" d="m944.78,290.98c-.38-.91-.76-1.85-1.42-2.59-2.07-2.34-5.86-1.88-8.77-.72-2.91,1.16-5.87,2.85-8.95,2.34,11.2,23.36,17.14,49.22,17.28,75.12,5.96-.76,11.93-1.46,17.87-2.07.74-.08,1.34.08,1.81.37,2.91-.41,5.82-.81,8.73-1.22l2.19-1.56c-9.58-23.23-19.15-46.46-28.73-69.69Z"/>
    <path class="cls-11" d="m930.64,366.82c3.54-.52,7.1-1.01,10.66-1.47-.86-18.2-5.39-36.01-9.9-53.67-.31-1.23-.68-2.54-1.65-3.36-.97-.82-2.74-.79-3.26.37,3.13,19.2,4.52,38.68,4.15,58.13Z"/>
    <path class="cls-11" d="m1129.31,257.6c-2.99-6.34-7.64-11.89-13.36-15.95l-13.88-.28-83.81-2.58c-.21.06-.42.1-.65.12-14.86,1.15-29.77.08-44.62-.76-.02,0-.04,0-.06,0-5.26.2-10.53-.1-15.78.47-1.06.11-1.83-.24-2.33-.82-1.47-.01-2.94-.02-4.41-.05-7.22-.14-14.4.4-21.61.29-.24,0-.47-.03-.68-.08-3.03.31-6.06.7-9.07,1.2,9.16,3.84,8.32,18.65,16.88,23.68,2.95,1.73,6.52,1.96,9.94,2.08,43.74,1.64,87.74-4.95,131.2.24,14.53,1.73,29.05,4.78,43.65,3.84,3.92-.25,8.65-1.46,9.69-5.25.56-2.05-.21-4.23-1.12-6.15Z"/>
    <path class="cls-11" d="m710.22,447.16c-66.03,2.81-131.95,7.97-197.61,15.45,65.35-7.48,131.2-10.64,196.96-9.45"/>
    <path class="cls-11" d="m708.68,456.43c-61.01,5.67-122.03,11.34-183.04,17.02,60.93-4.83,122.05-7.34,183.17-7.53"/>
    <path class="cls-11" d="m189.52,433.8c-9.3,4.57-19.1,8.13-29.17,10.6-26.16,6.42-54.41,5.61-78.57,17.51,9.44-2.65,19.2-4.16,29.01-4.49,3.11-.1,6.52.01,8.88,2.04,2.39,2.04,3.21,5.66,5.95,7.21,3.03,1.71,6.78.08,9.91-1.44,18.59-9.02,39.07-14.1,59.71-14.82-2.43-3.65-4.06-7.82-4.73-12.15"/>
    <path class="cls-11" d="m67.31,468.7c-2.02,15.11-.9,30.63,3.28,45.29,1.45,5.1,3.35,10.23,6.89,14.17,5.75,6.4,14.77,8.59,23.28,9.85,4.61.69,9.25,1.2,13.91,1.53,1.79.13,3.91.09,4.96-1.38.84-1.18.57-2.87-.24-4.08s-2.04-2.04-3.23-2.87c-5.95-4.19-11.46-9.41-14.29-16.11-2.47-5.83-2.73-12.31-2.92-18.63-.2-6.73-.35-13.45-.49-20.18-.07-3.33-.15-6.65-.22-9.98-.02-.69-.05-1.43-.47-1.98-.67-.88-1.98-.87-3.08-.76-8.79.84-17.53,2.14-26.18,3.9"/>
    <path class="cls-11" d="m122.35,567.3c-.75-2.18-1.73-4.4-3.54-5.83-2.76-2.16-6.62-1.91-10.13-1.8-14.09.45-28.28-3.15-40.45-10.26l-1.31.83c-1.49,1.56-3.14,3-4.1,4.74-.14.26-.33.47-.53.67-.56,1.07-1.03,2.18-1.32,3.36-.18.76-.56,1.31-1.03,1.68.26.5.72.91,1.17,1.29,16.12,13.46,36.19,21.54,56.72,25.97,1.22.26,2.47.52,3.71.37,1.24-.15,2.49-.77,3.08-1.87.43-.8.47-1.74.47-2.65.03-5.6-.9-11.2-2.73-16.5Z"/>
    <path class="cls-11" d="m60.44,562.84l.06-.16"/>
    <path class="cls-11" d="m59.86,562.67c4.08,5.43,9.66,9.58,15.65,12.78,5.98,3.21,12.39,5.53,18.78,7.84.67,1.22.17,2.86-.91,3.75s-2.58,1.11-3.96.92-2.68-.76-3.95-1.33c-6.48-2.87-12.97-5.73-19.45-8.6-1.69-.75-3.44-1.54-4.68-2.91-2.16-2.41-2.25-5.98-2.23-9.22"/>
    <path class="cls-11" d="m357.39,372.38c-.5.47-1.19.78-2.1.75-2.85-.07-5.61.87-8.48.72-.66-.03-1.2-.24-1.64-.54-1.5.21-3,.39-4.51.46-.42.02-.79-.04-1.13-.15-.52.02-.97-.07-1.34-.26-4.8.4-9.61.85-14.4,1.28-.38.03-.71,0-1.02-.08-1.79.17-3.58.35-5.36.56-4.18.5-8.43.53-12.59,1.11-3.09.44-6.17,1.78-9.32,1.38-.42-.05-.79-.18-1.12-.35-3.38.52-6.75,1.07-10.09,1.48-.33.04-.62.02-.89-.02-5.96,1.41-11.93,1.95-18.07,2.36-4.94.33-10.01,1.86-14.99,2.06-.3.22-.65.4-1.09.51-4.19,1.07-8.55.84-12.79,1.77-4.64,1.02-9.27,1.82-13.96,2.56-9.03,1.42-18.02,3.7-26.98,5.59-.15.03-.29.03-.43.05-.22.1-.45.18-.71.24-20.89,4.31-41.82,10.13-61.89,17.43,21.89.95,43.92,1.17,65.19-3.79,11.46-2.67,22.53-6.81,33.88-9.92,34.29-9.37,70.39-9.09,105.61-13.92,5.06-.69,10.19-1.52,14.81-3.69,3.58-1.68,6.85-4.29,8.87-7.64-1.15.05-2.31.05-3.46.04Z"/>
    <path class="cls-11" d="m218.52,431.61c-4.49-.38-9.35-.68-13.17,1.73s-5.39,8.66-1.78,11.36c1.97,1.47,4.65,1.39,7.1,1.24,29.11-1.77,58.21-3.53,87.32-5.3,16.46-1,33.13-1.98,49.31,1.18s32.09,10.98,41.64,24.42c9.25,13.02,11.54,29.58,13.55,45.42,2.47-26.03,4.94-52.07,7.41-78.1.37-3.88.49-8.4-2.45-10.95-2.37-2.05-5.83-2-8.96-1.83-54.4,2.8-108.8,5.61-163.21,8.41-10.37.53-20.83,1.08-30.84,3.84"/>
    <path class="cls-11" d="m554.6,276.33c-2.36.87-4.73,1.75-7.07,2.7-7.94,3.24-15.52,7.12-23.32,10.67-.54.25-1.06.32-1.56.3-3.99,2.33-7.91,4.73-12.29,6.4-.13.05-.25.07-.37.1-6.94,4.31-14.38,7.58-21.65,11.29-7.09,3.61-13.13,8.91-20.36,12.24-.61.28-1.21.35-1.77.29-5.14,3.51-10.01,7.39-15.58,10.27-.3.15-.59.24-.88.3-4.64,3.37-9.23,6.82-14,10-.52.34-1.03.49-1.51.52-.18.14-.37.29-.55.43-1.79,1.72-3.79,3.19-5.81,4.65-2.06,1.49-3.97,3.67-6.3,4.69-.27.12-.53.19-.79.23-6.49,5.55-13.5,10.46-19.85,16.19-.33.29-.67.49-1.02.63-.98,1.21-2.17,2.31-3.61,2.84l.21.16c4.34,1.45,8.87,2.92,13.41,2.31,5.57-.75,10.21-4.48,14.55-8.04,41.14-33.78,84.67-66.23,134.9-83.84-.2-2.54-2.32-4.5-4.79-5.33Z"/>
    <path class="cls-11" d="m700.58,244.23c-.32,0-.6-.04-.86-.11-3.83.38-7.65.74-11.48,1.14-.38.04-.71,0-1.02-.07-.24.03-.48.06-.72.1-2.42.4-4.7,1.1-7.17,1.1-.05,0-.08-.01-.13-.01-5.41,1.12-10.96.88-16.43,1.62-5.9.79-11.75,1.86-17.63,2.77-6.59,1.02-13.09,2.16-19.57,3.74-4.82,1.17-9.68,2.83-14.62,3.46-1.67.6-3.36,1.1-5.23,1.19-.03,0-.05,0-.08,0-2.25.86-4.54,1.68-6.85,2.03-.22.22-.5.42-.84.59-5.84,2.9-12.19,4.36-18.51,5.71-5.03,1.07-9.66,5.15-14.9,5.01-5.58,2.39-11.36,4.25-16.99,6.55-3.27,1.33-6.48,2.78-9.66,4.26l6.14,4.7c57.86-21.61,119.21-33.88,180.93-36.19.19-3.01.17-6.42-.87-9.16-7.84.66-15.68,1.52-23.51,1.59Z"/>
    <path class="cls-11" d="m921.46,239.33c-.72-.44-1.46-.84-2.21-1.23-5.82.58-11.99-.04-17.73.05-2.8.04-6.77,1.05-9.57-.02-.35.12-.74.2-1.19.17-5.51-.3-11.01-.52-16.51-.58-3.17.33-6.36.49-9.55.65-.79.04-1.43-.17-1.91-.53-.53.02-1.06.03-1.6.05-7.9.33-16.7,2.16-24.51.52-.12-.03-.22-.07-.33-.11-10.38.64-20.88.49-31.17,1.34-7.47.62-14.82.66-22.32.48-6.31-.15-12.72,1.14-19.01.9-4.49.89-9.25.29-13.81.57-5.06.3-10.12.17-15.18.34-10.31.36-20.63,1.84-30.93,2.2l-8.07,9.51c80.35-3.77,161.5-7.5,240.69,6.63-1.15-8.83-7.46-16.35-15.09-20.96Z"/>
    <path class="cls-11" d="m1288.53,469.31c-26.35,1.57-52.71,3.15-79.06,4.72-4.86.29-9.8.6-14.36,2.3-3.98,1.49-7.49,3.99-10.95,6.45-1.54,1.1-3.18,2.32-3.74,4.13-.45,1.43-.13,2.98.09,4.46.83,5.76.03,11.75-2.3,17.08,8.29-2.74,17.03-4.14,25.76-4.12,1.59,0,3.33,0,4.56-1.01,2.13-1.76,1.38-5.36,3.04-7.58,1.17-1.56,3.24-2.06,5.14-2.46,23.55-4.87,47.48-7.91,71.5-9.09.16-2.26.33-4.53.49-6.79"/>
    <path class="cls-11" d="m1290.28,519.37c-.51-.58-.76-1.2-.82-1.82-.06-.06-.11-.12-.14-.15,0,0,0,0,0,0-.06-.06-.05-.05,0,0-.43-.46-.68-.96-.79-1.46-.32-.24-.64-.48-.96-.71l-1.11-1.13c-5.15,8.74-15.26,13.11-24.91,16.24-14.72,4.78-29.89,7.96-45.02,11.2-7.63,1.63-15.45,3.36-22.04,7.54-7.87,4.98-13.25,12.97-18.4,20.72-.67,1.01-1.36,2.09-1.41,3.3-.08,2.08,1.86,3.8,3.91,4.22s4.15-.14,6.16-.68c19.54-5.22,39.39-9.28,59.42-12.16,9.45-1.36,19.19-2.53,27.58-7.09,8.55-4.65,14.92-12.39,21.06-19.93,1.85-2.27,3.77-4.69,4.23-7.59.1-.62.11-1.24.07-1.85-2.22-2.93-4.38-5.89-6.82-8.64Z"/>
    <path class="cls-11" d="m716.89,574.16c51.56-.5,103.11-1,154.67-1.5-.26-2.78-2.49-5.05-5.05-6.17-2.55-1.12-5.4-1.3-8.19-1.46-47.35-2.62-94.86-2.3-142.17.92.24,2.74.46,5.47.74,8.21Z"/>
    <path class="cls-11" d="m838.42,551.46c-41.34-3.69-82.99-3.77-124.35-.3.04.1.09.21.12.32.02.06.03.11.04.17.05.29.12.63.12.93,0,.13-.02.28-.04.42.17.44.31.86.37,1.23.22,1.27.41,2.55.58,3.83.12.42.24.84.34,1.26.25,1.04.46,2.08.54,3.08,44.59-5.55,89.64-7.48,134.54-5.71-2.38-3.96-7.65-4.82-12.26-5.24Z"/>
  </g>
  <g id="SHADOW">
    <path class="cls-14" d="m1147.29,604.22c5.12-13.14,28.12-75.69,16.35-111.92h0c-13.2-40.64-22.53-69.44-178.21-55.38h-.01c-112.35,10.14-109.54,94.76-99.26,141.08,3.96,17.88,9.04,30.05,9.04,30.05,0,0-1.02-12.56.51-30.11,3.33-38.22,18.78-100.07,83.27-107.24l1.86-.21c69.18-7.67,116.11-12,143.96,47.54,9.17,19.59,16.27,46.09,21.41,81.65.39,1.51.76,3.02,1.08,4.54Z"/>
    <path class="cls-14" d="m394.91,607.89c.02.18.04.36.06.55.08.88.23,1.71.41,2.53.73-3.61,3.44-17.97,4.78-36.81,3.54-49.67-2.5-130.43-79.9-126.85-111.45,5.16-124,5.87-124,5.87,0,0-48.09,5.95-76.14,28.03,0,0,.99,18.98,1.05,35.15.05,8.74-.19,16.65-1,20.31-2.32,10.42,28.76,36.94,28.76,36.94,0,0,3.48,31.88,13.28,42.63.03,0,.06,0,.09,0-.53-2.15-.71-4.46-.91-5.94-.72-5.19-1.63-10.6-1.82-15.92-.65-7.46-.93-15.87-.11-23.68,1.94-18.48-.07-74.6,51.45-89.49,6.97-2.01,14.91-3.27,23.98-3.58,69.42-2.37,137.2-18.54,156.21,96.97,1.65,10.06,2.93,21.14,3.82,33.29Z"/>
    <path class="cls-14" d="m161.38,610.29c-.74-5.32-1.68-10.86-1.84-16.31-5.48-14.76-9.12-30.2-10.77-45.86l-27.56-9.33c5.57,11.63,7.36,24.75,7.52,37.64.16,12.65-1.15,25.26-1.58,37.9,11.65-.37,23.45,2.07,35.14,1.89-.53-2.15-.71-4.46-.91-5.93Z"/>
    <path class="cls-14" d="m451.38,395.57c-1.77.1-3.57.19-5.34.08-.05.01-.09.04-.14.04-2.97.46-5.95-.16-8.09-2.41-.54-.57-.83-1.27-.9-1.98-.87-1.25-1.38-2.7-1.27-4.22.27-4.08,4.35-6.66,6.74-9.97,4.33-6.01,3.32-15.05,8.64-20.21-11.5,7.63-21.03,18.2-27.44,30.43-6.41,12.23-9.68,26.08-9.42,39.88,3.86-9.76,10.94-18.22,19.87-23.75,8.18-5.07,17.88-7.63,27.5-7.33l-10.15-.56Z"/>
    <path class="cls-14" d="m425.15,529.45c-3.41-21.07-6.83-42.2-7.52-63.53-.69-21.33,1.42-42.98,8.77-63.01-4.9,2.8-8.41,7.61-10.59,12.81-.8,1.91-1.44,3.88-1.96,5.88-.12,1.35-.3,2.7-.51,4.04.35.49.54,1.13.49,1.92-.23,3.76-.47,7.81-1.3,11.49-.04.17-.1.32-.16.48.03,1.06.04,2.11-.03,3.15.04.23.07.47.07.74-.17,8.14-.76,16.19-1.07,24.31,0,.08-.02.15-.03.23.27,3.19.47,6.39.55,9.59.07,2.66-.55,6.52.38,9,.48,1.27.14,2.3-.59,2.99.44,4.48,1.14,9,1.15,13.46,0,.58-.13,1.07-.34,1.49.37,2.95.74,5.91,1.06,8.86.05.45,0,.83-.1,1.18.57,2.36,1.08,4.73,1.41,7.05.08.58.02,1.11-.14,1.58.12.23.23.48.3.77,1.05,4.25,1.79,8.57,2.49,12.89.11.71.01,1.34-.23,1.89.45,1.83.96,3.65,1.7,5.4.3.71.18,1.49-.17,2.18.28.95.56,1.9.89,2.81.14.4.19.77.18,1.12.17.59.35,1.18.52,1.77.69,2.08,1.41,4.15,2.2,6.22.64,1.26,1.28,2.51,1.88,3.78.32.68.44,1.42.35,2.12,1.14,2.68,2.13,5.43,3.47,8.02.14.26.23.52.29.77,1.27,2,2.67,3.95,4.3,5.78.49.55.74,1.14.82,1.73.51.39,1.03.77,1.59,1.1l7.66-.23c-11.51-14.46-14.84-33.6-17.79-51.84Z"/>
    <path class="cls-14" d="m429.66,558.03c-6.84-39.47-8.66-79.8-5.38-119.72,1.16-14.17,3.42-29.31,13.09-39.74-7.94,2.4-14.07,9.04-17.58,16.55-3.51,7.51-4.74,15.87-5.54,24.12-4.14,42.64,1.97,86.23,17.67,126.09"/>
    <path class="cls-14" d="m132.09,610.84c-.4-2-1.32-3.86-2.22-5.69-4.8,3.98-11.9,3.94-17.79,1.87s-10.99-5.84-16.42-8.9c-6.01-3.38-12.47-5.9-18.57-9.11-6.1-3.21-11.98-7.24-15.92-12.9l-.64-1.02c-.45-2.89-.91-5.79-1.36-8.68-.01.02-.02.05-.03.07.17,1.92.04,3.82.19,5.76.19.76.37,1.52.68,2.26.42.98.65,1.9.75,2.85.29.72.58,1.44.82,2.17.45.85.86,1.63,1.18,2.3,2.25,4.73,5.22,8.47,8.38,12.57.97.37,1.93.78,2.81,1.31.03,0,.07,0,.1,0,3.15.61,5.51,2.73,8.27,4.18,4.79,1.96,9.6,4.22,14.18,6.61,5.99,3.13,10.97,7.21,17.96,7.4,5.89.16,11.71.9,17.57,1.02.35-1.31.34-2.74.07-4.08Z"/>
    <path class="cls-14" d="m1298.03,528.47c-.23-.31-.47-.62-.7-.93l-.17.58c-2.13,17.02-12.77,32.76-27.77,41.09-11.16,6.19-24.05,8.29-36.65,10.29-23.21,3.68-46.42,7.36-69.62,11.05-5.41.86-11,1.78-15.6,4.76-.71.46-1.39.99-2.03,1.56.36.92.58,1.79.72,2.73.42,1.64.82,3.28,1.16,4.93.16-.04.33-.08.51-.1,11.07-.98,22.48-2.29,33.26-5.12.82-.21,1.54-.12,2.14.16,1.25-.31,2.5-.61,3.75-.87,7.59-1.56,15.44-2.74,23.12-3.89,2.86-.9,5.83-1.4,7.84-1.72,4.69-.73,9.31-1.51,13.94-2.52,2.69-.58,5.46-.85,8.18-1.3.38-.44.94-.77,1.71-.9,5.48-.94,10.9-1.68,16.4-2.5,5.01-.75,10.67-1.43,15.17-3.96.1-.08.21-.16.31-.23.16-.12.33-.2.5-.29,2.13-2.27,4.22-4.57,6.64-6.51,2.83-2.27,5.51-4.73,8.39-6.94.83-2.02,1.74-4,2.62-6,0-1.35.69-2.71,1.11-3.96.6-1.79,1.19-3.58,1.77-5.37.32-2.43,1.3-4.96,1.66-7.06.96-5.58,1.81-11.31,1.69-16.98Z"/>
    <path class="cls-14" d="m125.32,547.78c-1.35-4.59-3.25-9.02-5.63-13.17-.19,2.23-.4,4.5-1.26,6.56-.24.56-.53,1.11-.88,1.61-.04.29-.1.58-.24.84-.02.05-.05.09-.06.14-.01.04-.03.08-.04.13-.12.33-.25.66-.4.97-.03.06-.06.11-.09.16-.28.43-.54.71-.92,1.01-.06.05-.13.1-.19.16-.03.03-.05.07-.08.09-.29.32-.64.54-1.04.67-.39.2-.8.3-1.25.28-.67,0-1.09-.15-1.67-.45-.16-.08-.33-.22-.5-.37-.35.06-.72.1-1.09.08-.74-.04-1.48-.18-2.22-.29-.27-.04-.52-.16-.76-.31-.31-.02-.61-.04-.92-.05-1.26-.04-2.56.06-3.69-.57-1.32-.04-2.63-.11-3.95-.23-.76-.07-1.46-.34-2.02-.77-2.26-.15-4.47.03-6.72-.03-.96-.03-1.68-.39-2.2-.93-1.96-.25-3.92-.43-5.91-.22-1.2.13-2.04-.33-2.55-1.05-.03,0-.07-.01-.1-.01-1.34.95-2.65,1.94-4.17,2.6-.38.16-.77.27-1.16.33-.01.01-.03.03-.05.04-1.03.89-2.01,1.94-3.15,2.7,9.23,1.55,18.45,3.1,27.68,4.66,7.85,1.32,15.93,2.64,23.72.98,1.49-.32,3.15-.9,3.73-2.31.42-1.02.14-2.18-.17-3.24Z"/>
    <path class="cls-14" d="m969.69,361c6.17,9.03,10.15,19.55,11.49,30.41.76,6.17.69,12.41.61,18.63-.13,10.05-.25,20.1-.38,30.15.91.94,2.62.44,3.37-.63s.78-2.47.8-3.78c.14-11.14.29-22.28.43-33.42.09-6.95.17-13.99-1.6-20.71-.7-2.65-1.68-5.21-2.65-7.77-1.79-4.69-3.58-9.39-5.37-14.08"/>
    <path class="cls-14" d="m962.62,361.9c8.68,12.39,10.92,28.09,12.05,43.18.97,12.88,1.31,25.81,1.02,38.72,2.49-.22,5.29-.62,6.73-2.66.93-1.31,1.05-3.01,1.12-4.61.69-16.62-1.23-33.22-3.15-49.74-.43-3.68-.86-7.38-1.86-10.95-1.53-5.46-4.36-10.46-7.15-15.39.37.59.74,1.18,1.11,1.78"/>
    <path class="cls-14" d="m983.37,395.06c-.79-4.64-2.52-9.12-5.04-13.08,1.23,8.09,2.46,16.18,3.69,24.26"/>
    <path class="cls-14" d="m983.24,378.7c.86,1.17,1.73,2.38,2.13,3.77.5,1.76.21,3.63-.08,5.43-.93-2.55-1.85-5.09-2.78-7.64"/>
    <path class="cls-14" d="m972.39,364.25c-.31-.5-.33-1.13-.46-1.7s-.44-1.2-1.02-1.34c-.28-.07-.58,0-.86.06-1.6.37-3.19.73-4.79,1.1,1.67,1.46,3.6,2.61,5.67,3.38"/>
    <path class="cls-14" d="m916.48,285.45c-.14-1.09.56-2.15,1.47-2.76s2.01-.85,3.09-1.07c3.89-.77,7.82-1.31,11.77-1.61,2.03-.16,4.1-.25,6.1.11s3.98,1.2,5.39,2.68c-1.69-3.92-3.38-7.85-5.06-11.77-.17-.39-.35-.79-.68-1.04-.43-.33-1.02-.34-1.56-.33l-12.71.16-14.23.18"/>
    <path class="cls-14" d="m745.21,274.21c.25-1.06.55-2.32-.19-3.12-.52-.57-1.37-.67-2.14-.72-3.63-.23-7.26-.15-10.89-.07-9.31.2-18.62.4-27.93.6-.35,1.69-.44,3.42-.84,5.11-.48,2.01-.73,3.78-.78,5.85-.03.99-.42,1.74-1,2.26l-.07.64c.55-1.8,2.07-3.18,3.78-3.96,1.71-.78,3.61-1.05,5.48-1.25,10.02-1.07,20.22-.49,30.05,1.72,1.86.42,3.86.99,5.02,2.5-1.06-3.06-1.23-6.42-.5-9.58Z"/>
    <path class="cls-14" d="m745.74,283.57c0-3.93-.02-7.87-.03-11.8,0-.26,0-.53-.15-.74-.19-.29-.6-.38-.94-.31s-.64.28-.92.49c.45,2.07.62,4.19.51,6.31-.05,1-.17,2-.09,3s.37,2.02,1.03,2.77"/>
    <path class="cls-14" d="m452.05,356.54c-1.48.6-3.02,1.24-4.1,2.42-1.04,1.13-1.55,2.64-2.03,4.09-1.65,4.99-3.29,9.99-4.94,14.98,3.46-4.38,6.19-9.33,8.06-14.58.93-2.61,1.7-5.39,3.59-7.41-.54.44-1.09.87-1.63,1.31"/>
    <path class="cls-14" d="m486.97,344.53c-7-.62-14.19.98-20.26,4.52s-11.01,9-13.92,15.4c-2.14,4.71-3.19,10.12-1.79,15.11,1.89,6.72,7.77,11.48,13.6,15.32-5.12-.02-10.04-2.76-13.17-6.8s-4.55-9.27-4.41-14.39,1.75-10.12,4.15-14.63c2.83-5.31,6.84-10.09,12.01-13.19s11.53-4.37,17.35-2.82"/>
    <path class="cls-14" d="m1127.63,277.85c6.02.84,12.03,1.67,18.05,2.51,3.19.44,6.43.9,9.38,2.19,5.91,2.58,9.92,8.13,15.16,11.89-2.5-3.25-5.01-6.52-7.99-9.35s-6.45-5.22-10.38-6.42c-2.37-.72-4.85-.99-7.32-1.26-6.39-.69-12.78-1.38-19.17-2.07.18.05.36.1.54.16"/>
    <path class="cls-14" d="m895.18,601.13c-.15-1.61-.39-3.02-.26-4.45-85.3.57-427.79,2.76-500.95,4.09.41,2.53.76,5.06,1,7.65.13,1.37.4,2.65.76,3.89.38-.2.81-.35,1.31-.4,1.82-.19,3.61-.12,5.4.03.21-.06.42-.11.66-.14,4.57-.51,9.23.16,13.87.05,1.57-.13,3.14-.27,4.72-.37,3.4-.21,6.8.12,10.2-.11.67-.04,1.22.1,1.67.35,2.81.27,5.66.12,8.49.11.05,0,.1,0,.16,0,1.21,0,2.41.02,3.61.11,1.86-.05,3.73-.1,5.59-.15,1.94-.16,3.87-.31,5.76-.22,1.24.06,2.48.13,3.71.19,3.96-.23,7.92-.17,11.88-.07.46-.3,1.03-.49,1.72-.49,7.87.01,15.75.17,23.62.05,6.08-.09,12.18.3,18.26.21.41-.21.9-.34,1.47-.34h.19s.02,0,.03,0c1.64,0,3.27.04,4.89.1.52-.21,1.12-.3,1.78-.2,1.02.16,2.06.22,3.11.25.51-.47,1.2-.78,2.08-.79,2.51-.03,5.02-.23,7.53-.07,2.27.14,4.62.72,6.91.4.76-.11,1.43.04,2,.33,2.54-.25,5.07-.45,7.65-.36,1.08.04,2.16.1,3.24.17.36-.1.77-.14,1.24-.08.42.05.84.09,1.25.13,7.42-.69,15.16-.19,22.6-.37,7.85-.2,15.68.09,23.52-.29.69-.03,1.26.12,1.71.39,1.47-.08,3.02-.38,4.32-.4,2.35-.04,4.69.02,7.04-.02,5.2-.09,10.38-.54,15.58-.55,4.44,0,8.88.23,13.32.49.69-.26,1.45-.31,2.2-.05,2.74-.1,5.48-.14,8.22-.15.61-.17,1.17-.16,1.65,0,2.42,0,4.83.05,7.25.09.53-.53,1.27-.88,2.23-.88h.53c.68,0,1.24.18,1.7.47,3.23.64,6.72.08,9.99.09,4.27.02,8.5-.05,12.75-.46.88-.09,1.56.14,2.07.55,6.16-.28,12.3-.39,18.54-.55.61-.02,1.13.12,1.56.34,1.72.07,3.36.19,4.69.16,2.05-.05,4.12-.04,6.2-.03.52-.52,1.24-.86,2.19-.86,5.57,0,11.15-.12,16.72-.11.32,0,.6.05.87.12,3.44.09,6.83.6,10.27,0,1.06-.19,1.96.1,2.64.64,10.72.04,21.44-.35,32.17-.51,3.22-.05,6.44-.02,9.66.04.32-.1.65-.17,1.04-.17,10.69.02,21.39-.33,32.08-.42,3.91-.04,7.82.04,11.74.15.58-.28,1.27-.4,2.05-.26,3.92.68,8.68-.27,12.63-.33,4.93-.07,9.86-.05,14.79-.06,6.3-.01,12.84.33,19.29.16.01-.1.05-.2.08-.3-.27-2.26-.25-4.51-.46-6.81Z"/>
    <path class="cls-14" d="m208.47,417.26l-4.11,2.22c-.04.35-.19.66-.43.93-.23.26-.51.47-.79.68-.19.14-.38.27-.58.4-.4.24-.81.46-1.21.68-.11.06-.23.11-.35.14-1.12,1.76-3.13,2.94-5.08,3.81h0s-.01.02-.02.03c-.24.28-.59.48-.89.69-.69.48-1.4.92-2.15,1.3-.38.2-.78.4-1.2.51-.13.04-.26.06-.4.07-.01,0-.02.02-.03.02-.37.27-.79.46-1.22.62-.29.27-.56.55-.81.86-.08.1-.13.21-.2.31.11.05.21.11.28.19.17.17.27.41.27.65,0,.66-.15,1.29-.33,1.92,0,.05,0,.09,0,.14,0,.01,0,.04,0,.07,0,.02,0,.04,0,.04.04.2.07.4.12.59.05.22.12.44.19.66.03.1.08.2.11.31,0,0,0,0,0,0,.02.05.04.1.07.14.09.19.2.37.32.55,0,0,0,0,0,.01.03.03.05.06.08.09.07.07.14.14.21.21.09.08.16.18.2.29,3.53-5.29,9.46-8.68,15.62-10.36,6.41-1.75,13.14-1.87,19.78-2.01,62.81-1.26,125.58-4.7,188.16-10.3.82-4.55,1.65-9.1,2.47-13.65-69.36,5.73-138.73,11.45-208.09,17.18Z"/>
    <path class="cls-14" d="m426.64,408l115.71-5.92c-23.97,2.28-47.94,4.56-71.91,6.84-8.68.83-17.53,1.7-25.48,5.28-11.9,5.36-20.78,16.92-22.91,29.79-.6-9.3-1.21-18.61-1.81-27.91"/>
    <path class="cls-14" d="m1223.64,287.26c-12.83-11.96-26.59-22.94-41.11-32.79,16.97,14.64,33.94,29.29,50.91,43.93-2.13-2.65-4.26-5.29-6.39-7.94"/>
    <path class="cls-14" d="m1255.02,325.12c-9.66-13.05-21.58-24.24-33.42-35.35-8.84-8.3-17.68-16.59-26.53-24.89,15.36,11.11,29.45,23.87,43.5,36.59,8.03,7.27,16.17,14.68,21.71,23.99-.76-.23-1.53-.46-2.29-.7"/>
    <path class="cls-14" d="m1240.69,263.2c-.45,4.11-1.15,8.19-2.1,12.21,2.19-4.05,3.98-8.32,5.33-12.72"/>
    <path class="cls-14" d="m1287.68,469.13c-.37,7.12-.74,14.27-2.32,21.22s-4.44,13.75-9.24,19.01c-7.14,7.83-17.68,11.48-27.85,14.46-12.62,3.7-25.41,6.86-38.3,9.44,25.95-3.43,51.58-9.3,76.43-17.51.72-15.81,1.45-31.63,2.17-47.44"/>
    <path class="cls-14" d="m120.38,537.9c-9.97-1.04-19.82-3.33-29.23-6.79-5.99-2.2-12.09-5.12-15.7-10.38-2.45-3.58-3.5-7.91-4.34-12.17-2.65-13.52-3.56-27.39-2.69-41.14-1.53-.87-3.58.05-4.55,1.53s-1.12,3.32-1.23,5.07c-.79,12.99-.37,26.05,1.24,38.97.74,5.92,1.76,11.91,4.3,17.31s6.81,10.22,12.42,12.27c2.54.93,5.26,1.26,7.95,1.59,9.06,1.1,18.13,2.21,27.19,3.31,1.17-2.47,2.34-4.95,3.51-7.42"/>
    <path class="cls-14" d="m74.86,538.53c.06.07,0,.19-.09.21s-.18-.01-.26-.05c-2.33-1.06-4.29-2.93-5.44-5.22-.85-1.7-1.26-3.58-1.66-5.44,2.13,3.11,4.51,6.05,7.1,8.8l-.05-.18"/>
  </g>
  <g id="BAYANGAN_CENDELA" data-name="BAYANGAN CENDELA">
    <path class="cls-10" d="m690.55,297.29c-4.19-.84-8.52-.21-12.74.45-32.79,5.15-65.31,12.06-97.36,20.69-4.43,1.19-9.03,2.52-12.41,5.63-3.56,3.28-5.24,8.08-8,12.06-5.72,8.25-15.63,12.43-25.24,15.31-9.61,2.88-19.72,5-28,10.67,9.33,5.88,12.56,19.63,6.83,29.05,17.18-.16,34.36-.53,51.53-1.05.36-.16.78-.27,1.25-.28.57-.02,1.15.01,1.73.06.29-.09.61-.16.96-.16,7.33-.07,14.69-.53,22.04-.73.09-.03.17-.06.26-.09,6.59-1.44,13.85-1.26,20.58-1.66,6.4-.39,12.76-.75,19.15-1.26,9.53-.77,19.04-.54,28.56-.93.42-.2.88-.34,1.37-.39,1.7-.17,3.39-.09,5.09,0,.3-.14.63-.26,1.01-.3,5.46-.68,11.09-.91,16.64-1.17.5-2.89.68-5.86,1.32-8.74.79-3.57,1.62-7.13,2.18-10.75,1.3-8.27,2.76-16.54,3.93-24.83.03-.24.09-.45.16-.65.55-3.99,1.35-7.97,1.84-11.8,1.08-8.31,3.73-16.28,5.43-24.43-1.95-2.44-4.99-4.06-8.11-4.69Z"/>
    <path class="cls-10" d="m509.3,392.6c1.03-8.9-1.44-18.19-6.87-25.33-.08,8.71-1.78,17.38-4.91,25.5,3.92-.03,7.85-.08,11.78-.17Z"/>
    <path class="cls-10" d="m883.24,370.61c.63-.07,1.26-.14,1.88-.25,2.22-22.71,1.34-45.73-2.67-68.2-.62-3.48-1.44-7.19-4.02-9.63-3.32-3.14-8.43-3.16-13-2.98-40.01,1.52-80.03,3.05-120.04,4.57-.04.66-.07,1.31-.07,1.97,8.52,7.84,13.45,19.51,12.95,31.1-.47,10.95-5.77,21.56-14.09,28.67.67,3.14.4,6.86.2,9.79-.31,4.42-.77,8.82-1,13.24.07.21.1.42.14.64.29-.06.61-.09.96-.06.18.02.36.03.54.05,2.69-.61,5.54-.46,8.32-.34.19-.03.37-.06.58-.07.7,0,1.4-.01,2.1-.02.42-.29.93-.49,1.54-.55,9.45-.94,19.18-1.12,28.69-1.61,3.07-.16,6.28-.18,9.5-.24.58-.56,1.36-.91,2.22-.94,1.88-.07,3.77.16,5.57-.46,1.02-.35,2.11,0,2.9.69.62-.05,1.24-.11,1.85-.18,1.44-.23,2.86-.51,4.24-.88.79-.21,1.48-.12,2.06.14.53-.04,1.07-.07,1.61-.08,2.88-.06,5.75-.28,8.62-.41.28-.08.57-.15.9-.15,8.87-.21,17.76-1.7,26.66-1.97,10.06-.3,20.09-.99,30.11-1.86.26-.02.5,0,.73.02Z"/>
    <path class="cls-10" d="m985.21,305.27c24.67-1.6,49.5-.68,73.98,2.73,2.44.34,4.96.74,7.02,2.07s3.55,3.89,2.89,6.26c-.64,2.29-2.95,3.63-5.05,4.72-16.17,8.36-32.74,15.92-49.65,22.67-4.17,1.66-8.93,3.27-13.01,1.4-3.61-1.65-5.56-5.54-7.24-9.14-3.19-6.85-6.38-13.69-9.57-20.54-.72-1.53-1.44-3.1-1.66-4.78s.12-3.52,1.3-4.73c1.58-1.62,4.1-1.7,6.36-1.68,10.77.09,21.53.18,32.3.27"/>
    <path class="cls-10" d="m759.41,315.07c-.48-4.4-1.91-8.82-4.8-12.18-2.35-2.73-5.76-4.66-9.32-4.95.09.52.12,1.05.09,1.59,1.72-.76,3.92,0,5.23,1.42,1.43,1.56,2.03,3.68,2.54,5.73,1.55,6.3,2.61,12.76,2.61,19.25,0,6.49-1.1,13.03-3.72,18.97-.71,1.61-1.58,3.23-3.01,4.26-1.43,1.03-3.55,1.28-4.9.15,0,2.44,0,4.89-.01,7.33,4.26.83,8.94-1.2,11.24-4.88,1.78-2.85,2.13-6.32,2.44-9.66l1.27-13.76c.41-4.41.82-8.86.34-13.26Z"/>
    <path class="cls-10" d="m749.57,298.13c-.75-.49-1.47-1.04-2.14-1.64-.32-.28-.65-.59-1.07-.65-.57-.09-1.14.35-1.3.9-.16.57.08,1.23.58,1.56.22.14.47.22.71.3.43.14.86.27,1.29.41"/>
  </g>
  <g id="Layer_10" data-name="Layer 10">
    <path d="m139.16,418.45c-.7.1-1.41.17-2.12.21-.54.03-1.08.06-1.61.08-.02,0-.03,0-.05,0,0,0-.03.01-.05.01-.72.38-1.56.37-2.32.1-1.24.15-2.47.3-3.7.49-4.8.72-9.44,1.97-14.25,2.53-.16.08-.33.14-.49.23-1.52.84-2.77,2.08-4,3.3-3.09,3.07-6.17,6.14-9.26,9.22l-6.05,7.26c4.02.46,7.82-2.02,10.63-4.94,2.8-2.93,5.03-6.41,8.19-8.95,4.53-3.65,10.46-4.96,16.16-6.17,5.17-1.09,10.34-2.19,15.51-3.28-2.2-.1-4.4-.12-6.6-.08Z"/>
    <path d="m151.12,417.62c-1.09,4.96-4.86,9.01-9.28,11.5s-9.47,3.61-14.48,4.47c-5,.85-10.08,1.47-14.9,3.08-9.74,3.24-18.02,10.62-22.37,19.91,6.21-8.35,15.4-14.43,25.51-16.87,4.9-1.18,9.96-1.53,14.99-1.88,6.18-.42,12.35-.85,18.53-1.27-2.09-.61-3.85-2.24-4.61-4.28,7.2-3,13.43-8.27,17.57-14.87"/>
    <path d="m152.24,426.48c2.3,2.02,3.56,5.17,3.29,8.21l3.16-1.43c-.63-.1-1.12-.65-1.34-1.24s-.23-1.25-.24-1.89c-.03-2.54-.05-5.09-.08-7.63"/>
    <path d="m159.26,420.86c.62,1.29,1.98,2.11,3.37,2.44s2.86.22,4.29.12c1.69-.12,3.44-.26,4.91-1.1,1.99-1.14,3.08-3.35,4.05-5.43-5.74-.75-11.59-.55-17.27.58"/>
    <path d="m120.82,499.45l-14.54.32c4.9.44,9.8.87,14.7,1.31"/>
    <path d="m120.17,484.04c-4.71.35-9.42.7-14.13,1.05,4.66.24,9.32.48,13.98.71"/>
    <path d="m117.36,471.05c-4,.33-8.01.66-12.01.98,4.42-.07,8.84.2,13.22.81"/>
  </g>
  <g id="Layer_2" data-name="Layer 2">
    <path class="cls-5" d="m1289.2,567.76l-17.73,15.2-94.76,17.57-29.49,3.87-.34.04c-5.19-37.97-12.51-65.96-22.08-86.41-27.85-59.54-74.78-55.21-143.96-47.54l-1.86.21c-64.49,7.17-79.94,69.02-83.27,107.24-1.53,17.55-.51,30.11-.51,30.11l-500.01,3.8c-.88-13.74-2.27-26.11-4.1-37.26-19.01-115.51-86.79-99.34-156.21-96.97-9.07.31-17.01,1.57-23.98,3.58-51.52,14.89-49.51,71.01-51.45,89.49-2.2,20.99,3.49,46.27,3.18,46.02-.31-.24-53.58-3.19-53.58-3.19-14.66-9.22-37.45-18.91-37.45-18.91,0,0-13.52-14.43-12.22-29.44,1.31-15.01,19.28-22.65,19.28-22.65l-7.07-5.44c-12.39-12.59-8.47-68.65-8.47-68.65l43.05-44.48,4.26-4.4c117.13-48.03,286.36-48.13,286.36-48.13,0,0,117.73-107.96,276.98-124.42,159.24-16.46,446.86-5.02,446.86-5.02l38.12,9.23c33.07-4.62,64.03,8.53,64.03,8.53l21.23,3.55-4.71,11.3s-13.85,11.88-15.49,12.74c-1.63.85,23.3,20.01,33.13,33.19,1.18,1.59,2.27,3.45,3.27,5.49,1.16,2.35,2.2,4.94,3.13,7.64,4.98,14.46,6.86,32.02,6.86,32.02,12.41,16.82,16.41,28.56,17.7,35.37.57,2.98.61,5.02.61,6.13,0,.55-.01.88.03.97.27.65.65,52.16.71,60.86.01.8.01,1.24.01,1.24l-2.76,43.81,11.32,14.69c2.19,12.16-8.62,39.02-8.62,39.02Z"/>
    <path class="cls-5" d="m446.71,370.44s7.75-35.85,40.67-26.9c0,0,14.3,25.37-5.06,49.59,0,0-8.87,5.37-22.28,1.12-13.41-4.25-13.33-23.81-13.33-23.81Z"/>
    <path class="cls-5" d="m487.38,343.54s86.05-73.86,215.65-73.1,372.79-4.63,448.04,7.69c0,0,11.72,3.88,21.4,20.09,9.68,16.22-176.51,64.24-255.13,69.86-78.62,5.63-373.37,24.33-435.01,25.04"/>
    <path class="cls-5" d="m453.64,355.07s-34.84,19.82-38.77,56.83-9.29,129.99,19.39,169.01l461.45-2.96"/>
    <path class="cls-5" d="m717.99,380.96s-12.73,61.69-6.11,102.17c0,0,3.62,25.06,2.1,57.26,0,0,1.53,27.1,4.01,38.69"/>
    <path class="cls-5" d="m1124.8,518.03s56.7-40.26,72.45-42.33c15.75-2.07,92-6.69,92-6.69"/>
    <path class="cls-5" d="m1260.23,326.03s-4.2-3.04-11.47.95c-7.27,3.99-73.9,41.77-73.9,41.77-1.97,1.13-2.83,3.53-2.03,5.6.75,1.95,2.81,3.15,4.93,2.84,0,0,68.59,5.57,81.16,9.59,12.58,4.02,29.6,20.41,29.6,20.41h0"/>
    <path class="cls-5" d="m78.66,542.53l36.57,4.81,4.93-10.68s4.4-57.84-3.86-68.22-53.18,0-53.18,0c0,0,40.33-24.04,112.74-33.36,0,0,15.29-1.91,33.35-19.37,0,0-80.72.77-103.04,8.25"/>
    <path class="cls-5" d="m377,371.86s-15.86,18.9-34.54,21.59-90.56,8.34-90.56,8.34c0,0-20.47.46-42.68,13.93"/>
    <path class="cls-5" d="m446.71,370.44l-10.5,16c-.1.47-.72,3.46,1.24,6.21,2.13,2.99,5.53,3.21,5.96,3.23l21.24-.5"/>
    <line class="cls-5" x1="704.23" y1="270.44" x2="683.31" y2="383.05"/>
    <line class="cls-5" x1="746.04" y1="270.5" x2="743.98" y2="379.37"/>
    <path class="cls-5" d="m910.01,269.9s12.69,28.59,12.69,38.19,3.07,59.26,3.07,59.26"/>
    <path class="cls-5" d="m980.85,470.5c6.76-12.08,4.7-80.11,4.7-80.11v-7.47l-9.11-22.99-37.09-90.01s-3.05-9.05-18.29-9.7-196.43,1.32-196.43,1.32"/>
    <path class="cls-5" d="m1125.14,275.06c.5.04,17.66,23.58,17.66,23.58.1.18,1.32,2.58,0,5.01-.9,1.66-2.64,2.71-4.55,2.75-31.1,13.03-62.19,26.05-93.29,39.08"/>
    <path class="cls-5" d="m472.14,342.56s88.06-83.17,252.48-81.02v8.9"/>
    <path class="cls-5" d="m189.58,430.12s-1.38,12.74,21.32,51.09"/>
    <line class="cls-5" x1="391.09" y1="574.6" x2="429.14" y2="572.75"/>
    <path class="cls-6" d="m1263.34,333.66l-9.45-1.44-64.28,34.81c-1.41.16-2.25,1.48-1.97,2.52.22.83,1.15,1.48,2.22,1.4,0,0,55.47,8.93,73.48,10.64,0,0,16.89,6.41,24.56,19.47"/>
    <path class="cls-3" d="m119.94,464.24s0-.08-.05-.09c-.03-.01-.08,0-.1.03l-.06.13s-.01.02-.01.03c0,.02,0,.02.01,0,0,0-.01,0-.02.01-.03.03-.05.07-.06.1-.02.05-.04.09-.06.14,0,.02-.02.04-.03.06,0,.03-.01.05-.02.08-.02.07.01.13.08.16.06.02.14,0,.17-.05.01-.02.02-.05.03-.07.01-.03.02-.06.03-.09.01-.05.02-.1.04-.15,0-.03.02-.06.02-.09,0-.01,0-.02,0-.03,0-.01,0-.02,0-.03.01-.05.02-.1.03-.15Z"/>
    <path d="m120.32,534.57c-3.75-3.56-7.58-7.03-11.38-10.54-3.49-3.23-6.58-6.48-7.81-11.21-1.23-4.77-1.23-9.91-1.52-14.8-.31-5.27-.55-10.54-.73-15.81-.2-5.93-.31-11.87-.35-17.8,0-.65-1.02-.65-1.02,0,.09,10.88.45,21.76,1.1,32.62.29,4.96.33,10.1,1.36,14.98.97,4.59,3.41,8.07,6.76,11.27,4.24,4.05,8.59,8.01,12.95,11.93.43.39,1.07-.24.64-.64Z"/>
    <path d="m113.97,421.68c-1.67.68-2.98,2.48-4.23,3.73-1.52,1.52-3.02,3.07-4.51,4.62-2.97,3.12-5.87,6.3-8.7,9.55-5.55,6.37-11.04,13-15.76,20.01-.21.32.3.73.54.42,5.23-6.66,10.33-13.36,15.9-19.75,2.73-3.13,5.52-6.2,8.39-9.21,1.48-1.56,2.98-3.1,4.5-4.63.76-.76,1.52-1.52,2.29-2.28.69-.68,1.41-1.27,1.82-2.17.06-.13-.04-.36-.22-.29Z"/>
    <path d="m62.13,473.74c.54-.71.46-1.71.62-2.56.17-.95.42-1.89.63-2.84.06-.29-.27-.65-.56-.43-.77.57-1.57,1.07-2.47,1.43-.23.09-.34.32-.22.55,1.03,2,.85,4.52.98,6.71.15,2.45.24,4.91.48,7.36.05.51.83.53.81,0-.08-2.66-.31-5.33-.49-7.98-.05-.77-.07-1.59-.12-2.42.02.06.04.12.07.17.06.11.2.09.27,0Zm-1.18-3.87c.48-.25.95-.51,1.42-.78-.2.71-.36,1.43-.49,2.16-.06.38-.16.78-.2,1.17-.12-.9-.33-1.77-.73-2.55Z"/>
    <path d="m62.88,471.5c-.02-.09-.16-.11-.2-.03-.47.93-.56,2.02-.63,3.06-.04.53-.06,1.07-.07,1.6-.01.57.03,1.1.1,1.67.02.18.32.27.35.05.08-.51.16-1.01.19-1.53.04-.56.08-1.11.14-1.66.11-1.04.28-2.11.11-3.16Z"/>
    <path d="m62.47,473.53c.04-.68-.05-1.33-.16-2-.01-.06-.12-.08-.14-.02-.26.61-.47,1.2-.54,1.87-.07.68-.11,1.37-.11,2.06,0,.69.02,1.38.06,2.06.04.63.06,1.34.45,1.87.03.04.11.06.13,0,.29-.57.23-1.25.21-1.87-.01-.66,0-1.33.01-1.99.02-.66.04-1.32.08-1.99Z"/>
    <path d="m62.28,468.88c-.1-.16-.33-.21-.47-.06-.32.34-.27.96-.3,1.4-.03.47-.05.93-.06,1.4-.01.47-.02.94-.02,1.4,0,.25,0,.5.03.76.02.25.09.46.16.7.06.19.34.2.39,0,.07-.24.13-.45.15-.7.02-.22.03-.43.04-.65.01-.49.03-.97.05-1.46.02-.47.05-.94.09-1.4.03-.42.18-1.02-.06-1.39Z"/>
    <path d="m62.32,469.23c-.17-.05-.32.01-.48.07-.12.04-.23.09-.35.13-.32.12-.72.27-.74.67,0,.17.06.32.13.47.05.12.1.23.15.35.11.26.2.54.39.75.2.22.6.05.59-.25,0-.24-.11-.46-.19-.69l-.11-.32s-.03-.08-.04-.12c.09-.05.18-.1.26-.16.09-.06.18-.11.27-.17.15-.09.26-.18.33-.35.07-.16-.07-.35-.22-.4Z"/>
    <path d="m62.53,487.76c-.06-.57-.12-1.14-.17-1.71-.11-1.06-.19-2.12-.24-3.19-.05-1.06-.08-2.13-.07-3.19,0-1.06.21-2.2-.13-3.21-.02-.06-.12-.09-.16-.02-.43.92-.34,1.99-.35,2.99-.02,1.15,0,2.29.04,3.44.05,1.15.12,2.29.23,3.43.05.52.12,1.04.19,1.55.06.45.07.87.41,1.21.05.05.14.04.17-.02.23-.41.12-.82.08-1.27Z"/>
    <path d="m176.08,416.34c-2.94,5.53-7.49,10-12.6,13.55-2.76,1.91-5.68,3.58-8.66,5.11-1.43.74-2.88,1.45-4.33,2.14-.76.36-1.52.72-2.28,1.09-.7.34-1.5.58-2,1.19-.07.08-.03.21.09.21.7.02,1.22-.31,1.85-.59.84-.37,1.68-.75,2.52-1.15,1.53-.72,3.05-1.45,4.56-2.21,3.17-1.61,6.28-3.37,9.19-5.42,5.06-3.55,9.52-7.98,12.44-13.48.27-.51-.5-.96-.77-.45Z"/>
    <path d="m195.74,416.23c-1.08-.1-2.24.19-3.31.34-1.22.17-2.43.35-3.64.55-2.24.38-4.47.83-6.65,1.45-1.9.54-3.77,1.19-5.58,2.01-1.85.83-3.93,1.8-5.37,3.26-.23.23.06.58.34.44,1.86-.93,3.53-2.15,5.44-2.99,1.87-.83,3.81-1.49,5.79-2.02,2.06-.55,4.15-.97,6.25-1.32,1.06-.18,2.12-.33,3.19-.48,1.18-.16,2.5-.17,3.63-.58.36-.13.29-.62-.09-.66Z"/>
    <path d="m191.37,416.49c-1.28-.29-2.67-.09-3.96.05-1.3.14-2.58.38-3.77.95-.07.04-.03.14.04.15,1.3.08,2.58-.09,3.87-.25,1.26-.15,2.59-.14,3.82-.51.18-.06.2-.35,0-.39Z"/>
    <path d="m192.19,416.49c-.43-.25-.99-.08-1.46-.04-.55.05-1.11.11-1.66.17-1.07.12-2.11.31-3.17.5-.11.02-.07.17.02.18,1.1.12,2.16.19,3.27.11.53-.03,1.06-.1,1.58-.17.48-.07,1.1-.05,1.46-.42.1-.1.08-.27-.04-.34Z"/>
    <path d="m189.28,416.69c-.47-.04-.92-.14-1.39-.12-.46.01-.92.07-1.38.13-.85.1-1.68.26-2.51.48-.84.22-1.67.47-2.49.77-.56.2-1.78.55-1.9,1.24,0,.05,0,.09.05.11.56.34,1.56-.22,2.11-.43.81-.3,1.65-.57,2.49-.79.84-.22,1.69-.41,2.54-.57.4-.08.8-.13,1.19-.2.45-.08.88-.24,1.33-.33.17-.03.12-.28-.04-.29Z"/>
    <path d="m183.9,417.36c-.63.07-1.25.09-1.87.22-.64.13-1.27.33-1.9.54-.62.2-1.24.43-1.85.68-.58.24-1.26.45-1.77.81-.36.25-.16.91.32.76.61-.2,1.18-.57,1.76-.83.57-.26,1.15-.5,1.73-.71.58-.22,1.16-.4,1.74-.6.62-.22,1.22-.5,1.85-.7.08-.03.07-.16-.02-.15Z"/>
    <path d="m178.64,418.7c-.22-.07-.43.01-.64.09-.21.08-.41.17-.62.26-.41.18-.81.37-1.21.58-.38.2-.75.44-1.11.69-.18.12-.38.24-.53.38-.16.15-.24.35-.34.54-.03.06.02.13.09.11.21-.04.4-.04.6-.14.18-.09.35-.21.53-.32.37-.22.76-.42,1.14-.63.37-.2.75-.39,1.13-.56.18-.08.36-.16.55-.23.22-.09.44-.17.57-.38.1-.16,0-.36-.17-.41Z"/>
    <path d="m176.1,418.24c-.36.2-.58.59-.83.91-.27.34-.54.67-.79,1.02-.24.33-.47.66-.71.99-.22.3-.58.65-.47,1.05.02.07.08.11.15.11.4.01.65-.41.88-.69.27-.32.54-.64.81-.95.26-.31.51-.64.76-.96.26-.33.61-.67.73-1.09.09-.31-.26-.56-.53-.41Z"/>
    <path d="m176.23,417.13c-.15.09-.24.23-.35.36-.11.13-.21.27-.31.4-.19.24-.35.49-.51.76-.15.26-.29.52-.43.78-.07.14-.17.28-.2.43-.01.07-.02.15-.01.22,0,.06.05.15.04.21-.01.06.06.1.1.06.04-.03.1-.03.15-.05.07-.03.14-.07.2-.12.13-.1.21-.25.31-.38.17-.23.34-.45.52-.67.19-.24.38-.48.57-.73.08-.1.17-.23.23-.3.12-.16.26-.3.33-.49.13-.36-.33-.67-.63-.48Z"/>
    <path d="m183.88,416.77c-.38-.61-1.31-.54-1.94-.56-.75-.02-1.51-.01-2.26.08-.74.09-1.5.2-2.22.41-.37.11-.74.26-1.1.4-.29.12-.63.2-.79.49-.06.1-.03.27.08.32.31.14.59.02.92-.04.34-.07.67-.12,1.01-.17.73-.1,1.44-.24,2.17-.3.73-.06,1.46-.11,2.19-.1.61,0,1.42.2,1.9-.26.07-.07.09-.18.03-.27Z"/>
    <path d="m185.79,416.59c-.35-.17-.76-.1-1.14-.08-.17.01-.35.02-.52.03-.12,0-.2.05-.3.1-.08.05-.15.11-.24.15-.05.02-.05.11,0,.13.08.04.14.1.22.14.09.05.19.1.3.11.18.02.36.02.54.04.37.02.79.09,1.14-.08.21-.1.21-.46,0-.56Z"/>
    <path d="m187.06,416.67c-.42-.12-.67-.23-1.12-.2-.37.02-.74.05-1.11.08-.83.06-1.66.16-2.48.27-1.61.2-3.27.36-4.84.77-.85.22-.47,1.42.35,1.29,1.58-.25,3.15-.68,4.72-.99.79-.15,1.58-.29,2.36-.45.36-.07.73-.14,1.09-.21.44-.08.65-.25,1.03-.46.04-.02.03-.09-.01-.1Z"/>
    <path d="m181.85,417.22c-.27-.02-.5-.14-.78-.11-.27.03-.54.1-.81.15-.54.11-1.07.23-1.6.38-1.06.28-2.1.62-3.13.99-.25.09-.42.34-.35.62.07.24.36.45.62.35,1.02-.41,2.05-.78,3.1-1.11.52-.16,1.05-.32,1.57-.47.26-.08.54-.13.79-.22.25-.09.41-.29.64-.41.08-.04.04-.15-.04-.16Z"/>
    <path d="m177.34,417.33c-.35-.22-.71.21-.95.44-.23.22-.43.49-.62.75-.18.23-.35.46-.5.71-.08.13-.15.27-.22.4-.1.18-.23.39-.21.6.02.19.09.35.26.45.16.09.36.09.53,0,.19-.11.27-.29.37-.47.08-.13.15-.26.23-.39.16-.25.3-.51.47-.76.16-.24.33-.47.49-.71.08-.13.16-.25.25-.38.14-.2.14-.5-.09-.64Z"/>
    <path d="m180.42,417.79c-.31-.03-.6.13-.87.26-.27.13-.55.26-.82.39-.54.27-1.08.54-1.61.83s-1.04.61-1.56.93c-.24.15-.51.3-.73.48-.17.14-.41.33-.45.56-.01.06.02.12.08.13.22.07.49-.06.7-.14.27-.11.52-.27.78-.41.52-.27,1.05-.52,1.58-.78.53-.26,1.05-.52,1.59-.76.28-.13.55-.25.83-.37.27-.12.58-.21.77-.45.22-.28.08-.65-.28-.68Z"/>
    <path d="m180.24,417.75c-.18-.34-.74-.18-1-.1-.42.13-.81.33-1.21.51l-1.14.52c-.2.09-.4.2-.59.3-.2.11-.41.21-.59.36-.14.12-.15.36-.07.51.1.17.29.22.47.19.21-.03.43-.13.63-.21.23-.08.45-.16.67-.26.39-.16.77-.33,1.16-.49.39-.16.77-.32,1.13-.53.18-.11.35-.23.46-.41.06-.1.13-.28.07-.39Z"/>
    <path d="m180.77,418.11c-.13,0-.24-.07-.38-.07-.09,0-.2.02-.29.04-.23.05-.45.14-.68.2-.47.14-.93.29-1.39.46-.44.16-.89.32-1.33.48-.23.08-.46.16-.67.28-.2.12-.36.3-.51.49-.06.08-.05.22.07.25.23.05.49.1.72.06.23-.04.45-.12.68-.2.46-.17.92-.33,1.38-.5.46-.17.92-.35,1.37-.54.22-.09.45-.17.66-.27.1-.05.23-.13.31-.22.07-.08.08-.15.17-.22.09-.08.01-.23-.09-.23Z"/>
    <path d="m180.86,418.28c-.29-.36-.92-.03-1.29.11-.49.18-.99.36-1.48.55-.49.19-.97.4-1.46.6-.48.2-1.05.35-1.45.69-.29.24-.06.78.31.75.55-.04,1.09-.36,1.59-.56.51-.21,1.03-.41,1.53-.63.5-.22.99-.44,1.48-.67.26-.12,1.06-.46.75-.84Z"/>
    <path d="m177.11,419.68c-.28.07-.56.15-.83.24-.31.1-.59.27-.86.44-.52.34-1.04.68-1.54,1.07-.14.11-.13.34-.03.46.11.14.3.17.46.09.54-.28,1.04-.6,1.56-.92.27-.16.53-.34.75-.57.2-.22.39-.44.58-.67.05-.06,0-.17-.08-.14Z"/>
  </g>
</svg>