<?xml version="1.0" encoding="UTF-8"?>
<svg xmlns="http://www.w3.org/2000/svg" viewBox="0 0 500 500">
  <defs>
    <style>
      .cls-1 {
        fill: #e59c9c;
      }

      .cls-2 {
        fill: #fff;
      }

      .cls-3 {
        fill: #1e1e1e;
      }

      .cls-4 {
        fill: #ffb0b0;
      }

      .cls-5 {
        fill: #563d3d;
      }

      .cls-6 {
        fill: #9b6b6b;
      }

      .cls-7 {
        fill: #7a1c1c;
      }

      .cls-8 {
        fill: #541414;
      }

      .cls-9 {
        fill: #b57f7f;
      }

      .cls-10 {
        fill: #b7b7b7;
      }

      .cls-11 {
        fill: #3d3d3d;
      }

      .cls-12 {
        fill: #a52828;
      }
    </style>
  </defs>
  <g id="warna_dasar" data-name="warna dasar">
    <path class="cls-1" d="M146.37,217.63c-.04-.22,9.38-10.14,9.38-10.31s10.69-11.72,10.6-11.59,8.57-7.65,8.82-8.12,2.58-1.37,2.71-1.15,1.25,4.38,1.47,4.56,6.45,5.86,6.67,6.08,10.78,6.17,11.06,6.26,11.8,3.62,12.11,3.67,11.99,1.35,12.11,1.22,7.7-2.22,7.7-2.22c0,0,7.65-3.3,7.7-3.42s8.38-7.16,8.43-7.31,3.29-4,3.29-4.39.36-1.41.23-1.29-10.22,4.87-10.92,4.91-12.75,2.33-13.26,2.22-11.99-1.04-12.2-1.29-8.55-3.66-8.6-3.98-4.47-6.16-4.5-6.43.33-7.36.33-7.36c0,0,3.61-6.03,3.97-6.41s3.03-3.46,3.25-3.59,2.25-.96,2.59-1.17,4.49-1.53,4.86-1.61,4.65-.17,5,0,4.84,1.05,5.18,1.17,4.59.27,4.87.2,5.74-.5,6.27-.77,5.47-1.16,5.82-1.42,2.82-1.43,3.22-1.71,1.54-.54,1.68-.35,2.68,1.91,3.14,2.05,5.95,1.43,6.13,1.54,3.08.39,3.87.21,2.57-.19,3.37-.28,2.64-.51,3.36-.58,7.87-1.59,8.25-1.92,3.51-1.09,4.32-1.77,2.03-1.51,2.8-1.95,1.52-.84,2.11-1.14,3.59-1.66,3.91-1.92,1.06-.76,1.2-.79.85.02.48.66-1.34,1.95-2.02,3.07-1.14,2.45-1.37,3.05-2.31,6.99-2.3,7.3-.7,13.84-.7,13.84c0,0,.71,4.79.79,5.05s4.75,11.06,4.89,11.34,7.69,7.9,7.95,8.39,7.11,3.85,7.61,4.16,5.48.65,5.91.57,3.75-1.06,4.31-1.43,2.58-1.84,3.62-2.56,2.7-1.95,3.46-2.71,2.37-2.29,2.77-3.35.65-1.14,1.21-2.8,1.48-3.3,1.88-4.84.97-5.67.92-6.46.57-2.6.35-3.37-.38-2.33-.58-2.51-.17-1.52-.48-.71-.57,4.12-1.18,5.75-.72,2.76-1.11,4.4-.19,1.96-.78,3.44-1.37,2.88-2.07,3.76-1.97,2.04-2.81,2.59-1.12,1.27-2.03,1.7-1.37.87-2.31,1.34-.79,1.35-2.41,1.32-2.58.32-2.98-.15-1.3-.53-2.06-.8-2-.72-2.73-1.04-2.48-1.13-2.7-1.36-1.63-1.37-1.75-1.84-1.08-1.33-1.19-1.71-.86-1.32-.94-1.53-1.23-6.53-1.69-7.08-1.16-4.31-1.33-5.31.02-2.46.04-3.09.04-9.48-.09-9.95.89-3.6.85-4.31.65-3.2.97-4.15,1.2-1.82,1.72-2.67,2.31-2.86,3.25-3.88,2.55-2.28,3.06-2.95,1.68-1.64,2.6-2.51,2.08-2.02,2.45-2.28,2.36-1.15,2.36-1.15c0,0,1.51.24,1.6,0s7.3,1.38,7.54,1.71,4.42,4.56,4.55,4.71,4.56,5.35,4.7,5.55,5.22,11.83,5.11,12.07.63,5.24.49,5.55,1.46,9.22,1.31,9.91-1.08,11.01-1.24,11.28-.97,3.5-1.14,4.03,1.85-.41,2.11-.67,1.04-.71,1.66-1.45,1.25-2.11,1.74-3.17,1.09-2.27,1.28-2.84,1.82-8.99,1.82-9.31.35-3,.34-3.39-.12-1.8,0-2.42.38-8.27.38-8.27c0,0,2.61,2.92,2.8,3.64s2.41,8.35,2.41,8.45.93,7.75.89,7.88.17,4.53,0,4.77-.77,2.71-.97,2.99.71,1.04,1.04.69,1.2-1.85,1.43-2.44.88-1.08,1.14-2.11.81-3.13,1.1-4.01,2.06-7.77,2.04-7.98,2.67-9.51,2.72-9.67,1-8.84,1.11-8.73.96,4.02,1.5,4.83,3.04,7.4,3.2,7.66,2.04,9.17,1.99,9.64-.22,9.02-.29,9.45-.34,9.93-.44,10.21-1.96,9.7-2.01,9.86-2.14,3.93-2.02,3.59.15,6.8.15,6.8c0,0,4.93,35.08,5.58,35.76s4.19,13.76,4.19,13.76l3.23,19.6s.84,18.58.82,18.91-3.34,24.89-3.34,24.89c0,0-8.53,25.05-8.88,25.86s-6.36,19.18-7.17,20.1-13.1,25.32-13.6,25.83-14.34,19.86-15.05,20.22-16.35,14.65-16.6,14.65-22.47,13.74-22.77,13.9-29.32,15.76-29.79,15.84-8.22,2.93-8.65,2.67-8.92,1.18-9.35,1.21-14.7-2.53-15.3-2.48-16.77-6.75-16.88-7.21-10.57-8.44-10.88-8.79-13.18-12.83-13.18-12.83l-15.72-18.22-12.36-14.84s-10.16-15.13-10.49-14.98-6.41-14.59-6.61-14.74-3.55-13.9-3.55-13.9c0,0-1.87-16.22-2.04-16.45s-1.92-19.22-1.92-19.22c0,0-1.2,1.01-1.57.61s-3.46-2.2-3.46-2.2c0,0-1.92-3.79-1.96-4.03s-1.59-4.56-1.46-4.89,1.34-2.14,1.81-2.38,1.85-.64,1.76-1.23-.47-1.85-.47-1.85c0,0-1.55-9.93-1.67-10.08s-2.82-12.6-2.87-12.79-4.47-8.41-4.47-8.41c0,0-1.25-8.59-1.44-8.71s-1.38-16.14-1.11-16.45.78-.65,1.06-.67,3.31.94,3.52.91,4.15,4.31,4.4,4.56,3.07,3.21,3.02,3.36.86,2.71.95,3.13.48-4.41.77-4.43.77,1.1,1.13,1.72.8,6.36.9,6.73.91,7.92,1.21,7.51,1.96-3.93,2.38-4.7,3.11-10.72,3.2-10.98,2.87-11.03,2.82-11.21,2.09-11.05,2.04-11.24,2.07-11.85,1.95-12,.86-10.9.86-10.9c0,0,.15-4.07.2-4.39s.62-4.46.62-4.46Z"/>
    <path class="cls-2" d="M161.05,272.9c.05-.24,2.71-4.72,2.93-4.95s6.77-7.05,6.77-7.05c0,0,7.44-2.8,7.9-2.98s8.93-2.29,8.93-2.29c0,0,7.33.87,8.06.68s6.48.63,7.35.97,4.25,2.16,4.71,2.88,5.43,6.33,5.51,6.65,5.92,7.6,5.63,7.79-2.13,1.94-2.58,1.95-5.91.95-6.41,1.19-5.84,1.66-6.4,1.97-6.2,1.21-7,1.6-6.49,1.12-7.17,1.07-5.25-.49-6.05-1.07-7-1.4-7.41-1.91-5.97-4.51-6.19-4.74-2.66-1.67-3.14-1.77-4.02,1.05-4.5.83-.93-.84-.93-.84Z"/>
    <path class="cls-2" d="M287.03,274.91c.42-.58,8.28-9.04,8.45-9.7s8.09-7.04,8.48-7.47,4.92-3.94,4.92-3.94c0,0,10.42-2.57,10.8-2.63s9.89.82,10.58,1.01,11.69,6.88,11.69,6.88c0,0,3.61,5.27,3.4,5.59s-1.26,3.5-2.2,4.48-4.3,6.03-5.31,6.26-6.9,3.26-7.56,3.46-7.68,2.26-8.39,2.11-10.12,1.04-11.04.84-8.67-1.24-8.98-1.53-14.59-4.38-14.15-4.19-.68-1.16-.68-1.16Z"/>
    <path d="M322.21,251.16c.38-.19,5.73,1.05,5.73,1.05,0,0,2.3,4.52,2.63,4.73s1.62,4.55,1.56,4.84.35,5.69.36,6.35-.94,5-.81,5.49-.23,3.04-.74,3.47-.91,2.63-1.76,2.82-12.21,1.21-12.21,1.21c0,0-10.11-.11-10.29-.47s-1.94-2.51-2.04-2.75-3.26-6.23-3.26-6.23c0,0-.17-3.79,0-4.91s.63-5.29.88-5.69,1.69-3.34,1.69-3.34c0,0,4.63-4.41,5.08-4.47s8.82-1.67,9.13-1.75,4.05-.36,4.05-.36Z"/>
    <path d="M182.28,256c-.52.29-1.93,2.29-2.09,2.72s-2.9,4.06-2.84,4.41-.23,4.26,0,4.86,1.01,3.41.98,3.89,1.66,4.66,1.85,5.29,2.05,4.43,2.1,4.42,4.68.58,4.93.61,7.12-.38,7.65-.48,5.51-.67,5.88-.86,3.38-.9,3.35-1.13.17-2.15.33-2.9,1.77-4.3,1.74-4.51.57-3.96.45-4.32,0-1.25-.31-1.98-.93-3.09-1.21-3.62-1.47-2.68-1.56-3.23-.98-.94-1.7-1.61-4.11-1.43-5.17-1.57-3.88.57-4.73,0-5.28-.79-5.63-.73-4.04.73-4.04.73Z"/>
    <path class="cls-7" d="M197.22,378.4c.65-.06,6.29-.1,6.65-.28s6-1.81,6.26-2.01,4.45-1.75,5.14-2.17,3.66-1.57,4.66-2.18,4.48-1.22,5.43-1.63,5.42-1.36,6.12-1.41,4.43-.42,5.16-.44,3.86.67,3.86.67c0,0,7.08,2.56,7.7,2.38s4.95,1.38,5.17,1.06,2.37-1.07,2.93-1.25,2.46-.86,3.51-1.46,4.24-1.36,5.08-1.71,5.53-1.88,5.94-1.95,5.31,1.12,5.98,1.09,2.81.15,3.42.27,8.58,3.2,8.87,3.27,5.56,3.65,6.27,3.96,3.68,2.03,4.42,2.16,4.07,1.43,5.17,1.64,2.94.66,4.03.55,2.36.28,3.12.33,1.19.88.73,1.3-1,1.9-1.71,2.43-1.84,1.96-2.37,2.23-1.58.78-2.23,1.1-2.15,1.31-2.76,1.66-3.36,3.36-3.92,4.11-3.36,3.51-3.81,4.07-6.97,5.85-7.29,6.12-7.13,4.29-7.59,4.56-10.35,2.97-10.35,2.97c0,0-10.34-.14-10.86-.26s-3.58-1.02-4.02-1.07-3.72.12-4.34.32-8.55,2.03-9.14,1.98-3.81.89-4.58.66-2.91.37-3.58.04-7.82-2.29-8.27-2.64-6.36-2.42-6.7-2.81-4.22-4.03-4.57-4.42-3.71-4.04-3.87-4.33-3.05-4.9-3.32-5.3-2.56-3.31-2.79-3.74-1.19-1.68-1.61-2.21-4.8-4.85-5.18-5.27-2.42-1.49-2.06-1.65,1.28-.71,1.28-.71Z"/>
  </g>
  <g id="GELAP_WAJAHV2" data-name="GELAP WAJAHV2">
    <path class="cls-9" d="M171.87,290.78c-1.49.67-3.01,1.35-4.25,2.42s-2.18,2.6-2.16,4.23c.03,2.56,2.24,4.45,3.94,6.37,3.58,4.04,5.37,9.41,6.09,14.76.72,5.35.48,10.78.49,16.18.02,5.65.18,11.79-3.19,16.33-1.31,1.77-3.36,3.25-5.54,2.95-1.64-.22-3-1.4-3.97-2.74-2.81-3.89-2.94-9.03-3.06-13.83-.15-6.22-.48-12.6-2.9-18.33-2.06-4.86-5.58-9.17-6.46-14.37-1.12-6.59,2.82-13.69,8.99-16.24"/>
    <path class="cls-9" d="M274.7,162.79c-4.41,2.06-10.28,3.15-15.33,2.52-1.9,1.13-3.41,3.08-4.06,5.23-1.07,3.53-.28,7.37,1.04,10.81,1.39,3.63,3.39,7.47,2.26,11.19-.78,2.57-2.91,4.47-5.08,6.05-5.11,3.73-10.89,6.42-16.36,9.59-5.48,3.17-10.8,6.94-14.31,12.21-3.5,5.27-4.9,12.29-2.21,18.02,1.81,3.86,5.21,6.71,8.57,9.34.97.76,2.02,1.54,3.25,1.63,2.44.17,4.1-2.32,5.43-4.38,6.52-10.19,17.28-16.78,27.85-22.67-7.53.73-15.06,1.46-22.59,2.2,6.47-5.81,12.94-11.62,19.41-17.42,2.14-1.92,4.34-3.93,5.42-6.59,2.06-5.07-.51-10.73-.72-16.2-.24-6.13,2.6-12.07,6.56-16.76,3.96-4.69,9.01-8.32,14-11.89l-.74.26c-3.6,3.07-8.11,4.86-12.39,6.86Z"/>
    <path class="cls-9" d="M259.59,409.37c-4.23,1.15-8.42,2.66-12.02,5.17-3.59,2.51-6.56,6.12-7.61,10.38-1.41,5.7.77,11.73,3.93,16.68,2.42,3.8,5.56,7.32,9.7,9.09,4.59,1.97,9.82,1.55,14.78,1.01,15.77-1.72,31.43-4.39,46.88-7.98-8.69,7.4-18.09,13.96-28.04,19.56-5.14,2.89-10.55,5.57-16.39,6.43-6.95,1.02-14.02-.59-20.68-2.81-8.76-2.92-17.46-7.11-23.34-14.23s-8.29-17.71-3.84-25.8c2.31-4.18,6.14-7.29,9.99-10.11,3.72-2.72,7.68-5.34,12.2-6.23"/>
    <path class="cls-9" d="M247.54,412.34c2.88-1.1,5.79-2.14,8.71-3.13-3.19-1.35-7.12-.7-9.72,1.58"/>
    <path class="cls-6" d="M301.12,281.38c6.81,1.56,13.76,2.88,20.73,2.46-2.85.83-5.89.66-8.85.39-4.15-.37-8.29-.9-12.4-1.59-4.45-.75-9.01-1.74-12.68-4.38.52,1.02,1.64,1.55,2.7,1.98,5.3,2.11,10.96,3.18,16.57,4.23,6.74,1.26,13.72,2.52,20.37.88-3.16,1.23-6.59,1.59-9.98,1.56s-6.76-.43-10.14-.68c-3.31-.25-6.64-.34-9.93-.86s-6.55-1.47-9.33-3.29c-.89-.58-1.73-1.26-2.3-2.16-.69-1.11-.91-2.67-.02-3.74,1.15-1.38,1.98-.3,3.04.49,2.27,1.69,4.96,2.75,7.65,3.55,1.5.45,3.02.81,4.55,1.16Z"/>
    <path class="cls-6" d="M346.86,266.35c.92.4,1.62,1.26,1.83,2.24.28,1.31-.28,2.65-.92,3.82-3.47,6.32-9.92,10.93-17.03,12.16,4.83-2.41,9.11-5.91,12.44-10.16-5.58,4.28-11.62,8.49-18.59,9.45,4.12-1.48,8.13-3.36,11.63-5.99,3.5-2.63,6.47-6.06,8.15-10.1.28-.66.52-1.35.93-1.94s1.01-1.09,1.73-1.18,1.51.34,1.66,1.04"/>
    <path class="cls-6" d="M316.21,250.85c-.38-.88-1.6-.92-2.55-.79-4.97.7-9.79,2.42-14.08,5.01,4.43-2.96,9.23-5.36,14.25-7.14,4.1-1.45,8.45-2.49,12.78-2.05s8.65,2.56,10.92,6.27c-6.03-3.2-13.56-3.43-19.78-.59"/>
    <path class="cls-6" d="M285.58,275.14c.52-3.29,1.81-6.45,3.74-9.15,2.86-4.01,6.98-6.9,11.02-9.71-4.05,4.07-7.39,8.84-9.84,14.04"/>
    <path class="cls-6" d="M346.76,265.46c-.67-2.6-2.13-4.95-3.88-6.99s-3.81-3.79-5.85-5.54c3.64,1.02,7.16,2.44,10.48,4.24,1.17.63,2.36,1.36,3.04,2.5.8,1.33.76,2.98.69,4.53-.05,1.24-.18,2.65-1.16,3.42-1.02.8-2.47.54-3.73.24"/>
  </g>
  <g id="WAJAH_GELAP" data-name="WAJAH GELAP">
    <path class="cls-6" d="M205.44,295.75c-10.42.05-20.84-.84-31.09-2.68-2.56-.46-5.15-.98-7.75-.8s-5.26,1.14-6.9,3.17c-2.21,2.74-2.05,6.75-.86,10.07s3.26,6.24,4.65,9.48c4.07,9.47,1.97,20.49,4.68,30.44.41,1.5,1.08,3.15,2.53,3.72,1.7.68,3.55-.45,4.99-1.58,14.54-11.32,24.83-27.98,28.46-46.05.29-1.43.54-2.89,1.24-4.17s1.94-2.37,3.4-2.45c1.93-.11,3.58,1.6,4.05,3.47s.06,3.84-.41,5.71c-3.61,14.38-10.33,27.89-18.88,40-2.45,3.47-5.09,6.88-8.47,9.45s-7.59,4.28-11.82,3.92c-6.22-.53-11.38-5.45-13.94-11.14s-2.97-12.09-3.2-18.32-.32-12.59-2.32-18.5c-1.05-3.1-2.6-6.01-3.48-9.16s-1-6.71.7-9.5c1.94-3.16,5.85-4.65,9.55-4.76s7.34.94,10.96,1.75c8.49,1.9,17.27,2.54,25.94,1.9,3.4-.25,6.86-.69,10.18.08s6.54,3.1,7.22,6.43c.22,1.08.15,2.28-.49,3.19s-1.91,1.41-2.91.92-1.31-2.06-.44-2.75"/>
    <path class="cls-6" d="M250.6,409.24c-7.75,2.29-14.46,7.98-17.85,15.31s-3.37,16.2.18,23.45c3.56,7.26,10.62,12.73,18.56,14.22,9.73,1.83,19.61-2.06,29.51-2.13-9.93,12.65-26.21,20.06-42.27,19.23-9.47-.48-19.5-4.28-24.24-12.49-3.02-5.22-3.51-11.49-3.68-17.52-.42-14.79.94-30.45,9.39-42.6,2.09,3.18,5.48,5.48,9.21,6.24s7.75-.03,10.92-2.14"/>
    <path class="cls-6" d="M239.58,411.5c-6.12.86-12.52-.41-17.86-3.53-.07,1.83-.08,3.87,1.16,5.21,1.03,1.12,2.64,1.44,4.15,1.64,1.69.22,3.39.36,5.09.42"/>
    <path class="cls-6" d="M227.11,410.86c-13.15-7.21-22.11-20.03-30.58-32.41,3.08,1.92,7.37-.5,8.73-3.86s.68-7.16-.03-10.71c-2.01-10.13-4.01-20.26-6.02-30.38-11.55,1.67-18.34,16.3-30,16.86-3.88.19-7.63-1.29-11.46-1.89-5.52-.86-11.14.09-16.65,1.05-2.24.39-4.85,1.06-5.71,3.17-.37.92-.32,1.94-.24,2.93,1.19,15.55,7.18,30.47,15.58,43.6,8.4,13.13,19.17,24.6,30.54,35.26,9.6,9,20.68,17.9,33.81,18.72-2.13-10.29.74-21.5,7.54-29.51"/>
    <path class="cls-6" d="M251.15,475.64c.44,1.4-.46,2.96-1.73,3.71s-2.8.88-4.27.92c-15.56.49-30.73-6.02-43.08-15.49-12.35-9.47-22.2-21.78-31.4-34.33-.56-.77-1.12-1.88-.47-2.58.35-.38.91-.45,1.43-.48,6.89-.41,13.71,1.96,19.63,5.51s11.05,8.24,16.14,12.89c8.25,7.54,16.5,15.08,24.76,22.62"/>
    <path class="cls-6" d="M191.42,453.7c-14.26-13.51-28.64-27.16-39.57-43.48s-18.26-35.76-16.75-55.34c2.61,5.83,5.21,11.66,7.82,17.49,4.17,9.32,8.34,18.65,13.27,27.59,6.42,11.64,14.1,22.56,22.52,32.83"/>
    <path class="cls-6" d="M162.39,358.54c.88-13.26-.21-26.65-3.21-39.6-2.34-10.08-5.84-20.51-3.2-30.51.39-1.48.92-3,.7-4.52-.23-1.56-1.23-2.89-2.19-4.14-1.3-1.69-2.72-3.47-4.74-4.17-2.65-.92-5.53.27-8,1.59-2.94,1.56-5.85,3.41-7.78,6.13-2.65,3.74-3.06,8.58-3.3,13.16-1.1,21.34-.25,42.96,5.14,63.64.5,1.93,1.32,4.14,3.22,4.71,1.43.43,2.94-.26,4.22-1.02,3.29-1.96,6.18-4.58,8.46-7.66"/>
    <path class="cls-6" d="M133.45,337.1c-.59,1.04-2.04,1.31-3.16.9s-1.96-1.35-2.69-2.29c-1.39-1.81-2.56-3.79-3.45-5.88-.39-.92-.74-1.98-.32-2.9.45-.99,1.6-1.42,2.31-2.24.68-.78.9-1.88.84-2.91s-.38-2.03-.67-3.03c-1.14-3.94-1.9-7.99-2.25-12.07-.1-1.2-.13-2.53.63-3.47.7-.86,1.87-1.14,2.96-1.34,1.09-.2,2.3-.36,3.23.24.72.47,1.11,1.31,1.24,2.15s.03,1.7-.05,2.55c-.54,5.56-.23,11.21.91,16.68"/>
    <path class="cls-6" d="M132.7,306.2c-1.52-4.04.07-8.52.18-12.84.05-2.07-.25-4.14-.55-6.19-.33-2.26-.66-4.53-.98-6.79-.4-2.79-.82-5.63-2.01-8.18-.63,1.38-1.25,2.77-1.88,4.15.63-2.73-.66-5.61-2.63-7.6s-4.53-3.26-7.05-4.48c-.68-.33-1.6-.62-2.09-.05-.24.28-.27.67-.29,1.04-.3,5.41-.05,10.86.75,16.22.45,2.97,1.07,5.95,2.36,8.66,1.07,2.26,2.59,4.29,3.55,6.59,1.7,4.06,1.66,8.82,4.12,12.47.13.2.31.41.55.41.26,0,.44-.24.57-.46.88-1.41,1.75-2.81,2.63-4.22"/>
    <path class="cls-6" d="M270.13,165.72c-8.22,3.48-13.18,13.31-11.09,21.99,1.19,4.95,4.35,10.14,2.17,14.74-1.44,3.05-4.77,4.64-7.76,6.2-8.02,4.19-15.28,9.83-21.32,16.57-2.74,3.06-5.38,6.88-4.67,10.93.54,3.09,3.01,5.57,5.83,6.94s5.99,1.83,9.1,2.26c-5.81,20.58-11.63,41.16-17.44,61.74-1.19,4.2-3.38,9.24-7.73,9.43-3.48.15-6.13-3.05-7.79-6.12-1.83-3.37-3.26-7.22-2.57-10.99,1.67-9.15,14.08-12.53,17.23-21.27,1.8-5.02.05-10.67-2.77-15.19-2.82-4.52-6.66-8.33-9.61-12.77s-5.01-9.92-3.64-15.07c1.31-4.92,5.43-8.52,9.41-11.7,6.17-4.93,12.54-9.66,18.05-15.31s10.2-12.35,12.24-19.97c-9.93,7.56-24.14,9.03-35.41,3.66-3.02-1.44-5.9-3.39-7.81-6.14-1.91-2.75-2.73-6.4-1.55-9.54,1.59-4.19,6.19-6.42,10.59-7.29,8.04-1.58,16.31.06,24.46.94s16.94.85,23.84-3.57"/>
    <path class="cls-6" d="M264.46,166.76c-2.22-.35-4.42-.77-6.61-1.25-3.38-.75-6.75-1.66-9.87-3.15-.57-.27-1.15-.57-1.77-.58-.74-.02-1.44.35-2.1.69-4.99,2.62-10.35,4.51-15.88,5.6,2.35,1.57,5.08,2.47,7.86,2.97s5.61.6,8.43.68c6.35.17,12.89.18,18.82-2.09-.21-.2-.41-.4-.62-.6"/>
    <path class="cls-6" d="M237.3,165.3c-4.75,1.75-10,2.14-14.96,1.1-2.47-.51-4.92-1.38-7.43-1.17-2.46.2-4.71,1.4-6.86,2.62-1.87,1.06-3.78,2.22-4.97,4.01-1.03,1.55-1.41,3.42-1.76,5.24-.39,2.03-.77,4.15-.2,6.13.58,2.03,2.11,3.68,3.88,4.84s3.78,1.88,5.76,2.58c3.34,1.19,6.99,2.39,10.36,1.28-2.58-2.92-5.17-5.84-7.75-8.77-.61-.69-1.25-1.46-1.26-2.37-.02-1.22,1.06-2.13,2.06-2.83,5.07-3.51,10.78-6.09,16.76-7.58"/>
    <path class="cls-6" d="M211.67,165.93c-1.9.72-3.73,1.64-5.45,2.74-.48.31-1.01.73-.97,1.3.03.41.36.74.68.99,1.02.8,2.26,1.31,3.54,1.48"/>
    <path class="cls-6" d="M205.61,171.03c-2.71,1.3-4.87,3.72-5.86,6.56s-.78,6.08.54,8.78c.81,1.64,2,3.07,3.37,4.29,3.39,3.02,7.79,4.76,12.28,5.45s9.08.38,13.56-.3c6.83-1.03,13.73-3.03,19.08-7.4.38-.31.79-.72.76-1.21-.06-.77-1.06-1.01-1.83-1.03-3.78-.13-7.57-.06-11.35.18"/>
    <path class="cls-6" d="M290.89,344.76c-12.05,7.2-24.1,14.4-36.15,21.6-2.14,1.28-4.38,2.59-6.86,2.84-2.47.25-4.91-.58-7.36-.98-6.5-1.07-13.13.87-19.22,3.37-6.1,2.5-12.01,5.61-18.44,7.04-.86.19-1.86.32-2.52-.26-.88-.77-.55-2.18-.22-3.3,4.33-14.79-5.08-31.05-.62-45.8,2.41-7.97,8.52-14.19,14.42-20.07.67-.67,1.41-1.37,2.35-1.47,1.06-.11,2.04.61,2.66,1.47,1.94,2.75.97,6.63-.85,9.46-1.82,2.83-4.38,5.18-5.83,8.22-2.56,5.38-1.12,11.79,1.11,17.31,1.09,2.7,2.46,5.45,4.83,7.13,2.38,1.69,5.42,2.06,8.32,2.39,3.12.35,6.25.7,9.37,1.05,2.31.26,4.73.56,6.62,1.91,1.02.73,1.85,1.74,3,2.23,1.72.73,3.69.13,5.46-.48,8.53-2.93,17.06-5.87,25.58-8.8"/>
    <path class="cls-6" d="M234.36,354.7c-4.15-3.57-10.56-4.21-15.34-1.54-.9.5-1.83,1.29-1.78,2.32.04.88.8,1.54,1.53,2.01,2.38,1.52,5.27,2.22,8.08,1.95"/>
    <path class="cls-6" d="M210.17,301.5h.43c-1.02,2.71-2.03,5.43-3.05,8.15-.4,1.07-.8,2.16-.83,3.3s.39,2.36,1.34,3c1.4.95,3.36.29,4.68-.78,2.84-2.3,4.01-6.46,2.78-9.91"/>
    <path class="cls-6" d="M206.24,391.06l-1.22-2.66c-.33-.72-.66-1.45-1.16-2.07s-1.18-1.12-1.97-1.23c-.47-.07-1.02.05-1.25.46-.2.36-.1.81.03,1.2.75,2.41,1.95,4.67,3.51,6.65.4.5.85,1,1.47,1.17s1.4-.16,1.49-.79"/>
    <path class="cls-6" d="M213.42,294.32c-6.94-.16-13.85-1.5-20.34-3.95-1.1-.41-2.2-.87-3.1-1.62s-1.57-1.86-1.54-3.03c.04-1.43,1.11-2.65,2.38-3.31s2.71-.85,4.12-1.07c8.08-1.25,15.94-3.61,23.75-6.04-1.65-2.42-3.3-4.83-4.94-7.25-2.29-3.36-4.69-6.82-8.19-8.89-.86-.51-1.91-1.18-1.78-2.17.07-.51.46-.91.83-1.26,2.07-2,4.15-4,6.22-5.99.7-.68,1.49-1.4,2.47-1.46,1.23-.09,2.26.88,3.11,1.78,4.02,4.25,8.09,8.57,10.74,13.78s3.71,11.53,1.45,16.93c-1.21,2.91-3.31,5.39-4.44,8.32-.74,1.93-1.08,4.05-2.27,5.73s-3.72,2.71-5.34,1.43"/>
    <path class="cls-6" d="M195.46,292.98c.88-2.47,1.03-5.19.43-7.74-.18-.75-.45-1.54-1.08-1.98-.84-.58-1.96-.34-2.96-.18-3.56.59-7.23-.02-10.62-1.27s-6.5-3.12-9.49-5.12c-1.88-1.25-3.81-2.6-6.04-2.96-3.44-.55-6.92,1.46-8.92,4.31s-2.75,6.39-3.06,9.86c-.08.86-.1,1.82.46,2.48.63.74,1.75.79,2.72.72,3.46-.27,6.8-1.44,10.26-1.69,5.13-.37,10.16,1.28,15.11,2.68,4.95,1.4,10.21,2.58,15.19,1.27"/>
    <path class="cls-6" d="M162.45,273.28c-.8.33-1.64-.63-1.55-1.49s.75-1.53,1.37-2.14c3.63-3.54,7.26-7.08,10.89-10.62.56-.54,1.16-1.35.75-2.02-.21-.34-.61-.5-.98-.63-8.55-2.95-17.77-3.95-26.75-2.9-.99.12-2.06.29-2.77,1-.57.58-.8,1.41-1,2.19-1.98,7.71-3.96,15.43-5.95,23.14-.35,1.35-.69,2.82-.12,4.1.52,1.18,1.75,1.94,3.03,2.15s2.58-.07,3.79-.51"/>
    <path class="cls-6" d="M159.56,207.74c-.54-.43-1.1-.86-1.78-.99-1.24-.23-2.38.64-3.34,1.46-2.67,2.27-5.41,4.71-7.23,7.63-.12.29-.25.57-.43.8-.05.06-.09.13-.14.2-.33.62-.62,1.25-.86,1.91-.17,2.28-.44,4.55-.83,6.79.01.68.03,1.36.04,2.04.13,10.71-2.15,21.29-4.43,31.76l23.83,7.2c6.97-7.35,16.77-11.94,26.88-12.6-5.72-18.07-16.9-34.37-31.71-46.2Z"/>
    <path class="cls-6" d="M157.54,269.42c-2.68,3.52-4.44,7.73-5.06,12.1-.09.62-.15,1.3.15,1.85.37.69,1.21,1.02,1.99.95s1.48-.48,2.08-.97c1.47-1.2,2.48-2.96,2.77-4.83s-.13-3.86-1.17-5.45"/>
    <path class="cls-6" d="M181.89,239.66c10.3-.84,20.6-1.69,30.9-2.53,1.16-.1,2.52-.12,3.28.76.56.64.61,1.57.6,2.42-.06,6.43-2.13,12.82-5.83,18.08-5.28-.72-10.55-1.44-15.83-2.16-5.95-.81-12.02-1.62-17.91-.47"/>
    <path class="cls-6" d="M231.8,206.26c-5.85,1.89-12.14,1.91-18.26,1.32-6.41-.62-12.81-1.92-18.65-4.64-3.88-1.81-7.49-4.3-10.42-7.4-.34-.12-.67-.28-.99-.48-.72-.42-1.33-.99-1.82-1.64-.59-.55-1.09-1.26-1.45-1.97,0-.01-.01-.03-.02-.04-.15-.18-.3-.35-.44-.55-.47-.73-.72-1.52-.76-2.37-.01-.06-.02-.12-.03-.18-.46-.35-.97-.55-1.55-.44-.56.1-1.02.48-1.46.85-5.45,4.59-10.91,9.17-16.36,13.76-1.33,1.12-2.74,2.38-3,4.1-.23,1.55.55,3.06,1.3,4.43,4.31,7.82,8.61,15.65,12.92,23.47,1.81,3.29,3.73,6.7,6.81,8.84,4.14,2.87,9.56,2.92,14.6,2.85l16.96-.95c.15-7.1,4.1-13.62,8.98-18.77s10.74-9.27,15.94-14.1c5.2-4.83,9.89-10.66,11.39-17.59-2.48,5.62-7.87,9.6-13.72,11.49Z"/>
    <path class="cls-6" d="M174.17,189.91c.12-.24.31-.45.49-.65.64-.71,1.28-1.42,1.92-2.13.21-.24.52-.5.81-.38.24.1.33.39.38.65.19.93.38,1.87.58,2.8"/>
    <path class="cls-6" d="M246.53,198.63c-5.38,2.55-10.79,5.12-15.67,8.53,4.86-1.58,9.72-3.17,14.58-4.75"/>
    <path class="cls-6" d="M244.83,197.91c-3.98,2.47-8,4.99-11.22,8.38,4.81-1.59,9.58-3.31,14.3-5.14"/>
    <path class="cls-6" d="M264.14,352.96c-5.29-.89-9.42-5.34-11.44-10.31s-2.3-10.45-2.55-15.81c-.79-16.77-1.59-33.54-2.38-50.31-.47-9.96-.93-20.08,1.42-29.77,2.35-9.69,7.94-19.06,16.8-23.64-9.08,2.68-18.15,5.36-27.23,8.04-2.62.77-5.56,1.82-6.64,4.34-.89,2.09-.17,4.46.32,6.68,1.53,6.93.63,14.14-.28,21.18-1.65,12.83-3.34,25.82-8.11,37.84-3.12,7.87-7.53,15.22-10.15,23.28-2.62,8.05-3.25,17.32,1.02,24.63,4.28,7.33,12.85,11.37,21.31,12.09,8.46.72,16.89-1.44,24.97-4.06"/>
    <path class="cls-6" d="M271.68,352.72c-7.94,2.17-17.04-.8-22.16-7.24"/>
    <path class="cls-6" d="M268.14,353.79c.02-.67-.56-1.19-1.09-1.6-.76-.59-1.57-1.2-2.52-1.33-.87-.12-1.76.17-2.51.64s-1.36,1.11-1.98,1.74c-.33.34-.69.78-.55,1.23.11.37.51.57.88.7,2.45.92,5.13,1.2,7.71.81"/>
    <path class="cls-6" d="M327.53,341.62c4.67,4.17,7.48,10.41,7.31,16.66-.13,4.82-1.92,9.43-3.68,13.92-.28.71-.7,1.53-1.46,1.58-.79.05-1.33-.77-1.69-1.48-4.39-8.71-9.42-17.1-15.04-25.07-1.4-1.99-2.84-3.96-4.32-5.9-.72-.94-2.37-2.4-1.84-3.77.88-2.29,5.92-1.81,7.73-1.63,4.76.47,9.42,2.5,12.99,5.69Z"/>
    <path class="cls-6" d="M336.16,422.51c-4.26,2.98-9.74,4.18-14.86,3.25-2.17-.39-4.29-1.15-6.5-1.14s-4.62,1.04-5.36,3.12c-.56,1.56-.05,3.29.46,4.87.97,3,1.93,5.99,2.9,8.99.25.77.55,1.61,1.25,2.01,1.2.69,2.64-.28,3.68-1.19,3.12-2.77,6.24-5.53,9.37-8.3"/>
    <path class="cls-6" d="M213.33,325.6c-3.64,5.27-4.11,12.56-1.19,18.26,1.53-5.35,2.82-10.77,3.87-16.24"/>
    <path class="cls-6" d="M277.62,238.26c-2.29,3.18-4.25,6.59-5.85,10.17,2.04-2.32,4.32-4.41,6.81-6.23-1.41,1.97-2.83,3.93-4.24,5.9,3.04-3.15,6.43-5.96,10.09-8.36l-5.67,6.52c3.37-3.1,7.17-5.75,11.24-7.84-2.39,2.1-4.77,4.2-7.16,6.3,3.74-3.09,7.95-5.61,12.44-7.45-2.87,2.24-5.73,4.48-8.6,6.73,4.02-2.72,8.26-5.11,12.67-7.14-2.95,2.39-5.89,4.77-8.84,7.16,4.17-2.73,8.46-5.26,12.87-7.57-2.39,1.89-4.77,3.77-7.16,5.66,3.83-1.97,7.66-3.95,11.48-5.92-2.72,1.87-5.34,3.91-7.82,6.08,6.79-2.99,13.22-6.79,19.12-11.28-12.42-.55-24.95,1.76-36.36,6.67"/>
    <path class="cls-6" d="M315.44,232.58l-9.6,9.26c3.77-3.17,8-5.79,12.51-7.75-3.29,2.79-6.57,5.57-9.86,8.36,4.46-3.76,9.43-6.9,14.75-9.3-3.82,3.19-7.64,6.38-11.46,9.58,4.7-3.32,9.49-6.68,14.93-8.55-4.49,2.94-8.81,6.15-12.91,9.61,5.67-3.92,11.7-7.33,17.99-10.18-4.61,2.92-9.03,6.14-13.24,9.61,5.06-3.04,10.3-5.78,15.69-8.2-3.78,2.38-7.55,4.75-11.33,7.13,5.33-2.33,10.65-4.65,15.98-6.98-3.43,1.46-6.67,3.36-9.61,5.64,4.85-2.36,9.84-4.45,14.92-6.25-1.84-.92-3.68-1.82-5.58-2.61-8.63-3.56-18.33-4.46-27.48-2.58"/>
    <path class="cls-6" d="M274.05,243.66c.72-5.58,3.06-10.93,6.66-15.26l-2.9,6.59c1.81-3.69,4.4-7.01,7.54-9.66-1.42,2.11-2.84,4.22-4.27,6.33,3.49-4.52,7.76-8.43,12.58-11.5-2.43,2.84-5.03,5.54-7.78,8.08,4.12-3.85,8.36-7.78,13.55-9.99-3.01,2.88-6.03,5.76-9.04,8.64,4.18-3.49,8.53-7.07,13.77-8.53-3.03,2.4-6.06,4.8-9.08,7.21,4.29-2.59,8.86-4.73,13.6-6.37-2.97,1.41-5.82,3.08-8.51,4.97,4.71-2.93,10.01-4.93,15.49-5.84-5.65,2.34-11.02,5.35-15.95,8.95-2.25,1.64-4.41,3.41-6.83,4.79s-5.14,2.37-7.92,2.27"/>
    <path class="cls-6" d="M302.13,224.25c5.83-3.21,12.12-5.57,18.62-6.98-4.52,1.67-8.79,4.02-12.62,6.94,5.55-3.33,11.89-5.35,18.34-5.85-3.58,1.69-7.16,3.38-10.74,5.07,4.87-1.31,9.75-2.61,14.62-3.92l-8.19,2.88,12.41-2.15-8.36,2.71c4.01-.9,8.16-1.2,12.26-.89-2.29-.04-4.58.25-6.79.86,3.37-.37,6.83.01,10.04,1.1l-6.32-.05c2.6.25,5.17.8,7.65,1.63-2.51-.34-5.07-.32-7.58.06,3.47-.22,6.99.37,10.19,1.71-2.67-.48-5.41-.6-8.11-.37,3.05.17,6.05,1.11,8.64,2.71-2.15.09-4.31-.17-6.37-.76,2.87-.01,5.73,1.3,7.59,3.49-2.61-.47-5.23-.95-7.84-1.42,1.12.61,2.24,1.22,3.36,1.82.22.12.46.27.49.52.04.28-.26.52-.54.54s-.55-.12-.81-.26c-3.26-1.71-6.68-3.12-10.2-4.2-4.95-1.52-10.11-2.39-15.29-2.27-7.1.17-14,2.2-20.81,4.21"/>
    <path class="cls-6" d="M305.63,227.03l-7.49,5.45c7.1-2.54,14.58-4.22,22.12-4.28"/>
  </g>
  <g id="GELAP_WAJAH_V3" data-name="GELAP WAJAH V3">
    <path class="cls-5" d="M224.38,237.84l.66.8c-4.23-8.41-12.31-14.11-20.17-19.29,4.68,3.33,8.92,7.29,12.56,11.74-5.12-4.68-10.99-8.53-17.32-11.36,5.68,3.33,10.9,7.45,15.47,12.19-6.51-4.78-13.58-8.81-21.01-11.98,5.07,2.85,9.8,6.29,14.09,10.22-6.24-3.44-12.56-6.91-19.45-8.7,5.33,2.38,10.48,5.18,15.37,8.38-7.16-2.66-14.32-5.32-21.48-7.97,5.57,2.55,11.15,5.09,16.72,7.64-7.97-1.22-15.14-6.82-23.18-6.25,6.45,1.62,12.69,4.11,18.48,7.38-5.41-1.22-10.81-2.43-16.22-3.65-3.1-.7-6.46-1.37-9.33-.02,8.1.36,15.64,4.35,23.7,5.21,4.33.46,8.7,0,13.04.32,5.34.39,10.58,1.96,15.26,4.56"/>
    <path class="cls-5" d="M188.02,231.53c-6.73-2.42-13.75-4.02-20.86-4.74,3.96.64,7.83,1.84,11.46,3.54-5.36-.71-10.72-1.42-16.07-2.13,4.84,1,9.68,1.99,14.53,2.99-5.13-.04-10.26-.07-15.4-.11,4.6.3,9.18,1.1,13.61,2.38-5.97-.03-11.94.13-17.9.49,4.15-.29,8.34,0,12.41.85-6.21.15-12.43.31-18.64.46,5.38.49,10.76.98,16.14,1.47-4.49.54-8.99,1.07-13.48,1.61,6.31.46,12.74.92,18.92-.46,3.47-.78,6.78-2.12,10.19-3.11,5.59-1.62,11.41-2.29,17.21-2.77"/>
    <path class="cls-5" d="M218.53,230.92c7.65,5.09,13.09,12.82,18.35,20.36-3.41-2.98-6.83-5.97-10.24-8.95,3.08,3.09,5.36,6.98,6.54,11.19-3.12-4.92-7.17-9.25-11.88-12.68,3.78,3.73,6.99,8.04,9.48,12.73-4.07-5.14-8.83-9.73-14.11-13.62,3.94,3.77,7.26,8.18,9.79,13.02-4.15-5.16-9.14-9.64-14.72-13.21,3.72,3.61,7.07,7.59,9.98,11.87-3.88-4.09-8.05-7.89-12.49-11.36,2.82,2.96,5.64,5.91,8.47,8.87-4.58-4.21-9.84-7.67-15.52-10.21,4.08,2.63,7.83,5.77,11.14,9.32-4.84-3.72-10.09-6.9-15.63-9.48,3.95,2.25,7.64,4.94,10.99,8.01-6.47-4.11-13.35-7.57-20.5-10.32,8.76-1.92,18.02-1.53,26.6,1.11"/>
    <path class="cls-5" d="M194.42,235.89c4.37,4.12,8.45,8.55,12.2,13.25-5.03-4.06-10.61-7.42-16.55-9.96,3.85,2.7,7.74,5.44,10.87,8.95-5.54-3.1-11.08-6.2-16.62-9.3,4.61,2.95,8.98,6.27,13.05,9.93-6-3.71-12.3-6.95-18.81-9.66,3.96,2.29,7.61,5.09,10.86,8.31-6.5-3.5-13.25-6.53-20.19-9.07,3.82,1.97,7.65,3.93,11.47,5.9-6.33-1.94-12.67-3.88-19-5.82,4.01-2.56,8.81-3.85,13.56-3.63s9.42,1.94,13.17,4.86"/>
    <path class="cls-5" d="M198.12,235.08c-3.78-.58-7.63-.73-11.45-.44-1.56.12-3.13.31-4.61.84s-2.86,1.41-3.76,2.69c1.94.37,3.88.74,5.82,1.11,4.12.78,8.38,1.56,12.46.62"/>
    <path class="cls-5" d="M127.75,275.18c-.59-2.87-2.12-5.53-4.29-7.5-1.11-1-2.8-1.83-4.01-.95-.93.68-1.03,2.08-.61,3.15s1.24,1.93,1.9,2.87c2.96,4.2,2.79,9.74,2.99,14.88.46,12.11,3.58,23.93,5.36,35.92.22,1.48.18,3.39-1.2,3.95-.47.19-1.01.16-1.48.35-1.28.5-1.48,2.25-1.14,3.58.74,2.89,3.21,5.27,6.13,5.91-.57-12.73-1.15-25.53.33-38.2.36-3.05.83-6.1.73-9.17-.06-1.78-.31-3.54-.56-5.3-.62-4.35-1.24-8.7-1.86-13.05-.3.79-.6,1.58-.9,2.37-.02-.25-.04-.5-.05-.75"/>
    <path class="cls-5" d="M163.6,405.03c-10.03-17.12-19.02-35.16-23.11-54.57-6.78-32.19.35-65.54,8.32-97.47,3.12-12.49,6.14-26.61-.73-37.51-.86,3.58-1.71,7.18-2.55,10.78-.05,1.11-.09,2.23-.15,3.34-.08,1.39-.2,2.78-.23,4.18-.02,1.21,0,2.37-.48,3.5-.13.3-.41.48-.73.57-.15,1.49-.3,2.98-.45,4.45-.37,3.64-.69,7.35-1.34,10.95-.32,1.77-.83,3.51-1.31,5.24-.39,1.4-.69,2.81-1.25,4.15-.74,4.07-1.79,8.07-3.13,11.98,0,.04.01.07,0,.11-.06.63-.19,1.23-.4,1.83-.14.4-.29.79-.44,1.18-.04.18-.07.36-.11.54-.17.64-.45,1.32-.87,1.85-4.39,29.44-5.4,58.99,1.61,87.76,8.86,36.39,30.69,69.48,60.65,91.95l15.04,13.21c.25.07.49.15.73.23-18.42-21.17-34.89-44.04-49.07-68.25Z"/>
    <path class="cls-5" d="M158.35,417.96c-8.13-9.33-14.89-19.96-18.97-31.64s-5.41-24.44-2.86-36.55c.37,13.48,3.53,26.87,9.22,39.09"/>
    <path class="cls-5" d="M191.63,455.44c3.09,4.63,7.69,8,12.19,11.26-2.47-4.57-6.13-8.48-10.53-11.24"/>
    <path class="cls-5" d="M148.29,221.97c-.11-.25-.14-.53-.07-.79"/>
    <path class="cls-5" d="M151.28,234.05c.17-7.28,2.4-14.5,6.37-20.61s9.67-11.07,16.26-14.17c3.88-1.83,8.27-3.02,12.45-2.05-3.33-2.99-6.2-6.5-8.49-10.35-11.8,9.33-22.34,20.27-31.23,32.4"/>
    <path class="cls-5" d="M149.04,214.04c-1.09,1.35-2.1,2.76-3.03,4.22-.28.44-.57.95-.44,1.46.13.51.67.84,1.19.89s1.05-.11,1.55-.26"/>
    <path class="cls-5" d="M151.74,212.37c-2.98,1.79-5.35,4.58-6.64,7.8-.13.32-.24.7-.05.99.16.24.48.32.76.27s.53-.2.77-.36c2.14-1.37,4.15-2.94,6-4.68"/>
    <path class="cls-5" d="M248.96,189.3l.63.09"/>
    <path class="cls-5" d="M183.15,194.57c7.18,7.67,18.12,10.47,28.56,11.69,4.91.57,9.92.87,14.76-.14,10.59-2.23,18.95-10.47,24.91-19.51.47,8.01-3.91,15.85-10.31,20.7s-14.55,6.97-22.57,7.21c-17.7.54-35.43-8.09-45.93-22.36.3.42.61.84.91,1.25"/>
    <path class="cls-5" d="M262.14,165.05c-.67.04-1.34.07-2.01.08-.31.25-.73.37-1.15.28-.14-.03-.27-.07-.4-.11-1.5.1-3.03-.04-4.49-.24-1.88-.25-3.79-.66-5.15-1.95-.58-.13-1.16-.33-1.66-.64-.44-.27-.76-.62-.94-1.02,0,0-.02-.01-.03-.02-.07,0-.14,0-.21,0-1.33.75-2.67,1.45-4.08,2.04-2.36.99-4.87,1.52-7.36,2.06-1.31.28-2.65.53-3.99.58-1.08.04-2.12-.16-3.19-.22-1.28-.07-2.77.07-4.05-.32-3.79-.23-7.58-.89-11.31-.26-.19.03-.38.08-.57.12-.97.51-1.95,1-2.91,1.52-1.2.65-2.22,1.56-3.42,2.21-.15.08-.31.13-.47.15-.25.26-.5.52-.74.79-.15.17-.3.34-.44.51-.01.01-.08.1-.12.15-.03.05-.11.15-.12.16-.26.35-.49.71-.7,1.09-.1.19-.19.38-.29.57,0,.02,0,.01-.01.02,0,.01,0,.01-.01.04-.04.11-.08.21-.12.32-.24.7-.89,1.08-1.61.92-.09-.02-.16-.08-.24-.12-1.43,2.67-2.14,5.74-1.97,8.77,3.93-4.3,8.25-8.81,13.94-10.03,6.84-1.47,14.2,2.18,20.83-.06,3.6-1.22,6.56-4.09,10.29-4.84,3.71-.75,7.47.73,11.23,1.17,5.04.59,10.29-.76,14.41-3.73l-3.15-.34c-1.26.14-2.53.26-3.8.33Z"/>
    <path class="cls-5" d="M218.89,275.52c-4.59,5.5-11.69,8.42-18.8,9.37-7.1.95-14.31.13-21.42-.69,1.5,1.18,3.5,1.46,5.4,1.67,5,.57,10.05.97,15.07.62s10.05-1.49,14.49-3.86c2.64-1.41,5.16-3.37,6.31-6.13"/>
    <path class="cls-5" d="M219.73,276.5c-1.53,4.17-4.8,7.56-8.66,9.76s-8.27,3.28-12.69,3.72-8.87.25-13.31.07c8.66,1.13,17.73,1.46,25.88-1.69,2.39-.92,4.7-2.17,6.5-3.99s3.04-4.3,3-6.86"/>
    <path class="cls-5" d="M219.79,275.66c1.72.41,2.82,2.23,2.91,4s-.64,3.47-1.5,5.02c-1.31,2.36-2.97,4.53-4.91,6.4,2.2-2.54,3.53-5.82,3.73-9.17.05-.89.03-1.79-.25-2.63s-.82-1.63-1.61-2.04"/>
    <path class="cls-5" d="M159.99,273.66c1.59-.54,3.36-.11,4.83.69s2.71,1.96,4.02,3.01c2.66,2.14,5.66,3.85,8.85,5.07-4.35-.4-8.58-2.01-12.09-4.61-.89-.66-1.75-1.39-2.77-1.82s-2.27-.52-3.19.1c-.08-.53.09-1.08.45-1.48"/>
    <path class="cls-5" d="M162.2,275.68c.62.42,1.13.98,1.66,1.51,3.41,3.39,7.91,5.43,12.44,7.03-5.85-.39-11.61-2.63-15.99-6.53-.43-.38-.87-.82-.96-1.39-.29-1.79,2.09-1.14,2.85-.62Z"/>
    <path class="cls-5" d="M189.93,254.09c-6.16-.46-12.21,1.6-18.04,3.62,9.79-6.27,22.37-8.41,33.39-4.7,3.96,1.33,7.71,3.4,10.65,6.37s5.01,6.87,5.41,11.03c-2.81-4.32-6.19-8.36-10.48-11.22s-9.58-4.44-14.66-3.59"/>
    <path class="cls-5" d="M159.19,275.45c-.39-3.56.4-7.23,2.21-10.32s4.62-5.58,7.91-6.99c-3.72,3.46-5.51,8.51-6.63,13.47"/>
    <path class="cls-5" d="M219.8,276.71c.61-1.53.36-3.3-.32-4.8s-1.75-2.79-2.82-4.05c2.77.97,5.22,2.84,6.88,5.26.47.68.89,1.44.96,2.26s-.26,1.73-.98,2.13-1.82.06-2.02-.75"/>
  </g>
  <g id="GILAP_WAJAH" data-name="GILAP WAJAH">
    <path class="cls-4" d="M197.76,309.43c.63-1.18,1.28-2.46,1.13-3.79-.16-1.42-1.23-2.6-2.48-3.28s-2.68-.94-4.09-1.19c-4.92-.88-9.83-1.76-14.75-2.64-.92-.16-1.97-.3-2.71.29-.98.79-.75,2.35-.24,3.5,1.1,2.5,3.01,4.53,4.53,6.79,4.16,6.22,5.18,14.44,2.67,21.5-.32.9-.62,2.08.13,2.66.47.36,1.18.27,1.68-.06s.84-.84,1.16-1.34c4.74-7.31,8.88-14.76,12.97-22.44Z"/>
    <path class="cls-4" d="M279.83,275.63c-1.58,8.59-.21,17.43,1.58,25.97,2.04,9.77,4.62,19.45,5.95,29.35.14,1.06.22,2.27-.51,3.04-1.33,1.42-3.61.06-5.19-1.07-5.99-4.28-14.57-4.54-20.81-.64-1.01.63-2.14,1.39-3.29,1.09-.88-.23-1.47-1.03-1.91-1.83-2.53-4.56-2.09-10.11-1.74-15.32.64-9.6.71-19.24.2-28.85-.73-13.83-2.6-28.07,1.67-41.24,4.42-13.61,15.03-24.49,27.09-32.18-7.81,8.43-13.44,18.84-16.23,29.99-.58,2.34-.91,5.18.86,6.82,1.26,1.16,3.22,1.26,4.85.75s3.05-1.54,4.51-2.44c4.17-2.59,8.91-4.24,13.78-4.86,1.77-.23,10.44-1.39,10.98,1.11.44,2.02-5.49,5.32-6.74,6.26-3.52,2.68-6.59,5.84-9.07,9.51-2.95,4.38-5.03,9.35-5.99,14.55Z"/>
    <path class="cls-4" d="M336.4,423.35c-3.28.92-6.56,1.83-9.84,2.75,22.86-24.48,37.6-56.42,41.4-89.7s-3.35-67.72-20.1-96.73c3.69-1.23,5.29-5.83,4.61-9.66s-3-7.13-4.97-10.48-3.71-7.18-3.03-11.01c.71-4.01,3.84-7.05,6.42-10.2,7.04-8.61,10.68-19.93,9.96-31.03,8.71,15.57,9.79,35.18,2.84,51.61-.74-3.1-1.49-6.2-2.23-9.3-4.79,36.12,15.18,71.45,14.04,107.87-.52,16.47-5.34,32.49-10.6,48.11-5.98,17.75-12.75,35.65-24.54,50.21"/>
    <path class="cls-4" d="M375.11,292.12c-5.59-19.19-9.36-38.92-11.23-58.82-.42-4.47-.74-8.95-.61-13.44.07-2.58.3-5.18-.11-7.73-.41-2.55-1.56-5.1-3.68-6.57-3.99,29.01-.5,59.01,10.05,86.32"/>
    <path class="cls-4" d="M320.97,166.73c-2.51-2.82-7.01-3.31-10.45-1.73s-5.85,4.87-7.16,8.42-1.63,7.37-1.83,11.15c-.16,2.85-.23,5.8.87,8.43s3.72,4.84,6.55,4.56c1.94-.19,3.59-1.47,4.98-2.83,3.89-3.83,6.66-8.89,7.76-14.25.87-4.29,2.52-10.12-.72-13.75Z"/>
    <path class="cls-4" d="M317.65,186.71c2.42-2.71,4.86-5.46,6.64-8.62s2.89-6.84,2.41-10.45c-.62-4.65-4.03-8.81-8.46-10.33s-9.68-.32-13.02,2.97c2.74-1.47,5.96-2.17,9.02-1.6s5.92,2.49,7.3,5.28c1.32,2.68,1.2,5.87.53,8.78-1.3,5.72-4.62,10.96-9.23,14.58"/>
    <path class="cls-4" d="M338.64,332.02c10.65-5.5,17.42-17.72,16.45-29.67-.3-3.63-1.29-7.3-3.49-10.2s-5.74-4.93-9.38-4.69c-2.65.17-5.07,1.48-7.4,2.76-8.22,4.51-16.44,9.03-24.66,13.54-1.03.57-2.19,1.33-2.25,2.5-.05.88.56,1.65,1.13,2.32,6.14,7.19,12.28,14.38,18.43,21.58,1.5,1.75,3.18,3.62,5.45,4.03,3.08.56,5.87-1.73,8.16-3.86"/>
    <path class="cls-4" d="M335.51,388.93c-4.9,7.1-11.4,13.17-15.05,20.99-.46.98-.85,2.21-.2,3.07,1.01,1.36,3.16.36,4.45-.73,19-15.97,34.33-37.41,38.74-61.83.97-5.35.73-11.5-4.85-14.16-3.7-1.77-7.78-.39-10.31,2.67-3.75,4.53-2.48,9.89-2.37,15.28.12,5.83-.65,11.68-2.24,17.29-1.75,6.2-4.51,12.13-8.17,17.43Z"/>
    <path class="cls-4" d="M278.2,417.24c-3.9.18-7.78.65-11.65,1.11-4.5.54-9.1,1.11-13.14,3.14-2.22,1.12-4.39,2.95-4.63,5.42-.19,1.9.81,3.69,1.78,5.33,1.64,2.79,3.28,5.59,4.92,8.38,1.12,1.92,2.35,3.93,4.32,4.95,3.07,1.6,6.76.29,10.15-.44,3.88-.83,7.89-.85,11.8-1.5s7.91-2.05,10.51-5.05c3.36-3.86,3.04-9.24.14-13.11-1.57-2.1-2.89-4.76-5.01-6.34-2.64-1.96-6.03-2.05-9.19-1.9Z"/>
  </g>
  <g id="GELAP_BIBIR" data-name="GELAP BIBIR">
    <path class="cls-8" d="M197.42,378.87c12.31,4.88,25.3,8.02,38.48,9.3,5.52.54,11.06.75,16.6.64,20.1-.4,39.85-5.05,59.42-9.67.27,2.54-2.69,4.05-5.14,4.77-12.78,3.73-25.97,6.03-39.24,7.17-5.62.48-11.25.75-16.88,1.02-3.66.18-7.34.35-11,.16-4.72-.25-9.38-1.1-14.01-2.05-5.99-1.22-11.94-2.59-17.86-4.1-3.09-.79-6.33-1.72-8.53-4.03"/>
    <path class="cls-8" d="M243.61,391.44c-5.8.3-11.57,1.24-17.17,2.81-1.6.45-3.38,1.13-3.98,2.67-.45,1.15-.09,2.45.42,3.58,1.65,3.65,4.75,6.41,7.75,9.06-12.56-3.79-23.11-13.71-27.68-26,3.38.27,6.75.55,10.13.82"/>
    <path class="cls-8" d="M224.33,404.05c2.84,2.21,5.79,4.28,8.83,6.21-4.6.4-9.33-.96-13.01-3.75s-6.27-6.98-7.13-11.51"/>
    <path class="cls-8" d="M242.67,369.51c2.86,1.1,5.64,2.39,8.32,3.86,1.43.78,2.91,1.69,3.64,3.15.86,1.72.44,3.87-.66,5.45s-2.77,2.65-4.5,3.49c-7.2,3.46-15.61,3.22-23.51,2.06-6.58-.96-13.07-2.51-19.34-4.73-2.96-1.05-5.86-2.24-8.76-3.43,6.62-.55,12.83-3.3,19.04-5.65,6.21-2.36,12.85-4.38,19.42-3.38"/>
  </g>
  <g id="GILAP_BIBIR" data-name="GILAP BIBIR">
    <path class="cls-12" d="M286.31,383.73c.37-4.16.73-8.31,1.1-12.47"/>
    <path class="cls-12" d="M290.07,371.42c-.51-1.8-2.57-2.79-4.43-2.68s-3.57,1.04-5.18,1.99-3.26,1.94-5.11,2.18c-1.32.17-2.65-.05-3.96-.22s-2.68-.28-3.95.11-2.43,1.39-2.65,2.7c-.26,1.59.88,3.06,2.12,4.08,4.37,3.61,10.47,4.34,16.12,3.84s11.16-2.07,16.81-2.46c2.93-.2,5.94-.1,8.7-1.09.31-.11.66-.28.74-.6.16-.62-.72-.94-1.36-.98-3.64-.26-7.21-1.38-10.35-3.23"/>
    <path class="cls-12" d="M303.93,387.31c-9.34,0-18.03,4.58-27.21,6.32-5.76,1.09-11.66,1.06-17.51,1.51-.78.06-1.63.16-2.19.71-.77.76-.65,2.01-.48,3.07.36,2.21.83,4.64,2.6,6.03,1.42,1.11,3.33,1.27,5.13,1.36,8.33.4,17.06.03,24.35-4.01,3.94-2.18,7.25-5.33,10.51-8.44"/>
    <path class="cls-12" d="M231.36,395.68c-2.16,3.39-2.34,7.94-.47,11.5-.39-.74-1.07-1.31-1.43-2.1s-.58-1.65-.66-2.51c-.13-1.54-.15-3.36.59-4.75.46-.86,1.14-1.61,1.97-2.13Z"/>
    <path class="cls-12" d="M233.22,400.35c.08-2,1.31-3.92,3.11-4.81-.71-.1-1.42.24-1.93.73s-.86,1.14-1.16,1.78c-.69,1.47-1.22,3.04-1.27,4.66s.43,3.3,1.54,4.48c.18-1.3-.18-2.61-.37-3.91s-.15-2.75.69-3.76"/>
    <path class="cls-12" d="M235.82,400.16c.21-1.83,1.15-3.57,2.57-4.75-1.34,1.49-2.46,3.26-2.83,5.23s.11,4.18,1.56,5.57c-1.18-1.37-1.6-3.36-1.07-5.09"/>
  </g>
  <g id="GELAP_MATA" data-name="GELAP MATA">
    <path class="cls-10" d="M174.9,259.67c-1.71.71-3.1,2.02-4.33,3.41-.94,1.07-1.83,2.25-2.23,3.62-.34,1.17-.3,2.43-.06,3.62s.66,2.34,1.08,3.49c-.88-.81-2.11-1.15-3.31-1.13s-2.36.38-3.46.84c-.33.13-.8.23-.96-.09-.1-.2,0-.44.11-.64,1.49-2.75,3.44-5.26,5.73-7.38"/>
    <path class="cls-10" d="M166.98,270.25c1.32-4.36,4.54-7.93,8.14-10.72-4.03,1.31-7.68,3.79-10.38,7.07"/>
    <path class="cls-10" d="M215.37,270.71c-.81-.3-1.72-.3-2.53,0-.25.1-.52.24-.61.49-.16.42.22.83.51,1.18.68.84.95,2.01.69,3.06-.11.45-.29.99.03,1.33.29.31.8.22,1.21.1.96-.27,1.92-.54,2.88-.82.35-.1.75-.24.9-.57.13-.29.03-.62-.07-.91-.39-1.09-.85-2.15-1.39-3.17"/>
    <path class="cls-10" d="M290.42,269.94c1.18-.14,2.32.66,2.9,1.7s.72,2.26.78,3.44c.02.45.03.91-.13,1.34s-.53.79-.98.82c-.37.02-.71-.18-1.03-.36-1.5-.85-3.2-1.36-4.92-1.48.64-.94,1.28-1.88,1.92-2.83"/>
    <path class="cls-10" d="M336.75,257.27l.15-.05"/>
    <path class="cls-10" d="M336.63,256.46c1.17,1.16,2.3,2.37,3.21,3.74s1.6,2.92,1.81,4.55c.24,1.83-.14,3.7-.81,5.42s-1.65,3.3-2.65,4.85c1.85-2.43,3.75-4.82,5.7-7.17.81-.97,1.68-2.1,1.54-3.36-.1-.89-.7-1.65-1.37-2.25s-1.43-1.1-2.03-1.77c-.31-.35-.57-.75-.91-1.08s-.78-.59-1.25-.57"/>
  </g>
  <g id="GILAP_MATA" data-name="GILAP MATA">
    <path class="cls-2" d="M183.48,266.36c-.1.7.16,1.43.65,1.93s1.21.77,1.91.75c.99-.03,1.95-.66,2.32-1.58s.12-2.07-.63-2.71c-.75-.64-1.95-.7-2.75-.1.02-.02.02-.04.02-.07-.79.11-1.42,1.03-1.52,1.77Z"/>
    <path class="cls-2" d="M316.12,266.49c.33,1.44-.35,3.04-1.61,3.81s-3,.64-4.13-.31-1.55-2.64-1.01-4.01c1.25-3.16,5.99-2.79,6.74.51Z"/>
    <path class="cls-2" d="M313.91,264.62c-.16-.3-.15-.66,0-.97s.39-.55.68-.71c.64-.36,1.51-.33,2.09.12s.82,1.32.51,1.99-1.18,1.03-1.87.75c-.1-.04-.2-.11-.23-.21s.09-.23.18-.17"/>
    <path class="cls-2" d="M184.78,265.69c-.33.05-.69-.03-.97-.22-.15-.1-.29-.23-.38-.39-.1-.18-.13-.4-.11-.6.04-.51.39-.99.86-1.19s1.05-.12,1.45.21.59.88.49,1.38"/>
  </g>
  <g id="Layer_13" data-name="Layer 13">
    <path class="cls-3" d="M127.55,274.36c-.2-.62-2.02-4.09-2.02-4.09,0,0-2.05-2.94-2.77-3.14s-3.57-1.98-4.01-2.49-2.14-1.27-2.66-1.6-3.16-2.4-3.57-2.65-2.7-1.23-3.18-1.37-3.16-1.16-3.6-.7-2.86,1.67-2.86,1.67c0,0-4.75-8.99-4.9-9.06s-4.03-6.62-4.19-6.81-2.7-2.37-3.11-2.53-2.96-1.14-3.05-1.19,1.72-1.35,1.79-1.53.2-2.41.3-2.56.5-7.39.43-7.76.19-3.26.07-3.85.04-1.73-.14-2.04-.56-1.35-1.15-1.77-1.23-1.44-1.56-1.85.73-3.63.89-4,1.52-2.5,1.75-3.06,1.04-2.12,1.11-2.52.55-1.54.55-2.02-.09-1.9-.19-2.24-.19-1.42-.45-2.02-.37-2.03-.45-2.12,3.38-.99,3.51-1.19,1.46-1.03,1.5-1.38.79-1.75.88-2.28.71-1.45.54-2.29-.27-1.16-.16-2.09.2-2.02.14-2.24-.04-.1.44,0,2.03.32,2.32.53,1.29.32,1.52.22,1.05-2.38.85-3.23-.67-2.27-.87-2.83-.34-1.62-.43-2.07-1.49-6.61-1.49-6.76,1.4-9.11,1.5-9.45,3.09-9.14,3.22-9.25,3.23-6.52,3.21-6.33.69,1.23,1.13,1.99,1.58,1.84,1.58,1.84c0,0,.82.36,1.22.98s2.94,2.85,3.16,3.4,1.1,2.67,1.13,3.03.56,2.47.69,3.06,1.04,4.98,1.3,5.74,1.5,2.52,1.67,2.69,1.54.79,1.76.82,2.15-1.49,2.19-1.91.78-2.9.84-3.41.65-2.24.8-2.7,2.73-5.3,2.81-5.9.79-1.84.93-2.23,1.13-2.47,1.46-2.94,4.25-8.16,4.34-8.59,1.26-2.16,1.22-2.63-.19-1.13-.38-1.94-2.05-7.47-2.2-7.68-2.56-5.83-2.6-6.21-1.17-5.56-1.23-5.77.54-5.6.53-5.92,1.88-8.15,1.89-8.43,1.9-4.67,2.25-5.21,2-1.55,2.15-1.71,1.11-.7,1.12-.22.27,1.77.37,2.52.29,2.83.53,3.06,2.5-.49,2.56-.57,1.74-1.14,1.91-1.49,1.14-1.14,1.3-1.78.61-1.77.73-2.27.87-9.74.94-9.92,2.17-9.3,2.17-9.3c0,0,3.31-7.86,3.3-7.95s2.77-4.97,2.79-5.16.35-1.36.16-1.37-3.11.77-3.7.89-2.69,1.14-2.68.71,1.99-1.79,2.62-2.54,2.56-2.03,3.13-2.42,6.96-5.57,7.26-5.88,7.39-3.35,7.31-3.26,7.95-1.34,7.78-1.24,3.8.16,3.89.15-.97-1.33-1.32-1.43-2.21-.64-2.75-.71-7.19-.64-7.4-.71-7.84-.1-8.09-.12-6.57.26-7.05.27-3.61.82-3.85.74-.46-.3.62-1.07,3.39-1.71,4.25-2.21,9.67-4.3,10.05-4.39,13.33-3.46,13.58-3.51,13.45-1.27,13.59-1.35,3.41.63,4.6.72,2.96.46,3.9.69,13.31,3.42,13.55,3.39,4.25,1.56,5.19,1.83,3.38.84,3.93,1.13,14.43,6.68,15.15,6.95,3.36,1.82,4.23,2.22,1.82,1.12,2.53,1.79,10.2,7.15,10.47,7.23,1.84,2.21,2.36,2.73,1.71,1.81,2.61,2.58,9.09,11.34,9.32,11.38,3.6,8.87,3.79,9.1.95,3.62.96,4.04-.1,1.91.12,1.72,2.23-1.68,2.55-2.07,5.54-2.61,5.76-2.63,6.62-1.91,6.78-1.9,6.43-1.1,6.54-1.1,6.86-.3,6.94-.33,6.2,2.29,6.57,2.27,2.23.67,1.82.07-3.12-2.91-3.31-3.23-1.9-1.62-2.45-2.03-8.39-3.25-8.73-3.34-3.05-1.57-3.64-1.61-9.05-2.93-9.88-3.42-4.29-2.35-4.77-2.34-3.68-2.11-4.09-2.35-5.01-3.8-5.62-4.21-2.84-2.09-3.77-2.79-2.54-1.72-3.14-2.33-4.62-4.86-5-5.38-1.99-2.49-2.36-3.12-4.12-4.48-4.28-4.82-1.64-2.59-1.47-2.9-.12-2.54-.09-3.32.05-6.17.32-6.61,2.23-4.13,2.52-4.36,5.51-4.67,5.59-4.89,4.57-2.72,4.71-2.73,7.06-1.2,7.25-1.05,3.25.44,3.88.47,2.56.16,3.39.21,5.78.91,6.25.95,2.68,1.46,3.7,1.64,2.98.73,3.61.98,1.63,1.29,1.05,1.19-2.45-.24-3.89-.35-3.35-.14-4.97-.29-4.98.03-5.45.03-7.25,1.62-7.64,1.65-3.01,1.13-3.59,1.3-2.55,1.49-3.19,1.89-4.88,6.42-4.87,6.54-.93,3.65-1,4.03-.45,1.18-.34,2.07,1.26,5.12,1.33,5.51.92,1.77,1.03,2.16,4.61,5.04,4.76,5.21,2.55,2.08,3.15,2.37,6.2,4.08,7.1,4.26,3.8,1.43,4.86,1.73,3.41.95,3.88,1,8.22,1.8,8.54,1.85,1.72.89,2.75,1.26,10.86,5.48,10.96,5.34,3.08,2.05,3.58,2.31,7.31,5.23,7.5,5.33,2.46,2.75,3.03,3.32,1.32,1.95,1.98,2.67,1.74,2.59,1.9,2.69.19-2.3.25-2.75,3.89-3.26,4.14-3.41,6.03-2,6.17-2.01,6.34-.65,6.44-.62,7.36,2.06,7.45,2.06,7.31,3.87,7.22,3.86,5.48,4.19,5.86,4.49,1.35,1.4,2.04,1.51,1.81.06,2.27-.06,6.3.98,6.43.95,6.55,2.89,6.69,2.91,8.01,3.61,7.96,3.51,7.71,5.79,7.69,5.71,5.04,6.29,5.14,6.36,1.92,4.31,2.2,4.66,1.1,3.45,1.23,3.7.28,7.89.25,8.03-1.76,4.21-1.89,4.45-2.19,4.81-2.23,5.1-1.34,2.89-1.54,3.44-1.51,2.45-1.56,3.02-.64,1.77-.68,2.33-.17,1.6-.17,1.6c0,0,3.7,2.82,3.84,3.06s4.87,3.83,4.76,3.92,3.3,6.95,3.35,7.05,2.28,6.2,2.28,6.2l1.53,6.16s.34,7.14.41,7.23-1.02,7.4-.92,7.4-1.78,7.11-1.72,7.02-2.62,6.35-2.64,6.45-1.45,1.82-1.4,2.18,2.61,6.78,2.68,6.93,1.05,8.79,1.12,8.61-.97,8.45-.98,8.7-3.19,10.83-3.19,10.83c0,0-4.47,7.95-4.7,8.33s-2.04,2.57-1.92,2.18.85-3.48.67-4.19-1.41-7.34-1.46-8.17-.41-5.53-.64-5.57-1.43-3.61-1.96-4.1-1.34-2.56-1.66-2.13-1.67,1.85-2.25,2.79-2.2,5.23-2.39,5.79-2.79,7.38-2.84,7.71-.92,13.98-.96,14.38.3,11.17.33,11.72,1.14,5,.99,5.07-.76.55-1.2,0-7.13-8.13-7.17-8.34-1.37-3.97-1.57-4.41-.87-3.58-1.08-4.17-.82-3.75-.96-3-.34,6.12-.61,7.16-.37,3.38-.73,2.79-1.67-6.59-2.01-7.06-.9-2.56-1.21-3.43-2.36-12.08-2.42-12.33-1.88-14.88-1.91-15.72-.8-14.11-.87-14.42-.3-3.22-.33-3.61-.22-1.92-.22-1.92l-.02-3.52s1.72,2.63,2.37,4.03,1.45,3.83,1.54,4.36,1.47-3.29,1.42-4.49.31-3.28.27-4.25.42-2.38.26-3.46.06-11.28,0-11.62-.07-1.18-.19-1.83-.06-3.47-.34-3.76-.51-2.63-.67-3.3-.17-2.78-.17-2.78c0,0-1.31-4.11-1.66-4.64s-.64-1.76-1.1-2.62-.52-1.69-.89-2.28-1.19-2.47-1.37-1.58-.19,1.82-.52,3.03.09,1.96-.33,3.15-.52,2.2-.94,3.51-2.22,10.03-2.46,10.51-.24,1.36-.75,2.31-2.84,8.7-3.39,9.12-.78,1.57-1.43,1.76-.46-.86-.47-1.44.66-3.52.49-4.09.08-2.15-.31-3.54-.35-2.9-.48-3.7-.69-6.9-1.06-7.4-1.38-2.59-1.85-3.19-1.36-2.36-1.77-2.98-.72-1.7-.91-1.4.14.95-.12,2.81.12,3.12-.11,3.78-.65,9.88-.73,10.32-1.77,8.07-2.35,8.61-2.19,3.37-2.44,3.52-.94,1.42-1.43,1.68-1.38,1.03-1.28.56,1.7-5.49,1.49-6.25.13-3.16.06-4.15.36-3.7.24-4.35.02-2.4-.18-3.51-1.17-10.36-1.27-10.52-.36-1.53-.76-2.57-.62-1.95-1.1-3.3-.59-2.25-.87-2.9-3.48-6.55-3.77-6.84-.64-.92-1.08-1.3-1.34-2.02-1.92-2.41-6.15-5.26-6.6-5.54-.6-.37-1.55-.54-1.9-.4-2.64-.46-1.68.09-2.01.04-1.36,0-1.36,0c0,0-1.35.58-1.62.67s-4.32,3.5-4.55,3.62-5.77,5.82-6.13,6.25-3.26,4.62-3.39,5.07-2.34,8.75-2.34,9.17.22,4.38.09,4.66-.03,3.59-.05,3.79.59,2.12.6,2.46.7,5.83.97,6.99.98,3.65,1.25,4.23.63,1.29,1.06,2.17,1.05,1.09,1.35,1.88,1.79,2,2.38,2.41,1.37,1,2.25,1.44,1.84.57,2.49,1.13,1.68,1.25,2.6,1.25,2.59-.07,2.98-.04,1.64-1.13,2.14-1.34,5.34-2.73,5.43-3.24.5-.73,1.58-1.47,1.59-1.56,2.06-2.56.96-3.11,1-3.5.95-2.45.82-2.99.19-.31.28-1.97.28-1.36.66-2.9.8-2.53.98-2.97.39-1.72.6-1.54.56.19.43,1-.02,1.04-.22,2.22.1,1.11-.22,2.22.03,1.08-.29,2.13-.16,1.04-.51,2.03-.43,1.44-.76,2.32-.28,1.5-.8,2.31-.6,1.58-.76,2.12-.35.85-.67,1.7-.21,1.02-.59,1.46-.32.09-.85,1.11-.14,3.02-.8,3.15-2.82,3.53-3.35,3.38-2.3,1.51-3.06,1.64-1.34.55-2.14.84-1.59.53-2.62.52-7.33.11-8.03-.24-5.19-2.66-5.79-3.3-1.96-1.9-2.47-2.26-6.89-6.78-7.2-7.29-.69-2.1-.91-2.76-.9-2.34-1.19-2.99-.83-2.97-1.08-3.49-.7-3.68-.93-4.24-.9-8.77-.94-9.38-.27-1.31.37-2.86.86-.99,1.35-2.78-.13-2.91-.04-3.06.88-2.33,1.25-3.1,1.26-2.46,1.78-3.55,1.24-2.42,1.6-3.09,1.32-2.64,1.26-3.04-.57.07-1.66.65-2.13,1.4-2.79,1.72-6.52,4.58-6.63,4.65-6.3,2.28-6.59,2.32-7.81,1.63-7.81,1.63c0,0-7.18.5-7.33.41s-7.06-1.9-7.54-2.21-3.25-1.66-3.25-1.66c0,0-2.58-.08-2.73.09s-6.16,2.88-6.32,2.83-4.7,1.17-4.91,1.26-3.16.39-3.6.35-2.13.23-2.52-.09-3.26-.6-3.34-.67-3.68-.59-3.86-.83-1.94-.3-1.94-.3c0,0-1.92-.12-2.76,0s-1.45.69-1.86.77-4.42,1.62-4.59,1.81-1.2.78-1.4.93-.44.44-1.26,1.24-1.53,1.7-2.12,2.45-1.34,2.09-1.61,2.57-2.3,5.03-2.38,5.27-.21.69-.44,1.82-.25,1.54.12,2.34.56.77.86,2.05,1.03,1.55,1.27,2.26,5.07,5.02,5.6,5.4,7.87,1.87,8.09,1.91,3.24,1.67,4.28,1.68,10.69-.43,11.35-.59.88-.08,2.92-.38,5.77-2.08,5.86-2.08,3.48-1.5,3.66-1.59,1.36-.57,2.45-1.11,1.99-1.24,1.99-1.24c0,0,1.42-.66,1.37-.71s-.45,1.83-.62,2.02-.02.57-.32,1.29.16.53-1.06,1.71-1.99,2.24-2.76,3.16-4.54,3.9-5.46,4.34-1.76,1.17-3.26,2.07-1.78,1.49-2.73,1.8-1.92.81-2.81.84-7.87,1.45-7.95,1.31-1.11.08-1.83.03-2.79-.04-3.54-.26-2.33-.58-2.52-.54-8.28-1.47-8.62-1.78-1.84-.47-2.8-.78-2.76-.32-3.27-.38-7.42-3.02-7.45-3.44-1.51-.9-2.08-1.11-2.46-1.11-2.67-1.25-4.86-4.07-4.99-4.54-.9-.86-1.18-1.51-.79-1.26-1.14-1.81-1.09-1.32-1.13-1.66-.17-1.5-.19-1.65-.16-.54-.16-.54c0,0-.16.21-.55.27s-1.17.77-1.37.86-.78-.04-1.01.17-.71.67-1.25,1.13-1.07,1.08-1.66,1.49-1.34.82-1.66,1.14-3.23,3.41-3.53,3.82-1.38,1.43-2.02,2.01-1.44,1.33-1.91,1.77-1.34,1.31-1.18,1.2-3.73,4.09-4.07,4.4-1.06,1.4-1.93,2.05-1.58,1.63-2.29,2.28-.91.91-1.71,1.89-1.03,1.13-1.27,1.58-3.45,4.14-3.76,4.54-.73.63-.62,1.37-.28,1.32-.13,2.47.58,3.13.25,3.75-.08,1.62-.49,2.49-.57,2.13-.66,3.09-.17,4.86-.19,5.27.46,1.53-.07,2.59-1.63,7.35-1.87,8.26-.99,5.9-1.28,6.99-1.47,8.7-1.58,9.14-.26,2.77-.91,3.61-.21,2.65-.82,4.07-.54,2.83-1.08,4.18-.4,2.4-.97,3.7-1.41,2.88-1.71,3.95-.67,1.86-1.22,3.31-1.05,2.57-1.05,2.57c0,0-.65-1.12-.75-1.99s.21-.67.13-1.81.2-1.14.02-1.91.33-.15-.15-1.61-.39-.75-.55-2.24-.07-1.88-.31-2.67-.48-1.77-.61-2.02-.43-.66-.54-.95.07-.86-.21-.64-.83,1.03-1,1.52-.5,1.25-.5,1.25l-.45-.69Z"/>
  </g>
  <g id="gilaprambut">
    <path class="cls-11" d="M270.39,97.29c-4.21-14.16-14.94-25.49-26.67-34.48,5.39,6.29,10.63,12.7,15.72,19.23-8.96-9.35-19.33-17.35-30.66-23.62,9.42,7.59,18.23,15.93,26.31,24.94-10.77-8.19-21.71-16.47-34.25-21.55,14,8.92,26.33,20.47,36.13,33.87-11.46-8.94-23.08-17.97-36.46-23.64,12.76,8.5,25.73,17.19,35.3,29.16-12.47-7.75-25.35-15.66-39.83-18.08,12.23,4.69,24.78,9.57,34.44,18.42-11.23-2.71-22.46-5.42-33.69-8.13,4.73,1.51,9.46,3.02,14.19,4.54,7.04,2.25,14.38,4.69,19.52,10-10.8-2.33-21.61-4.66-32.57-5.98,1.64,2.07,4.58,2.44,7.2,2.84,13.26,2.02,25.71,8.97,34.38,19.2.83.97,1.87,2.08,3.13,1.9.75-.11,1.35-.66,1.89-1.18,2.31-2.21,4.62-4.42,6.93-6.64-.7,4.47-2.87,8.69-6.08,11.86,5.14-3.91,10.35-7.88,14.3-12.98,3.96-5.1,6.58-11.57,5.77-17.97-2.67,1.29-5.35,2.57-8.02,3.86-.59.28-1.23.57-1.87.47-.96-.15-1.6-1.14-1.68-2.1s.26-1.91.6-2.81"/>
    <path class="cls-11" d="M266.01,23.33c7.77-1.16,15.67,1.23,22.73,4.68-5.56-.46-11.19-.92-16.7-.06s-10.99,3.2-14.58,7.47c.04-2.6.12-5.35,1.48-7.57,1.22-2.01,3.46-3.36,5.81-3.51"/>
    <path class="cls-11" d="M324.42,95.1c-.78-1.56-1.99-2.86-3.18-4.13-5.69-6.12-11.53-12.35-18.92-16.26-6.22-3.29-13.21-4.76-19.87-7.03-.77-.26-1.53-.56-2.3-.85-3.25-.9-6.49-1.88-9.52-3.38-1.69-.84-3.3-1.87-4.76-3.06-.56-.46-1.08-.95-1.6-1.45-3.6-2.29-7.03-4.84-10.25-7.64,2.48,4.89,6.77,8.68,11.53,11.39,4.77,2.71,10.03,4.42,15.28,5.99,5.36,1.6,10.79,3.09,15.87,5.42,5.08,2.34,9.87,5.6,13.15,10.13-2.32-1.85-4.65-3.7-6.97-5.55,7.7,5.8,13.53,14.03,16.45,23.21l5.53-1.74c.65-1.62.33-3.5-.45-5.06Z"/>
    <path class="cls-11" d="M271.76,102.12c.4-2.6.88-5.35,2.63-7.32,1.61-1.81,4.02-2.64,6.35-3.29,5.09-1.42,10.33-2.33,15.61-2.7,4.98-.35,10.21-.17,14.63,2.14,3.93,2.05,6.97,5.75,8.21,10.01.14.49.25,1.06-.06,1.46-.36.46-1.05.44-1.63.37-2.07-.25-4.14-.5-6.21-.75-.81-.1-1.63-.19-2.42,0s-1.54.73-1.75,1.52c-.22.84.22,1.7.55,2.51s.53,1.83-.07,2.47c-.45.49-1.2.55-1.86.58-2.03.09-4.08.18-6.06-.26-1.76-.39-3.42-1.18-5.2-1.38-3.25-.36-6.35,1.27-9.21,2.86-.23-2.75.44-5.56,1.88-7.91.38-.62.82-1.22.99-1.92s0-1.55-.61-1.93c-.65-.4-1.5-.13-2.21.18-3.45,1.52-6.56,3.79-9.05,6.61"/>
    <path class="cls-11" d="M323.17,101.63l-.74.26c1.61-.74,3.4-.96,5.16-1.21s3.55-.54,5.1-1.4,2.83-2.41,2.9-4.18c.03-.77-.17-1.54-.22-2.31s.09-1.62.65-2.15c.79-.74,2.04-.55,3.1-.33,4.14.9,8.27,1.8,12.41,2.69-.37-1.91-.8-3.94-2.18-5.32-1.09-1.09-2.63-1.6-4.12-1.99-3.15-.83-6.39-1.31-9.64-1.43-2.38-.08-4.79.03-7.08.69s-4.46,1.91-5.93,3.78-2.16,4.42-1.53,6.72"/>
    <path class="cls-11" d="M265.2,131.16l.78-.8c-2.45,6.32-7.35,11.32-12.13,16.14l12.08-10.53c-3.23,4.71-6.45,9.41-9.68,14.12,5.25-4.68,10.69-9.14,16.31-13.36l-12.06,15.04c6.65-4.82,12.93-10.15,18.76-15.94-2.92,4.54-5.85,9.09-8.77,13.63,5.36-5.2,10.72-10.4,16.08-15.6-2.51,3.92-5.03,7.84-7.54,11.76,4.64-5.06,9.28-10.12,13.92-15.18-1.85,3.93-3.7,7.87-5.55,11.8,3.26-5.27,6.78-10.37,10.55-15.29-1.66,4.17-3.32,8.33-4.98,12.5,2.6-5.05,6.72-9.3,11.69-12.04-1.86,3.24-3.73,6.48-5.59,9.73,3.55-3.03,6.61-6.64,9-10.65-.74,2.18-1.47,4.37-2.21,6.55,2.87-6.68,3.92-14.14,3-21.35-1.96,2.5-3.65,5.21-5.06,8.06-.57,1.15-1.11,2.36-2.06,3.22s-2.44,1.29-3.53.61c-.94-.58-1.32-1.78-1.29-2.88s.39-2.17.58-3.25c.13-.75.13-1.64-.47-2.11-.88-.69-2.11.13-2.91.9-5.09,4.94-10.17,9.88-15.26,14.81,1.9-5.21,3.81-10.42,5.71-15.62-6.83,6.15-14.46,11.42-22.64,15.61"/>
    <path class="cls-11" d="M140,119.91l-.97-1.17c-.54.92-.48,2.09-.12,3.09s1,1.88,1.57,2.78c3.09,4.78,4.84,10.42,4.99,16.11.43-3.73.85-7.45,1.28-11.18,1.95,3.46,3.92,6.93,5.27,10.67s2.06,7.78,1.44,11.7c-.37,2.29-1.06,5,.55,6.66.83.85,2.23,1.41,2.25,2.6.03,1.65-2.78,2.39-2.54,4.03,2.17.16,4.02-1.53,5.29-3.29,3.15-4.34,4.63-9.87,4.07-15.2-.1-1-.19-2.22.63-2.8.57-.41,1.35-.31,2.03-.12,3.62,1,6.42,4.04,7.89,7.5,1.46,3.46,1.74,7.3,1.63,11.05s-.59,7.49-.55,11.24c1.39-4.1,2.79-8.2,4.18-12.3.58-2.28.69-4.69.32-7.01-.6-3.85-2.46-7.37-4.47-10.71-2.57-4.26-5.43-8.34-8.57-12.2-.24-.29-.53-.61-.91-.6-.5.02-.77.58-.93,1.05-2.44,7.34-4.87,14.68-7.31,22.02-1.02-7.54-3.44-14.88-7.1-21.55-.76-1.39-1.63-2.8-2.97-3.64-1.01-.63-2.21-.9-3.22-1.52-2.44-1.51-3.16-4.67-3.66-7.5-1.07.25-1.9,1.28-1.9,2.38"/>
    <path class="cls-11" d="M127.6,208.67c2.22.47,4.36,1.34,6.28,2.56-3.93.38-7.91.3-11.83-.24,2.44.82,4.76,2.01,6.85,3.53-2.91.8-6.01.11-8.88-.8s-5.73-2.05-8.74-2.19c5.43,1.3,10.47,4.19,14.35,8.21-4.12-1.4-8.24-2.79-12.35-4.19,5.36,3.6,11.08,6.64,17.05,9.08-4.98,2.56-10.55,3.96-16.15,4.05,1.89,2.27,3.79,4.54,5.68,6.81-2.48,4.2-8.01,6.32-12.66,4.84,1.92,1.97,4.83,2.94,7.55,2.5s5.19-2.25,6.4-4.73c.57-1.15,1.07-2.61,2.33-2.89,2.25-.51,3.84,3.41,6.04,2.7.99-.32,1.45-1.5,1.43-2.54s-.39-2.05-.45-3.09c-.16-2.39,1.26-4.61,2.89-6.37s3.56-3.28,4.84-5.3c-3.69,1.99-8.75.89-11.29-2.45,3.68-1.4,7.44-2.56,11.27-3.46-1.57-.25-3.15-.51-4.72-.76-.21-.03-.46-.09-.54-.29-.11-.26.16-.51.39-.67,1.94-1.32,3.89-2.64,5.83-3.97-1.21-.31-2.41-.62-3.62-.92,1.93.49,5.06-2.57,5.66-4.11-2.65-.22-3.71,1.41-5.55,2.75-2.08,1.52-5.57,1.71-8.05,1.94Z"/>
    <path class="cls-11" d="M375.86,246.02c-.22,5.36.98,10.78,3.46,15.54-1.73-8.22,1.96-16.51,2.84-24.87.58-5.52-.1-11.18-1.97-16.41-.36,0-.72-.01-1.09-.02.93-4.56,1.85-9.12,2.78-13.68l-3.38,5.72c1.84-8.61,2.44-17.48,1.78-26.26l-2.02,5.3c.86-4.54.95-9.23.27-13.81l-.73,3.3c.09-5.31-1.34-10.64-4.08-15.19l-9.18-21.23c.81,8.47,2.16,16.89,4.06,25.18.58-1.78,1.16-3.56,1.74-5.34-.1,5.66-.19,11.32-.29,16.98,1.03-2.29,2.06-4.57,3.09-6.86.1,6.13.2,12.26.3,18.39l2.51-7.58c.06,7.8.12,15.6.18,23.4l2.33-6.11c-2.85,7.71-5.17,15.62-6.92,23.66,1.56-2.61,3.12-5.23,4.68-7.84l-1.62,10.04c-.44-.98.65-2.15,1.72-2.03s1.86,1.14,2.07,2.19-.03,2.14-.27,3.19c-.79,3.49-1.58,6.97-2.37,10.46"/>
    <path class="cls-11" d="M400.48,206.93c2.68,7.26,2.79,15.27,1.57,22.92s-3.75,15.01-6.26,22.34c1.54-.64,2.54-2.12,3.38-3.56,5.27-9.02,7.73-19.66,6.96-30.08-.16-2.12-.45-4.27-1.31-6.21-.45-1.02-1.06-1.98-1.46-3.02s-.59-2.23-.18-3.27"/>
    <path class="cls-11" d="M402.37,212.92l-2.67-7.35c-.32-.87-.64-1.77-.59-2.7.04-.84.39-1.64.7-2.42,3.06-7.62,3.71-16.16,2.09-24.21-1.63-8.05-5.51-15.61-10.93-21.78-.74-.84-1.52-2.13-.76-2.95.44-.47,1.18-.48,1.82-.35,2.54.5,4.52,2.46,6.15,4.47,5.43,6.69,8.79,15.05,9.48,23.65.7,8.59-1.26,17.38-5.54,24.87"/>
    <path class="cls-11" d="M402.13,207.36c2.1-4.52,4.02-9.19,4.83-14.11s.43-10.16-1.88-14.58c-1,6.6-2,13.21-3,19.81"/>
    <path class="cls-11" d="M403.75,205.66c2.1-5.69,2.93-11.85,2.41-17.9"/>
    <path class="cls-11" d="M389.71,154.14c1.96-4.25,3.93-8.52,5.16-13.03,1.23-4.51,1.69-9.32.6-13.87-1.88-7.84-8.01-13.86-14.11-19.13-6.12-5.29-12.91-10.48-20.92-11.63,1.51-1.34,3.66-1.79,5.67-1.61s3.93.91,5.8,1.68c9.61,3.96,19.2,9.58,24.22,18.69,4.48,8.13,4.59,18.5.29,26.73-1.38,2.65-3.24,5.25-3.28,8.24"/>
    <path class="cls-11" d="M396.93,141.88c2.52-2.83,4.02-6.55,4.16-10.34.09-2.51-.39-5.01-.97-7.45-.9-3.8-2.07-7.59-4.2-10.86s-5.34-5.99-9.15-6.81c2.41,1.19,4.09,3.47,5.44,5.8,2.92,5.04,4.74,10.72,5.32,16.51"/>
    <path class="cls-11" d="M321.34,118.31c1.44,3.9,2.9,7.82,3.55,11.93s.47,8.44-1.26,12.22c1.54-4.19,2.66-8.54,3.33-12.96,1.29,5.27,2.35,10.59,3.16,15.95.18-3.5.37-7.01.55-10.51,1.38,6.59,3.33,13.06,5.83,19.31-1.06-4.23-1.53-8.61-1.37-12.97,2.32,4.18,3.57,8.94,3.61,13.72.7-4.28,1.4-8.57,2.1-12.85,1.53,3.15,1.57,6.81,1.27,10.3s-.92,6.99-.57,10.48c.92-5.93,2.46-11.76,4.59-17.36l-.78,14.93,2.51-11.19c1.93,8.04,3.86,16.08,5.79,24.12-.04-8.27-.01-16.84,3.37-24.39,1.48-3.29,3.55-6.29,5.02-9.58s2.32-7.08,1.17-10.5c-1.82,6.04-3.86,12.43-8.68,16.5,2.09-9.44,1.97-19.36-.35-28.75-2.52,7.04-5.05,14.08-7.57,21.11-3.69-3.45-7.47-6.96-12.08-9-1.73-.77-3.59-1.33-5.11-2.46-2.98-2.19-4.36-6.27-7.7-7.86.04.66.07,1.32.11,1.97"/>
    <path class="cls-11" d="M329.23,116.23c-1.22-1.15-3.03-1.62-4.66-1.21.84,1.14,2.07,1.92,3.27,2.67,3.14,1.97,6.28,3.93,9.42,5.9.22.14.5.29.74.18.26-.12.32-.49.2-.75s-.37-.44-.61-.6c-3.74-2.57-7.49-5.14-11.23-7.71"/>
    <path class="cls-11" d="M200.13,162.15c-.43,4.65-2.3,9.03-3.68,13.5s-2.26,9.35-.71,13.76c1.55,4.41,5.42,7.75,9.77,9.46s9.16,1.93,13.82,1.53c7.11-.61,14.1-2.63,20.44-5.91-11.09,5.31-24.68,4.01-35.46-1.9-1.89-1.03-3.75-2.25-4.97-4.03-2.18-3.21-1.76-7.55-.49-11.22s3.3-7.08,4.15-10.87"/>
    <path class="cls-11" d="M184.06,157.62l.8-1.38c1.09,5.08,1.71,10.27,1.83,15.46l7.74-15.67c-.66,5.6-1.31,11.2-1.97,16.8,2.05-7.99,4.1-15.98,6.15-23.98,2.13,3.8,4.08,7.7,5.84,11.68,1.09-7.06,4.49-13.75,9.56-18.79-2.26,5.44-4.04,11.08-5.32,16.83,4.18-7.62,9.68-14.52,16.16-20.31-2.56,5.32-5.13,10.65-7.69,15.97,3.66-6.64,7.93-12.94,12.75-18.8-5-.68-10.27,1.18-13.74,4.84-.83.87-1.57,1.85-2.55,2.55s-2.29,1.09-3.4.62c-.78-.33-1.35-1.03-2.14-1.35-1.48-.6-3.22.44-3.95,1.87s-.72,3.1-.69,4.7c-.06-4.52.25-9.04.92-13.51-4.86,5.45-8.58,11.92-10.85,18.86-.28.87-.73,1.9-1.64,1.98-1.03.09-1.64-1.12-1.9-2.12-.72-2.75-1.07-5.59-1.05-8.43,0-.42-.06-.94-.46-1.07-.48-.16-.85.43-1.01.9-1.05,2.99-2.1,5.99-3.15,8.98"/>
  </g>
  <g id="INGKING">
    <path d="M306.21,377.02c2.87.33,5.76.37,8.64.14.49-.04,1.05-.06,1.38.3.45.48.17,1.25-.17,1.81-1.49,2.48-3.66,4.48-6.04,6.11-2.38,1.63-4.99,2.91-7.58,4.18.71-.12,1.31-.63,1.74-1.21s.76-1.24,1.18-1.82c1.37-1.9,3.72-2.9,5.13-4.76.43-.57.78-1.34.49-2-.29-.65-1.07-.91-1.76-1.09-.89-.24-1.78-.47-2.67-.71"/>
    <path d="M334,426.86c-1.55,2.47-5.37,4.72-7.61,6.59-2.62,2.19-5.28,4.33-7.98,6.43-5.45,4.23-11.05,8.26-16.79,12.08-11.48,7.64-23.51,14.46-35.98,20.37-3.09,1.47-6.56,2.59-9.51,4.3-.77.44-2.09,1.13-1.42,2.32.59,1.05,2.06.37,3.02.18,5.92-1.16,11.74-2.8,17.4-4.88,11.33-4.16,22-10.08,31.56-17.44,9.55-7.36,17.99-16.18,24.82-26.12.86-1.25,1.7-2.53,2.51-3.82Z"/>
    <path d="M226.54,342.83c-1.41.07-2.73,1.04-3.23,2.36s-.14,2.92.87,3.9c.69.67,1.6,1.04,2.49,1.39,2.68,1.06,5.41,2.13,8.28,2.43s5.96-.27,8.14-2.16c.17-.14.34-.31.37-.53.05-.35-.27-.64-.57-.84-3.14-2.2-6.64-3.88-10.31-4.96"/>
    <path d="M265.06,341.43c-1.45.75-2.8,1.68-4.01,2.78-.32.29-.64.62-.7,1.04-.08.59.38,1.11.81,1.53,1.41,1.34,3,2.58,4.87,3.13,2.05.6,4.26.3,6.31-.29s4.01-1.47,6.05-2.06c1.08-.31,2.25-.58,3.01-1.4.96-1.03.96-2.73.23-3.93s-2.05-1.96-3.42-2.3-2.8-.31-4.21-.26-2.83.12-4.21-.15"/>
    <path d="M272.58,339.05c-2.31-.68-4.88-.43-7.02.69-.24.12-.49.29-.54.55-.05.27.12.52.32.71.66.64,1.64.94,2.55.77"/>
    <path d="M273.33,339.5c-1.02-.69-2.45-.7-3.48-.03-.27.18-.53.43-.58.75-.05.39.23.76.57.93s.75.2,1.14.22"/>
    <path d="M261.25,345.62c-.34.26-.89.04-1.06-.35s-.04-.86.22-1.2.64-.57,1-.79c2.05-1.24,4.18-2.52,6.56-2.78"/>
    <path d="M281.47,342.64c.76.36,1.45,1.07,1.42,1.91-.03.81-.73,1.46-1.5,1.71s-1.6.16-2.4.08"/>
    <path d="M212.56,324.57c3.17-6.84,8.28-12.59,11.9-19.2-.46,3.37-1.63,6.65-3.41,9.54-2.92,4.75-7.49,8.57-9.23,13.87"/>
    <path d="M139.54,261.86c-.44,3.11-1.39,6.14-2.79,8.95-.41.82-.93,1.68-1.79,2-1.32.49-2.77-.59-3.38-1.86s-.7-2.73-1.19-4.06c-.69-1.87-2.15-3.37-3.83-4.45s-3.56-1.77-5.44-2.41c1.65-1.01,3.86-.8,5.54.15s2.93,2.55,3.88,4.24c.47.83.9,1.71,1.58,2.37s1.71,1.08,2.6.75c.89-.33,1.39-1.27,1.78-2.14,2.07-4.59,3.58-9.42,4.5-14.37-1.33,2.65-2.73,5.39-5.02,7.27-.79.65-1.76,1.2-2.78,1.09-1.68-.18-2.61-1.97-3.8-3.17-1.58-1.59-4.01-2.27-6.19-1.72-1.91.48-3.48,1.79-4.98,3.06,1.11-2.17,2.25-4.4,4.08-6.01,1.83-1.61,4.51-2.5,6.75-1.54,1.3.56,2.4,1.69,3.81,1.81,1.57.13,2.93-1.04,3.97-2.23,4.09-4.66,6.4-10.6,8.35-16.49-1.24,6.33-2.14,12.73-2.7,19.16"/>
    <path d="M139.96,261.87c-2.41,8.36-4.91,16.68-7.52,24.98-1.18-2.31-.94-5.06-.96-7.65s-.51-5.49-2.58-7.05c-.23,1.61-.86,3.15-1.82,4.46"/>
    <path d="M144.93,218.47c-1.08,1.23-2.61,1.96-4.01,2.82s-2.78,1.99-3.22,3.57c-.36,1.29-.03,2.67.06,4.01.28,3.91-1.5,7.75-4.04,10.75s-5.79,5.28-9.01,7.52c7.73-3.5,13.9-10.29,16.64-18.31.58,4.01-.81,8.12-3.09,11.46s-5.41,6.03-8.61,8.51c.65-.51,2.47-.57,3.3-.86,1.2-.43,2.36-.97,3.46-1.62,2.05-1.2,3.89-2.78,5.44-4.57,2.81-3.26,2.63-9.04,2.92-13.11.24-3.38.29-6.78.14-10.16Z"/>
    <path d="M145.44,225.56c.09-1.97-.33-4.04-1.55-5.59-.6,2.95-.86,6.16-.42,9.15.2,1.38.51,1.9,1.24.53.57-1.06.67-2.91.73-4.09Z"/>
    <path d="M145.37,227.42c.62-2.69.84-5.47.66-8.23-.01-.15-.03-.32-.14-.42-.24-.2-.58.07-.77.32-1.19,1.62-2.15,3.42-2.84,5.31.08-.18.16-.35.24-.53"/>
    <path d="M152.36,208.52c-4.41,8.97-15.71,13.88-25.27,11,8.5-.26,16.85-4.05,22.63-10.29-4.57,2.33-9.82,3.34-14.93,2.86,6.75-.19,13.42-2.68,18.65-6.95-4.87,2-10.35,2.5-15.51,1.43,6.61.67,13.44-1.19,18.8-5.12-5.12,2.6-11.5,2.53-16.56-.17,7.41.08,14.82-2.02,21.09-5.97-5.04,1.53-10.26,2.5-15.51,2.88,8.43-2.09,16.44-5.85,23.43-11-4.37,1.89-9.32,2.4-13.98,1.44,12.24.07,24.23-7.26,29.74-18.19.16,4.61-1.61,9.27-4.79,12.61,4.95-2.46,9.03-6.64,11.36-11.65-2.34,3.01-4.72,6.08-6.07,9.65s-1.54,7.78.42,11.05c2.06,3.44,6.03,5.22,9.86,6.4,17.63,5.42,37.76,1.97,52.58-9.02-.46,6.39-6.38,11-12.28,13.5-9.05,3.84-19.31,4.76-28.9,2.59-9.59-2.17-18.45-7.42-24.96-14.79-1.6-1.81-3.51-3.94-5.92-3.66-1.57.19-2.8,1.39-3.9,2.52-4.31,4.45-8.63,8.9-12.94,13.35"/>
    <path d="M156.56,204.78c-2.98.99-5.34,3.65-5.96,6.72,1.53-1.49,3.07-2.98,4.6-4.47"/>
    <path d="M194.85,199.92c-1.13-1.91-3.45-2.68-5.34-3.84-4.68-2.87-7.1-8.5-11.75-11.41.62,2.43,1.25,4.87,2.27,7.16s2.47,4.44,4.48,5.95c1.94,1.45,4.31,2.24,6.69,2.68,1.97.37,3.97.52,5.97.46"/>
    <path d="M178.47,186.9c-.13-.45-.62-.72-1.09-.71s-.89.28-1.22.61c-.24.24-.45.57-.38.9.11.51.77.65,1.28.6.95-.09,1.87-.52,2.57-1.18"/>
    <path d="M178.69,182.77c5.39-4.23,10.33-9.04,14.72-14.31-2.11,3.49-4.23,6.98-6.03,10.63-1.12,2.27-2.13,4.64-2.55,7.14s-.2,5.17,1.01,7.4"/>
    <path d="M198.46,176.51c2.79-7.23,2.42-15.61-1-22.56,1.61,3.6,3.22,7.2,4.82,10.79.31.7.67,1.44,1.34,1.8,1.16.63,2.54-.19,3.59-.99,6.19-4.75,11.79-10.27,16.63-16.39-3.09,3.69-5.57,7.89-7.3,12.38,6.08-2.12,11.57-5.9,15.71-10.82-2.09,2.78-4.17,5.56-6.26,8.34-.51.68-1.04,1.53-.72,2.32.27.64,1.05.94,1.74.87s1.31-.44,1.9-.8c6.75-4.19,12.64-9.75,17.22-16.24-3.18,4.5-6.42,9.12-7.95,14.41,7.54-4.14,14.34-9.62,19.98-16.11l-7.82,11.34c4.63-1.59,8.91-4.18,12.46-7.54-4.5,5.48-9.96,10.24-16.27,13.47-6.32,3.23-13.51,4.87-20.57,4.18-2.9-.29-5.79-.96-8.69-.73-5.4.44-10.07,3.94-13.79,7.89"/>
    <path d="M236.38,163.46c-5.45-.3-10.89-.59-16.34-.89-.77-.04-1.75.05-1.99.78-.25.75.52,1.43,1.22,1.8,3.12,1.67,6.77,2.34,10.28,1.88s6.87-2.04,9.45-4.46"/>
    <path d="M294.97,147.97c3.04-2.47,4.27-6.94,2.92-10.61-1.57,5.45-5.29,10.24-10.17,13.12,2-2.58,3.25-5.74,3.55-9,.05-.58-.21-1.41-.77-1.25-.3.09-.43.43-.52.73-2.14,6.93-7.81,12.67-14.72,14.87,3.49-3.77,7.08-7.73,8.55-12.65-2.68,3.52-5.38,7.06-8.72,9.96-3.34,2.9-7.4,5.14-11.8,5.58,4.26-2.71,8-6.22,10.97-10.3-5.47,5.61-12.36,10.4-20.17,11.07,4.62-2.81,8.75-6.45,12.11-10.69-6.15,4.54-13.15,7.76-20.09,10.95.98,2.22,3.02,3.85,5.26,4.75s4.71,1.15,7.13,1.18c12.27.16,24.51-5.11,32.81-14.14"/>
    <path d="M248.89,161.44l-1.53-1.01c-.32-.21-.65-.43-1.03-.48s-.82.12-.94.48c-.16.46.23.91.59,1.22.74.64,1.53,1.21,2.36,1.72"/>
    <path d="M295.48,148.18c5.57-4.56,11.14-9.12,16.71-13.68-8.03,7.18-15.44,15.3-20.19,24.97s-6.66,21.05-3.51,31.36,11.89,19.13,22.54,20.75c-8.67.66-17.27-4.12-22.28-11.22-5.01-7.11-6.68-16.23-5.74-24.88.94-8.65,4.33-16.88,8.67-24.42"/>
    <path d="M328.78,172.85c.69,7.08.33,14.26-1.08,21.24.09-3.34.18-6.68.26-10.02,0-.34-.08-.8-.43-.81-.29-.01-.45.33-.53.61-.46,1.61-.91,3.22-1.37,4.83-.08.3-.47,2-.63,1.08-.11-.68.23-1.7.33-2.38.48-3.17,1.13-6.32,1.94-9.42.23-.88.47-1.75.72-2.62.21-.72.77-1.76.77-2.5Z"/>
    <path d="M302.29,156.74c5.65-5.94,10.84-12.32,15.52-19.06-.7,3.12-1.71,6.17-3,9.09,4.49-2.77,8.57-6.19,12.08-10.12-2.81,3.38-4.5,7.68-4.73,12.07,2.15-2.72,4.3-5.44,6.45-8.17-2.4,4.3-2.56,9.78-.43,14.21,1.5-3.88,3.01-7.76,4.51-11.64-.74,6.99-.32,14.09,1.22,20.95,2.05-4.72,3.51-9.69,4.33-14.77.56,7.24.3,14.54-.76,21.72,1.47-2.92,2.94-5.84,4.41-8.76-1.47,5.89-2.93,11.78-4.4,17.67-.83-9.46-4.92-18.61-11.43-25.53-2.16-2.3-4.66-4.4-7.67-5.35s-6.6-.51-8.82,1.74"/>
    <path d="M346.44,157.35c-1.01,4.8-.47,9.92,1.52,14.41.26-2.15.51-4.3.77-6.45.86,4.87,1.73,9.75,2.59,14.62.6-1.94,1.2-3.88,1.79-5.82-.67,8.08-1.34,16.16-2,24.24.14-4.74,0-9.53-1.01-14.16-.73-4.4-2.96-9.4-6.09-12.63.02.18-.04.39-.04.54-1.94-.55-.72-5.14-.46-6.51.54-2.88,1.53-5.67,2.92-8.25Z"/>
    <path d="M377.55,215.07c-3.34,6.06-6.2,12.39-8.55,18.9,3.44-13.75,6.88-27.5,10.32-41.25-2.98,9.21-5.97,18.42-8.95,27.63,4.49-14.78,6.41-30.34,5.64-45.77-1.35,12.17-3.17,24.29-5.43,36.33,2.02-16.05,1.86-32.38-.47-48.39-.12,9.77-.23,19.53-.35,29.3-.22-15.13-3.05-30.22-8.33-44.4,1.41,5.69,2.81,11.38,4.22,17.07-3.35-4.75-5.61-10.26-6.56-15.99-.28,6.7-.55,13.41-.83,20.11-.94-3.29-1.87-6.58-2.81-9.86.77,7.49,1.53,14.98,2.3,22.48,1.21-5.35,2.41-10.69,3.62-16.04,4.32,10.93,6.37,22.75,5.99,34.49-.36,11.15-2.88,22.11-3.68,33.24-.14,1.9-.21,3.82-.22,5.74.34.19.57.54.52,1.06-.34,3.4.5,6.78,1.23,10.08.35,1.58.62,3.17.98,4.75.37,1.59.75,3.18.91,4.81.85,2,1.86,3.92,3.08,5.75l.19-7.38c2.04-9.35,4.98-18.5,8.76-27.29-3.73,5.79-6.54,12.17-8.29,18.83-.15-11.66,3.3-23.04,6.72-34.19Z"/>
    <path d="M365.26,229.77c.59-8.91,1.17-17.82,1.76-26.73-.01,4.06-2.91,7.52-3.92,11.45-.55,2.13-.53,4.37-.46,6.57.13,4.4.44,8.79.93,13.16"/>
    <path d="M270.08,22.82c-2.29.4-4.41,1.54-6.24,2.97s-3.42,3.16-4.99,4.87c1.91-1.47,4.03-2.66,6.28-3.54-3.5,2.8-5.95,6.74-7.65,10.89-1.14,2.78-1.98,5.73-2.07,8.74-.11,3.99,1.11,7.88,2.31,11.69-3.41-2.31-6.11-5.66-7.64-9.49s-1.89-8.11-1.01-12.14c.54-2.47,1.55-4.87,3.2-6.79s3.97-3.31,6.48-3.57"/>
    <path d="M254.62,50.71c5.04,8.26,12.67,14.9,21.54,18.74l-3.67-1.09c4.02,4.07,9.85,5.67,15.43,6.9s11.42,2.31,16.04,5.69c6.55,4.8,9.33,13.23,15.02,19.02-6.1-4.06-9.24-11.59-15.4-15.55-3.68-2.37-8.1-3.24-12.31-4.44-10.09-2.87-19.56-7.87-27.62-14.58-4.21-3.51-8.09-7.55-10.63-12.42"/>
    <path d="M107.96,254.21c-.93.09-1.8.62-2.73.52-1.39-.15-2.21-1.58-2.81-2.84-2.32-4.88-4.63-9.76-6.95-14.65,1.16,2.37,3.21,4.28,5.65,5.28-2.31-6.21-4.99-12.27-8.04-18.15,1.81,2.06,3.63,4.12,5.44,6.18-3.72-3.84-4.53-9.68-4.01-15,.51-5.32,2.14-10.49,2.51-15.83,1.73,2.34,2.74,5.21,2.84,8.11l.36-12.78,3.77,5.37c.22-11.39.82-22.77,1.79-34.11l2.03,10.87c1.74-5.82,1.85-12.11.31-17.99,2.42,5.32,4.85,10.64,7.27,15.97.48,1.06,1,2.16,1.94,2.84,2.12,1.54,5.19.16,6.94-1.8s2.93-4.47,5.09-5.95c.67,2.72-.95,5.45-2.67,7.67s-3.72,4.49-3.94,7.29c-.28,3.54,2.41,6.65,5.4,8.57,2.99,1.92,6.43,3.12,9.17,5.37-5.29.65-10.81-.62-15.27-3.54,4.36,2.89,8.72,5.79,13.08,8.68-5.99,1.68-12.63.89-18.07-2.15,4.18,2.42,8.36,4.84,12.54,7.27-7.25,1.96-15.35.46-21.42-3.95-.81,2.95-1.6,6.15-.48,9,1.17,2.97,4.13,4.79,7.01,6.17s5.99,2.59,8.05,5.02c-6.48,1.62-13.53.79-19.46-2.28,4.32,3.89,8.65,7.78,12.97,11.68-4.72.52-9.62-.68-13.56-3.33.67,3.23,1.37,6.52,3.03,9.36s4.49,5.22,7.78,5.45c4.86.35,8.73-3.79,11.81-7.55,1.1,1.9.27,4.41-1.19,6.06s-3.43,2.73-5.13,4.13-3.2,3.36-3.08,5.56c.16,3.03,2.93,4.61,5.18,6.07-2.42,1.01-5.46-.72-7.17-2.34s-3.32-4.49-5.97-4.23Z"/>
    <path d="M238.86,68.24c-10.45-4.96-21.59-8.48-33-10.41,17.66,4.47,31.38,18,44.17,30.98-10.98-9.14-24.1-15.68-38-18.94,15.29,6.37,29.12,16.21,40.14,28.57-13.52-9.83-30.38-14.96-47.08-14.33,15.27,3.89,29.53,11.64,41.1,22.34-16.18-9.51-34.7-15-53.45-15.84,15.03,2.71,29.54,8.27,42.52,16.31-9.32-4.71-19.59-8.05-30.03-7.75s-21.08,4.63-27.41,12.94c13.5-5.11,28.01-7.57,42.44-7.2-10.21,2.74-19.9,7.4-28.42,13.65,15.59-6.47,32.95-8.57,49.63-6.02-3.82,1.09-7.15,3.79-8.99,7.31-.8,1.52-1.72,3.46-3.44,3.44-.97,0-1.78-.68-2.56-1.25-3.86-2.78-9.16-3.46-13.6-1.73,8.17,1.81,15.74,6.21,21.36,12.4-9.77-.33-19.55,4.74-24.91,12.91-.21-5.69-.41-11.37-.62-17.06-5.62,10.03-11.67,19.82-18.15,29.32,1.59-7.48.84-15.44-2.11-22.5-1.83,8.38-4.3,16.63-7.38,24.64-.5-10.16-3.47-20.19-8.59-28.98-.89-1.54-1.9-3.08-3.38-4.07s-3.56-1.28-5.01-.25c-1.34.95-1.81,2.69-2.18,4.28-1.71,7.32-3.43,14.64-5.14,21.96-.81-9.18-1.99-19.18-8.56-25.64-3.1-3.04-7.63-6.08-6.86-10.35,3.52,1.08,7.1-2.12,8.17-5.65s.51-7.31.73-10.99c.58-9.68,7.16-18.75,16.19-22.29-6.02.93-11.84,3.11-16.99,6.34,7.95-11.04,21.27-18,34.87-18.23-7.01-1.94-14.43-2.35-21.61-1.18,9.79-6.45,21.56-9.86,33.29-9.65-5.37-7.19-14.63-11.26-23.55-10.36,2.32-.23,4.54-1.15,6.93-1.28s4.95.06,7.37.57c4.18.88,7.76,3.05,11.94,3.87,9.47,1.84,18.67,5.5,26.95,10.43,4.7,2.8,9.14,6.05,13.23,9.7Z"/>
    <path d="M152.91,190.19c-3.39,0-6.77-1.26-9.31-3.51,6.26.14,12.54-1.89,17.53-5.67-3.75.92-7.81.5-11.29-1.16,6.79-1.14,13.86-2.39,19.4-6.47-5.49-.34-10.95-1.12-16.31-2.33,4.72.05,9.45-.69,13.93-2.17.58-.19,1.19-.42,1.53-.92.33-.47.34-1.09.35-1.66.04-4.95.08-9.91.12-14.86-2.78,2.37-3.83,6.13-5.41,9.42s-4.47,6.61-8.11,6.36c-3.93-.27-6.53-4.52-10.39-5.33,2.32-1.53,4.63-3.06,6.95-4.6-3.24-6.36-3.03-13.86-2.75-21-2.5,5.98-4.23,12.28-5.15,18.69,1.52-4.63.96-9.73-.42-14.4s-3.55-9.08-5.29-13.64c-1.77-4.63-3.11-9.59-2.46-14.51-2.73,7.02-2.78,15.2.55,21.96,1.28,2.61,3.07,5.11,3.26,8.01.13,1.93-.48,3.83-1.08,5.67-1.95,5.98-4,12.15-8.18,16.85,2.65-2.53,5.64-4.7,8.87-6.44-.13,3.29-3.45,5.41-6.42,6.81s-6.39,3.11-7.09,6.32c2.06-3.03,6.27-4.4,9.72-3.15-2.65,4.76-4.94,9.73-6.85,14.84,4.77-3.22,10.87-4.4,16.5-3.2-5.73,1.41-11.26,3.63-16.37,6.57,4.57,3.8,10.52,5.91,16.47,5.83-3.1.04-7.46-1.38-8.52-4.71,1.63.32,3.05,1.84,4.77,2.25,3.55.83,7.88.43,11.48.15Z"/>
    <path d="M280.52,99.71c-1.77,2.88-2.02,6.4-2.69,9.71-2.01,9.92-8.39,18.87-17.11,24.01,9.51-3.58,18.09-9.62,24.65-17.39-5.25,7.68-10.89,15.11-16.88,22.23,11.82-4.83,22.03-13.52,28.69-24.41-3.52,6.51-6.49,13.32-8.84,20.33,7.72-4.78,13.89-12,17.42-20.36-1.16,6.54-3.02,12.95-5.54,19.1,5.24-5.73,10.11-11.79,14.58-18.14-1.68,6.61-3.36,13.22-5.04,19.83,5.14-4.84,9-11.03,11.09-17.78.49-1.6,1.06-3.43,2.59-4.11,1.63-.72,3.48.26,4.96,1.27,5.41,3.72,10.24,8.29,14.25,13.48-.3-5.55-.72-11.44-4.01-15.92-4.18-5.69-11.75-7.5-18.68-8.9,6.32-.57,12.59-1.63,18.75-3.17,1.41-.35,2.84-.74,4.01-1.6,2.38-1.73,3.12-4.9,3.7-7.79-4.02-.87-8.04-1.73-12.06-2.6-.63-.14-1.35-.26-1.89.11-.97.67-.49,2.13-.26,3.28.44,2.16-.44,4.45-1.93,6.07s-3.54,2.65-5.64,3.31c-7.29,2.32-15.77.39-21.35-4.85.1,4.18.79,8.35,2.04,12.34-2.04-2.71-5.88-3.52-9.21-2.87s-6.28,2.51-9.14,4.33c2.41-2.81,4.83-5.62,7.24-8.43,1.67-1.95,4.02-4.22,1.29-6.4-4.34-3.45-12.58,1.39-14.99,5.31Z"/>
    <path d="M396.61,204.5c-2.21,4.46-1.52,9.79-.34,14.63s2.83,9.71,2.38,14.67c-1.6-6.17-4.51-11.99-8.49-16.97-2.42,4.96-4.04,10.31-4.78,15.78-1.63-8.26-1.07-16.94,1.61-24.92-1.78,4.4-4.17,8.56-7.09,12.31,4.66-9.65,8.16-19.87,10.4-30.35-2.91,6.72-5.83,13.44-8.74,20.16,3.64-10.09,5.16-20.93,4.46-31.63-.31,7.29-1.72,14.53-4.17,21.4,1.5-11.61,1.12-23.45-1.11-34.94.64,6.44.52,12.95-.36,19.35-.73-12.5-3.07-24.9-6.95-36.8,1.66,6.44,2.41,13.11,2.24,19.75-3.7-12.53-7.4-25.05-11.1-37.58,3.26,3.78,6.64,7.44,10.13,11,1.16,1.18,2.5,2.43,4.15,2.53,2.73.17,4.55-2.73,5.5-5.3,1.5-4.09,2.41-8.4,2.7-12.75,3.12,2.41,3.82,6.86,3.44,10.78s-1.61,7.78-1.39,11.72c.41,7.71,6.1,13.96,11.46,19.51-4.2-3.4-8.41-6.81-12.61-10.21,3.68,4.01,7.38,8.06,10.27,12.67s4.95,9.89,5.02,15.33c-1.46-4.77-3.65-9.32-6.47-13.43,1.65,7.64,3.81,15.18,6.47,22.53.71,1.97,1.47,3.99,1.44,6.09s-1.04,4.33-2.98,5.15c-.7-.46-1.41-.92-2.11-1.38-.7,1.19-1.39,2.38-2.09,3.57"/>
    <path d="M395.2,125.55c-1.89-2.75-4.33-5.11-7.13-6.92-.98-.63-2.35-1.17-3.22-.39-.46.42-.6,1.08-.7,1.69-.58,3.27-1.16,6.53-1.74,9.8-3.69-5.69-9.65-9.86-16.25-11.4,2.56,3.25,5.12,6.5,7.68,9.75-2.1-.47-3.74-2.03-5.47-3.3s-3.99-2.29-5.98-1.49c-1.83.73-2.79,2.76-3.13,4.7-.88,5.02,1.24,10.52-.94,15.13-1.71,3.6-5.56,5.58-9.15,7.3,4.27-8.2,3.48-18,2.59-27.21-1.04,8.5-2.81,16.92-5.29,25.12.22-7.54-2.8-15.12-8.15-20.44,1.3,5.62,2.61,11.24,3.91,16.86-5.82-8.74-12.25-17.08-19.24-24.92,6.92,1.3,13.54,4.12,19.27,8.21.92.66,2.46,1.23,2.97.21.22-.44.08-.97-.07-1.45-2.74-8.68-5.74-17.78-12.44-23.94,6.72,1.91,13.63,3.17,20.6,3.75-3.38-1.52-6.76-3.04-10.14-4.56,1.43-.99,3.31-.88,5.03-1.06s3.7-.99,4.05-2.69c.18-.89-.14-1.8-.52-2.63-1.46-3.19-3.78-5.97-6.66-7.97,4.17.14,7.86,2.66,11,5.4s6.08,5.85,9.86,7.62c4.19,1.96,8.97,2.06,13.59,2.12-4.46.82-8.92,1.64-13.38,2.46,2.24-.41,6.2,1.71,8.24,2.53,1.79.72,3.61,1.39,5.35,2.23,3.91,1.9,7.72,4.72,10.62,7.95,2.01,2.23,3.67,4.78,4.87,7.53Z"/>
    <path d="M244,112.08c2.39,2.98,4.78,5.97,7.18,8.95-6.05,10.32-15.79,18.43-27.05,22.49,8.98.38,18.05-2.8,24.84-8.69-2,3.47-4.29,6.77-6.84,9.85,5.03-3.07,9.38-7.24,12.66-12.14-1.64,3.15-2.43,6.74-2.25,10.28,3.17-3.59,4.57-8.35,6.41-12.78,1.83-4.43,4.5-8.95,8.92-10.78-4.47,1.96-8.95,3.91-13.42,5.87,1.41-1.46,2.9-3.08,3.13-5.1.36-3.12-2.51-3.53-4.51-4.59-3.05-1.61-5.47-3.18-9.07-3.37Z"/>
    <path d="M252.15,73.06c4.69,3.79,7.67,9.39,9.28,15.2,1.61,5.82,1.95,11.9,2.16,17.93-.34-7.3-2.65-14.36-5.2-21.22-1.33-3.59-2.75-7.18-4.85-10.38s-4.94-6.02-8.46-7.51c1.73.89,3.45,1.79,5.18,2.68"/>
  </g>
  <g id="outline">
    <path d="M311.1,377.51c-2.02-.18-4-.3-5.97-.8-2.17-.55-4.27-1.39-6.3-2.32-3.54-1.62-6.96-3.48-10.51-5.08-6.86-3.1-14.58-5.43-22.11-3.5-3.59.92-6.69,3.11-10.27,4.05-3.86,1.02-7.67-.25-11.36-1.38-3.68-1.12-7.31-1.85-11.18-1.53-3.9.33-7.69,1.41-11.34,2.79-4.18,1.59-8.22,3.53-12.43,5.06-4.48,1.63-9.1,2.61-13.86,2.91-.88.06-1.58,1.24-.79,1.91,3.05,2.6,5.73,5.55,8.7,8.22,3.64,7.35,8.45,14.47,15.44,18.95,6.5,4.17,14.49,6.08,22.17,5.3,1.89-.19,3.76-.53,5.59-1.04,2.49-.69,4.89-1.65,7.53-1.52,2.07.1,4.11.65,6.16.91,2.16.27,4.34.36,6.52.29,7.91-.26,15.7-2.82,22.21-7.33,3.67-2.54,6.66-5.74,9.65-9.02,1.54-1.7,3.1-3.41,4.83-4.92,1.68-1.47,3.84-2.44,5.24-4.17.27-.33.12-.89-.37-.88-3.38.04-6.61,3.7-8.83,5.95-2.67,2.7-5.11,5.63-7.95,8.16-5.87,5.25-13.3,8.55-21.07,9.73-3.99.61-8.05.55-12.03-.12-2.02-.34-4.04-.76-6.1-.56-2.18.21-4.22.99-6.31,1.58-7.68,2.17-16.13,1.26-23.25-2.32-4.09-2.06-7.55-4.94-10.49-8.44-3.15-3.75-5.53-8.02-8.13-12.16-.15-.24-.37-.34-.58-.34-1.55-2.29-3.45-4.28-5.48-6.16,7.19-.82,13.73-3.42,20.45-6.23,3.69-1.54,7.44-2.99,11.37-3.77,4.21-.84,8.27-.59,12.38.61,3.49,1.02,7.01,2.37,10.7,2.26,3.61-.1,6.72-1.81,9.94-3.23,7.72-3.41,15.89-1.53,23.31,1.77,4.09,1.82,8,4.02,12.11,5.82,3.89,1.7,8.39,3.39,12.69,2.59,1.22-.23.81-1.94-.28-2.03Z"/>
    <path d="M236.12,353.83c-2.23-.21-3.98-1.76-5.91-2.72-1.93-.96-3.78-1.18-5.9-.84-2.17.35-4.67,1.4-6.76.23-2.07-1.16-3.12-3.87-4.05-5.93-2.3-5.11-2.62-10.22-.81-15.55.89-2.63,2.23-5.05,3.66-7.42.7-1.16,1.41-2.3,2.16-3.42.65-.99,1.54-1.94,1.74-3.12.07-.39-.3-.71-.67-.52-1.72.89-2.98,3.35-4.08,4.89-1.4,1.96-2.65,4.03-3.67,6.21-1.88,4-3.02,8.46-2.47,12.9.51,4.08,2.35,8.82,4.95,12.04,1.13,1.4,2.64,2.41,4.45,2.64,2.01.26,3.95-.39,5.91-.73,2.67-.46,4.33.6,6.61,1.76,1.64.83,3.37,1.28,5.11.54.52-.22.18-.92-.26-.97Z"/>
    <path d="M296.84,329.85c-1.45-4.37-2.88-8.61-4.98-12.72-.18-.36-.66-.09-.6.25.65,3.98,1.74,7.72,2.98,11.56.62,1.91,1.51,3.92,1.72,5.93.21,2.02-.81,3.81-2.05,5.33-2.03,2.5-4.72,4.29-7.52,5.83-1.39.77-2.83,1.45-4.29,2.08-.76.33-1.57.61-2.31.98-.74.38-1.31.99-2.04,1.39-.16.09-.04.3.12.27,1.03-.19,1.98-.09,3.01-.39.8-.23,1.59-.53,2.38-.82,1.65-.61,3.28-1.28,4.85-2.07,3.16-1.58,6.08-3.88,8.16-6.74,1.08-1.48,1.88-3.18,1.94-5.03.07-2.02-.74-3.97-1.36-5.85Z"/>
    <path d="M244.19,350.19c-.86-.83-1.69-1.66-2.67-2.35-1.05-.73-2.17-1.34-3.28-1.99-2.13-1.23-4.25-2.5-6.56-3.36-1.97-.74-4.19-1.04-6.14-.09-1.55.76-3.06,2.71-2.19,4.48.23.47,1.02.36,1.13-.15.2-.9.29-1.66,1.03-2.3.64-.55,1.48-.82,2.31-.87,1.95-.11,3.95.85,5.64,1.72,1.76.9,3.46,1.94,5.17,2.93,1.75,1.02,3.46,1.68,5.39,2.25.16.05.29-.17.16-.28Z"/>
    <path d="M279.75,340.09c-2.09-1.33-4.56-1.88-6.97-2.3-1.17-.2-2.37-.48-3.55-.29-1.12.18-2.14.73-3.08,1.35-1.02.67-2.05,1.39-2.94,2.23-.92.86-1.61,1.92-2.37,2.92-.21.27.2.68.48.48.87-.63,1.81-1.13,2.71-1.71.85-.56,1.66-1.2,2.5-1.78.85-.59,1.74-1.23,2.76-1.48,1.08-.27,2.28.08,3.34.27,2.01.36,4.06.82,5.83,1.87.76.45,1.46,1.01,2.06,1.66.54.58,1.04,1.19,1.79,1.5.16.07.33-.08.38-.22.67-1.86-1.6-3.66-2.94-4.51Z"/>
    <path d="M220.48,275.97c-2.24-4.55-5.36-8.92-8.71-12.73-1.64-1.87-3.46-3.55-5.47-5.01-2.25-1.63-4.67-2.27-7.37-2.74-5.55-.98-11.17-1.73-16.72-.3-4.99,1.29-10.3,3.53-14.31,6.8-2.15,1.75-3.92,3.93-5.44,6.24-.77,1.16-1.49,2.38-2.12,3.62-.69,1.35-1,2.69-1.48,4.1-.14.42.44.6.67.28.5-.68,1.04-1.28,1.54-1.94.02,0,.03.02.04.02,1.37,0,2.75-.12,4.11-.06,1.69.07,2.91.75,4.18,1.81,1.82,1.52,3.58,2.96,5.7,4.04,2.23,1.15,4.64,1.93,7.11,2.41.28.14.58.23.9.27.13.02.26-.01.37-.06,2.01.3,4.04.43,6.05.39,5.66-.11,10.87-1.72,16.25-3.3,2.43-.71,4.9-1.06,7.38-1.53,1.89-.36,4.08-.92,5.6-2.22.2.25.4.51.6.76.54.65,1.45-.18,1.11-.86ZM173.09,276.33c-1.87-1.4-3.36-3.26-5.73-3.83-1.88-.45-3.66-.18-5.4.43.48-.78.94-1.57,1.43-2.34,1.3-2.05,2.71-4.02,4.45-5.73,3.16-3.12,7.45-5.15,11.66-6.59-1.05,1-1.88,2.51-2.32,3.44-1.14,2.45-1.58,5.19-1.4,7.87.17,2.66.87,5.21,2.09,7.58.46.9,1.02,1.74,1.61,2.55-2.29-.82-4.48-1.95-6.4-3.4ZM187.43,281.3c-1.18-.05-2.37-.19-3.56-.4-.18-.24-.38-.55-.5-.69-.36-.41-.73-.8-1.07-1.22-.74-.88-1.36-1.85-1.9-2.86-1.03-1.95-1.73-4.16-1.97-6.35-.23-2.17-.08-4.42.52-6.51.34-1.18.82-2.27,1.49-3.29.56-.84,1.42-1.46,1.67-2.46,4.97-1.24,9.93-.77,14.98.11,1.91.33,3.83.6,5.6,1.34.82,1.51,1.66,2.96,2.18,4.64.55,1.81.8,3.68.72,5.57-.08,1.88-.49,3.74-1.18,5.49-.36.92-.82,1.8-1.35,2.64-.38.61-.78,1.08-.82,1.74-4.84,1.42-9.7,2.49-14.81,2.27ZM211.67,276.77c-2.36.4-4.66.86-6.96,1.53,0,0,.01-.02.02-.03.54-.88.99-1.82,1.38-2.78.81-2.01,1.26-4.16,1.33-6.33.08-2.64-.43-5.67-1.62-8.26,1.33,1.04,2.57,2.23,3.74,3.42,3.19,3.23,5.59,7,8.3,10.58-2.02.87-3.96,1.48-6.19,1.86Z"/>
    <path d="M348.88,268.11c-.62-.98-.94-2.12-1.53-3.11-.64-1.09-1.41-2.13-2.19-3.12-1.53-1.97-3.3-3.74-5.26-5.28-3.56-2.81-7.74-4.87-12.17-5.86-.06-.05-.1-.12-.16-.17-.36-.33-.78-.29-1.08-.09-5.01-.88-10.36-.51-15.12,1.34-5.03,1.95-9.23,5.46-13.11,9.12-4.56,4.3-9.12,9.13-12.44,14.48-.37.6.43,1.31.95.94.72.93,1.85,1.23,2.94,1.65,1.46.55,2.97.98,4.48,1.36,2.9.74,5.83,1.35,8.76,1.95,6.22,1.29,12.37,1.86,18.69,1.01,5.57-.76,11.32-2.27,15.99-5.52,1.99-1.39,3.76-3.05,5.21-5,1.21-1.63,2.64-3.87,2.32-6.01.14.19.29.39.44.57.81.95,1.86,1.54,2.98,2.07.19.09.45-.1.31-.31ZM302.87,279.23c-2.73-.56-5.46-1.13-8.15-1.83-1.32-.35-2.63-.74-3.93-1.16-.99-.33-2.04-.93-3.09-.99,3.05-3.76,6.01-7.52,9.46-10.95,1.49-1.48,3.03-2.96,4.65-4.35-.18.35-.33.68-.45.96-.86,2.03-1.14,4.24-1.34,6.42-.24,2.58-.05,5.09.91,7.52.49,1.23,1.12,2.4,1.77,3.55.17.3.35.61.53.91-.12-.03-.25-.05-.37-.07ZM319.98,280.4c-4.46.49-8.82.22-13.18-.46-.01-.03,0-.07-.03-.1-.08-.12-.11-.11-.1-.04-.07-.22-.07-.43-.23-.65-.25-.34-.61-.58-.86-.94-.63-.89-1.14-1.92-1.63-2.89-1.14-2.24-1.74-4.45-1.69-6.97.04-2.01.22-4.08.71-6.03.23-.9.55-1.78,1.05-2.56.45-.7,1.06-1.13,1.12-2,0-.12-.08-.23-.19-.28,1.49-1.06,3.05-2.02,4.71-2.79,5.57-2.58,11.74-3.09,17.54-1.76,2.6,3.38,3.99,7.37,4.35,11.66.21,2.51.12,5.04-.12,7.55-.18,1.93-.28,4.5-2.07,5.67-.31.2-.45.47-.49.75-2.89.93-5.92,1.52-8.9,1.85ZM344.49,265.31c-1.57,1.52-2.3,3.86-3.66,5.58-1.51,1.9-3.4,3.48-5.46,4.75-.89.54-1.81,1.02-2.75,1.46.37-.88.58-1.84.71-2.76.43-3.04.58-6.17.36-9.23-.29-3.9-1.3-7.96-3.42-11.3,2.65.93,5.19,2.25,7.49,3.96,2.05,1.52,3.9,3.35,5.5,5.34.54.67,1,1.4,1.49,2.11-.09,0-.17.03-.24.09Z"/>
    <path d="M402.69,208.42c10.81-14.95,10.08-37.42-1.74-51.57-1.06-1.27-4.56-5.4-7.43-6.49,1.61-4.64,4.64-8.72,6.63-13.2,2.18-4.92,2.53-10.25,1.09-15.44-3.16-11.38-12.93-18.68-23.39-22.98-3.12-1.28-6.32-2.35-9.55-3.3-1.89-.56-4.51-1.52-6.36-.58-.95-1.11-2.48-2.07-3.38-2.79-1.73-1.38-3.53-2.66-5.43-3.8-3.81-2.28-8.01-4-12.41-4.65-4.15-.61-8.51-.36-12.47,1.12-2.44.91-6.22,2.66-7.04,5.42-.61-.95-1.26-1.88-1.96-2.78-2.67-3.41-5.95-6.15-9.56-8.52-7.49-4.92-15.31-9.22-24.05-11.36-4.18-1.03-8.43-1.85-12.45-3.42-4.37-1.71-7.99-4.53-11.48-7.62-3.43-3.04-5.79-6.43-5.66-11.18.11-4.26,2.15-8.18,5.27-11.02,7.91-7.22,19.27-6.42,29.11-5.12.35.05.54-.27.54-.57.17.06.34.12.51.18.43.16.59-.5.19-.67-9.04-3.75-18.58-7.3-28.47-4.81-7.57,1.9-14.65,7.36-16.04,15.41-1.65,9.59,5.33,17.17,11.79,23.27,6.69,6.3,14.48,11.52,22.9,15.22,5.04,2.22,10.33,3.77,15.47,5.73,4.04,1.54,9.24,3.46,12.21,6.97-.6-.34-1.21-.67-1.85-.95-1.83-.82-3.71-1.55-5.69-1.91-4.24-.76-8.54-.06-12.7.86-3.53.78-7.14,1.57-10.45,3.05-1.84.82-3.41,1.82-4.74,3.1-.03-.74-.07-1.47-.16-2.21-.42-3.51-1.75-6.58-3.67-9.52-1.94-2.98-3.97-5.93-6.14-8.75-1.71-2.22-3.61-4.68-5.89-6.44-1.28-1.8-2.93-3.38-4.58-4.83-2.95-2.59-6.22-4.82-9.56-6.87-7.18-4.4-14.93-7.84-22.89-10.58-8.11-2.79-16.56-5.1-25.03-6.51-4.32-.72-8.62-.93-12.98-.38-4.46.57-8.79,1.75-13.09,3.03-4.57,1.36-9.15,2.72-13.62,4.39-4.28,1.61-8.77,3.4-12.14,6.58-.1.09-.13.2-.12.3-.43.19-.87.37-1.3.56-.08.04-.02.18.06.15.45-.18.91-.32,1.37-.47.12.1.29.15.46.08.51-.22,1.02-.47,1.53-.7,5.71-1.6,11.93-1.96,17.74-1.75,3.82.14,7.61.59,11.38,1.2.85.14,1.7.3,2.55.46-1.64-.03-3.28.08-4.91.32-3.9.57-7.68,1.82-11.22,3.55-7.19,3.5-13.21,8.93-18.86,14.49-.66.65.23,1.91,1.03,1.33,3-2.18,5.89-3.8,9.51-4.43-1.07,1.3-2.24,2.49-3.16,3.9-.99,1.53-1.8,3.19-2.53,4.85-1.47,3.33-2.59,6.82-3.19,10.42-.62,3.7-.45,7.42-.84,11.13-.34,3.25-1.58,6.9-4.69,8.35-.55-2.19-.46-4.25-.36-6.56.05-.98-1.35-1.08-1.64-.22-.02.05-.03.11-.04.16-.98.28-2.26,1.71-2.69,2.11-2.72,2.47-3.59,6.37-4.42,9.82-.51,2.12-.88,4.26-1.12,6.43-.13,1.16-.24,2.33-.28,3.5-.04,1.19.25,2.25.37,3.42.19,2.77.62,5.38,1.62,8.1.62,1.69,1.34,3.35,2.18,4.94.87,1.65,2.16,3.27,1.9,5.24-.27,2-1.51,3.93-2.37,5.74-.87,1.82-1.74,3.64-2.61,5.46-.78,1.63-1.56,3.27-2.32,4.91,0-.02.01-.04.02-.07.06-.26-.29-.34-.38-.11-1.69,4.03-3.31,8.03-4.67,12.19-.25.77-.47,1.76-1.09,2.33-.82.76-1.66.18-2.21-.57-.97-1.33-1.22-3.27-1.48-4.86-.51-3.1-.73-6.38-2.31-9.18-.8-1.43-1.94-2.47-3.23-3.45-1.6-1.21-3.15-2.33-3.48-4.44-.03-.19-.13-.33-.26-.41.25-.34.53-.64.87-.89.25-.18.12-.67-.23-.55-3,1.03-4.36,3.27-5.47,6.15-1.54,3.99-2.79,8.12-3.82,12.27-.95,3.84-1.68,7.83-.92,11.77.7,3.59,2.29,6.98,2.43,10.65-1.35-.36-2.64-.85-3.9-1.51-.53-.28-1.38.05-1.31.75.39,3.95.66,10.88-4.78,11.48-.22.02-.39.13-.5.27-.11-.12-.19-.24-.31-.35-.24-.23-.61.06-.45.35,1.79,3.41,1.44,7.7-.22,11.08-1.2,2.45-4.17,5.13-3.14,8.13.47,1.38,1.97,1.74,2.52,3.02.69,1.6.51,3.81.57,5.53.06,1.99.06,3.99-.02,5.98-.08,1.93-.26,5.23-2.96,5.05-.81-.05-1.01,1.31-.19,1.43.1.02.19.01.29.02-.12.08-.25.14-.36.24-.12.1-.06.33.1.37.82.17,1.67.12,2.49.3.91.2,1.84.58,2.57,1.17.83.66,1.38,1.58,1.94,2.47.63,1.03,1.27,2.05,1.9,3.08,1.2,1.95,2.4,3.89,3.6,5.84.6.97,1.2,1.94,1.81,2.91.43.68,1.8,2.22,1.2,3.03-.25.33-.04.72.26.91-.03.09-.07.18-.09.27-.03.14.1.29.25.25.58-.18,1.13-.6,1.65-.92.6-.36,1.16-.8,1.78-1.13,1.45-.77,3.09-.5,4.51.21,1.87.94,3.32,2.46,4.93,3.76-.58.3-1,.79-.85,1.54.06.31.25.48.48.55-.31,2.49.07,5.14.23,7.62.19,2.96.43,5.92.74,8.87.28,2.7.58,5.44,1.47,8.02.83,2.41,2.23,4.55,3.32,6.84,2.6,5.49,3.26,11.81,4.36,17.72.27,1.43.54,2.86.82,4.29.31,1.62,1.06,3.41-.6,4.48-.74.47-1.48.7-2,1.46-.58.83-.64,1.81-.48,2.79.46,2.7,2.29,5.43,3.69,7.73,1.14,1.87,2.6,3.71,5.01,3.34.05,0,.08-.03.13-.05.54,5.49,1.11,10.97,1.63,16.45,1.04,10.98,2.16,21.84,6.1,32.24,3.54,9.35,8.66,18.02,14.46,26.14,5.84,8.17,12.34,15.86,18.87,23.48,6.82,7.96,13.69,15.93,21.38,23.08,14.5,13.48,33.68,24.31,54.16,21.33,1.85-.27,3.63-.67,5.39-1.22.27.13.59.16.92,0,10.06-4.93,19.99-10.12,29.77-15.57,9.66-5.38,19.38-10.82,28.42-17.2,15.93-11.23,27.96-26.46,37.14-43.53,4.51-8.39,8.36-17.11,11.85-25.97,3.85-9.79,7.41-19.75,10.29-29.87,2.96-10.44,5.1-21.17,5.47-32.04.37-10.98-1.09-21.93-3.17-32.69-.49-2.52-1.01-5.03-1.56-7.54-.11-1.09-.29-2.17-.46-3.3-.33-2.27-.55-4.56-.68-6.86-.11-2.12-.14-4.24-.08-6.36,0-.11.01-.23.02-.34.27,2.68.95,5.32,2.04,7.82.94,2.16,2.19,4.18,3.67,6.02.76.95,1.6,1.83,2.5,2.65.94.85,1.9,1.35,2.95,2.02.21.14.44-.03.5-.23.12.42.22.86.34,1.28.08.28.55.24.53-.07-.62-8.87-2.08-17.55-1.07-26.48.5-4.39,1.51-8.75,3.16-12.85.86-2.14,1.95-4.14,3.06-6.16.41-.74.89-1.57,1.3-2.42.69,1.36,1.34,2.73,1.88,4.16,1.08,2.89,1.85,5.91,2.21,8.98.38,3.25.64,7.48-.34,11.09-1.16,1.67-2.39,3.36-3.1,5.25-.05.13.03.27.15.34.12.31.5.53.85.33,2.49-1.35,3.8-3.72,4.44-6.4,1.38-2.03,2.69-4.11,3.89-6.25,2.52-4.51,4.62-9.33,5.79-14.38,1.07-4.6,1.32-9.39.62-14.07-.57-3.84-1.81-7.95-4.16-11.15ZM130.96,337.06c-2.2.32-4.02-4.26-4.8-5.76-.57-1.09-1.23-2.21-1.56-3.4-.16-.58-.33-1.38,0-1.94.35-.58,1.13-.77,1.68-1.09,1.68-.98,1.92-2.49,1.61-4.31-.45-2.74-1.05-5.47-1.59-8.19-1.01-5.05-1.74-10.31-3.77-15.08-.95-2.24-2.35-4.25-3.34-6.47-1.14-2.56-1.54-5.38-1.86-8.14-.35-3.05-.66-6.1-.91-9.15-.22-2.63-.12-5.48-.72-8.08.08-.06.15-.12.2-.19.27-.37.91-.36,1.46-.27.12.06.23.14.35.2.2.1.4.1.57.04.72.25,1.37.65,1.98,1.11,1.29.99,2.55,2.11,3.7,3.26,1.09,1.1,2.08,2.36,2.53,3.86.47,1.62.3,3.32,1.06,4.87.35.72,1.35.3,1.39-.38.08-1.06.15-2.12.22-3.18.02-.33.06-.67.08-1.01.39,1.15.66,2.33.87,3.54.74,4.41.92,8.88.63,13.33-.04.6.69.85,1.12.58-.82,3.75-1.48,7.54-1.83,11.37-.54,5.85-.42,11.75-.04,17.61.36,5.65.86,11.29,1.41,16.92-.13-.05-.28-.07-.44-.05ZM404.36,234.16c-1.23,4.73-3.25,9.22-5.67,13.46-.52.91-1.06,1.81-1.62,2.71.09-2.05-.05-4.09-.23-5.87-.33-3.36-1.06-6.68-2.22-9.85-.56-1.54-1.21-3.05-1.95-4.52-.37-.73-.75-1.45-1.25-2.1-.04-.06-.09-.1-.13-.15.02-.16.04-.33.04-.49,0-.47-.6-.66-.89-.32-.33-.25-.68-.48-1.05-.77-.13-.1-.35-.01-.3.17.21.77.37,1.48.59,2.18-.22.57-.43,1.14-.7,1.68-.53,1.06-1.14,2.08-1.72,3.11-1,1.79-1.89,3.64-2.65,5.55-1.61,4.07-2.59,8.37-3.1,12.71-.98,8.25-.65,17.15,1.53,25.22-.82-.65-1.54-1.5-2.31-2.23-.79-.74-1.53-1.54-2.22-2.37-1.48-1.77-2.72-3.75-3.67-5.86-2.19-4.87-2.25-10.15-2.58-15.38-.02-.23-.38-.32-.43-.06-.09.49-.16.98-.23,1.47-.17-.29-.72-.31-.79.09-.18,1.03-.47,1.98-.58,3.04-.12,1.14-.17,2.28-.22,3.42-.06,1.61-.05,3.21-.01,4.82-.98-4.3-1.94-8.61-2.83-12.93-2.28-11.19-3.7-22.46-4.59-33.84-.23-2.88-.35-5.76-.43-8.65-.02-.84-1.32-.85-1.31,0,0,11.13.76,22.21,2.53,33.2,1.75,10.85,4.37,21.52,6.73,32.24,2.37,10.74,4.49,21.58,5.08,32.58.6,11.01-.62,21.92-3.1,32.65-2.41,10.37-5.83,20.49-9.5,30.47-3.31,9.01-6.93,17.92-11.15,26.55-8.32,17.01-19.11,33.09-33.95,45.09-8.47,6.85-17.98,12.33-27.41,17.73-9.63,5.52-19.4,10.79-29.3,15.8-1.9.96-3.82,1.91-5.73,2.85-.09,0-.18,0-.28.03-9.77,2.84-19.76,2.53-29.46-.51-9.83-3.08-18.61-8.65-26.41-15.31-7.8-6.66-14.64-14.31-21.43-21.97-6.64-7.49-13.33-14.96-19.37-22.95-5.94-7.86-11.35-16.18-15.39-25.2-4.47-10-6.42-20.43-7.47-31.28-1.12-11.44-2.25-22.88-3.23-34.33-1-11.56-1.15-22.97,1.35-34.36,2.42-11.02,6.08-21.72,8.47-32.75,2.36-10.89,3.96-21.95,4.74-33.07.18-2.52.3-5.04.4-7.57.6-.69,1.15-1.42,1.73-2.08,1.34-1.53,2.67-3.06,4.02-4.57,2.64-2.95,5.35-5.84,8.13-8.68,2.7-2.76,5.44-5.49,8.26-8.14,1.48-1.39,2.97-2.77,4.48-4.12,1.33-1.2,2.87-2.51,3.77-4.08.09-.15-.06-.39-.25-.32-3.34,1.29-6.19,4.56-8.78,6.93-2.99,2.74-5.93,5.55-8.78,8.44-2.78,2.82-5.48,5.72-8.13,8.68-1.35,1.51-2.69,3.04-3.99,4.61-.46.56-.98,1.12-1.47,1.71-.16.08-.28.22-.34.41-.59.74-1.12,1.51-1.45,2.36-.18.47.44.89.83.64.16-.1.29-.23.44-.35-.57,10.99-1.86,21.94-3.92,32.75-1.63,8.56-3.97,16.9-6.26,25.27-.02,0-.04,0-.05.02-.86,1.99-1.98,3.93-2.7,5.97-.07.19-.12.37-.18.56-.03-2.79-.21-5.58-.64-8.32-.54-3.5-2.24-8.25-6.3-8.81-.3-.04-.66.34-.35.6,1.35,1.09,2.53,2.3,3.33,3.85.02.05.04.1.07.15-.16.38-.32.76-.43,1.16-.12-.45-.28-.89-.48-1.32-.79-1.73-2.11-3.17-3.47-4.47-1.46-1.4-3-2.89-4.92-3.63-.63-.24-1.3-.37-1.98-.39-2.44-1.75-4.32-4.25-7.24-5.33-1.57-.58-3.27-.58-4.8.13-.6.28-1.21.72-1.74,1.24-.05-.24-.12-.48-.24-.74-.54-1.23-1.37-2.38-2.08-3.52-1.53-2.49-3.06-4.97-4.59-7.46-1.3-2.11-2.47-4.74-4.59-6.15-.8-.53-1.9-.95-2.98-1.03,1.88-1.21,2.22-4.37,2.3-6.62.09-2.39.08-4.79-.04-7.18-.09-1.74-.02-3.81-1.07-5.3-.48-.69-1.44-1.03-1.87-1.73-.69-1.14.16-2.53.78-3.48,1.14-1.75,2.26-3.45,2.98-5.43,1.11-3.05,1.15-6.24-.54-8.86,2.22-.34,4.02-1.75,5.1-3.75,1.27-2.36,1.31-5.07,1.15-7.7,1.29.57,2.63,1.01,4.03,1.3.59.12,1.09-.26,1.13-.86.2-3.43-.96-6.61-1.85-9.87-1.1-4.02-.89-7.64.34-11.61,1.09-3.53,2.25-7.05,3.48-10.54.58-1.65,1.21-3.28,1.79-4.93.19-.55.39-1.16.63-1.77.74,2.55,3.53,3.87,5.27,5.78,2.09,2.29,2.44,5.51,2.88,8.45.4,2.69.63,6.19,2.77,8.15.96.88,2.32,1.22,3.51.59,1.18-.63,1.74-1.93,2.15-3.14.83-2.47,1.51-4.97,2.14-7.48.45-.64.91-1.22,1.29-1.97.48-.95.95-1.9,1.43-2.84.95-1.9,1.87-3.81,2.79-5.72.93-1.91,1.85-3.82,2.78-5.73.81-1.66,1.84-3.36,2.12-5.21.51-3.32-2.23-6.53-3.47-9.43-.77-1.81-1.39-3.68-1.97-5.56-.43-1.42-.94-2.81-1.34-4.23.12-.67.29-1.33.37-2.02.11-1.09.16-2.18.28-3.27.23-2.02.58-4.04,1.03-6.02.45-1.98,1.01-3.93,1.68-5.85.72-2.05,1.68-3.43,3.35-4.81.08-.06.2-.15.33-.26-.12,1.98.27,4.04.89,5.84.17.49.67.84,1.2.68,7.75-2.27,6.75-11.67,7.36-17.94.38-3.89,1.29-7.78,2.64-11.45.73-1.98,1.61-3.9,2.59-5.77.92-1.76,1.73-3.65,2.82-5.32.12-.19.02-.4-.14-.51.07-.01.14-.03.22-.04.49-.07.42-.8,0-.92-1.55-.44-3.09-.28-4.58.22,3.71-3.29,7.66-6.31,12.04-8.67,3.27-1.76,6.77-3.08,10.42-3.81,1.91-.38,3.86-.58,5.81-.6.91,0,1.82.04,2.73.11,1.14.09,2.35-.06,3.47.11.16.02.23-.2.07-.25-.38-.13-.72-.28-1.06-.42,1.12.16,2.24.29,3.37.35.25.01.26-.33.06-.41-3.72-1.45-7.74-2.08-11.66-2.71-3.77-.6-7.57-1.03-11.39-1.15-3.45-.1-6.97.05-10.38.65-1.05.18-2.09.45-3.12.74,2.11-1.01,4.22-2.01,6.42-2.84,3.71-1.41,7.51-2.57,11.31-3.72,8.32-2.51,16.65-4.88,25.43-3.83,8.21.98,16.46,3.32,24.31,5.85,7.77,2.5,15.36,5.64,22.47,9.67,3.87,2.19,7.66,4.61,11.1,7.43,3.23,2.64,5.65,5.87,8.51,8.86.18.19.45.11.57-.08.94,1.01,1.86,2.04,2.7,3.15,1.99,2.61,3.83,5.33,5.64,8.07,1.92,2.91,3.35,5.9,3.75,9.41.15,1.33.16,2.67.09,4.01-.23.35-.46.71-.67,1.09-.25.45.13.83.52.81-.13,1.2-.27,2.4.11,3.56.11.35.54.39.75.1.92-1.31.95-2.92,1.04-4.46.02-.39.01-.77.02-1.16,4.09-4,10.65-5.27,15.97-6.44,4-.88,8.22-1.56,12.28-.63,1.83.42,3.53,1.18,5.25,1.91,1.1.46,2.2.78,3.31,1.07.03.06.07.12.1.18.21.44.76.39,1.06.11.27.07.54.13.82.2.36.09.65-.48.27-.64-.37-.16-.73-.35-1.09-.53-1.55-3.58-5.04-5.73-8.41-7.42-4.13-2.08-8.52-3.55-12.86-5.08-8.66-3.05-16.85-7.02-24.11-12.7-3.46-2.7-6.67-5.71-9.64-8.93-2.96-3.21-6.19-6.74-7.44-11.01-2.57-8.77,3.15-16.67,11.07-19.94,8.77-3.62,18.82-1.51,27.65,1.46-8.29-1.35-17.19-1.4-24.59,3.02-6.67,3.98-11.14,12.03-8.57,19.81,1.38,4.19,4.98,7.05,8.29,9.74,3.57,2.89,7.42,5.02,11.8,6.39,4.38,1.38,8.93,2.14,13.34,3.4,4.87,1.39,9.25,3.71,13.61,6.24,4.71,2.73,9.54,5.48,13.37,9.4,3.78,3.87,6.54,8.73,9.39,13.29.28.44.9.06.69-.4-1.02-2.18-2.06-4.33-3.24-6.4.04-.09.07-.19.06-.31-.17-2.28,2.41-3.63,4.14-4.54,1.65-.86,3.42-1.46,5.24-1.83,3.76-.78,7.72-.56,11.42.41,3.69.96,7.16,2.66,10.35,4.74,1.73,1.13,3.41,2.34,5.02,3.65.65.53,1.38,1.33,2.18,1.89.08.2.27.35.47.29.37.21.76.35,1.16.36.23,0,.33-.21.31-.4-.01-.11-.06-.22-.1-.32,2.2-.37,4.39.48,6.54,1.15,2.63.82,5.23,1.71,7.78,2.75,5.31,2.17,10.45,5,14.64,8.96,3.8,3.58,6.73,8.17,8.12,13.21,1.44,5.25.86,10.44-1.55,15.3-2.06,4.16-4.88,8.09-5.69,12.66-.74-.06-1.41.16-1.92.82-.27.35-.13.92.38.92.47,0,.9.08,1.33.19-.01.35-.02.69,0,1.05,0,.27.43.35.49.07.06-.3.15-.59.23-.89,1.73.71,3.14,2.2,4.47,3.54,1.83,1.83,3.44,3.85,4.83,6.02,2.74,4.3,4.59,9.14,5.5,14.15,2.02,11.09-1.21,21.84-5.46,31.99-.25-.32-.51-.64-.79-.94-.3-.32-.77.09-.58.45,2.21,4.29,4.02,8.46,4.52,13.31.46,4.48.02,9.04-1.11,13.39Z"/>
    <path d="M248.44,190.53c-3.24,3.76-6.57,7.43-10.71,10.22-4.13,2.78-8.81,4.71-13.71,5.61-11.56,2.13-23.04-2.61-33.27-7.55-2.85-1.38-5.62-2.97-7.9-5.19-2.29-2.23-3.37-4.76-4.66-7.61-.17-.38-.7-.15-.72.2-.37,5.34,4.96,10.1,9.03,12.66,2.79,1.75,5.85,3.06,8.85,4.39,2.95,1.3,5.94,2.52,9,3.53,5.73,1.88,11.76,2.89,17.78,2.11,5.32-.68,10.48-2.54,15.04-5.36,4.95-3.05,9.51-7.3,11.71-12.76.1-.24-.27-.44-.43-.25Z"/>
    <path d="M328.34,181.55c-1.07,7.69-2.1,15.88-6.76,22.35-1.99,2.76-4.62,5.15-7.85,6.34-3.62,1.34-7.64,1.09-11.24-.18-7.3-2.59-12.51-9.46-15.54-16.32-3.14-7.11-4.13-15.24-2.73-22.89.76-4.14,2.13-8.15,4.12-11.86,1.43-2.67,3.25-4.97,5.1-7.28,2.34-2.17,4.5-4.5,6.4-6.95.15-.2-.05-.58-.3-.39-8.09,6.16-15.1,13.55-24.65,17.57-4.56,1.92-9.48,3.03-14.43,3.08-4.88.04-9.22-1.16-13.59-3.1,2.83-1.59,5.46-3.53,7.75-5.88.15-.15-.04-.42-.23-.3-7.12,4.66-14.87,8.49-23.38,9.69-2.48.35-5.05.51-7.51-.06-1.95-.46-3.81-1.29-5.82-1.5-3.54-.37-6.64,1.09-9.51,2.93.01-.21-.19-.43-.4-.27-3.94,2.94-7.99,6.33-9.57,11.16-1.6,4.9.28,10.03,3.91,13.51,3.95,3.78,9.5,5.43,14.79,6.17,5.49.77,11.1.53,16.52-.64,3-.65,5.92-1.6,8.74-2.81,1.45-.62,2.84-1.36,4.2-2.15,1.23-.72,2.47-1.39,3.28-2.6.21-.31-.13-.65-.45-.59-2.21.43-4.25,2.05-6.31,2.95-2.25.99-4.56,1.85-6.93,2.5-4.82,1.33-9.84,1.86-14.83,1.56-8.55-.51-22.25-4.22-21.25-15.32.42-4.63,3.82-8.56,6.96-11.92,2.01-.97,4.13-1.96,6.26-2.59,2.43-.72,4.7-.58,7.1.17,2.01.63,3.92,1.24,6.04,1.35,2.18.12,4.38-.15,6.54-.51,4.34-.72,8.61-2.05,12.55-4.02,8.26,5.64,20.28,4.57,29.13,1.09,4.82-1.9,9.52-4.57,13.82-7.78-.32.49-.63.98-.92,1.47-2.07,3.42-3.67,7.17-4.66,11.05-2.1,8.27-1.43,17.15,1.76,25.06,2.98,7.4,8.18,14.7,15.62,18.09,7.38,3.37,15.72,2.18,21.36-3.78,6.71-7.08,7.29-17.08,7.45-26.32,0-.29-.49-.38-.53-.07Z"/>
    <path d="M367.71,188.62c-.55-5.1-1.57-10.16-3.14-15.05-.76-2.38-1.62-4.77-2.68-7.03-.3-.64-.67-1.35-1.14-1.93.01-1.47-.02-2.93-.14-4.38-.02-.23-.39-.32-.43-.06-.18,1.18-.35,2.35-.52,3.53-.46-.23-.98-.32-1.6-.15-.52.14-.5.88,0,1.04.6.18,1.01.55,1.34,1-.77,5.61-1.48,11.21-2.79,16.75-.85,3.62-1.91,7.17-3.07,10.7-.66,2-1.6,4.03-2.34,6.07.24-1.11.44-2.22.58-3.35.37-3.01.33-6.06-.07-9.07-.81-6.11-3.11-11.9-6.88-16.78-.08-.1-.18-.19-.29-.26,0-.12-.02-.25-.03-.37-.01-.18-.28-.18-.28,0,0,.07,0,.15,0,.22-.57-.2-1.25-.05-1.39.67-.13.68-.15.99.13,1.6.09.2.37.28.56.23.03,0,.05-.02.08-.03.2.29.4.57.59.87-.08,5.95-.42,11.99-1.71,17.77-.65,2.93-1.54,5.79-2.89,8.48-.61,1.23-1.38,2.33-2.17,3.41.11-.53.22-1.06.32-1.58.48-2.4.81-4.84,1.01-7.28.41-5.06.17-10.16-.64-15.17-.81-4.97-2.28-9.8-4.32-14.4-1.88-4.23-4.4-8.35-7.97-11.36-1.84-1.55-3.94-2.81-6.22-3.59-2.59-.89-4.74-.8-7.38-.3-.1.02-.14.09-.16.17-.08-.12-.23-.18-.37-.09-5.75,3.86-11.57,7.84-14.83,14.17-3.47,6.72-3.39,14.63-2.84,21.99.51,6.89,2.23,14.25,7.84,18.81,4.94,4.01,11.65,4.93,16.9.94,6.74-5.14,8.18-14.69,9.21-22.54.12-.89-1.38-1.08-1.57-.21-1.39,6.46-2.49,14.31-7.17,19.33-2.06,2.2-4.81,3.77-7.88,3.8-2.94.03-5.79-1.25-8.03-3.1-5-4.15-6.62-10.82-7.17-17.02-.59-6.67-.76-14.08,2.15-20.27,2.93-6.23,8.61-11.04,13.75-15.43.05-.04.05-.09.06-.14.04.06.1.1.18.1,2.8-.13,6.11.89,8.57,2.17,2.56,1.33,4.74,3.26,6.53,5.52,3.53,4.46,5.63,10.05,7.08,15.5,1.52,5.71,2.26,11.59,2.12,17.5-.07,3.08-.37,6.16-.92,9.19-.51,2.83-1.53,5.63-1.79,8.49-.08.89,1.2,1.13,1.61.44.36-.6.64-1.24.9-1.9,1.88-1.49,3.27-3.81,4.38-5.84,1.5-2.75,2.61-5.74,3.33-8.78,1.38-5.85,1.17-11.74.75-17.66,2.29,3.88,3.83,8.18,4.49,12.65.41,2.79.46,5.64.17,8.44-.14,1.39-.38,2.77-.7,4.13-.31,1.32-1.03,2.78-.94,4.15.05.75.97,1.24,1.55.64.38-.39.64-.88.85-1.4-.05.27-.1.55-.13.82-.03.24.32.37.48.2,2.34-2.59,3.37-6.5,4.51-9.78,1.26-3.59,2.28-7.28,3.14-10.98,1.09-4.72,2.01-9.63,2.36-14.55.35.88.7,1.77,1.02,2.66.76,2.11,1.42,4.25,2,6.42,1.24,4.61,2.04,9.34,2.38,14.1.33,4.66.27,9.35-.21,14-.25,2.34-.61,4.66-1.09,6.96-.46,2.21-1.27,4.47-1.14,6.75.02.32.39.4.58.16,1.53-2.03,1.95-4.83,2.43-7.26.51-2.55.9-5.13,1.17-7.72.53-5.21.51-10.47-.05-15.68Z"/>
    <path d="M277.57,237.29c3.29-4.12,7.2-7.75,11.56-10.72-2.74,3.12-5.23,6.46-7.45,9.97,4.3-5.5,10.1-9.81,16.6-12.36-4.16,3.07-8.05,6.48-11.64,10.2,6.2-5.59,13.45-10.03,21.26-13-4.53,3.24-8.87,6.75-12.99,10.51,5.97-4.67,13.02-7.96,20.44-9.53-4.38,2.76-8.75,5.52-13.13,8.27,6.44-3.63,13.22-6.68,20.22-9.08-3.81,2.16-7.44,4.64-10.83,7.42,6.55-3.47,13.55-6.08,20.77-7.73-4.22,1.1-8.31,2.75-12.11,4.88,6.07-2.42,12.78-3.21,19.25-2.27-4.63.5-9.18,1.71-13.45,3.57,5.87-.62,11.87.09,17.43,2.05-3.98-1.25-8.35-1.19-12.29.15,5.35.02,10.7.94,15.75,2.72-3.06-.92-6.33-1.14-9.48-.62,4.23.45,8.37,1.82,12.03,3.99-7.03-2.45-14.72.06-21.73,2.55,3.74-1.46,7.49-2.91,11.23-4.37-6.85,1.18-13.54,3.25-19.86,6.15,4.97-3.08,10.2-5.73,15.63-7.9-7.62,1.47-15.02,4.06-21.89,7.67,4.46-3.5,9.3-6.5,14.42-8.94-7.41,2.38-14.5,5.74-21.03,9.97,3.94-3.59,8.32-6.69,13.02-9.2-6.95,2.42-13.54,5.89-19.46,10.26,4.12-3.82,8.6-7.24,13.38-10.19-6.16,2.85-12.17,6.04-17.98,9.56,2.93-2.87,5.86-5.75,8.79-8.62-5.35,3.77-10.7,7.54-16.05,11.3,2.82-3.63,5.97-7,9.41-10.05-5.02,3.38-9.86,7.03-14.49,10.93,2.43-3.38,5.14-6.56,8.09-9.5-4.26,3.45-8.52,6.9-12.77,10.35,2.09-2.77,4.19-5.54,6.28-8.31-3.19,3.09-6.38,6.19-9.57,9.28,1.03-3.16,2.77-6.1,5.06-8.52-2.48,2.59-4.96,5.18-7.44,7.77,1.81-4.06,3.63-8.12,5.44-12.18-.16,1.18-.31,2.36-.47,3.54,2.15-1.87,4.3-3.74,6.45-5.61"/>
    <path d="M212.89,227.11c3.96,2.99,7.44,6.61,10.25,10.7-5.73-5.62-12.38-10.28-19.62-13.74,4.66,2.82,9.01,6.17,12.92,9.96-6.22-4.26-12.84-7.94-19.74-10.98,4.14,2.02,7.92,4.78,11.12,8.09-5.37-3.71-11.36-6.53-17.63-8.31,5.42,2.16,10.64,4.79,15.61,7.85-6.37-3.06-13.13-5.3-20.06-6.65,5.42,1.72,10.64,4.05,15.54,6.93-7.47-2.47-15.16-4.23-22.96-5.26,5.85,1.21,11.57,3.09,17.01,5.57-7.21-2.23-14.73-3.48-22.28-3.7,5.18.02,10.35,1.13,15.08,3.22-7.03-1.13-14.16-1.62-21.28-1.48,5.61.63,11.15,1.79,16.55,3.45-7.35-.4-14.7-.8-22.05-1.21,5.18.15,10.33.86,15.36,2.09-5.76.27-11.53.55-17.29.82,4.49.58,8.98,1.16,13.47,1.74-6.67.31-13.33.63-20,.94,4.71.2,9.41.39,14.12.59-4.66.86-9.32,1.72-13.97,2.58,8.63-1.8,17.68-1.54,26.2.73-3.61-.18-7.19-1.15-10.4-2.82,5.91.92,11.76,2.25,17.49,3.98-3.84-1.72-7.67-3.44-11.51-5.16,6.33,1.52,12.44,3.97,18.06,7.26-3.37-3.82-7.66-6.83-12.39-8.7,5.84,1.81,11.47,4.29,16.75,7.37-4.22-3.17-8.72-5.98-13.42-8.37,5.97,2.13,11.76,4.8,17.26,7.96l-12.13-7.95c5.46,2.13,10.67,4.93,15.46,8.31-2.84-3.16-5.95-6.08-9.28-8.72,5.57,3.02,10.98,6.33,16.2,9.94-3.45-3.3-6.91-6.6-10.36-9.89,5.27,3.5,10.54,7.01,15.81,10.51-3.22-3.27-6.44-6.55-9.66-9.82,5.5,3.46,10.99,6.91,16.49,10.37-3.7-3.5-7.4-7-11.11-10.5,6.06,3.04,11.6,7.13,16.28,12.03-2.25-3.63-5.22-6.82-8.68-9.33,4.26,2.56,8.11,5.78,11.38,9.52-2.83-3.74-5.03-7.77-8.19-11.27s-6.55-6.3-10.41-8.67Z"/>
  </g>
</svg>