<?xml version="1.0" encoding="UTF-8"?>
<svg id="Layer_1" data-name="Layer 1" xmlns="http://www.w3.org/2000/svg" viewBox="0 0 400 48">
  <defs>
    <style>
      .cls-1 {
        fill: #000957;
      }
    </style>
  </defs>
  <g>
    <path class="cls-1" d="m31.38,17.98c.62.55.93,1.3.93,2.25s-.31,1.68-.93,2.19c-.63.52-1.59.77-2.91.76l-3.88-.03v-6.29l3.88.2c1.31.07,2.28.38,2.91.94Z"/>
    <path class="cls-1" d="m8.89,3.25v40.87l36.37-2.87V7.11L8.89,3.25Zm28.82,20.77c-.67,1.1-1.71,2-3.13,2.71-1.46.72-3.31,1.11-5.58,1.17l-4.41.11v9.01l-7.72.65V11.25l12.12,1.03c2.22.19,4.05.67,5.51,1.44,1.43.75,2.48,1.7,3.17,2.85.68,1.14,1.03,2.42,1.03,3.84,0,1.32-.33,2.52-.99,3.6Z"/>
  </g>
  <g>
    <path class="cls-1" d="m109.29,17.91c.58.52.87,1.19.87,2.01,0,.86-.29,1.52-.87,1.98-.59.47-1.49.7-2.72.68l-4.47-.06v-5.94l4.47.38c1.23.11,2.13.43,2.72.95Z"/>
    <path class="cls-1" d="m85.75,3.25v40.87l36.37-2.87V7.11l-36.37-3.86Zm23.92,31.36l-5.79-8.02-1.79.06v9.05l-8.41,1.22V10.5l13.28,1.92c2.13.31,3.85.86,5.22,1.63,1.32.75,2.27,1.63,2.89,2.67.61,1.02.91,2.12.91,3.29,0,1.33-.41,2.5-1.24,3.55-.85,1.07-2.15,1.87-3.94,2.38l5.37,7.72-6.5.94Z"/>
  </g>
  <path class="cls-1" d="m124.18,7.11v34.14l36.37,2.87V3.25l-36.37,3.86Zm28.35,9.42l-8.35.42v20.15l-6.94-.57v-19.23l-6.87.35v-4.44l22.16-1.83v5.16Z"/>
  <g>
    <path class="cls-1" d="m185.33,21.34c.84.8,1.25,1.91,1.25,3.34s-.43,2.55-1.29,3.34c-.88.82-1.97,1.26-3.27,1.32-1.34.06-2.47-.3-3.4-1.1-.94-.81-1.41-2-1.41-3.56s.48-2.78,1.43-3.58c.94-.78,2.09-1.14,3.45-1.08,1.3.06,2.37.5,3.23,1.31Z"/>
    <path class="cls-1" d="m162.61,3.25v40.87l36.37-2.87V7.11l-36.37-3.86Zm28.74,26.07c-.87,1.39-2.08,2.51-3.66,3.36-1.63.88-3.52,1.43-5.67,1.62-2.25.21-4.36,0-6.31-.67-2.01-.68-3.65-1.79-4.87-3.32-1.24-1.56-1.88-3.44-1.88-5.63s.64-4.03,1.9-5.61c1.24-1.54,2.88-2.65,4.91-3.33,1.96-.66,4.07-.87,6.32-.67,2.16.2,4.03.74,5.65,1.62,1.56.85,2.76,1.97,3.62,3.36.84,1.36,1.26,2.9,1.26,4.63s-.42,3.27-1.28,4.63Z"/>
  </g>
  <path class="cls-1" d="m201.04,7.11v34.14l36.37,2.87V3.25l-36.37,3.86Zm28.26,9.04l-12.2.69v5.82l8.94-.16v5.55l-8.94-.16v11.17l-6.45-.6V12.05l18.64-1.73v5.83Z"/>
  <path class="cls-1" d="m277.91,7.11v34.14l36.37,2.87V3.25l-36.37,3.86Zm19.06,31.07l-6.98-.51V11.25l6.98-.51v27.44Z"/>
  <g>
    <path class="cls-1" d="m60.98,21.34c-.84.8-1.25,1.91-1.25,3.34s.43,2.55,1.29,3.34c.88.82,1.97,1.26,3.27,1.32,1.34.06,2.47-.3,3.4-1.1.94-.81,1.41-2,1.41-3.56s-.48-2.78-1.43-3.58c-.94-.78-2.09-1.14-3.45-1.08-1.3.06-2.37.5-3.23,1.31Z"/>
    <path class="cls-1" d="m47.32,7.11v34.14s36.37,2.87,36.37,2.87V3.25s-36.37,3.86-36.37,3.86Zm6.35,17.58c0-1.73.42-3.27,1.26-4.63.86-1.38,2.06-2.5,3.62-3.36,1.62-.88,3.49-1.43,5.65-1.62,2.25-.2,4.36.01,6.32.67,2.03.68,3.68,1.79,4.91,3.33,1.26,1.58,1.9,3.46,1.9,5.61s-.63,4.07-1.88,5.63c-1.22,1.53-2.86,2.63-4.87,3.32-1.95.66-4.06.87-6.31.67-2.16-.19-4.04-.74-5.67-1.62-1.58-.85-2.79-1.97-3.66-3.36-.86-1.36-1.28-2.9-1.28-4.63Z"/>
  </g>
  <g>
    <path class="cls-1" d="m262.19,21.34c.84.8,1.25,1.91,1.25,3.34s-.43,2.55-1.29,3.34c-.88.82-1.97,1.26-3.27,1.32-1.34.06-2.47-.3-3.4-1.1-.94-.81-1.41-2-1.41-3.56s.48-2.78,1.43-3.58c.94-.78,2.09-1.14,3.45-1.08,1.3.06,2.37.5,3.23,1.31Z"/>
    <path class="cls-1" d="m239.48,3.25v40.87l36.37-2.87V7.11l-36.37-3.86Zm28.74,26.07c-.87,1.39-2.08,2.51-3.66,3.36-1.63.88-3.52,1.43-5.67,1.62-2.25.21-4.36,0-6.31-.67-2.01-.68-3.65-1.79-4.87-3.32-1.24-1.56-1.88-3.44-1.88-5.63s.64-4.03,1.9-5.61c1.24-1.54,2.88-2.65,4.91-3.33,1.96-.66,4.07-.87,6.32-.67,2.16.2,4.03.74,5.65,1.62,1.56.85,2.76,1.97,3.62,3.36.84,1.36,1.26,2.9,1.26,4.63s-.42,3.27-1.28,4.63Z"/>
  </g>
  <path class="cls-1" d="m316.34,3.25v40.87s36.37-2.87,36.37-2.87V7.11s-36.37-3.86-36.37-3.86Zm17.31,7.49l6.98.51v26.42s-6.98.51-6.98.51V10.73Z"/>
  <g>
    <path class="cls-1" d="m368.43,21.34c-.84.8-1.25,1.91-1.25,3.34,0,1.43.43,2.55,1.29,3.34.88.82,1.97,1.26,3.27,1.32,1.34.06,2.47-.3,3.4-1.1.94-.81,1.41-2,1.41-3.56s-.48-2.78-1.43-3.58c-.94-.78-2.09-1.14-3.45-1.08-1.3.06-2.37.5-3.23,1.31Z"/>
    <path class="cls-1" d="m354.77,7.11v34.14s36.37,2.87,36.37,2.87V3.25s-36.37,3.86-36.37,3.86Zm6.35,17.58c0-1.73.42-3.27,1.26-4.63.86-1.38,2.06-2.5,3.62-3.36,1.62-.88,3.49-1.43,5.65-1.62,2.25-.2,4.36.01,6.32.67,2.03.68,3.68,1.79,4.91,3.33,1.26,1.58,1.9,3.46,1.9,5.61s-.63,4.07-1.88,5.63c-1.22,1.53-2.86,2.63-4.87,3.32-1.95.66-4.06.87-6.31.67-2.16-.19-4.04-.74-5.67-1.62-1.58-.85-2.79-1.97-3.66-3.36-.86-1.36-1.28-2.9-1.28-4.63Z"/>
  </g>
</svg>